<svg width="89" height="80" xmlns="http://www.w3.org/2000/svg"><g fill-rule="nonzero" fill="none"><ellipse fill="#785550" cx="26.55" cy="9.029" rx="8.883" ry="7.402"/><path d="M23.59 9.028c0-3.222 2.474-5.955 5.922-6.972a10.452 10.452 0 00-2.96-.43c-4.906 0-8.883 3.314-8.883 7.402s3.977 7.402 8.882 7.402c1.04 0 2.034-.157 2.96-.43-3.447-1.018-5.92-3.75-5.92-6.972z" fill="#694B4B"/><circle fill="#5A4146" cx="26.55" cy="28.273" r="19.245"/><path d="M22.797 24.07c.127.04.197.057.197.057l1.879 23.305c.554.048 1.111.085 1.678.085 10.629 0 19.245-8.616 19.245-19.245 0-5.027-1.55-8.211-3.532-11.088-3.485-4.929-9.217-8.156-15.713-8.156-.994 0-1.964.099-2.917.244-7.594 1.432-8.543 12.446-.837 14.799z" fill="#694B4B"/><path d="M1.385 78.605v-9.466a5.921 5.921 0 013.53-5.416l12.47-5.508a2.96 2.96 0 001.764-2.708v-6.51h14.804v6.51c0 1.172.692 2.234 1.764 2.708l12.471 5.508a5.921 5.921 0 013.53 5.416v9.466H1.384z" fill="#E6AF78"/><path d="M19.15 54.92c2.278.95 4.777 1.48 7.401 1.48 2.624 0 5.123-.53 7.402-1.48v-5.923H19.15v5.922z" fill="#D29B6E"/><path d="M48.188 63.723L38.99 59.66c-1.913 5.014-6.753 8.582-12.439 8.582s-10.526-3.568-12.439-8.582l-9.198 4.063a5.921 5.921 0 00-3.529 5.416v9.466h50.332v-9.466a5.921 5.921 0 00-3.529-5.416z" fill="#FFF082"/><path d="M39.862 31.234c-2.377-2.067-7.714-5.722-16.868-7.107-1.267-.191-2.545.432-3.108 1.583-.94 1.918-2.937 4.988-6.904 7.694-.787.537-1.234 1.45-1.234 2.403v.84c0 7.885 5.95 14.77 13.818 15.28 8.622.557 15.789-6.27 15.789-14.772v-2.597a4.392 4.392 0 00-1.493-3.324z" fill="#ECA858"/><path d="M41.355 34.194c-.228-.374-1.155-2.666-1.493-2.96-2.377-2.067-7.714-5.723-16.869-7.107-1.266-.191-2.544.432-3.108 1.583-.226.462-.53 1.001-.892 1.576-1.137 1.806-2.99 4.052-5.987 6.101a2.93 2.93 0 00-1.259 2.42v.84c0 7.61 5.548 14.27 13.008 15.185a14.741 14.741 0 01-4.125-10.236v-9.307a2.955 2.955 0 012.659-2.948c3.558-.36 13.625 1.892 18.066 4.853z" fill="#E69A4E"/><g fill="#FFDC64"><path d="M3.6 64.535a5.913 5.913 0 00-2.215 4.604v9.465h10.363v-4.081a4.441 4.441 0 00-1.301-3.14l-6.848-6.848zM49.503 64.535a5.913 5.913 0 012.214 4.604v9.465H41.355v-4.081c0-1.178.468-2.308 1.3-3.14l6.848-6.848z"/></g><path d="M48.748 62.456l-12.47-5.508a1.577 1.577 0 01-.94-1.441v-4.762a16.26 16.26 0 006.688-8.831 20.59 20.59 0 005.155-13.641c0-7.686-4.226-14.403-10.475-17.952.074-.427.112-.86.112-1.293 0-4.845-4.605-8.787-10.267-8.787-5.661 0-10.267 3.942-10.267 8.787 0 .433.041.865.115 1.292C10.148 13.868 5.92 20.586 5.92 28.273c0 5.04 1.83 9.87 5.156 13.641a16.26 16.26 0 006.687 8.83v4.763c0 .623-.368 1.189-.939 1.44l-12.47 5.509A7.31 7.31 0 000 69.139v9.465a1.385 1.385 0 002.77 0V69.14a4.539 4.539 0 012.704-4.15l7.918-3.497a14.691 14.691 0 0013.16 8.135 14.657 14.657 0 0013.16-8.134l7.917 3.496a4.539 4.539 0 012.703 4.15v9.465a1.385 1.385 0 102.77 0V69.14a7.31 7.31 0 00-4.354-6.683zM19.054 9.028c0-3.318 3.363-6.017 7.497-6.017s7.497 2.7 7.497 6.017v.025a20.524 20.524 0 00-7.497-1.41c-2.643 0-5.171.5-7.496 1.41l-.001-.025zm-5.921 28.127v-1.159c0-.532.295-1.02.789-1.304 1.732-.997 4.015-2.845 5.061-5.982a1.385 1.385 0 10-2.628-.875c-.77 2.31-2.5 3.699-3.815 4.456-1.293.744-2.112 2.087-2.172 3.535a17.822 17.822 0 01-1.677-7.553c0-9.848 8.012-17.86 17.86-17.86 9.848 0 17.86 8.012 17.86 17.86 0 2.63-.581 5.197-1.671 7.537v-1.252c0-1.688-.718-3.28-1.97-4.369-2.783-2.42-9.082-6.644-20.003-7.736a1.384 1.384 0 10-.275 2.757c10.157 1.015 15.926 4.865 18.46 7.07a3.008 3.008 0 011.018 2.278v2.597c0 7.398-6.02 13.418-13.42 13.418-7.398 0-13.417-6.02-13.417-13.418zM26.55 66.857a11.926 11.926 0 01-10.623-6.485l2.016-.89a4.348 4.348 0 002.59-3.975v-3.324a16.104 16.104 0 006.017 1.16c2.125 0 4.156-.412 6.017-1.16v3.324c0 1.72 1.016 3.28 2.59 3.975l2.015.89a11.896 11.896 0 01-10.622 6.485z" fill="#000"/><path d="M11.748 71.298c-.765 0-1.385.62-1.385 1.385v5.921a1.385 1.385 0 002.77 0v-5.92c0-.766-.62-1.386-1.385-1.386zM41.355 71.298c-.765 0-1.385.62-1.385 1.385v5.921a1.385 1.385 0 002.77 0v-5.92c0-.766-.62-1.386-1.385-1.386z" fill="#000"/><path d="M83.23 15.476H56.143c-2.04 0-3.694 1.705-3.694 3.807v20.302c0 2.102 1.654 3.807 3.694 3.807h3.694l-2.052 8.457c-.14.575.494 1.015.96.667l12.172-9.124H83.23c2.04 0 3.694-1.705 3.694-3.807V19.283c0-2.102-1.653-3.807-3.693-3.807z" fill="#E2E7F2"/><g transform="translate(57.737 7.053)"><path d="M24.032 10.637a14.15 14.15 0 00-1.3-5.947H1.694a14.15 14.15 0 00-1.3 5.947c0 7.227 5.291 13.085 11.818 13.085 6.527 0 11.819-5.858 11.819-13.085z" fill="#ECF0FA"/><ellipse fill="#FFDC64" cx="12.213" cy="10.638" rx="8.595" ry="9.516"/><ellipse fill="#FFF082" cx="12.213" cy="10.638" rx="5.372" ry="5.947"/><path d="M8.99 19.458v4.264c0 .657.481 1.19 1.074 1.19h4.298c.593 0 1.074-.533 1.074-1.19v-4.264H8.99z" fill="#AFB9D2"/><path d="M8.99 19.458v4.264c0 .657.481 1.19 1.074 1.19h2.15v-5.454H8.99z" fill="#959CB5"/><path d="M7.985 20.177v3.545c0 1.27.933 2.302 2.08 2.302h1.143v.077c0 .614.45 1.113 1.005 1.113.556 0 1.006-.499 1.006-1.113v-.077h1.143c1.147 0 2.08-1.033 2.08-2.302v-3.545c3.179-1.734 5.372-5.358 5.372-9.54 0-5.86-4.307-10.629-9.6-10.629-5.294 0-9.601 4.769-9.601 10.63 0 4.18 2.193 7.805 5.372 9.539zm2.573-7.237h3.31l-1.405 6.093c-.083.003-.166.007-.25.007-.084 0-.166-.004-.25-.007l-1.405-6.093zm3.873 10.782c0 .042-.03.076-.069.076h-4.298c-.038 0-.069-.034-.069-.076v-2.745c.713.187 1.455.29 2.218.29.764 0 1.506-.103 2.218-.29v2.745zM12.213 2.234c4.185 0 7.59 3.77 7.59 8.403 0 3.695-2.166 6.838-5.165 7.961l1.772-7.685c.138-.596-.187-1.202-.725-1.354-.538-.152-1.085.207-1.223.803l-.08.353-.02-.001h-4.297l-.02.001-.08-.353c-.138-.595-.686-.955-1.224-.803-.538.152-.862.758-.725 1.354l1.773 7.685c-3-1.123-5.165-4.266-5.165-7.96 0-4.634 3.404-8.404 7.59-8.404z" fill="#000"/></g><path d="M83.26 14.29c-.638 0-1.155.53-1.155 1.186 0 .656.517 1.188 1.154 1.188 1.405 0 2.547 1.175 2.547 2.619v20.302c0 1.444-1.142 2.62-2.547 2.62H70.922c-.244 0-.482.079-.679.227L59.242 50.66l1.697-6.981c.086-.355.008-.73-.21-1.02a1.143 1.143 0 00-.91-.456h-3.701c-1.405 0-2.547-1.175-2.547-2.619V19.283c0-1.444 1.142-2.62 2.547-2.62.637 0 1.154-.53 1.154-1.187 0-.655-.517-1.187-1.154-1.187-2.678 0-4.856 2.24-4.856 4.994v20.302c0 2.754 2.178 4.994 4.856 4.994h2.222l-1.697 6.982a1.829 1.829 0 00.728 1.952c.303.21.648.315.991.315.364 0 .728-.118 1.041-.352l11.894-8.897H83.26c2.678 0 4.856-2.24 4.856-4.994V19.283c0-2.754-2.178-4.994-4.856-4.994z" fill="#000"/><g fill="#202121"><path d="M75.375 7.542c.265 0 .53-.101.733-.303l2.065-2.065a1.035 1.035 0 10-1.464-1.464l-2.066 2.065a1.035 1.035 0 00.732 1.767zM69.254 5.007c.572 0 1.035-.464 1.035-1.036v-2.92a1.035 1.035 0 10-2.07 0v2.92c0 .572.463 1.036 1.035 1.036zM62.4 7.239a1.033 1.033 0 001.465 0 1.035 1.035 0 000-1.464L61.8 3.71a1.035 1.035 0 00-1.464 1.464L62.4 7.239z"/></g></g></svg>