<svg width="80" height="80" xmlns="http://www.w3.org/2000/svg"><g fill-rule="nonzero" fill="none"><path d="M57.535 6.182h-30.06a3.757 3.757 0 00-3.758 3.758v20.04a3.757 3.757 0 003.758 3.757h10.02l10.07 6.714a.626.626 0 00.965-.624l-1.015-6.09h10.02a3.757 3.757 0 003.758-3.757V9.94a3.758 3.758 0 00-3.758-3.758z" fill="#C7CFE2"/><path d="M28.575 59.485c-1.308-3.466-2.346-9.424-2.57-12.527-.426-5.903-4.875-10.715-10.89-10.715-6.013 0-10.462 4.812-10.888 10.715-.224 3.103-1.262 9.061-2.57 12.527a1.525 1.525 0 00.797 1.948c1.401.636 4.39 1.88 7.995 2.365h9.333c3.588-.486 6.598-1.731 7.996-2.365a1.525 1.525 0 00.797-1.948z" fill="#5A4146"/><path d="M27.778 61.433a1.525 1.525 0 00.797-1.948c-1.308-3.466-2.346-9.425-2.57-12.527-.426-5.903-4.875-10.716-10.89-10.716h-.045c-4.614.02-6.245 6.313-2.273 8.66.24.142.392.21.392.21l3.48 18.686h3.113c3.588-.486 6.598-1.731 7.996-2.365z" fill="#694B4B"/><path d="M26.189 66.871l-4.954-2.477a3.062 3.062 0 01-1.693-2.738v-4.593h-9.185v4.593c0 1.16-.655 2.22-1.692 2.738L3.71 66.871a4.592 4.592 0 00-2.539 4.108v7.85h27.555v-7.85c0-1.74-.982-3.33-2.538-4.108z" fill="#E6AF78"/><path d="M14.95 63.186c1.648 0 3.227-.34 4.674-.944-.038-.193-.082-.385-.082-.587v-4.592h-9.185v4.593c0 .202-.044.395-.082.588 1.448.602 3.026.942 4.675.942z" fill="#D29B6E"/><path d="M26.189 66.871l-3.53-1.764a9.17 9.17 0 01-15.419 0L3.71 66.87a4.593 4.593 0 00-2.538 4.108v7.85h27.555v-7.85c0-1.74-.982-3.33-2.538-4.108z" fill="#7ED321"/><path d="M14.95 60.125c-4.67 0-8.526-3.485-9.11-7.997-.084-.653.23-1.294.819-1.591a12.783 12.783 0 002.71-1.83 8.84 8.84 0 002.094-2.756c.312-.65 1.028-1.017 1.726-.84 5.39 1.376 9.06 4.18 10.39 5.325.358.307.564.76.527 1.23a9.186 9.186 0 01-9.156 8.459z" fill="#F0C087"/><path d="M23.58 50.436c-1.331-1.145-5-3.95-10.39-5.324-.7-.178-1.415.19-1.727.839a8.761 8.761 0 01-1.399 2.042v.005a8.2 8.2 0 01-.696.709 12.773 12.773 0 01-2.71 1.83c-.588.297-.902.938-.817 1.591.523 4.052 3.694 7.252 7.716 7.867-1.833-1.247-3.2-2.937-3.2-5.994v-2.183c.348-.256.698-.513 1.05-.827.851-.759 1.594-1.637 2.19-2.583 7.615 1.612 10.069 5.328 10.069 5.328.215-.664.384-1.348.44-2.07.037-.47-.169-.923-.526-1.23z" fill="#E6AF78"/><g fill="#7ED321"><path d="M27.794 68.22c.59.782.933 1.742.933 2.76v7.848h-5.01v-5.432c0-.657.258-1.287.718-1.755l3.36-3.422zM2.105 68.22a4.58 4.58 0 00-.933 2.759v7.85h5.01v-5.433c0-.657-.257-1.287-.717-1.755l-3.36-3.422z"/></g><path d="M53.934 43.131v.99c0 1.21.196 2.414.579 3.564l2.24 6.719h4.227v-15.5h-2.818a4.228 4.228 0 00-4.228 4.227z" fill="#5A4146"/><path d="M73.228 46.058l-2.384 8.346L59.57 44.54a2.818 2.818 0 01-2.818-2.818 4.227 4.227 0 014.227-4.227h12.682v5.467c0 1.047-.146 2.09-.434 3.096z" fill="#694B4B"/><path fill="#E6AF78" d="M59.289 58.788h9.018v7.905h-9.018z"/><path d="M59.289 62.801c1.394.567 2.914.886 4.509.886 1.595 0 3.115-.32 4.509-.886v-4.013h-9.018V62.8z" fill="#D29B6E"/><path d="M75.558 65.758l-7.251-2.071-4.509 2.992-4.51-2.992-7.25 2.071a4.51 4.51 0 00-3.27 4.336v8.734h30.06v-8.734a4.51 4.51 0 00-3.27-4.336z" fill="#00AAF0"/><path d="M63.798 60.04a8.454 8.454 0 01-8.454-8.454v-1.651c0-.748.296-1.464.825-1.993l2.555-2.555a2.785 2.785 0 012.046-.828c4.504.142 8.491 1.107 10.67 3.236.534.52.813 1.25.813 1.995v1.796a8.455 8.455 0 01-8.455 8.454z" fill="#F0C087"/><path d="M59.57 51.273c0-1.626 1.362-2.814 2.988-2.814 2.492 0 7.503.309 9.655 1.902-.084-.594-.34-2.144-.773-2.566-2.179-2.13-6.166-3.094-10.67-3.236a2.785 2.785 0 00-2.046.828l-3.38 3.38v2.819c0 3.855 2.583 7.102 6.111 8.118a8.384 8.384 0 01-1.885-5.3v-3.131z" fill="#E6AF78"/><g fill="#0096DC"><path d="M54.78 74.572a4.509 4.509 0 00-1.32-3.188l-3.87-3.87a4.49 4.49 0 00-.822 2.58v8.734h6.012v-4.256zM72.816 74.572c0-1.196.475-2.342 1.32-3.188l3.87-3.87a4.49 4.49 0 01.822 2.58v8.734h-6.012v-4.256z"/></g><path d="M52.525 1.172h-35.07a3.757 3.757 0 00-3.758 3.757v20.04a3.757 3.757 0 003.758 3.758h13.778l-2.088 8.348a.626.626 0 00.976.659l12.384-9.007h10.02a3.757 3.757 0 003.758-3.757V4.93a3.757 3.757 0 00-3.758-3.758z" fill="#E2E7F2"/><path d="M27.175 66.721l-4.667-2.333c3.12-.89 5.085-2.043 6.064-2.73a2.406 2.406 0 00.857-2.905c-.926-2.234-2.015-6.486-2.034-11.118-.027-6.437-4.978-11.933-11.272-12.51a12.854 12.854 0 00-2.347 0c-6.293.577-11.245 6.073-11.271 12.51-.02 4.632-1.108 8.884-2.035 11.118a2.406 2.406 0 00.858 2.906c.978.686 2.942 1.839 6.064 2.729L2.725 66.72A4.903 4.903 0 000 71.131v7.697a1.172 1.172 0 102.344 0V71.13c0-.985.548-1.872 1.43-2.313l3.699-1.85a8.723 8.723 0 007.477 4.265 8.67 8.67 0 007.477-4.264l3.7 1.85a2.572 2.572 0 011.428 2.312v7.698a1.172 1.172 0 102.344 0V71.13a4.903 4.903 0 00-2.724-4.409zm-24.54-7.07c1.008-2.43 2.193-7.033 2.214-12.006.021-5.243 4.037-9.718 9.142-10.186.637-.059 1.28-.059 1.918 0 5.104.468 9.12 4.943 9.142 10.186.02 4.973 1.205 9.575 2.214 12.006.017.042-.017.074-.038.089-1.035.724-3.348 2.05-7.299 2.868a1.342 1.342 0 01-.049-.358v-2.351a9.952 9.952 0 003.718-3.722c1.644-2.892 1.05-6.626-1.413-8.878-1.726-1.579-4.817-3.46-9.74-3.46-.31 0-.608.123-.828.343l-2.505 2.504a1.172 1.172 0 101.657 1.658l2.156-2.156c3.131.088 5.713 1.042 7.679 2.84 1.662 1.52 2.065 4.04.956 5.99a7.618 7.618 0 01-6.61 3.85c-4.188 0-7.595-3.407-7.595-7.596a1.172 1.172 0 10-2.344 0c0 3.688 2.02 6.91 5.01 8.626v2.352c0 .123-.017.243-.049.358-3.951-.819-6.264-2.144-7.298-2.868-.022-.016-.055-.047-.038-.089zM14.95 68.89a6.369 6.369 0 01-5.372-2.974l.754-.377a3.657 3.657 0 002.032-3.288v-1.38a9.916 9.916 0 005.171-.002v1.382c0 1.401.78 2.661 2.033 3.288l.757.379a6.333 6.333 0 01-5.375 2.972z" fill="#000"/><path d="M6.182 72.646c-.647 0-1.172.525-1.172 1.172v5.01a1.172 1.172 0 102.344 0v-5.01c0-.647-.525-1.172-1.172-1.172zM23.717 72.646c-.647 0-1.172.525-1.172 1.172v5.01a1.172 1.172 0 102.344 0v-5.01c0-.647-.524-1.172-1.172-1.172zM59.96 46.263v-.265c2.51-.359 4.496-.065 5.772.27 1.536.405 2.402.954 2.43.973a1.17 1.17 0 001.295-1.953c-.169-.114-4.237-2.76-10.899-1.427-.548.11-.942.59-.942 1.15v1.252a1.172 1.172 0 102.344 0z" fill="#000"/><path d="M76.802 65.544l-5.957-2.234a1.34 1.34 0 01-.865-1.248v-3.005c.255-.203.502-.42.74-.65a9.86 9.86 0 003.017-7.134v-2.229l.336-.67c.6-1.2.917-2.544.917-3.886v-6.993c0-.647-.525-1.172-1.172-1.172H60.767c-4.5 0-8.161 3.66-8.161 8.165a8.73 8.73 0 00.917 3.885l.335.671v1.86c0 3.224 1.475 6.139 3.758 8.04v3.118a1.34 1.34 0 01-.865 1.248l-5.956 2.234a4.952 4.952 0 00-3.2 4.615v8.67a1.172 1.172 0 102.345 0v-8.67c0-1.071.674-2.044 1.677-2.42l5.957-2.234c.322-.121.619-.287.888-.487l4.164 3.123v10.687a1.172 1.172 0 102.344 0V68.141l4.164-3.123c.269.2.565.366.888.487l5.956 2.233a2.598 2.598 0 011.678 2.422v8.668a1.172 1.172 0 102.344 0V70.16a4.952 4.952 0 00-3.198-4.616zm-20.6-14.639v-2.138a1.17 1.17 0 00-.124-.524l-.459-.918a6.379 6.379 0 01-.67-2.841 5.824 5.824 0 015.818-5.817h11.88v5.821c0 .98-.232 1.961-.67 2.837l-.46.918a1.171 1.171 0 00-.123.524v2.505c0 2.073-.82 4.009-2.307 5.452a7.54 7.54 0 01-5.524 2.14c-4.059-.12-7.36-3.692-7.36-7.959zm7.291 10.303a9.906 9.906 0 004.143-.762v1.616c0 .356.054.704.153 1.035l-3.991 2.994-3.991-2.993c.098-.332.153-.68.153-1.036v-1.66a9.438 9.438 0 003.533.806z" fill="#000"/><path d="M55.03 71.394c-.647 0-1.172.524-1.172 1.171v6.263a1.172 1.172 0 102.344 0v-6.263c0-.647-.524-1.171-1.172-1.171zM72.566 71.394c-.648 0-1.172.524-1.172 1.171v6.263a1.172 1.172 0 102.343 0v-6.263c0-.647-.524-1.171-1.171-1.171zM48.889 41.44c.602-.39.915-1.099.797-1.806L48.9 34.91h8.636a4.935 4.935 0 004.93-4.929V9.94a4.935 4.935 0 00-4.93-4.93h-.08v-.08A4.935 4.935 0 0052.525 0h-35.07a4.935 4.935 0 00-4.93 4.93v20.04a4.935 4.935 0 004.93 4.93h5.09v.08a4.935 4.935 0 004.93 4.93h1.004l-.47 1.88a1.78 1.78 0 00.738 1.928c.309.207.658.31 1.007.31.37 0 .738-.115 1.057-.347l5.187-3.772h1.142l9.775 6.516a1.796 1.796 0 001.974.015zm-21.414-8.875a2.589 2.589 0 01-2.586-2.585v-.08h4.843l-.667 2.665h-1.59zm3.172 3.338l1.722-6.891a1.172 1.172 0 00-1.136-1.457H17.455a2.589 2.589 0 01-2.586-2.585V4.93a2.589 2.589 0 012.586-2.586h35.07a2.589 2.589 0 012.586 2.585v20.04a2.589 2.589 0 01-2.586 2.586h-10.02c-.248 0-.489.079-.69.225l-11.168 8.123zm15.712-1.973l.808 4.847-8.602-5.735 4.321-3.143h9.64a4.935 4.935 0 004.929-4.93V7.355h.08a2.589 2.589 0 012.586 2.585v20.04a2.589 2.589 0 01-2.586 2.586h-10.02a1.172 1.172 0 00-1.156 1.365z" fill="#000"/><path d="M22.465 9.859h3.757a1.172 1.172 0 100-2.344h-3.757a1.172 1.172 0 100 2.344zM31.233 9.859h16.282a1.172 1.172 0 100-2.344H31.233a1.172 1.172 0 100 2.344zM22.465 16.122h25.05a1.172 1.172 0 100-2.344h-25.05a1.172 1.172 0 100 2.344zM38.747 20.04H22.465a1.172 1.172 0 100 2.344h16.282a1.172 1.172 0 100-2.344zM47.515 20.04h-3.757a1.172 1.172 0 100 2.344h3.757a1.172 1.172 0 100-2.344z" fill="#000"/></g></svg>