<svg xmlns="http://www.w3.org/2000/svg" width="90" height="80"><g fill="none"><path fill="#a0e5a5" d="M82.433 65.497c-1.326 1.835-2.737 3.644-3.605 5.733-.493 1.188-.804 2.456-1.434 3.576-3.732 5.184-14.547 4.032-18.182-.856-2.527-3.597-.092-7.813-3.706-11.239-.103-.097-2.52-2.345-4.056-1.622-1.927.91-.919 5.787-1.969 6.024-1.06.24-1.63-4.835-5.446-7.3-3.242-2.092-8.082-1.467-11.665-.731-4.98.903-6.285 3.115-9.711 6.054-2.678 1.547-4.437-1.922-7.125-1.614-2.936.335-3.275 3.617-6.374 3.939-5.198.07-6.319-3.526-3.953-7.698.898-2.46.711-5.275-.424-7.624-1.136-2.348-2.598-3.964-2.92-6.692-.104-.861-.755-7.057 2.895-10.543 3.087-2.947 5.94-.8 10.6-3.54 2.796 4.638 5.592 9.278 8.389 13.915 4.24-7.03 8.477-14.061 12.716-21.092a14.7 14.7 0 0 0 1.673-3.937c.308-1.203.455-2.412.455-3.605-.02-.109.023-.196.096-.274 2.242-2.954 6.828-4.288 9.898-1.731 2.292 1.906 2.603 5.057 4.144 7.45.407.632.897 1.21 1.533 1.697 1.853 1.426 4.79 1.9 6.64.219 2.218-2.018.468-6.655.943-9.328.14-.788.817-5.013 2.118-4.917.741.056.303 2.823 2.201 6.026 1.384 2.332 2.308 2.028 3.709 4.402 2.322 5.804.735 5.574 6.038 10.386 2.673 2.805 4.047 6.215 6.119 9.4 1.282 1.97 3.3 3.432 4.295 5.589 3.217 6.966.276 14.16-3.892 19.933z"/><path fill="#ff7d97" d="M23.747 1.814c-9.921 0-16.704 9.39-14.39 18.437.355 1.388.933 2.709 1.674 3.937 4.237 7.03 8.477 14.06 12.716 21.091 4.237-7.03 8.477-14.06 12.716-21.091a14.724 14.724 0 0 0 1.673-3.937c.308-1.204.455-2.413.455-3.604 0-7.775-6.243-14.833-14.844-14.833zm0 20.606a5.762 5.762 0 1 1 0-11.525 5.762 5.762 0 0 1 0 11.525z"/><path fill="#000" d="M31.255 16.658c0-4.14-3.368-7.508-7.508-7.508-4.14 0-7.508 3.368-7.508 7.508 0 4.14 3.368 7.508 7.508 7.508 4.14 0 7.508-3.368 7.508-7.508zm-11.523 0c0-2.214 1.8-4.015 4.015-4.015s4.014 1.801 4.014 4.015a4.02 4.02 0 0 1-4.014 4.015 4.02 4.02 0 0 1-4.015-4.015z"/><path fill="#00aaf0" d="M23.747 1.814c-9.921 0-16.704 9.39-14.39 18.437.355 1.388.933 2.709 1.674 3.937 4.237 7.03 8.477 14.06 12.716 21.091 4.237-7.03 8.477-14.06 12.716-21.091a14.724 14.724 0 0 0 1.673-3.937c.308-1.204.455-2.413.455-3.604 0-7.775-6.243-14.833-14.844-14.833zm0 20.606a5.762 5.762 0 1 1 0-11.525 5.762 5.762 0 0 1 0 11.525z"/><path fill="#000" d="M31.255 16.658c0-4.14-3.368-7.508-7.508-7.508-4.14 0-7.508 3.368-7.508 7.508 0 4.14 3.368 7.508 7.508 7.508 4.14 0 7.508-3.368 7.508-7.508zm-11.523 0c0-2.214 1.8-4.015 4.015-4.015s4.014 1.801 4.014 4.015a4.02 4.02 0 0 1-4.014 4.015 4.02 4.02 0 0 1-4.015-4.015z"/><path fill="#000" d="M87.91 44.832c-1.057-2.347-3.07-3.82-4.416-5.81-.715-1.11-1.686-3.51-3.49-2.448-3.167 2.32 3.945 7.39 4.735 9.722 2.434 5.27 1.182 11.386-3.722 18.178-2.25 2.712-3.902 6.05-5.098 9.389-1.218 1.62-3.572 2.56-6.48 2.582h-.103c-3.581 0-7.146-1.438-8.708-3.519-.85-1.222-.954-2.61-1.075-4.217-.165-2.192-.37-4.92-2.846-7.266-.56-.531-3.485-3.12-6.003-1.934-1.2.567-1.756 1.681-2.039 2.877-.814-1.415-1.953-2.923-3.683-4.04-3.824-2.469-9.214-1.743-12.944-.98-4.43.809-6.384 2.635-8.646 4.75a60.797 60.797 0 0 1-1.73 1.573c-.466.223-.845.092-2.092-.643-1.103-.65-2.478-1.46-4.235-1.26-2.086.239-3.24 1.48-4.166 2.478-.81.872-1.282 1.342-2.117 1.451-.93.004-2.48-.14-3.033-1.077-.502-.847-.237-2.348.707-4.013.048-.084.089-.172.122-.263 1.052-2.883.873-6.157-.493-8.984-.364-.753-.747-1.415-1.117-2.055-.814-1.407-1.456-2.518-1.641-4.084-.075-.625-.645-6.195 2.367-9.072 1.17-1.116 2.245-1.226 3.873-1.393 1.353-.138 2.97-.306 4.86-1.12l7.554 12.527a1.747 1.747 0 0 0 2.991 0L37.96 25.09a16.448 16.448 0 0 0 1.87-4.406 16.44 16.44 0 0 0 .504-3.551c1.012-1.101 2.473-1.865 3.93-2.031 5.597-.707 5.079 7.656 8.934 10.07 2.369 1.822 6.285 2.485 8.88.126 3.04-2.787.975-7.41 1.565-10.75.48 1.566 2.171 4.016 3.202 4.724.515.456.926.819 1.458 1.694 1.25 2.93 1.096 4.507 2.705 6.974 1.27 1.88 4.188-.146 2.871-1.99-1.253-2.036-1.23-3.967-2.501-6.649-1.43-2.494-2.38-2.263-3.71-4.404-1.821-2.408-.675-6.452-3.575-6.878-2.824-.21-3.583 4.149-3.948 6.242l-.02.112c-.209 1.179-.083 2.533.039 3.843.165 1.772.351 3.781-.437 4.498-1.146 1.042-3.136.66-4.401-.313-2.767-2.445-2.452-6.611-5.622-9.103-1.589-1.323-3.66-1.914-5.835-1.667a9.79 9.79 0 0 0-3.934 1.365 16.726 16.726 0 0 0-3.114-6.544C33.67 2.394 28.904.067 23.747.067c-5.158 0-9.923 2.327-13.073 6.385-3.179 4.094-4.276 9.281-3.01 14.232a16.445 16.445 0 0 0 1.87 4.406l3.338 5.536c-1.205.448-2.276.559-3.391.673-1.825.187-3.895.399-5.93 2.342C-.496 37.507-.092 43.813.128 45.652c.27 2.278 1.194 3.875 2.087 5.42.338.585.688 1.19.996 1.827.923 1.91 1.07 4.195.4 6.14-1.546 2.799-1.76 5.414-.598 7.377.77 1.301 2.46 2.842 6.171 2.791.053 0 .105-.004.157-.009 2.227-.23 3.476-1.575 4.388-2.556.79-.85 1.237-1.297 2.004-1.385.595-.066 1.276.334 2.065.799 2.803 1.93 5.398 1.57 7.98-1.388 2.166-2.024 3.472-3.245 6.905-3.868l.04-.007c3.13-.643 7.61-1.291 10.366.488 1.871 1.209 2.835 3.299 3.54 4.825.275.599.514 1.116.784 1.532.885 1.364 2.01 1.279 2.455 1.179.632-.143 1.45-.612 1.76-2.034.112-.508.156-1.091.204-1.708.046-.594.149-1.93.39-2.378.445.064 1.416.654 2.083 1.282 1.496 1.418 1.615 2.995 1.765 4.992.14 1.86.299 3.97 1.714 5.983l.028.038c2.24 3.013 6.75 4.947 11.518 4.947h.137c4.08-.032 7.487-1.531 9.346-4.113.78-1.257 1.095-2.631 1.629-3.926.77-1.866 2.142-3.629 3.408-5.38 2.492-3.452 4.172-6.855 4.993-10.115 1.034-4.104.72-7.997-.931-11.573zM11.05 19.818c-.997-3.897-.128-7.989 2.384-11.224 2.484-3.2 6.243-5.034 10.313-5.034s7.83 1.835 10.314 5.034c1.795 2.312 2.75 5.061 2.786 7.865l.001.12a12.893 12.893 0 0 1-.403 3.24 12.956 12.956 0 0 1-1.477 3.467l-11.22 18.61-11.22-18.61a12.962 12.962 0 0 1-1.478-3.468z"/><g transform="translate(52 26)"><path fill="#050505" d="M17 0C5.638 0-2.13 10.586.52 20.784c.407 1.566 1.069 3.054 1.917 4.439L17 49c4.853-7.926 9.708-15.852 14.563-23.777.847-1.385 1.51-2.873 1.917-4.439.352-1.356.52-2.72.52-4.062C34 7.957 26.85 0 17 0zm0 23.23c-3.644 0-6.6-2.909-6.6-6.496 0-3.586 2.956-6.494 6.6-6.494 3.643 0 6.598 2.908 6.598 6.494 0 3.587-2.955 6.496-6.598 6.496z"/><path fill="#00aaf0" d="M16.5 4C7.477 4 1.31 12.21 3.414 20.118a12.564 12.564 0 0 0 1.521 3.442C8.79 29.707 12.645 35.853 16.5 42c3.854-6.147 7.71-12.293 11.565-18.44a12.612 12.612 0 0 0 1.522-3.442 12.25 12.25 0 0 0 .413-3.15C30 10.171 24.322 4 16.5 4zm0 18c-3.037 0-5.5-2.239-5.5-5s2.463-5 5.5-5 5.5 2.239 5.5 5-2.463 5-5.5 5z"/><path fill="#000" d="M24 17.5c0-4.687-3.589-8.5-8-8.5s-8 3.813-8 8.5 3.589 8.5 8 8.5 8-3.813 8-8.5zm-12.278 0c0-2.506 1.92-4.545 4.278-4.545 2.359 0 4.277 2.039 4.277 4.545S18.36 22.045 16 22.045s-4.278-2.039-4.278-4.545z"/><circle cx="16.25" cy="17.25" r="4.25" fill="#fff"/></g></g></svg>