<svg width="72" height="80" xmlns="http://www.w3.org/2000/svg"><g fill="none" fill-rule="evenodd"><circle fill="#87DCFF" fill-rule="nonzero" cx="35.556" cy="44.444" r="34.514"/><path d="M46.875 67.64c-19.062 0-34.514-15.453-34.514-34.515 0-6.63 1.873-12.821 5.114-18.08-9.859 6.076-16.433 16.968-16.433 29.4 0 19.06 15.452 34.513 34.514 34.513 12.43 0 23.323-6.574 29.399-16.433a34.346 34.346 0 01-18.08 5.114z" fill="#00C3FF" fill-rule="nonzero"/><path d="M6.822 63.563l.963-8.751a2.226 2.226 0 00-.667-1.85l-5.941-5.557a34.309 34.309 0 005.645 16.158z" fill="#AFD755" fill-rule="nonzero"/><path d="M35.556 9.93c-.086 0-.17.006-.254.007l-1.88 7.973h-7.376c-.558 0-1.03.413-1.103.966l-.614 4.6-3.416.18a1.113 1.113 0 00-1.054 1.067l-.119 2.969a1.113 1.113 0 001.205 1.154l3.199-.267 2.644-3.688 7.794-.278 1.681 2.545a2.227 2.227 0 002.454.919l2.87-.797.704-1.867a2.227 2.227 0 011.633-1.396l1.394-.288a1.554 1.554 0 11.49 3.067l-4.221.484-.047 1.438 3.41 1.74-1.183 1.74H33.329l-9.185-3.62-8.22 7.598a2.227 2.227 0 00-.651 2.168l1.518 6.168a2.227 2.227 0 002.043 1.69l8.412.453a3.34 3.34 0 013.147 3.029l.71 7.703 2.822 7.383a3.236 3.236 0 005.201 1.237l7.514-6.841a3.34 3.34 0 001.057-1.988l.801-5.497 5.432-5.986a1.113 1.113 0 00-.652-1.848l-1.017-.159.18-.357 7.608-5.103-1.762-2.412 3.135-.376a2.227 2.227 0 012.224 1.151l2.22 4.107 1.55 2.865c.274.506.733.886 1.28 1.062l1.356.532c.005-.238.018-.474.018-.713 0-19.061-15.453-34.513-34.514-34.513z" fill="#BEE86E" fill-rule="nonzero"/><path d="M60.697 19.303C53.982 12.587 45.053 8.889 35.556 8.889c-9.498 0-18.427 3.698-25.142 10.414C3.698 26.018 0 34.947 0 44.444c0 9.498 3.698 18.426 10.414 25.142C17.129 76.302 26.058 80 35.556 80c9.497 0 18.426-3.698 25.141-10.414 6.716-6.716 10.414-15.644 10.414-25.142 0-9.497-3.698-18.426-10.414-25.141zM6.75 54.696l-.638 5.698A33.095 33.095 0 012.54 49.993l3.855 3.718c.263.254.396.622.355.985zm52.474 13.417c-6.322 6.322-14.728 9.804-23.668 9.804-8.941 0-17.347-3.482-23.669-9.804a33.842 33.842 0 01-4.003-4.823l.937-8.362a3.288 3.288 0 00-.98-2.716l-5.68-5.48a34.21 34.21 0 01-.078-2.288c0-8.94 3.482-17.346 9.804-23.668 3.949-3.948 8.71-6.789 13.906-8.365l-.675 1.79a1.042 1.042 0 101.949.736l1.197-3.172a33.62 33.62 0 015.31-.733l-1.47 5.726-.4.11h-5.658a2.162 2.162 0 00-2.136 1.87l-.499 3.743-2.553.134a2.145 2.145 0 00-2.04 2.066l-.118 2.97a2.156 2.156 0 002.332 2.232l.182-.015-2.113 1.953a1.042 1.042 0 101.414 1.53l3.856-3.563 8.576 3.379c.122.047.251.072.382.072h10.438c.358 0 .673-.18.86-.456l.002-.002.002-.003 1.18-1.735a1.042 1.042 0 00-.388-1.513l-2.627-1.34 3.132-.36a2.605 2.605 0 002.297-2.689 2.591 2.591 0 00-.997-1.936 2.59 2.59 0 00-2.12-.496l-1.394.288c-1.104.228-2 .993-2.398 2.048l-.518 1.373-2.36.655a1.182 1.182 0 01-1.305-.489l-1.682-2.546a1.04 1.04 0 00-.906-.466l-7.794.278a1.042 1.042 0 00-.81.434l-2.363 3.297-2.719.226a.066.066 0 01-.055-.02.066.066 0 01-.022-.054l.118-2.97a.071.071 0 01.068-.068l3.416-.179c.501-.026.912-.405.978-.902l.614-4.6a.072.072 0 01.07-.063h5.799c.093 0 .186-.013.275-.037l5.753-1.578c.325-.089.588-.33.703-.648l.742-2.041a1.042 1.042 0 00-1.958-.712l-.558 1.535-2.384.653 1.321-5.149c8.873.047 17.207 3.523 23.485 9.802 6.131 6.13 9.59 14.22 9.794 22.857h-.004a1.18 1.18 0 01-.68-.566l-1.55-2.865a1.041 1.041 0 10-1.833.99l1.55 2.866a3.26 3.26 0 001.89 1.562l.608.187c-.336 8.43-3.775 16.306-9.775 22.306zM32.911 29.969c.511 0 .936-.368 1.025-.853.077-.25.434-1.176.87-2.273l.588.89a3.26 3.26 0 003.601 1.347l1.504-.417v.022c-.013.403.208.778.568.961l2.357 1.203-.209.307h-9.688L25.769 28.1l1.568-2.186 5.677-.203c-1.143 2.848-1.144 3.008-1.144 3.216 0 .575.466 1.042 1.041 1.042zm10.252-3.918l.102-.271c.144-.383.469-.66.87-.743l1.393-.287a.51.51 0 01.616.48.514.514 0 01-.454.53l-2.527.29z" fill="#000" fill-rule="nonzero"/><path d="M54.178 57.285a1.041 1.041 0 00-1.467.128l-2.923 3.48a1.042 1.042 0 001.595 1.34l2.923-3.48c.37-.44.313-1.098-.128-1.468zM61.298 34.405l-5.078.6-3.177-2.842a1.042 1.042 0 00-1.555.189c-.3.436-.202 1.035.193 1.388l3.499 3.13c.222.199.517.293.813.259l1.81-.209.765 1.047-6.628 4.445a.417.417 0 01-.585-.124l-4.35-6.902a1.042 1.042 0 00-1.464-.308c-.473.318-.58.973-.276 1.455l4.718 7.492c.16.255.423.428.72.474l2.413.378c.018.002.042.006.057.046.014.04-.003.06-.015.073l-5.431 5.985c-.14.154-.23.345-.26.55l-.801 5.497a2.304 2.304 0 01-.727 1.368l-7.515 6.842c-.404.368-.929.571-1.477.571a2.206 2.206 0 01-2.049-1.41l-2.772-7.25-.696-7.56a4.407 4.407 0 00-4.128-3.973l-8.413-.453a1.179 1.179 0 01-1.087-.9l-1.518-6.167c-.103-.42.03-.861.346-1.154l.812-.75c.419-.387.485-1.047.11-1.478a1.042 1.042 0 00-1.492-.081l-.844.78a3.269 3.269 0 00-.955 3.18l1.518 6.168a3.25 3.25 0 002.998 2.483l8.413.452c1.13.06 2.062.957 2.165 2.084l.71 7.703c.008.095.03.188.064.277l2.823 7.383a4.301 4.301 0 003.995 2.75c1.068 0 2.09-.396 2.88-1.115l7.514-6.841a4.392 4.392 0 001.386-2.608l.756-5.183 5.218-5.75a2.152 2.152 0 00-.27-3.145l6.178-4.144c.124-.083.236-.186.316-.313.24-.378.212-.842-.035-1.18l-.713-.975 1.369-.165c.487-.058.95.183 1.183.613a1.041 1.041 0 001.525.35c.434-.309.548-.91.289-1.376a3.25 3.25 0 00-3.245-1.656zM52.506 28.884a1.04 1.04 0 101.726-1.166l-2.32-3.433a1.042 1.042 0 00-1.725 1.166l2.319 3.433z" fill="#000" fill-rule="nonzero"/><g transform="translate(33.778 49.185)"><path d="M4.177 8.353l.022 5.56" stroke="#556080" stroke-width="3" stroke-linecap="round"/><circle fill="#DD352E" fill-rule="nonzero" cx="4.177" cy="4.177" r="4.177"/><circle fill="#F76363" fill-rule="nonzero" cx="2.685" cy="2.983" r="1"/></g><g transform="translate(2.37 37.926)"><path d="M4.177 8.353l.022 5.56" stroke="#556080" stroke-width="3" stroke-linecap="round"/><circle fill="#DD352E" fill-rule="nonzero" cx="4.177" cy="4.177" r="4.177"/><circle fill="#F76363" fill-rule="nonzero" cx="2.685" cy="2.983" r="1"/></g><g transform="translate(28.444 33.185)"><path d="M4.177 8.353l.022 5.56" stroke="#556080" stroke-width="3" stroke-linecap="round"/><circle fill="#DD352E" fill-rule="nonzero" cx="4.177" cy="4.177" r="4.177"/><circle fill="#F76363" fill-rule="nonzero" cx="2.685" cy="2.983" r="1"/></g><g transform="translate(16 26.074)"><path d="M4.177 8.353l.022 5.56" stroke="#556080" stroke-width="3" stroke-linecap="round"/><circle fill="#DD352E" fill-rule="nonzero" cx="4.177" cy="4.177" r="4.177"/><circle fill="#F76363" fill-rule="nonzero" cx="2.685" cy="2.983" r="1"/></g><g transform="translate(38.519)"><path d="M4.177 8.353l.022 5.56" stroke="#556080" stroke-width="3" stroke-linecap="round"/><circle fill="#DD352E" fill-rule="nonzero" cx="4.177" cy="4.177" r="4.177"/><circle fill="#F76363" fill-rule="nonzero" cx="2.685" cy="2.983" r="1"/></g><g transform="translate(45.037 19.556)"><path d="M4.177 8.353l.022 5.56" stroke="#556080" stroke-width="3" stroke-linecap="round"/><circle fill="#DD352E" fill-rule="nonzero" cx="4.177" cy="4.177" r="4.177"/><circle fill="#F76363" fill-rule="nonzero" cx="2.685" cy="2.983" r="1"/></g><g transform="translate(56.296 15.407)"><path d="M4.177 8.353l.022 5.56" stroke="#556080" stroke-width="3" stroke-linecap="round"/><circle fill="#DD352E" fill-rule="nonzero" cx="4.177" cy="4.177" r="4.177"/><circle fill="#F76363" fill-rule="nonzero" cx="2.685" cy="2.983" r="1"/></g></g></svg>