<svg xmlns="http://www.w3.org/2000/svg" width="81" height="81"  fill="none" fill-rule="evenodd" xmlns:v="https://vecta.io/nano"><g fill-rule="nonzero"><path fill="#e4eaf6" d="M31.943 55.167V44.37h-2.279v10.797l-11.11 7.638 1.292 1.879 10.958-7.534 10.958 7.534 1.291-1.879z"/><path fill="#e6af78" d="M35.538 36.568v-3.682H26.07v3.682l4.734 4.208z"/><path d="M42.858 38.29l-6.51-1.531a1.043 1.043 0 01-.273-.11l-5.271 3.075-5.067-3.224a1.047 1.047 0 01-.479.259l-6.508 1.53a2.104 2.104 0 00-1.623 2.05v4.119c0 .58.471 1.052 1.052 1.052h25.249c.58 0 1.052-.471 1.052-1.052v-4.12c0-.976-.672-1.824-1.622-2.048z" fill="#707487"/><path d="M26.07 32.886v3.884c5.963 2.149 9.468-3.228 9.468-3.228v-.656H26.07z" fill="#d29b6e"/><path d="M23.966 20.788l.458 10.084a3.156 3.156 0 001.26 2.381l2.174 1.632c.547.41 1.211.63 1.894.63h2.104c.683 0 1.347-.22 1.893-.63l2.175-1.632a3.156 3.156 0 001.26-2.381l.458-10.084H23.966z" fill="#f0c087"/><path d="M29.226 22.892c2.104 0 5.26-.526 6.008-2.104H23.966l.458 10.084a3.156 3.156 0 001.26 2.381l2.174 1.632c.546.41 1.21.63 1.894.63h1.052c-1.052 0-3.156-2.103-3.156-4.733V24.47c0-.526.526-1.578 1.578-1.578z" fill="#e6af78"/><path d="M40.618 42.096l3.409-3.062a2.1 2.1 0 01.453 1.304v4.12c0 .58-.471 1.052-1.052 1.052h-3.682v-1.458c0-.746.317-1.457.872-1.956zM20.99 42.096l-3.41-3.062a2.1 2.1 0 00-.452 1.304v4.12c0 .58.47 1.052 1.052 1.052h3.682v-1.458a2.63 2.63 0 00-.873-1.956zM32.119 45.51h-2.63l.329-4.734h1.972z" fill="#5b5d6e"/><path d="M32.119 39.724h-2.63v.304c0 .703.57 1.274 1.274 1.274h.082c.703 0 1.274-.57 1.274-1.274v-.304z" fill="#515262"/><path d="M25.996 35.396l4.808 4.327s-1.347.68-3.008 2.05a.675.675 0 01-1.045-.236l-2.26-4.97.715-1.071a.526.526 0 01.79-.1zM35.612 35.396l-4.808 4.327s1.346.68 3.008 2.05a.675.675 0 001.045-.236l2.259-4.97-.715-1.071a.526.526 0 00-.79-.1z" fill="#5b5d6e"/><path d="M33.993 17.303l.493 3.485c2.25.45 2.575 3.982 2.622 4.991.008.184.067.36.166.514l.86 1.333s-.295-2.203 1.051-3.682c0 0 .462-8.745-5.192-6.641z" fill="#785550"/><path d="M38.66 27.4l-.593 2.377a.633.633 0 01-1.241-.075l-.304-2.43a1.089 1.089 0 011.08-1.224h.003c.708 0 1.228.665 1.056 1.353z" fill="#f0c087"/><path d="M24.47 16.36l.778.532c-3.518 2.597-2.86 7.052-2.86 7.052 1.052 1.052 1.052 3.682 1.052 3.682l1.052-1.052s-.406-3.04 1.578-4.208c1.84-1.085 3.452-.526 5.096-.526 4.405 0 5.638-1.66 5.424-3.682-.11-1.047-1.71-3.226-5.786-3.156-1.645.028-4.734.526-6.334 1.358z" fill="#694b4b"/><path d="M24.163 21.38s-.559-2.203 1.085-4.488c-3.518 2.597-2.86 7.052-2.86 7.052 1.052 1.052 1.052 3.682 1.052 3.682l1.052-1.052s-.406-3.04 1.578-4.208c1.84-1.085 3.452-.526 5.096-.526.716 0 1.34-.048 1.896-.13-3.392.113-5.392-2.457-8.899-.33z" fill="#5a4146"/><path d="M22.947 27.4l.594 2.377a.633.633 0 001.241-.075l.304-2.43a1.089 1.089 0 00-1.08-1.224h-.003c-.708 0-1.228.665-1.056 1.353z" fill="#e6af78"/><path d="M37.116 44.458h-2.63a1.05 1.05 0 0 0-1.052 1.052h4.734a1.05 1.05 0 0 0-1.052-1.052z" fill="#5b5d6e"/><path d="M49.039 50.703c-10.612 0-9.435 12.904-9.387 22.256a.998.998 0 00.49.853c1.176.71 4.405 2.367 8.897 2.367s7.72-1.658 8.897-2.367a.999.999 0 00.49-.853c.047-9.351 1.224-22.256-9.387-22.256z" fill="#694b4b"/><path d="M48.355 50.73c-9.869.553-8.75 13.086-8.703 22.229a.998.998 0 00.49.853c1.176.71 4.405 2.367 8.897 2.367l2.681-18.772" fill="#5a4146"/><path d="M49.039 50.703c-6.034 0-6.453 7.29-6.453 7.29 3.478-.586 5.615.88 9.134-.586L49.04 76.178c4.492 0 7.72-1.657 8.897-2.366a.999.999 0 00.489-.854c.048-9.35 1.225-22.255-9.386-22.255z" fill="#694b4b"/><path d="M58.425 72.959c.041-8.036.909-18.687-5.579-21.527-.113.588-.318 2.229.215 3.294 1.34 2.682 2.682 2.682 4.022 4.693 1.341 7.374-2.562 15.2-3.858 16.267 2.297-.547 3.943-1.41 4.71-1.874a.999.999 0 00.49-.853z" fill="#785550"/><path d="M59.198 74.992L53.216 72.5a1.34 1.34 0 01-.825-1.238v-1.62h-6.704v1.62a1.34 1.34 0 01-.825 1.238l-5.982 2.492a2.011 2.011 0 00-1.238 1.857v2.682c0 .74.6 1.34 1.34 1.34h20.113c.74 0 1.34-.6 1.34-1.34v-2.682c0-.812-.488-1.544-1.237-1.857z" fill="#e6af78"/><path d="M59.198 74.992l-5.784-2.41-4.375 1.889-4.376-1.889-5.783 2.41a2.011 2.011 0 00-1.238 1.857v2.682c0 .74.6 1.34 1.34 1.34h20.112c.741 0 1.341-.6 1.341-1.34v-2.682a2.01 2.01 0 00-1.237-1.857z" fill="#eff2fa"/><path d="M52.39 69.642h-6.703v1.62a1.34 1.34 0 01-.826 1.238l-.934.39c7.15 1.822 8.463-3.248 8.463-3.248z" fill="#d29b6e"/><g fill="#e4eaf6"><path d="M40.91 77.586l-2.691-2.14c-.361.368-.577.867-.577 1.403v2.682c0 .74.6 1.34 1.34 1.34h2.682v-1.715c0-.61-.277-1.189-.755-1.57zM60.435 79.53V76.85c0-.532-.212-1.028-.568-1.395l-2.7 2.132c-.476.381-.754.96-.754 1.57v1.715h2.682c.74 0 1.34-.6 1.34-1.34zM49.14 79.53h-.202a.57.57 0 01-.57-.57v-4.488h1.341v4.489a.57.57 0 01-.57.57z"/><path d="M49.039 74.47l-3.837-2.877a.536.536 0 00-.768.132l-.758 1.137 2.352 3.293c.179.25.531.3.771.107l2.24-1.791z"/><path d="M49.039 74.47l3.837-2.877a.536.536 0 01.768.132l.758 1.137-2.353 3.293a.537.537 0 01-.771.107l-2.24-1.791z"/></g><path d="M52.39 56.737c-3.351 3.352-9.93.67-9.93 6.033l.417 3.951c.08.884.592 1.67 1.368 2.101l3.817 2.12a2.011 2.011 0 001.953 0l3.817-2.12a2.681 2.681 0 001.368-2.101l.48-4.692c.035-.333.042-.669.031-1.004-.25-1.706-2.65-2.947-3.32-4.288z" fill="#f0c087"/><path d="M42.46 62.77l.417 3.951c.08.884.592 1.67 1.368 2.101l3.817 2.12c.421.235.905.296 1.365.205 0 0-1.925-.583-3.07-3.684-.35-.95-.838-5.977-.42-6.592.83-1.215 5.448-1.34 6.813-3.594a3.739 3.739 0 01-.187-.251l-.015-.02a2.56 2.56 0 01-.158-.269c-3.351 3.352-9.93.67-9.93 6.033z" fill="#e6af78"/><path d="M53.933 79.53H52.19c-.63 0-1.14.51-1.14 1.14v.201h4.022v-.201c0-.63-.51-1.14-1.14-1.14z" fill="#e4eaf6"/><path fill="#fcb47e" d="M11.314 67.8h6.6v6.6h-6.6z"/><path d="M16.971 74.355c-1.245.86-2.071.988-2.071.988s-.826-.128-2.071-.987c0 0-.749-2.057-.533-1.823s2.604 0 2.604 0l2.057.562.014 1.26z" fill="#4296d9"/><path d="M20.648 70.629l5.245.909c2.112.608 3.336 2.741 3.336 4.74v3.36c0 .752-.677 1.362-1.512 1.362H1.512C.677 81 0 80.39 0 79.638v-3.36c0-1.999 1.224-4.132 3.336-4.74l5.217-.91 6.061 2.593 6.034-2.592z" fill="#996459"/><path d="M6.6 71.023c.008.017.008.035.017.05 3.869 6.148 7.635 6.961 8.051 7.033l.33.058c.059.011.118.011.177 0l.33-.058c.416-.072 4.182-.885 8.05-7.033.01-.014.009-.032.016-.047l-2.393-.397-6.092 2.507-6.12-2.507-2.366.394z" fill="#7e5c62"/><g fill="#4bb9ec"><path d="M10.436 67.8l-1.95 2.612 3.149 4.701c.085.129.224.212.378.227s.306-.04.415-.15l2.658-2.165-4.65-5.225z"/><path d="M18.793 67.8l1.95 2.612-3.15 4.701c-.085.129-.224.212-.378.227s-.306-.04-.415-.15l-2.657-2.165 4.65-5.225z"/></g><path d="M21.208 58.682l-1.017-2.388s-4.4-2.397-11.566-1.488h-.014C7.325 56.407 6.6 58.374 6.6 60.758c0 4.93 3.377 8.928 7.543 8.928s7.543-3.997 7.543-8.928a10.51 10.51 0 0 0-.264-2.31l-.214.234z" fill="#ffdcad"/><circle fill="#aeefff" cx="11.314" cy="61.2" r="1.886"/><path d="M11.929 59.314a2.21 2.21 0 0 0-1.558.642l3.13 3.13c.628-.635.813-1.585.469-2.409s-1.149-1.361-2.042-1.362z" fill="#fff"/><circle fill="#aeefff" cx="17.914" cy="61.2" r="1.886"/><path d="M17.586 59.314c-.608 0-1.157.246-1.557.642l3.13 3.13c.628-.635.813-1.585.469-2.409s-1.149-1.361-2.042-1.362z" fill="#fff"/><path d="M22.12 49.292a.5.5 0 0 0-.527-.292c-1.253.18-2.773-.125-4.38-.445-2.697-.537-5.483-1.092-7.662.45-.033-.007-.066-.01-.099-.01-2.234 0-3.794 1.837-3.794 4.467 0 2.142.957 6.238.998 6.412a.5.5 0 0 0 .468.383h.019a.5.5 0 0 0 .477-.348l1.42-4.504c5.974-.685 9.935 1.014 10.734 1.396l.94 2.222c.079.195.273.317.483.303a.5.5 0 0 0 .455-.345c1.5-4.662.95-8.606.47-9.69z" fill="#7e5c62"/><path d="M15.557 61.2a.47.47 0 0 1-.471-.471.47.47 0 0 0-.472-.45.47.47 0 0 0-.471.45.47.47 0 1 1-.943 0c0-.78.634-1.415 1.414-1.415s1.415.635 1.415 1.415a.47.47 0 0 1-.472.471zm-5.722-.132H7.137c-.297 0-.537-.181-.537-.405s.24-.406.537-.406h2.698c.296 0 .536.182.536.406s-.24.405-.536.405zm12.253 0h-2.69c-.299 0-.54-.181-.54-.405s.241-.406.54-.406h2.69c.299 0 .54.182.54.406s-.241.405-.54.405z" fill="#5c546a"/><path d="M11.786 63.086a2.36 2.36 0 0 1-2.357-2.357 2.36 2.36 0 0 1 2.357-2.358 2.36 2.36 0 0 1 2.357 2.358 2.36 2.36 0 0 1-2.357 2.357zm0-3.772c-.756.035-1.351.658-1.351 1.414s.595 1.38 1.351 1.415c.78 0 1.414-.635 1.414-1.414s-.634-1.415-1.414-1.415zm5.657 3.772a2.36 2.36 0 0 1-2.357-2.357 2.36 2.36 0 0 1 2.357-2.358A2.36 2.36 0 0 1 19.8 60.73a2.36 2.36 0 0 1-2.357 2.357zm0-3.772c-.756.035-1.351.658-1.351 1.414s.595 1.38 1.351 1.415c.78 0 1.414-.635 1.414-1.414s-.634-1.415-1.414-1.415z" fill="#868491"/><path d="M4.714 80.057V76.67a4.63 4.63 0 0 0-1.28-3.225L1.637 71.57a4.5 4.5 0 0 0-.695.709l1.803 1.88a3.6 3.6 0 0 1 .996 2.509v3.388h.972zm22.876-8.486l-1.795 1.873a4.63 4.63 0 0 0-1.28 3.225v3.388h.971V76.67c0-.948.354-1.838.996-2.509l1.804-1.88a4.51 4.51 0 0 0-.695-.709z" fill="#7e5c62"/><path d="M77.117 15.077h-25.83c-1.946 0-3.523 1.467-3.523 3.277v17.474c0 1.81 1.577 3.276 3.522 3.276h3.523l-1.957 7.28c-.133.494.472.874.915.574l11.609-7.854h11.741c1.946 0 3.523-1.467 3.523-3.276V18.354c0-1.81-1.577-3.277-3.523-3.277z" fill="#e2e7f2"/><path d="M64.152 36.92h-2.184a4.368 4.368 0 01-4.369-4.368V15.077H68.52v17.475a4.369 4.369 0 01-4.368 4.368z" fill="#d5dced"/><path d="M75.63 14.046h-5.57c-.576 0-1.042.458-1.042 1.022s.466 1.022 1.042 1.022h5.57c1.268 0 2.3 1.012 2.3 2.256v17.48c0 1.244-1.032 2.256-2.3 2.256H64.49a1.06 1.06 0 0 0-.614.196l-9.935 7.086 1.532-6.012a1.006 1.006 0 0 0-.19-.877 1.05 1.05 0 0 0-.82-.393H51.12c-1.268 0-2.3-1.012-2.3-2.256v-17.48c0-1.244 1.032-2.256 2.3-2.256h5.57c.576 0 1.043-.458 1.043-1.022s-.467-1.022-1.042-1.022h-5.57c-2.418 0-4.385 1.929-4.385 4.3v17.48c0 2.371 1.967 4.3 4.384 4.3h2.008l-1.533 6.012a1.539 1.539 0 0 0 .657 1.68 1.615 1.615 0 0 0 1.835-.032l10.74-7.66H75.63c2.417 0 4.384-1.929 4.384-4.3v-17.48c0-2.371-1.967-4.3-4.384-4.3z" fill="#000"/></g><path d="M54.287 4.7c.455-.402.953-.784 1.495-1.145a10.733 10.733 0 0 1 3.804-1.576 11.73 11.73 0 0 1 2.388-.23c1.164 0 2.225.16 3.181.481s1.777.78 2.46 1.375A6.13 6.13 0 0 1 69.2 5.763c.374.843.562 1.786.562 2.83 0 1.017-.147 1.897-.442 2.64a7.268 7.268 0 0 1-1.114 1.936 8.853 8.853 0 0 1-1.455 1.425l-1.485 1.134c-.469.355-.873.703-1.214 1.044s-.546.726-.613 1.154l-.461 2.93h-3.392l-.342-3.271a.893.893 0 0 1-.02-.17v-.171c0-.59.148-1.101.442-1.536a6.263 6.263 0 0 1 1.104-1.224l1.425-1.114a12.89 12.89 0 0 0 1.425-1.174c.442-.422.81-.9 1.104-1.435s.441-1.165.441-1.887a3 3 0 0 0-.27-1.295 2.928 2.928 0 0 0-.753-.983 3.375 3.375 0 0 0-1.154-.632 4.638 4.638 0 0 0-1.455-.221c-.763 0-1.409.083-1.937.25a7.141 7.141 0 0 0-1.345.563l-.933.562c-.255.167-.482.25-.683.25-.481 0-.83-.2-1.043-.602L54.287 4.7zm4.532 23.663a3.08 3.08 0 0 1 .231-1.184 2.83 2.83 0 0 1 .642-.964 3.2 3.2 0 0 1 .974-.642c.375-.16.776-.24 1.204-.24a2.98 2.98 0 0 1 1.184.24 3.04 3.04 0 0 1 .964.642c.267.268.481.589.642.964s.24.77.24 1.184a2.96 2.96 0 0 1-.24 1.194 2.906 2.906 0 0 1-1.606 1.586 3.08 3.08 0 0 1-1.184.23c-.428 0-.83-.076-1.204-.23a3.02 3.02 0 0 1-.974-.633 2.853 2.853 0 0 1-.642-.953 3.064 3.064 0 0 1-.23-1.194z" stroke="#000" stroke-width="2" fill="#f70644"/></svg>