<svg width="79" height="80" xmlns="http://www.w3.org/2000/svg"><g fill-rule="nonzero" fill="none"><path d="M4.93 48.768v.879c0 1.077.174 2.147.515 3.168l1.99 5.973h3.758V45.01H8.688a3.758 3.758 0 00-3.757 3.758z" fill="#5A4146"/><path d="M22.177 51.032l-2.216 7.756L9.94 50.02a2.505 2.505 0 01-2.505-2.505 3.757 3.757 0 013.757-3.757h11.273v5.21a7.52 7.52 0 01-.29 2.064z" fill="#694B4B"/><path fill="#E6AF78" d="M9.94 62.545h7.516v7.516H9.941z"/><path d="M23.498 67.31l-6.043-1.726-3.757 4.476-3.757-4.476-6.043 1.726a3.758 3.758 0 00-2.725 3.613v7.905h25.05v-7.905a3.757 3.757 0 00-2.725-3.613z" fill="#D5DCED"/><path d="M13.698 63.798a7.515 7.515 0 01-7.515-7.515c0-1.604.637-3.143 1.771-4.277l1.234-1.233a2.476 2.476 0 011.818-.736c4.004.126 7.548.984 9.486 2.876.474.463.721 1.11.721 1.774v1.596a7.515 7.515 0 01-7.515 7.515z" fill="#F0C087"/><path d="M9.94 56.283a2.5 2.5 0 012.656-2.502c2.529.162 6.28.584 8.583 1.692-.076-.529-.303-2.184-.687-2.56-1.938-1.892-5.482-2.75-9.486-2.876a2.476 2.476 0 00-1.818.736l-1.234 1.233a6.048 6.048 0 00-1.771 4.277c0 3.427 2.296 6.313 5.433 7.216a7.454 7.454 0 01-1.676-4.711v-2.505z" fill="#E6AF78"/><g fill="#C7CFE2"><path d="M6.183 74.655c0-.996-.396-1.952-1.1-2.657l-3.225-3.224a3.742 3.742 0 00-.685 2.15v7.904h5.01v-4.173zM21.213 74.655c0-.996.396-1.952 1.101-2.657l3.224-3.224c.431.616.686 1.358.686 2.15v7.904h-5.01v-4.173z"/></g><path d="M31.234 6.182v.88c0 1.076.173 2.146.514 3.168l1.99 5.972h3.758V2.424h-2.505a3.758 3.758 0 00-3.757 3.758z" fill="#5A4146"/><path d="M48.48 8.447l-2.216 7.755-10.02-8.767a2.505 2.505 0 01-2.505-2.505 3.757 3.757 0 013.757-3.758H48.77v5.21c0 .698-.097 1.393-.29 2.065z" fill="#694B4B"/><path fill="#E6AF78" d="M36.244 19.96h7.515v7.515h-7.515z"/><path d="M49.801 24.725l-6.043-1.727-3.757 4.477-3.757-4.477-6.043 1.727a3.758 3.758 0 00-2.725 3.612v7.905h25.05v-7.904a3.758 3.758 0 00-2.725-3.613z" fill="#707487"/><g fill="#5B5D6E"><path d="M32.486 32.07c0-.997-.396-1.953-1.1-2.657l-3.225-3.225a3.742 3.742 0 00-.685 2.15v7.904h5.01V32.07zM47.516 32.07c0-.997.396-1.953 1.101-2.657l3.224-3.225c.431.616.686 1.358.686 2.15v7.904h-5.01V32.07z"/></g><path d="M40.001 21.197a7.515 7.515 0 01-7.515-7.515c0-1.604.637-3.142 1.771-4.277l1.234-1.233a2.476 2.476 0 011.818-.736c4.004.126 7.548.984 9.486 2.876.474.463.721 1.11.721 1.774v1.596a7.515 7.515 0 01-7.515 7.515z" fill="#F0C087"/><path d="M36.244 13.682a2.5 2.5 0 012.655-2.502c2.529.162 6.28.584 8.583 1.692-.076-.529-.303-2.184-.687-2.56-1.938-1.892-5.482-2.75-9.486-2.876a2.476 2.476 0 00-1.818.736l-1.234 1.233a6.048 6.048 0 00-1.771 4.277c0 3.427 2.296 6.313 5.433 7.216a7.454 7.454 0 01-1.676-4.711v-2.505z" fill="#E6AF78"/><ellipse fill="#785550" cx="66.305" cy="43.131" rx="5.009" ry="4.384"/><path d="M65.052 43.131c0-1.839 1.296-3.408 3.131-4.059a5.607 5.607 0 00-1.879-.325c-2.767 0-5.01 1.963-5.01 4.384 0 2.421 2.243 4.384 5.01 4.384a5.61 5.61 0 001.879-.325c-1.835-.65-3.131-2.22-3.131-4.059z" fill="#694B4B"/><path d="M75.5 69.318l-4.054-2.027a2.505 2.505 0 01-1.384-2.24v-3.758h-7.515v3.757c0 .95-.537 1.817-1.385 2.24l-4.054 2.028a3.757 3.757 0 00-2.077 3.36v6.15h22.546v-6.15a3.758 3.758 0 00-2.077-3.36z" fill="#E6AF78"/><path d="M77.577 72.679a3.758 3.758 0 00-2.077-3.361l-4.054-2.027a2.483 2.483 0 01-.617-.448l-1.438 1.6c-1.73 1.925-4.444 1.925-6.174 0l-1.437-1.6a2.49 2.49 0 01-.618.448l-4.053 2.027a3.758 3.758 0 00-2.077 3.36v6.15h22.545v-6.15z" fill="#00C3FF"/><circle fill="#5A4146" cx="66.305" cy="52.525" r="8.767"/><path d="M74.99 51.31c-.482-3.573-3.22-6.56-6.74-7.338a9.025 9.025 0 00-1.891-.214c-4.2-.026-5.603 5.774-1.827 7.614.203.098.332.143.332.143l4.363 7.9s1.162.079 2.335.115c2.424-1.823 3.88-4.863 3.428-8.22z" fill="#694B4B"/><path d="M66.304 63.798a7.514 7.514 0 01-6.63-3.975c-.86-1.608-.3-3.626 1.191-4.676.286-.201.582-.431.873-.69a7.23 7.23 0 001.715-2.26c.254-.53.837-.828 1.406-.683 4.422 1.126 7.43 3.43 8.513 4.363.288.248.454.613.425.992a7.516 7.516 0 01-7.493 6.929z" fill="#F0C087"/><path d="M73.37 55.875c-1.084-.933-4.089-3.233-8.506-4.36-.572-.146-1.158.155-1.413.686a7.171 7.171 0 01-1.144 1.67v.005c-.171.194-.353.387-.57.58a8.522 8.522 0 01-.836.666c-1.77 1.216-2.033 3.466-.95 5.17a7.53 7.53 0 005.214 3.4c-1.5-1.02-2.618-2.403-2.618-4.904v-.968c.284-.21.57-.42.859-.676a9.973 9.973 0 001.79-2.114c3.375 1.053 5.662 2.807 6.529 3.552.237.208.57.503 1.26 1.15.441-.698.75-2.056.812-2.865a1.197 1.197 0 00-.426-.992z" fill="#E6AF78"/><g fill="#00AAF0"><path d="M55.795 70.42a3.75 3.75 0 00-.764 2.259v6.15h5.01v-3.807c0-.76-.345-1.48-.94-1.956l-3.306-2.645zM76.813 70.42a3.75 3.75 0 01.764 2.259v6.15h-5.01v-3.807c0-.76.346-1.48.94-1.956l3.306-2.645z"/></g><path d="M43.235 9.735a1.172 1.172 0 001.048-2.096c-2.721-1.36-7.823-1.376-8.04-1.376a1.172 1.172 0 000 2.343c1.317 0 5.14.203 6.992 1.13z" fill="#000"/><path d="M27.476 37.414c.647 0 1.172-.524 1.172-1.172v-7.185c0-1.149.771-2.171 1.875-2.487l4.838-1.382c.175-.05.34-.117.499-.198l2.97 2.97v8.282a1.172 1.172 0 002.343 0V27.96l3.067-3.067c.307.204.647.365 1.014.47l4.225 1.207a2.597 2.597 0 011.876 2.487v7.185a1.172 1.172 0 002.343 0v-7.185a4.95 4.95 0 00-3.575-4.74l-4.226-1.208a1.339 1.339 0 01-.967-1.282v-.977a8.81 8.81 0 001.12-.919 8.618 8.618 0 002.638-6.234v-2.228l.468-.936a7.47 7.47 0 00.785-3.324V1.172C49.94.525 49.416 0 48.769 0H37.496c-4.1 0-7.434 3.335-7.434 7.435v.07c0 .954.225 1.91.652 2.764l.6 1.2v1.913a9.14 9.14 0 003.758 7.39v1.693a.49.49 0 01-.355.47l-4.838 1.382a4.95 4.95 0 00-3.575 4.74v7.186c0 .647.525 1.171 1.172 1.171zm6.182-24.032v-2.19c0-.182-.042-.361-.124-.524l-.723-1.447a3.859 3.859 0 01-.406-1.717v-.07a5.097 5.097 0 015.091-5.09h10.101v4.864c0 .787-.186 1.574-.537 2.277l-.592 1.183a1.172 1.172 0 00-.123.524v2.505c0 1.73-.684 3.347-1.926 4.553a6.3 6.3 0 01-4.614 1.787c-3.39-.101-6.147-3.087-6.147-6.655zm6.077 8.998a8.704 8.704 0 002.859-.388c.016.358.082.707.197 1.036l-2.79 2.79-2.67-2.67c.055-.22.085-.45.085-.683v-.495a8.212 8.212 0 002.319.41z" fill="#000"/><path d="M31.314 31.232v5.01a1.172 1.172 0 002.344 0v-5.01a1.172 1.172 0 00-2.344 0zM46.345 31.232v5.01a1.172 1.172 0 002.343 0v-5.01a1.172 1.172 0 00-2.343 0zM16.932 52.32a1.172 1.172 0 101.048-2.096c-2.721-1.36-7.823-1.376-8.04-1.376a1.172 1.172 0 000 2.344c1.319 0 5.145.205 6.992 1.129z" fill="#000"/><path d="M23.82 66.903l-4.838-1.383a.491.491 0 01-.355-.47v-1.614a8.798 8.798 0 001.12-.919 8.618 8.618 0 002.638-6.234v-2.228l.468-.936a7.47 7.47 0 00.785-3.325v-6.036c0-.648-.525-1.172-1.172-1.172H11.193c-4.1 0-7.434 3.335-7.434 7.434v.07c0 .955.225 1.91.652 2.765l.6 1.2v1.913a9.14 9.14 0 003.758 7.39v1.692a.49.49 0 01-.355.47l-4.838 1.383a4.95 4.95 0 00-3.575 4.74v7.185a1.172 1.172 0 002.344 0v-7.186c0-1.148.771-2.17 1.875-2.486l4.838-1.382c.175-.05.34-.118.499-.198l2.97 2.97v8.282a1.172 1.172 0 002.343 0v-8.282l2.97-2.97c.158.08.324.148.498.198l4.838 1.382a2.597 2.597 0 011.876 2.486v7.186a1.172 1.172 0 002.343 0v-7.186a4.95 4.95 0 00-3.575-4.74zM7.355 55.968v-2.19a1.17 1.17 0 00-.124-.524l-.723-1.448a3.857 3.857 0 01-.405-1.716v-.07a5.097 5.097 0 015.09-5.09h10.101v4.864c0 .786-.186 1.574-.537 2.277l-.592 1.183a1.172 1.172 0 00-.123.524v2.505c0 1.73-.684 3.347-1.927 4.552a6.298 6.298 0 01-4.612 1.788c-3.39-.102-6.148-3.087-6.148-6.655zm6.077 8.998a8.705 8.705 0 002.852-.386v.47c0 .234.03.463.084.683l-2.67 2.67-2.67-2.67c.055-.22.085-.449.085-.683v-.494a8.223 8.223 0 002.319.41z" fill="#000"/><path d="M6.183 72.646c-.647 0-1.172.525-1.172 1.172v5.01a1.172 1.172 0 002.344 0v-5.01c0-.647-.525-1.172-1.172-1.172zM21.213 72.646c-.647 0-1.171.525-1.171 1.172v5.01a1.172 1.172 0 002.343 0v-5.01c0-.647-.524-1.172-1.172-1.172zM76.024 68.27l-4.746-2.373a.08.08 0 01-.045-.072V63.44a8.654 8.654 0 003.673-5.951 9.91 9.91 0 001.338-4.964 9.93 9.93 0 00-3.972-7.943 5.03 5.03 0 00.214-1.45c0-3.064-2.773-5.556-6.182-5.556-3.408 0-6.182 2.492-6.182 5.555 0 .496.073.982.214 1.452a9.93 9.93 0 00-3.971 7.942c0 1.74.462 3.45 1.338 4.964a8.654 8.654 0 003.672 5.95v2.386a.08.08 0 01-.045.072l-4.745 2.373a4.903 4.903 0 00-2.725 4.41v6.148a1.172 1.172 0 002.344 0v-6.15c0-.985.547-1.871 1.429-2.312l3.914-1.957 1.362 1.294a4.915 4.915 0 003.395 1.357 4.916 4.916 0 003.396-1.357l1.361-1.294 3.915 1.957a2.572 2.572 0 011.429 2.313v6.15a1.172 1.172 0 002.344 0v-6.15a4.903 4.903 0 00-2.725-4.41zM62.466 43.13c0-1.77 1.722-3.212 3.838-3.212s3.838 1.441 3.838 3.212c0 .074-.006.148-.012.222a9.884 9.884 0 00-3.826-.767 9.883 9.883 0 00-3.826.767c-.006-.074-.012-.148-.012-.222zM60 56.974a1.171 1.171 0 00-.166-.487 7.573 7.573 0 01-1.126-3.962c0-4.188 3.408-7.596 7.596-7.596 4.188 0 7.596 3.408 7.596 7.596 0 .808-.132 1.607-.385 2.37-3.328-3.38-9.182-4.705-9.464-4.767-.356-.078-.728-.013-1.007.222-.276.232-.43.551-.417.91-.01.114-.098.878-.91 1.69a1.172 1.172 0 101.658 1.656 5.67 5.67 0 001.273-1.893c1.972.586 6.065 2.066 7.902 4.662a6.327 6.327 0 01-6.246 5.25A6.328 6.328 0 0160 56.976zm4.523 11.03l-1.09-1.036c.184-.344.285-.734.285-1.143v-1.248a8.712 8.712 0 005.172 0v1.248c0 .409.1.8.284 1.144l-1.089 1.035c-.998.949-2.563.949-3.562 0z" fill="#000"/><path d="M60.042 74.195c-.648 0-1.172.524-1.172 1.172v3.461a1.172 1.172 0 002.343 0v-3.461c0-.648-.524-1.172-1.171-1.172zM72.567 74.195c-.647 0-1.172.524-1.172 1.172v3.461a1.172 1.172 0 002.344 0v-3.461c0-.648-.525-1.172-1.172-1.172zM54.768 64.427a1.172 1.172 0 00-.36-1.618l-13.235-8.422V41.252a1.172 1.172 0 00-2.344 0v13.135l-13.235 8.422a1.172 1.172 0 101.259 1.978L40 56.419l13.149 8.368a1.171 1.171 0 001.618-.36z" fill="#000"/></g></svg>