<svg width="58" height="80" xmlns="http://www.w3.org/2000/svg"><g fill-rule="nonzero" fill="none"><path d="M52.548 6.182H4.952A3.757 3.757 0 001.195 9.94v65.13a3.757 3.757 0 003.757 3.758h47.596a3.757 3.757 0 003.757-3.757V9.94a3.758 3.758 0 00-3.757-3.758z" fill="#F0C087"/><path fill="#FFF" d="M6.205 11.192h45.091v60.12H6.205z"/><path d="M37.518 3.677h-4.453c-.868-1.491-2.465-2.505-4.315-2.505-1.85 0-3.447 1.014-4.315 2.505h-4.453a2.505 2.505 0 00-2.505 2.505v5.01h22.546v-5.01a2.505 2.505 0 00-2.505-2.505z" fill="#C7CFE2"/><g transform="translate(12.969 35.469)" fill="#B4E66E"><circle cx="3.256" cy="3.278" r="3.131"/><circle cx="3.256" cy="14.552" r="3.131"/><circle cx="3.256" cy="25.823" r="3.131"/></g><path d="M18.73 23.717h-5.01c-.692 0-1.253-.56-1.253-1.252v-5.01c0-.692.561-1.253 1.253-1.253h5.01c.692 0 1.252.561 1.252 1.253v5.01c0 .691-.56 1.252-1.252 1.252z" fill="#FF507D"/><path d="M52.548 5.01H41.002a3.683 3.683 0 00-3.484-2.505h-3.824A6.188 6.188 0 0028.75 0a6.188 6.188 0 00-4.944 2.505h-3.824a3.683 3.683 0 00-3.484 2.505H4.952a4.935 4.935 0 00-4.93 4.93v65.13A4.935 4.935 0 004.953 80h47.596a4.935 4.935 0 004.93-4.93V9.94a4.935 4.935 0 00-4.93-4.93zm-32.566-.161h4.453c.417 0 .803-.222 1.013-.583.7-1.204 1.935-1.922 3.302-1.922s2.602.719 3.303 1.922c.21.361.595.583 1.012.583h4.453c.735 0 1.333.598 1.333 1.333v3.838H18.649V6.187v-.005-.002a1.335 1.335 0 011.333-1.331zM55.134 75.07a2.588 2.588 0 01-2.586 2.585H4.952a2.588 2.588 0 01-2.586-2.585V9.94a2.589 2.589 0 012.586-2.586h11.353v3.838c0 .647.525 1.172 1.172 1.172h22.546c.647 0 1.172-.525 1.172-1.172V7.354h11.353a2.588 2.588 0 012.586 2.585v65.132z" fill="#000"/><path d="M28.762 7.354a1.172 1.172 0 000-2.344h-.012c-.647 0-1.166.525-1.166 1.172 0 .647.531 1.172 1.178 1.172zM51.295 10.02h-6.262a1.172 1.172 0 000 2.344h5.09V70.14H7.377V12.364h5.09a1.172 1.172 0 000-2.344H6.206c-.648 0-1.172.525-1.172 1.172v60.121c0 .647.524 1.172 1.172 1.172h45.09c.648 0 1.172-.525 1.172-1.172V11.192c0-.647-.524-1.172-1.172-1.172z" fill="#000"/><path d="M16.225 35.07a3.681 3.681 0 00-3.677 3.678 3.681 3.681 0 003.677 3.676 3.681 3.681 0 003.677-3.676 3.681 3.681 0 00-3.677-3.677zm0 5.01a1.335 1.335 0 01-1.333-1.332c0-.735.598-1.334 1.333-1.334s1.333.599 1.333 1.334c0 .735-.598 1.333-1.333 1.333zM16.225 46.343a3.681 3.681 0 00-3.677 3.677 3.681 3.681 0 003.677 3.677 3.681 3.681 0 003.677-3.677 3.681 3.681 0 00-3.677-3.677zm0 5.01a1.335 1.335 0 01-1.333-1.333c0-.735.598-1.333 1.333-1.333s1.333.598 1.333 1.333-.598 1.333-1.333 1.333zM16.225 57.616a3.681 3.681 0 00-3.677 3.677 3.681 3.681 0 003.677 3.677 3.681 3.681 0 003.677-3.677 3.681 3.681 0 00-3.677-3.677zm0 5.01a1.335 1.335 0 01-1.333-1.333c0-.735.598-1.333 1.333-1.333s1.333.598 1.333 1.333-.598 1.333-1.333 1.333zM23.74 37.414h11.273a1.172 1.172 0 000-2.343H23.74a1.172 1.172 0 000 2.343zM43.78 40.08H23.74a1.172 1.172 0 000 2.344h20.04a1.172 1.172 0 100-2.343zM23.74 48.687h11.273a1.172 1.172 0 000-2.344H23.74a1.172 1.172 0 000 2.344zM43.78 51.353H23.74a1.172 1.172 0 000 2.344h20.04a1.172 1.172 0 100-2.344zM23.74 59.96h11.273a1.172 1.172 0 000-2.344H23.74a1.172 1.172 0 000 2.344zM23.74 64.97h20.04a1.172 1.172 0 000-2.344H23.74a1.172 1.172 0 000 2.344zM23.74 18.626h20.04a1.172 1.172 0 000-2.343H23.74a1.172 1.172 0 000 2.343zM43.78 27.555H13.72a1.172 1.172 0 000 2.344h30.06a1.172 1.172 0 100-2.344zM23.74 23.637h3.758a1.172 1.172 0 000-2.344H23.74a1.172 1.172 0 000 2.344zM36.265 23.637a1.172 1.172 0 000-2.344h-3.757a1.172 1.172 0 000 2.344h3.757zM12.548 17.455v5.01c0 .647.525 1.172 1.172 1.172h5.01c.647 0 1.172-.525 1.172-1.172v-5.01c0-.648-.525-1.172-1.172-1.172h-5.01c-.647 0-1.172.524-1.172 1.172zm2.344 1.171h2.666v2.667h-2.666v-2.667z" fill="#000"/></g></svg>