<svg xmlns="http://www.w3.org/2000/svg" width="80" height="80"  xmlns:v="https://vecta.io/nano"><path d="M50.342 3.978c2.409 1.979 4.62 4.665 6.542 8 1.43 2.48 2.645 5.227 3.634 8.173 3.576-.698 8.01-2.073 10.68-3.115C66.36 10.6 59.072 3.978 50.342 3.978z" fill="#b3dcf4"/><path d="M21.995 20.598c5.101.835 10.821 1.317 16.742 1.377V2.596c-5.027.537-9.756 4.267-13.432 10.644-1.29 2.237-2.397 4.707-3.31 7.357z" fill="#6cb8dd"/><path d="M61.266 22.573c1.417 4.994 2.212 10.478 2.314 16.164h13.87a37.237 37.237 0 00-5.996-19.084c-2.851 1.165-6.31 2.15-10.188 2.92z" fill="#b3dcf4"/><path d="M10.032 17.526c2.669 1.041 5.873 1.924 9.451 2.623.989-2.946 2.204-5.693 3.633-8.171 1.922-3.335 4.133-6.022 6.542-8-7.929 2.28-14.788 7.113-19.626 13.548zM16.42 38.737c.102-5.687.897-11.172 2.315-16.167-3.88-.77-7.343-1.753-10.19-2.916A37.237 37.237 0 002.55 38.737h13.87z" fill="#6cb8dd"/><path d="M63.58 41.263a69.32 69.32 0 01-.096 2.583c4.186.532 7.435 4.114 7.435 8.442v2.245a3.567 3.567 0 01-1.974 6.325A6.603 6.603 0 0166.01 64.5v.718l1.245.5A37.297 37.297 0 0077.45 41.263H63.58zM50.791 45.66v2.96a4.146 4.146 0 011.646 3.307c0 2.25-1.8 4.087-4.035 4.148a7.94 7.94 0 01-3.75 4.673v1.296l6.533 2.62c.855.296 2.038.975 3.086 2.096l3.956-1.55v-.71a6.606 6.606 0 01-2.936-3.64 3.565 3.565 0 01-2.002-6.337v-2.235c0-4.408 3.369-8.044 7.666-8.47a67.1 67.1 0 00.099-2.555H49.807c.63 1.335.984 2.825.984 4.396z" fill="#96ceee"/><path d="M31.9 38.737c.047 0 .094.003.14.008a10.312 10.312 0 016.697-3.368V24.502c-6.184-.063-12.172-.58-17.51-1.476-1.394 4.83-2.177 10.165-2.28 15.71H31.9zM26.85 52.288v2.245a3.566 3.566 0 01-1.973 6.325 6.605 6.605 0 01-2.936 3.642v.718l3.823 1.533c1.048-1.117 2.23-1.795 3.083-2.089l6.705-2.625v-1.288a7.94 7.94 0 01-3.75-4.672 4.147 4.147 0 01-2.424-7.47V45.66c0-1.572.354-3.062.984-4.397H18.947c.016.852.049 1.702.097 2.544 4.364.36 7.806 4.025 7.806 8.481z" fill="#6cb8dd"/><path d="M41.263 2.596v19.379c5.935-.06 11.65-.54 16.743-1.373-.913-2.652-2.02-5.125-3.31-7.362C51.018 6.863 46.29 3.133 41.262 2.596zm0 21.906v10.862a10.31 10.31 0 0 1 6.858 3.373h12.933c-.104-5.545-.887-10.879-2.281-15.708-5.33.895-11.311 1.41-17.51 1.473z" fill="#b3dcf4"/><path d="M12.778 65.751l1.38-.54v-.712a6.606 6.606 0 01-2.935-3.639 3.566 3.566 0 01-2.002-6.337v-2.235c0-4.28 3.177-7.832 7.296-8.424a68.87 68.87 0 01-.098-2.601H2.55a37.28 37.28 0 0010.23 24.488z" fill="#6cb8dd"/><path d="M40.664 1.064c-2.849 0-5.625.308-8.299.886a37.873 37.873 0 00-9.222 24.824c0 20.999 17.023 38.022 38.022 38.022 3.156 0 6.22-.387 9.152-1.112 5.604-6.623 8.979-15.15 8.979-24.458C79.296 18.15 62 1.064 40.664 1.064z" fill="#b3dcf4"/><path d="M18.338 45.88h-.604a6.414 6.414 0 00-6.407 6.408v1.419l.561-.199.103-.03.06-.008.025-.005a.899.899 0 01.09-.004c.054 0 5.384-.038 7.796-3.373a.85.85 0 01.85-.331c.324.066.58.317.655.644.025.107.654 2.626 2.648 3.079l.043.012.036.01.551.179v-1.393a6.415 6.415 0 00-6.407-6.407zM62.406 45.88h-.604a6.414 6.414 0 00-6.407 6.408v1.419l.561-.199.106-.03.056-.008.027-.005a.9.9 0 01.09-.004c.054 0 5.383-.038 7.795-3.373a.851.851 0 01.851-.331c.324.066.58.317.654.643.025.107.648 2.625 2.65 3.08l.034.01.045.012.55.176v-1.39a6.414 6.414 0 00-6.408-6.407zM40.462 37.435h-.755c-4.535 0-8.224 3.69-8.224 8.225v2.498l.697-.606.064-.052.026-.02.043-.026.029-.017.046-.022.037-.016.142-.044c.018-.004.035-.006.06-.009l.026-.004a.903.903 0 01.091-.005c.068 0 6.841-.049 9.92-4.305a.851.851 0 01.851-.331c.324.066.58.317.653.643.033.14.84 3.414 3.474 4.013l.033.009c.017.004.034.008.051.014l.036.013.039.015.073.037.041.025.029.018a.706.706 0 01.035.026l.707.568V45.66c0-4.535-3.69-8.225-8.224-8.225z" fill="#694b4b"/><path d="M13.516 52.288c0-3.264 2.455-5.965 5.615-6.356a6.443 6.443 0 00-.793-.051h-.604a6.414 6.414 0 00-6.407 6.407v1.419l.561-.199.103-.03.06-.008.025-.005a11.563 11.563 0 001.44-.115v-1.062zM57.584 52.288c0-3.264 2.455-5.965 5.615-6.356a6.439 6.439 0 00-.793-.051h-.604a6.414 6.414 0 00-6.407 6.407v1.418l.561-.198.106-.03.056-.008.027-.005a.9.9 0 01.09-.004c.017 0 .55-.004 1.35-.111v-1.062zM33.672 45.66c0-4.294 3.307-7.827 7.507-8.192a8.3 8.3 0 00-.717-.033h-.756c-4.534 0-8.224 3.69-8.224 8.225v2.498l.698-.606.064-.052.026-.02.043-.026.029-.017.045-.022.038-.016.142-.044c.018-.004.035-.006.06-.009l.026-.004a.903.903 0 01.091-.005c.015 0 .363-.002.928-.053V45.66z" fill="#563b3b"/><path d="M62.694 64.98h-1.152c-.24 0-.48-.016-.739-.047l-.471-.056v1.525l1.753 1.707 1.819-1.887v-1.345l-.472.056c-.257.031-.499.046-.738.046z" fill="#fbcb99"/><path d="M54.683 56.195l-.151.024-.102.115a1.465 1.465 0 00.31 2.199l.649.418v-2.986l-.56.194a.799.799 0 01-.146.036z" fill="#e9b280"/><path d="M64.663 52.643l-.25-.43-.383.319c-2.184 1.824-5.06 2.372-6.58 2.536l-.377.041v3.717a4.474 4.474 0 0 0 4.47 4.469h1.151a4.474 4.474 0 0 0 4.469-4.469v-3.898l-.242-.114c-.906-.424-1.665-1.155-2.258-2.171zm-44.068 0l-.25-.43-.383.319c-2.18 1.821-5.06 2.37-6.581 2.534l-.376.041v3.72a4.474 4.474 0 0 0 4.469 4.468h1.152a4.474 4.474 0 0 0 4.469-4.469v-3.898l-.242-.114c-.906-.424-1.665-1.155-2.258-2.171zM18.626 64.98h-1.152c-.24 0-.481-.016-.74-.047l-.47-.056v1.525l1.753 1.707 1.818-1.887v-1.345l-.47.056c-.258.031-.5.046-.739.046zm6.939-8.787l-.134-.025a.844.844 0 0 1-.101-.025l-.551-.18v3.006l.665-.475a1.46 1.46 0 0 0 .214-2.202l-.093-.099zm44.067 0l-.134-.025a.812.812 0 0 1-.101-.026l-.55-.177v3.004l.666-.475a1.46 1.46 0 0 0 .213-2.202l-.094-.1zM43.288 45.68l-.252-.477-.401.36c-2.801 2.515-6.635 3.205-8.671 3.393l-.383.035v4.845a5.81 5.81 0 0 0 5.8 5.8h1.441a5.81 5.81 0 0 0 5.8-5.8v-5.024l-.256-.11c-1.58-.674-2.546-2.016-3.078-3.022z" fill="#fbcb99"/><path d="M58.926 58.826V55.11l.376-.04c1.325-.144 3.68-.58 5.708-1.896a6.7 6.7 0 0 1-.347-.53l-.25-.43-.383.32c-2.184 1.823-5.06 2.371-6.581 2.536l-.376.04v3.717a4.474 4.474 0 0 0 4.469 4.469h1.152l.35-.015a4.474 4.474 0 0 1-4.118-4.454zm-44.068 0v-3.719l.375-.04c1.326-.144 3.682-.58 5.709-1.894a6.65 6.65 0 0 1-.347-.53l-.25-.43-.383.319c-2.18 1.821-5.06 2.37-6.581 2.535l-.376.04v3.72a4.474 4.474 0 0 0 4.47 4.468h1.151l.35-.015a4.474 4.474 0 0 1-4.118-4.454zm20.576-4.99v-4.845l.382-.035c1.834-.17 5.126-.747 7.809-2.697l-.337-.58-.252-.477-.401.361c-2.801 2.515-6.635 3.205-8.672 3.393l-.382.035v4.845a5.81 5.81 0 0 0 5.8 5.8h1.441l.206-.005a5.806 5.806 0 0 1-5.594-5.795z" fill="#edba89"/><path d="M49.566 50.329l-.136-.016a.836.836 0 01-.436-.184l-.688-.567v4.484l.535-.151a2.053 2.053 0 001.491-1.968 2.05 2.05 0 00-.665-1.506l-.1-.092z" fill="#fbcb99"/><path d="M30.701 50.346l-.154.011-.11.108a2.041 2.041 0 00.938 3.447l.522.129v-4.522l-.7.619a.832.832 0 01-.496.208z" fill="#e9b280"/><path d="M40.822 61.32h-1.44c-.407 0-.822-.035-1.235-.103l-.49-.082v2.264l2.408 2.345 2.481-2.574v-2.035l-.49.082a7.57 7.57 0 01-1.234.103z" fill="#fbcb99"/><path d="M63.395 65.205h.509v-.328l-.472.18a2.313 2.313 0 0 1-.388.113c.119.022.235.035.35.035zm-1.21 1.197v-1.423h-.643c-.24 0-.48-.015-.739-.046l-.471-.056v1.525l1.753 1.707.897-.93-.797-.777zm-42.859-1.197h.51v-.328l-.472.18a2.254 2.254 0 0 1-.387.113c.118.022.234.035.35.035zm-1.21 1.197v-1.423h-.642a6.16 6.16 0 0 1-.74-.046l-.47-.056v1.525l1.753 1.707.897-.93-.798-.777zm21.394-3.003V61.32h-.129a7.62 7.62 0 0 1-1.234-.103l-.49-.082v2.264l2.408 2.345.897-.93-1.453-1.415zm1.724-1.764h1.312v-.5l-.49.22a3.1 3.1 0 0 1-1.028.268l.206.012z" fill="#edba89"/><path d="M10.615 56.195l-.152.024-.101.115a1.462 1.462 0 00.31 2.199l.648.418v-2.988l-.56.196a.784.784 0 01-.145.036z" fill="#e9b280"/><path d="M50.467 66.644l-.035-.013-6.406-2.57-3.336 3.462a.838.838 0 01-1.194.019l-3.274-3.19-.217-.231-6.417 2.513a1.05 1.05 0 01-.044.015c-.166.059-4.074 1.491-4.074 6.426v5.83h29.087v-5.83c0-4.934-3.915-6.37-4.09-6.431zM18.642 69.887a.854.854 0 01-.606.258.838.838 0 01-.588-.239l-2.726-2.655-5.018 1.965-.045.017c-.128.045-3.14 1.163-3.14 4.977v3.685h17.267v-4.82c0-1.457.297-2.805.884-4.007l.2-.407-3.64-1.46-2.588 2.686zM70.35 69.227a.528.528 0 01-.035-.014l-5.017-2.012-2.588 2.686a.854.854 0 01-.606.258.837.837 0 01-.588-.24l-2.725-2.654-3.627 1.42.2.41c.582 1.198.878 2.541.878 3.994v4.82h17.266V74.21c0-3.82-3.022-4.936-3.157-4.983z" fill="#6598cb"/><path d="M31.565 66.65a.812.812 0 00.044-.017l4.96-1.943-.347-.339-.217-.23-6.417 2.512a1.05 1.05 0 01-.044.016c-.166.058-4.074 1.49-4.074 6.425v4.82h2.021v-4.82c0-4.934 3.908-6.366 4.074-6.425zM11.68 69.233a.912.912 0 00.046-.017l3.576-1.4-.58-.565-5.018 1.965-.045.017c-.128.045-3.14 1.162-3.14 4.977v3.685H8.54V74.21c0-3.815 3.012-4.932 3.14-4.977zM57.384 69.081l-.2-.41 2.186-.856-.58-.564-3.626 1.42.2.41c.582 1.198.878 2.541.878 3.994v4.82h2.02v-4.82c0-1.453-.295-2.796-.878-3.994z" fill="#4982aa"/><path d="M71.076 67.25l-1.314-.527C76.372 59.37 80 49.926 80 40a39.94 39.94 0 00-6.928-22.502 1.254 1.254 0 00-.2-.287 40.108 40.108 0 00-6.968-7.691 1.263 1.263 0 10-1.637 1.924 37.608 37.608 0 015.717 6.079c-2.674 1.044-5.883 1.93-9.466 2.629-.989-2.947-2.205-5.695-3.634-8.174-1.926-3.341-4.141-6.032-6.556-8.01a37.248 37.248 0 0110.623 4.958 1.263 1.263 0 101.414-2.094C55.75 2.362 48.015 0 40 0 29.315 0 19.27 4.16 11.716 11.716 4.16 19.27 0 29.316 0 40c0 9.939 3.633 19.384 10.254 26.74l-1.298.508c-.478.173-4.542 1.794-4.542 6.962v4.526c0 .697.565 1.264 1.263 1.264H24.27c.06 0 .12-.006.179-.014.058.008.118.014.179.014h5.14a1.263 1.263 0 100-2.526H25.89v-4.4c0-4.64 3.646-5.976 3.793-6.028l.058-.02 6.151-2.41c.014.014.026.03.04.043l3.27 3.184c.235.23.552.359.88.359h.02c.337-.006.657-.145.89-.387l3.139-3.257 6.143 2.463c.022.01.037.015.06.023.155.054 3.8 1.39 3.8 6.03v4.4H33.716a1.263 1.263 0 100 2.526H74.35a1.27 1.27 0 001.263-1.272V74.21c0-5.148-4.033-6.777-4.537-6.96zm-5.067-2.032V64.5a6.605 6.605 0 002.936-3.642 3.567 3.567 0 001.973-6.325v-2.245c0-4.328-3.248-7.91-7.434-8.442.048-.856.081-1.72.097-2.583h13.87a37.295 37.295 0 01-10.196 24.455l-1.246-.5zM54.487 57.3c0-.264.098-.504.26-.688.076-.012.15-.03.221-.055v1.622a1.045 1.045 0 01-.481-.879zm-13.665 1.915h-1.44a5.385 5.385 0 01-5.38-5.379v-4.461c2.016-.186 6.002-.885 8.914-3.499.614 1.163 1.645 2.513 3.284 3.214v4.746a5.385 5.385 0 01-5.378 5.379zm-10.581-7.288c0-.455.188-.866.49-1.161.285-.02.543-.135.745-.313v3.05a1.626 1.626 0 01-1.235-1.576zm1.66-13.19H18.945c.104-5.546.887-10.88 2.282-15.711 5.337.897 11.325 1.414 17.509 1.475v10.876a10.311 10.311 0 00-6.697 3.368 1.257 1.257 0 00-.14-.008zM16.684 65.35c.259.031.522.05.789.05h1.152c.267 0 .53-.019.789-.05v.7l-1.407 1.46-1.323-1.287v-.873zm1.941-2.477h-1.152a4.052 4.052 0 01-4.048-4.048v-3.338c1.645-.178 4.559-.756 6.805-2.633.504.863 1.282 1.796 2.442 2.34v3.631a4.052 4.052 0 01-4.047 4.048zM10.418 57.3c0-.264.099-.504.26-.688.077-.012.15-.03.222-.055v1.622a1.045 1.045 0 01-.482-.879zm14.782-.757c.05.016.1.029.153.039a1.042 1.042 0 01-.153 1.57v-1.609zm-.876-3.442c-.024-.008-.049-.014-.074-.02l-.033-.01c-1.76-.4-2.337-2.75-2.341-2.768a1.263 1.263 0 00-2.255-.461c-2.29 3.164-7.393 3.198-7.454 3.198h-.004c-.044 0-.087.002-.13.007l-.039.006c-.028.004-.057.007-.085.013l-.054.014c-.022.005-.045.01-.067.017-.014.004-.027.01-.04.015v-.824c0-3.3 2.685-5.986 5.986-5.986h.604c3.3 0 5.986 2.685 5.986 5.986v.813zM2.55 38.737a37.236 37.236 0 015.995-19.083c2.846 1.163 6.31 2.145 10.19 2.916-1.418 4.995-2.213 10.48-2.316 16.167H2.55zm45.715 6.923v1.543l-.026-.02a1.208 1.208 0 00-.056-.04c-.015-.011-.03-.02-.046-.03-.018-.012-.037-.024-.057-.035-.017-.01-.036-.02-.055-.028-.017-.01-.035-.018-.053-.026-.022-.01-.046-.018-.069-.027l-.046-.017a1.3 1.3 0 00-.08-.022l-.033-.01c-2.4-.545-3.16-3.674-3.166-3.701a1.263 1.263 0 00-2.256-.461c-2.958 4.089-9.492 4.13-9.578 4.13h-.005c-.044 0-.087.003-.13.007l-.039.007c-.028.003-.057.007-.085.013-.018.003-.036.009-.054.013-.022.006-.045.01-.067.018-.02.006-.038.013-.056.02l-.06.022c-.021.009-.041.02-.061.03-.016.007-.033.014-.049.023-.021.011-.041.025-.062.037l-.042.026c-.02.013-.037.028-.056.042l-.041.03-.034.03V45.66c0-4.303 3.5-7.803 7.803-7.803h.756c4.303 0 7.803 3.5 7.803 7.803zM38.737 2.596v19.379c-5.92-.06-11.64-.542-16.742-1.377.913-2.65 2.02-5.121 3.31-7.358C28.98 6.863 33.71 3.133 38.737 2.596zm9.99 47.858c.182.15.408.25.655.278a1.619 1.619 0 01-.655 2.758v-3.036zm-.606-11.717a10.31 10.31 0 00-6.858-3.373V24.502c6.199-.062 12.18-.578 17.51-1.473 1.394 4.83 2.177 10.163 2.28 15.708H48.121zm13.681 7.565h.604c3.301 0 5.986 2.685 5.986 5.986v.813c-.024-.008-.048-.014-.073-.02l-.034-.01c-1.76-.4-2.337-2.75-2.341-2.768a1.263 1.263 0 00-2.256-.461c-2.287 3.162-7.386 3.198-7.453 3.198h-.004c-.044 0-.087.002-.13.007l-.04.006c-.028.004-.056.007-.084.013l-.056.014c-.022.006-.044.01-.065.017-.014.004-.027.01-.04.015v-.823a5.994 5.994 0 015.986-5.987zm7.466 10.241c.05.016.1.029.152.038a1.042 1.042 0 01-.152 1.57v-1.608zm-11.774-1.057c1.646-.178 4.56-.755 6.806-2.63.503.862 1.281 1.795 2.442 2.34v3.63a4.052 4.052 0 01-4.048 4.048h-1.152a4.052 4.052 0 01-4.048-4.048v-3.34zm3.26 9.865c.258.031.52.05.788.05h1.152c.267 0 .53-.019.79-.05v.7l-1.408 1.46-1.323-1.287v-.873zm10.712-45.703a37.41 37.41 0 015.984 19.089H63.58c-.102-5.686-.897-11.17-2.314-16.164 3.884-.772 7.347-1.757 10.2-2.925zm-16.77-6.408c1.29 2.237 2.397 4.71 3.31 7.361-5.093.834-10.808 1.314-16.743 1.374V2.596c5.027.537 9.756 4.267 13.432 10.644zM29.657 3.978c-2.409 1.979-4.62 4.665-6.542 8-1.429 2.478-2.644 5.225-3.633 8.17-3.578-.698-6.782-1.58-9.451-2.621C14.87 11.09 21.729 6.258 29.658 3.978zM2.55 41.263h13.87c.015.87.049 1.739.097 2.6-4.12.593-7.295 4.145-7.295 8.425v2.235a3.566 3.566 0 002.001 6.337 6.603 6.603 0 002.935 3.64v.71l-1.38.541A37.281 37.281 0 012.55 41.263zm12.871 36.21H6.94V74.21c0-3.522 2.753-4.543 2.86-4.58l.059-.022 4.764-1.866 2.531 2.466c.236.23.553.358.882.358h.02c.336-.005.656-.144.889-.387l2.391-2.481 2.956 1.185c-.56 1.147-.928 2.536-.928 4.192v4.399h-7.943zm13.426-12.81c-.854.293-2.035.97-3.083 2.088l-3.823-1.533V64.5a6.603 6.603 0 002.936-3.642 3.567 3.567 0 001.973-6.325v-2.245c0-4.456-3.442-8.121-7.806-8.481a66.48 66.48 0 01-.098-2.544h11.416a10.265 10.265 0 00-.985 4.396v2.948a4.147 4.147 0 00-1.663 3.32 4.155 4.155 0 004.087 4.15 7.94 7.94 0 003.75 4.671v1.288l-6.704 2.626zm11.208.484l-1.977-1.926v-1.589c.424.07.859.11 1.303.11h1.441c.444 0 .879-.04 1.303-.11V63l-2.07 2.147zm11.13-.483l-6.534-2.62V60.75a7.94 7.94 0 003.75-4.673 4.147 4.147 0 002.39-7.455V45.66c0-1.572-.354-3.062-.985-4.397h11.247c-.016.855-.05 1.708-.098 2.555-4.298.427-7.666 4.062-7.666 8.47v2.235a3.565 3.565 0 002.002 6.337 6.604 6.604 0 002.936 3.64v.71l-3.956 1.55c-1.048-1.12-2.23-1.8-3.086-2.096zm21.902 12.81H56.662v-4.4c0-1.648-.363-3.033-.92-4.177l2.95-1.155 2.53 2.465c.236.23.553.359.882.359h.02c.336-.005.656-.145.89-.387l2.39-2.481 4.755 1.906a.87.87 0 00.057.021c.117.042 2.871 1.063 2.871 4.585v3.264z" fill="#202121"/><path d="M72.771 54.533v-2.245a8.472 8.472 0 00-2.281-5.79 8.557 8.557 0 00-2-1.59c-2.418-1.316-5.006-1.061-5.006-1.061 4.186.531 7.435 4.113 7.435 8.441v2.245a3.567 3.567 0 01-1.974 6.325A6.603 6.603 0 0166.01 64.5v.719l1.245.499c.206-.218.408-.438.608-.66V64.5a6.61 6.61 0 001.444-1.146c.29-.364.574-.733.85-1.106.265-.433.482-.898.642-1.39.126-.01.25-.027.372-.05a37.258 37.258 0 002.696-4.743 3.586 3.586 0 00-1.095-1.532zM53.037 64.664l-6.533-2.62v-1.296a7.939 7.939 0 003.75-4.673 4.129 4.129 0 002.346-.81c.194-.278.426-.529.69-.742v-2.235c0-.88.136-1.73.385-2.529a4.187 4.187 0 00-1.031-1.139v-2.96c0-1.572-.354-3.062-.985-4.397h-1.853c.63 1.335.985 2.825.985 4.396v2.961a4.146 4.146 0 011.646 3.307c0 2.25-1.8 4.087-4.035 4.148a7.94 7.94 0 01-3.75 4.673v1.296l6.533 2.62c.855.296 2.038.975 3.086 2.096l1.324-.519c-.902-.814-1.844-1.33-2.558-1.577zM29.357 55.232a4.145 4.145 0 01-1.036-5.46 8.535 8.535 0 00-2.537-3.893 8.524 8.524 0 00-2.282-1.429c-2.273-.922-4.458-.643-4.458-.643 4.365.36 7.807 4.026 7.807 8.482v2.245a3.566 3.566 0 01-1.973 6.324A6.605 6.605 0 0121.94 64.5v.719l3.823 1.533c.177-.188.357-.363.54-.527l-2.51-1.006V64.5a6.606 6.606 0 002.936-3.642 3.575 3.575 0 003.29-3.558c0-.77-.246-1.484-.663-2.068zM48.121 38.737h1.853a10.39 10.39 0 00-2.17-1.822c-1.436-.871-3.6-1.697-6.54-1.55a10.309 10.309 0 016.857 3.372z" fill="#6cb8dd"/></svg>