<svg width="78" height="80" xmlns="http://www.w3.org/2000/svg"><g fill-rule="nonzero" fill="none"><path d="M14.82 43.84l-2.933-1.467a1.252 1.252 0 01-.693-1.12v-2.506h-5.01v2.505c0 .475-.268.908-.692 1.12L2.559 43.84a2.505 2.505 0 00-1.385 2.24v3.941h15.03v-3.94c0-.949-.536-1.816-1.384-2.24z" fill="#E6AF78"/><path d="M14.82 43.84l-2.285-1.143c-.919 1.111-2.29 3.397-3.846 3.397-1.554 0-2.926-2.286-3.845-3.397l-2.285 1.142a2.505 2.505 0 00-1.385 2.24v3.941h15.03v-3.94c0-.949-.536-1.816-1.384-2.24z" fill="#FFDC64"/><g fill="#FFC850"><path d="M4.932 48.768c0-.789-.371-1.531-1.002-2.004l-2.453-1.84a2.484 2.484 0 00-.303 1.156v3.94h3.758v-1.252zM12.447 48.768c0-.789.371-1.531 1.002-2.004l2.453-1.84c.185.353.302.742.302 1.156v3.94h-3.757v-1.252z"/></g><path d="M8.69 40a5.01 5.01 0 01-5.01-5.01v-2.505a3.757 3.757 0 013.757-3.758h2.505a3.757 3.757 0 013.757 3.758v2.505A5.01 5.01 0 018.69 40z" fill="#F0C087"/><path d="M7.437 34.99v-2.505a3.75 3.75 0 013.131-3.695 3.743 3.743 0 00-.626-.063H7.437a3.757 3.757 0 00-3.758 3.758v2.505A5.01 5.01 0 008.69 40c.666 0 1.298-.136 1.88-.372a5.006 5.006 0 01-3.132-4.638z" fill="#E6AF78"/><path d="M3.68 32.485s3.757 1.252 10.02 1.252v-1.252a3.757 3.757 0 00-3.758-3.758H7.437a3.758 3.758 0 00-3.758 3.758z" fill="#694B4B"/><path d="M7.437 32.485a3.75 3.75 0 013.131-3.695 3.743 3.743 0 00-.626-.063H7.437a3.757 3.757 0 00-3.758 3.758s1.348.445 3.758.805v-.805z" fill="#5A4146"/><path d="M74.94 43.84l-2.932-1.467a1.252 1.252 0 01-.693-1.12v-2.506h-5.01v2.505c0 .475-.268.908-.692 1.12L62.68 43.84a2.505 2.505 0 00-1.385 2.24v3.941h15.03v-3.94c0-.949-.536-1.816-1.384-2.24z" fill="#E6AF78"/><path d="M74.94 43.84l-2.284-1.143c-.919 1.111-2.29 3.397-3.846 3.397-1.555 0-2.927-2.286-3.845-3.397l-2.285 1.142a2.505 2.505 0 00-1.385 2.24v3.941h15.03v-3.94c0-.949-.536-1.816-1.384-2.24z" fill="#00AAF0"/><g fill="#0096DC"><path d="M65.053 48.768c0-.789-.371-1.531-1.002-2.004l-2.453-1.84a2.484 2.484 0 00-.303 1.156v3.94h3.758v-1.252zM72.568 48.768c0-.789.371-1.531 1.002-2.004l2.453-1.84c.185.353.302.742.302 1.156v3.94h-3.757v-1.252z"/></g><path d="M68.81 40a5.01 5.01 0 01-5.01-5.01v-2.505a3.757 3.757 0 013.758-3.758h2.505a3.757 3.757 0 013.757 3.758v2.505A5.01 5.01 0 0168.81 40z" fill="#F0C087"/><path d="M67.558 34.99v-2.505a3.75 3.75 0 013.131-3.695 3.743 3.743 0 00-.626-.063h-2.505a3.757 3.757 0 00-3.758 3.758v2.505A5.01 5.01 0 0068.81 40c.666 0 1.298-.136 1.88-.372a5.006 5.006 0 01-3.132-4.638z" fill="#E6AF78"/><path d="M63.8 32.485s3.758 1.252 10.02 1.252v-1.252a3.757 3.757 0 00-3.757-3.758h-2.505a3.758 3.758 0 00-3.758 3.758z" fill="#694B4B"/><path d="M67.558 32.485a3.75 3.75 0 013.131-3.695 3.743 3.743 0 00-.626-.063h-2.505a3.757 3.757 0 00-3.758 3.758s1.347.445 3.758.805v-.805z" fill="#5A4146"/><path d="M44.88 16.284l-2.933-1.467a1.252 1.252 0 01-.692-1.12v-2.505h-5.01v2.505c0 .474-.268.908-.693 1.12l-2.933 1.467a2.505 2.505 0 00-1.384 2.24v3.94h13.777c.692 0 1.253-.56 1.253-1.252v-2.688c0-.948-.536-1.816-1.385-2.24z" fill="#E6AF78"/><path d="M44.88 16.284l-2.284-1.142c-.92 1.111-2.291 3.397-3.846 3.397-1.555 0-2.927-2.286-3.846-3.397l-2.285 1.142a2.505 2.505 0 00-1.384 2.24v3.94h13.777c.692 0 1.253-.56 1.253-1.252v-2.688c0-.948-.536-1.816-1.385-2.24z" fill="#FF507D"/><g fill="#D23C69"><path d="M34.992 21.212c0-.788-.37-1.53-1.002-2.004l-2.452-1.84a2.484 2.484 0 00-.303 1.156v3.94h3.757v-1.252zM42.507 21.212c0-.788.372-1.53 1.002-2.004l2.453-1.84c.185.353.303.743.303 1.156v3.94h-3.758v-1.252z"/></g><path d="M38.75 12.445a5.01 5.01 0 01-5.01-5.01V4.929a3.757 3.757 0 013.757-3.757h2.505a3.757 3.757 0 013.758 3.757v2.505a5.01 5.01 0 01-5.01 5.01z" fill="#F0C087"/><path d="M37.497 7.435V4.929a3.75 3.75 0 013.132-3.694 3.743 3.743 0 00-.627-.063h-2.505a3.757 3.757 0 00-3.757 3.757v2.505a5.01 5.01 0 005.01 5.01c.665 0 1.298-.135 1.879-.371a5.006 5.006 0 01-3.132-4.638z" fill="#E6AF78"/><path d="M33.74 4.93s3.758 1.252 10.02 1.252V4.929a3.757 3.757 0 00-3.757-3.757h-2.505a3.757 3.757 0 00-3.758 3.757z" fill="#694B4B"/><path d="M37.497 4.93a3.75 3.75 0 013.132-3.695 3.743 3.743 0 00-.627-.063h-2.505a3.757 3.757 0 00-3.757 3.757s1.347.446 3.757.806v-.806z" fill="#5A4146"/><path d="M44.88 72.647l-2.933-1.466a1.252 1.252 0 01-.692-1.12v-2.506h-5.01v2.505c0 .475-.268.908-.693 1.12l-2.933 1.467a2.505 2.505 0 00-1.384 2.24v3.941h15.03v-3.94c0-.949-.536-1.816-1.385-2.24z" fill="#E6AF78"/><path d="M44.88 72.647l-2.284-1.142c-.92 1.111-2.291 3.397-3.846 3.397-1.555 0-2.927-2.286-3.846-3.397l-2.285 1.142a2.505 2.505 0 00-1.384 2.24v3.941h15.03v-3.94c0-.949-.536-1.816-1.385-2.24z" fill="#B4E66E"/><g fill="#A0D755"><path d="M34.992 77.576c0-.789-.37-1.531-1.002-2.004l-2.452-1.84a2.484 2.484 0 00-.303 1.156v3.94h3.757v-1.252zM42.507 77.576c0-.789.372-1.531 1.002-2.004l2.453-1.84c.185.353.303.742.303 1.156v3.94h-3.758v-1.252z"/></g><path d="M38.75 68.808a5.01 5.01 0 01-5.01-5.01v-2.505a3.757 3.757 0 013.757-3.758h2.505a3.757 3.757 0 013.758 3.758v2.505a5.01 5.01 0 01-5.01 5.01z" fill="#F0C087"/><path d="M37.497 63.798v-2.505a3.75 3.75 0 013.132-3.695 3.743 3.743 0 00-.627-.063h-2.505a3.757 3.757 0 00-3.757 3.758v2.505a5.01 5.01 0 005.01 5.01c.665 0 1.298-.136 1.879-.372a5.006 5.006 0 01-3.132-4.638z" fill="#E6AF78"/><path d="M33.74 61.293s3.758 1.252 10.02 1.252v-1.252a3.757 3.757 0 00-3.757-3.758h-2.505a3.757 3.757 0 00-3.758 3.758z" fill="#694B4B"/><path d="M37.497 61.293a3.75 3.75 0 013.132-3.695 3.743 3.743 0 00-.627-.063h-2.505a3.757 3.757 0 00-3.757 3.758s1.347.445 3.757.805v-.805z" fill="#5A4146"/><path d="M26.92 67.732A30.34 30.34 0 0112.3 54.466a1.172 1.172 0 00-2.055 1.127A32.697 32.697 0 0026 69.887a1.17 1.17 0 001.538-.617 1.172 1.172 0 00-.617-1.538zM66.79 54.003a1.172 1.172 0 00-1.591.465A30.343 30.343 0 0150.582 67.73a1.172 1.172 0 10.92 2.156 32.698 32.698 0 0015.752-14.292 1.172 1.172 0 00-.464-1.59zM64.501 24.328a1.171 1.171 0 102.001-1.22A32.58 32.58 0 0049.148 9.214a1.172 1.172 0 10-.75 2.221 30.232 30.232 0 0116.103 12.892zM28.356 9.214a32.581 32.581 0 00-17.358 13.893 1.172 1.172 0 002 1.22 30.233 30.233 0 0116.107-12.892 1.172 1.172 0 00-.75-2.221zM45.404 15.714l-2.933-1.466a.08.08 0 01-.044-.073V12.4a6.177 6.177 0 002.505-4.966V4.93A4.935 4.935 0 0040.002 0h-2.505a4.935 4.935 0 00-4.929 4.93v2.504c0 2.033.986 3.839 2.505 4.966v1.775a.08.08 0 01-.045.073l-2.933 1.466a3.657 3.657 0 00-2.032 3.289v3.462a1.172 1.172 0 102.344 0v-3.462c0-.508.282-.965.737-1.193l2.034-1.017 1.857 1.857c.458.458 1.067.71 1.715.71.648 0 1.256-.252 1.714-.71l1.857-1.857 2.035 1.018c.455.227.737.684.737 1.192v3.462a1.172 1.172 0 102.344 0v-3.462a3.657 3.657 0 00-2.033-3.289zM34.912 4.93a2.589 2.589 0 012.586-2.585h2.505a2.589 2.589 0 012.585 2.585v2.505a3.843 3.843 0 01-3.838 3.839 3.843 3.843 0 01-3.838-3.839V4.93zm3.838 12.087a.076.076 0 01-.057-.023l-1.602-1.602a2.42 2.42 0 00.326-1.216v-.705a6.178 6.178 0 002.666 0v.705c0 .438.116.855.326 1.216l-1.602 1.602a.076.076 0 01-.057.023zM45.404 72.078l-2.933-1.467a.08.08 0 01-.044-.072v-1.775a6.177 6.177 0 002.505-4.966v-2.505a4.935 4.935 0 00-4.93-4.93h-2.505a4.935 4.935 0 00-4.93 4.93v2.505c0 2.032.987 3.838 2.506 4.966v1.775a.08.08 0 01-.045.072l-2.933 1.466a3.657 3.657 0 00-2.032 3.29v3.461a1.172 1.172 0 102.343 0v-3.462c0-.508.283-.965.737-1.192l2.035-1.017 1.857 1.857c.458.458 1.067.71 1.715.71.647 0 1.256-.252 1.714-.71l1.857-1.857 2.035 1.017c.455.227.737.684.737 1.192v3.462a1.172 1.172 0 102.344 0v-3.462a3.657 3.657 0 00-2.033-3.288zM34.912 61.293a2.589 2.589 0 012.586-2.586h2.505a2.589 2.589 0 012.585 2.586v2.505a3.842 3.842 0 01-3.838 3.838 3.843 3.843 0 01-3.838-3.838v-2.505zM38.75 73.38a.076.076 0 01-.057-.024l-1.602-1.602a2.42 2.42 0 00.326-1.215v-.706a6.178 6.178 0 002.666 0v.706c0 .438.116.854.326 1.215l-1.602 1.602a.076.076 0 01-.057.024zM12.26 44.348l2.036 1.018c.454.227.737.684.737 1.192v3.462a1.172 1.172 0 102.343 0v-3.462a3.657 3.657 0 00-2.032-3.288l-2.933-1.467a.08.08 0 01-.045-.072v-1.775a6.177 6.177 0 002.505-4.966v-2.505a4.935 4.935 0 00-4.93-4.93H7.438a4.935 4.935 0 00-4.93 4.93v2.505c0 2.032.987 3.839 2.506 4.966v1.775a.08.08 0 01-.045.072L2.035 43.27a3.657 3.657 0 00-2.033 3.288v3.462a1.172 1.172 0 102.344 0v-3.462c0-.508.283-.965.737-1.192l2.035-1.017 1.857 1.857a2.416 2.416 0 001.714.709c.621 0 1.242-.237 1.715-.71l1.857-1.857zM4.852 32.485a2.589 2.589 0 012.586-2.586h2.505a2.589 2.589 0 012.586 2.586v2.505a3.842 3.842 0 01-3.838 3.838A3.843 3.843 0 014.85 34.99v-2.505zm3.781 12.063l-1.601-1.601a2.42 2.42 0 00.325-1.216v-.706a6.178 6.178 0 002.667 0v.706c0 .438.116.854.325 1.215l-1.602 1.602a.08.08 0 01-.114 0zM75.465 43.27l-2.933-1.467a.08.08 0 01-.045-.072v-1.775a6.177 6.177 0 002.505-4.966v-2.505a4.935 4.935 0 00-4.93-4.93h-2.504a4.935 4.935 0 00-4.93 4.93v2.505c0 2.032.987 3.839 2.505 4.966v1.775a.08.08 0 01-.044.072l-2.933 1.467a3.657 3.657 0 00-2.033 3.288v3.462a1.172 1.172 0 102.344 0v-3.462c0-.508.283-.965.737-1.192l2.035-1.017 1.857 1.857a2.416 2.416 0 001.714.709c.621 0 1.242-.237 1.715-.71l1.857-1.856 2.035 1.017c.454.227.737.684.737 1.192v3.462a1.172 1.172 0 102.344 0v-3.462a3.657 3.657 0 00-2.033-3.288zM64.972 32.485a2.589 2.589 0 012.586-2.586h2.505a2.589 2.589 0 012.585 2.586v2.505a3.842 3.842 0 01-3.838 3.838 3.843 3.843 0 01-3.838-3.838v-2.505zm3.781 12.063l-1.602-1.602a2.42 2.42 0 00.326-1.215v-.706a6.178 6.178 0 002.666 0v.706c0 .438.117.854.326 1.216l-1.602 1.601a.08.08 0 01-.114 0z" fill="#000"/></g></svg>