<svg width="68" height="80" xmlns="http://www.w3.org/2000/svg"><g fill-rule="nonzero" fill="none"><circle fill="#569FAF" cx="33.75" cy="33.737" r="32.566"/><path d="M50.033 57.535c-17.986 0-32.566-14.58-32.566-32.565 0-9.04 3.685-17.216 9.631-23.116C12.303 4.924 1.185 18.032 1.185 33.737c0 17.986 14.58 32.566 32.565 32.566 8.947 0 17.049-3.61 22.935-9.45a32.689 32.689 0 01-6.652.682z" fill="#1C6485"/><path d="M51.745 67.609l-10.48-3.811-7.515 2.505-7.515-2.505-10.48 3.81a5.01 5.01 0 00-3.298 4.71v6.51h42.586v-6.51a5.01 5.01 0 00-3.298-4.71z" fill="#D5DCED"/><path d="M53.695 68.904a5.004 5.004 0 011.348 3.413v6.511h-7.515v-1.682a5.01 5.01 0 011.467-3.543l4.7-4.7z" fill="#C7CFE2"/><path d="M47.528 37.968V27.474a2.505 2.505 0 00-2.505-2.505h-15.03c-5.535 0-10.02 4.486-10.02 10.02v2.977c0 1.347.216 2.684.642 3.961l.417 1.251c.128.383.193.784.193 1.188v.643h25.05v-.643c0-.404.065-.805.193-1.188l.417-1.25c.426-1.278.643-2.615.643-3.962z" fill="#5A4146"/><path d="M26.235 30.058a5.088 5.088 0 005.088 5.089h.705l.34 9.863h13.907v-.643c0-.404.065-.805.193-1.188l.417-1.25c.426-1.278.643-2.615.643-3.962V27.476a2.505 2.505 0 00-2.505-2.505h-13.7a5.088 5.088 0 00-5.088 5.088z" fill="#694B4B"/><path fill="#E6AF78" d="M26.234 55.03h15.03v11.272h-15.03z"/><path d="M26.235 60.699a16.197 16.197 0 007.515 1.846c2.713 0 5.265-.673 7.515-1.846V55.03h-15.03V60.7z" fill="#D29B6E"/><g fill="#C7CFE2"><path d="M33.75 66.303l-3.995 3.995a1.253 1.253 0 01-1.883-.129l-4.142-5.457 1.083-2.284a1.252 1.252 0 011.789-.529l7.148 4.404zM33.75 66.303l3.995 3.995a1.253 1.253 0 001.883-.129l4.142-5.457-1.083-2.284a1.252 1.252 0 00-1.789-.529l-7.148 4.404z"/></g><path d="M33.75 58.788c-6.918 0-12.525-5.608-12.525-12.525V45.01l2.084-1.39a3.758 3.758 0 001.674-3.126v-4.251s10.02-3.758 17.535 2.505v1.746c0 1.256.628 2.43 1.673 3.127l2.084 1.39v1.252c0 6.917-5.608 12.525-12.525 12.525z" fill="#F0C087"/><path d="M13.805 68.904a5.004 5.004 0 00-1.348 3.413v6.511h7.515v-1.682a5.01 5.01 0 00-1.467-3.543l-4.7-4.7z" fill="#C7CFE2"/><path d="M30.943 39.253c2.724-.341 7.491-.538 11.575 1.24v-1.745c-7.516-6.263-17.536-2.506-17.536-2.506v4.252c0 1.256-.627 2.43-1.673 3.126l-2.084 1.39v1.253c0 6.404 4.81 11.676 11.011 12.425a12.472 12.472 0 01-3.496-8.668v-8.279c0-1.27.944-2.33 2.203-2.488z" fill="#E6AF78"/><path d="M26.154 37.301c0-.04.026-.073.06-.079 1.51-.227 4.507-.578 7.611-.371 3.653.243 6.299 1.16 7.864 2.725a1.172 1.172 0 101.657-1.657c-4.43-4.43-13.7-3.584-17.48-3.014a2.405 2.405 0 00-2.056 2.396V40a1.172 1.172 0 002.344 0v-2.699z" fill="#000"/><path d="M52.145 66.507l-7.207-2.62a1.17 1.17 0 00-.32-.897l-2.181-2.293V56.85c.23-.19.458-.385.678-.591a13.749 13.749 0 004.332-9.995v-3.074a13.541 13.541 0 001.252-5.694V24.97c0-.647-.524-1.172-1.171-1.172H29.993c-6.172 0-11.193 5.02-11.193 11.192v2.505c0 1.971.422 3.885 1.253 5.694v2.645c0 4.379 1.947 8.324 5.01 10.925v3.938l-2.182 2.293a1.17 1.17 0 00-.32.897l-7.206 2.62a6.2 6.2 0 00-4.07 5.81v6.511a1.172 1.172 0 002.344 0v-6.51a3.85 3.85 0 012.526-3.608l7.6-2.763 3.162 4.745a2.415 2.415 0 002.02 1.08c.64 0 1.254-.252 1.712-.71l1.929-1.93v9.696a1.172 1.172 0 002.344 0v-9.696l1.929 1.93a2.414 2.414 0 001.953.697 2.416 2.416 0 001.778-1.067l3.164-4.745 7.598 2.763a3.85 3.85 0 012.527 3.607v6.511a1.172 1.172 0 002.344 0v-6.511a6.2 6.2 0 00-4.07-5.81zM22.397 45.834v-2.907c0-.176-.04-.35-.117-.51a11.236 11.236 0 01-1.136-4.922V34.99c0-4.879 3.97-8.848 8.849-8.848h16.363v11.353c0 1.705-.382 3.362-1.136 4.922a1.172 1.172 0 00-.117.51v3.336c0 3.172-1.275 6.114-3.59 8.285-2.314 2.168-5.339 3.249-8.521 3.043-5.941-.384-10.595-5.549-10.595-11.757zM32.84 59.93c.31.02.616.03.922.03 2.24 0 4.395-.535 6.331-1.551v2.139l-6.343 4.335-6.343-4.335v-2.186a13.194 13.194 0 005.433 1.568zm-3.848 9.474a.076.076 0 01-.065.023c-.039-.004-.053-.026-.06-.035l-3.643-5.465 1.172-1.231 5.526 3.777-2.93 2.931zm9.64-.012c-.006.01-.02.031-.059.035a.076.076 0 01-.065-.023l-2.93-2.93 5.525-3.778 1.172 1.231-3.642 5.465z" fill="#000"/><path d="M19.972 75.151c-.647 0-1.172.525-1.172 1.172v2.505a1.172 1.172 0 002.344 0v-2.505c0-.647-.524-1.172-1.172-1.172zM47.528 75.151c-.648 0-1.172.525-1.172 1.172v2.505a1.172 1.172 0 002.344 0v-2.505c0-.647-.525-1.172-1.172-1.172zM57.606 9.881C51.234 3.51 42.762 0 33.75 0 24.738 0 16.266 3.51 9.894 9.881 3.522 16.254.013 24.726.013 33.737c0 12.627 6.961 24.098 18.167 29.938a1.172 1.172 0 001.083-2.079A31.45 31.45 0 018.52 52.444h6.515c1.427 3.217 3.223 6.071 5.285 8.378a1.172 1.172 0 101.747-1.562c-1.721-1.926-3.215-4.238-4.448-6.826a1.171 1.171 0 00-.152-2.333h-.86c-1.789-4.548-2.83-9.774-2.962-15.192h1.317a1.172 1.172 0 000-2.344h-1.318c.132-5.55 1.19-10.735 2.94-15.191h15.994v2.586a1.172 1.172 0 002.344 0v-2.586h15.993c1.751 4.456 2.81 9.642 2.94 15.191h-1.317a1.172 1.172 0 000 2.344h1.317c-.132 5.418-1.173 10.644-2.962 15.192h-.86a1.172 1.172 0 00-.152 2.333c-1.233 2.588-2.727 4.9-4.448 6.826a1.172 1.172 0 101.747 1.562c2.062-2.307 3.858-5.16 5.285-8.377h6.494a31.581 31.581 0 01-9.513 8.487 1.172 1.172 0 001.174 2.029 33.927 33.927 0 0012.214-12.116 33.708 33.708 0 004.653-17.108c0-9.011-3.509-17.483-9.881-23.856zm1.34 5.15H52.47a34.96 34.96 0 00-2.683-4.962c-1.476-2.258-3.128-4.162-4.91-5.687A31.552 31.552 0 0158.946 15.03zM22.623 4.382c-1.782 1.524-3.434 3.428-4.91 5.686a34.951 34.951 0 00-2.683 4.961H8.554a31.55 31.55 0 0114.07-10.647zM13.73 49.096c.114.338.234.672.357 1.005H6.94a31.334 31.334 0 01-4.562-15.192H11.3c.11 4.987.926 9.754 2.43 14.187zm-2.43-16.53H2.38a31.188 31.188 0 014.588-15.192h7.112c-1.7 4.615-2.659 9.795-2.78 15.191zm6.302-17.536c3.452-7.235 8.85-12.08 14.976-12.632V15.03H17.602zm17.32 0V2.398c6.125.552 11.524 5.397 14.976 12.632H34.922zm18.498 2.344h7.112a31.188 31.188 0 014.588 15.191H56.2c-.121-5.396-1.08-10.576-2.78-15.191zm7.395 32.281c-.089.15-.182.297-.273.446h-7.129c.123-.333.243-.667.358-1.005 1.504-4.433 2.32-9.2 2.43-14.187h8.92a31.346 31.346 0 01-4.306 14.746z" fill="#000"/></g></svg>