<svg width="82" height="80" xmlns="http://www.w3.org/2000/svg"><g fill-rule="nonzero" fill="none"><path d="M40.591 9.997a5.933 5.933 0 00-5.926 5.926 5.923 5.923 0 003.125 5.224c.337.18.546.53.546.911v2.112h1.243v-4.917a1.036 1.036 0 012.07 0v4.917h1.198v-2.112c0-.382.209-.731.545-.912a5.923 5.923 0 003.125-5.223 5.932 5.932 0 00-5.926-5.926z" fill="#F8CE19"/><g fill="#FBB616"><path d="M39.516 21.147a5.923 5.923 0 01-3.125-5.224 5.935 5.935 0 015.063-5.863 5.933 5.933 0 00-6.789 5.863 5.923 5.923 0 003.126 5.224c.336.18.545.53.545.911v2.112h1.243v-2.984c-.02-.013-.04-.028-.063-.04zM43.375 19.253a1.036 1.036 0 00-1.898-.571c.11.163.173.36.173.57v4.918h1.197v-2.112c0-.375.203-.717.528-.901v-1.904z"/></g><path fill="#A49F9F" d="M38.33 26.241h4.524v2.33H38.33z"/><path d="M76.023 70a.733.733 0 01-.055-.02l-4.51-1.808-2.267 2.353a1.208 1.208 0 01-.85.37h-.02c-.314 0-.616-.123-.841-.343l-2.402-2.338-4.52 1.77a.965.965 0 01-.055.02c-.101.036-2.712 1.004-2.712 4.343v4.474h20.954v-4.474c0-3.339-2.61-4.307-2.722-4.346z" fill="#6598CB"/><g fill="#FBCB99"><path d="M70.613 53.957l-.144-.247-.219.183c-2.102 1.752-4.865 2.28-6.325 2.44l-.216.023v3.382a4.083 4.083 0 004.079 4.079h1.094a4.083 4.083 0 004.078-4.079v-3.596l-.139-.065c-.886-.418-1.63-1.13-2.208-2.12zM61.779 59.57v-2.562l-.414.423a1.22 1.22 0 000 1.716l.414.423zM68.882 65.747h-1.094c-.232 0-.465-.014-.714-.044l-.27-.032v1.191L68.3 68.32l1.565-1.625v-1.023l-.27.032c-.248.03-.482.044-.713.044zM75.388 57.39l-.077-.014a.999.999 0 01-.107-.026l-.313-.098v2.309l.384-.283a1.221 1.221 0 00.167-1.83l-.054-.057z"/></g><path d="M68.609 47.61h-.574a5.926 5.926 0 00-5.92 5.92v1.102l.316-.101.026-.01c.008-.003.017-.004.026-.006l.043-.012a.21.21 0 01.024-.006c.019-.004.039-.006.065-.01l.03-.004a.854.854 0 01.102-.005c.05 0 5.027-.036 7.269-3.135a.973.973 0 01.975-.38.968.968 0 01.75.737c.023.097.606 2.394 2.402 2.803l.046.012.026.006.313.098v-1.09a5.926 5.926 0 00-5.92-5.92z" fill="#694B4B"/><path d="M61.629 70.004l.056-.02 3.717-1.456-.323-.314-4.52 1.77a1.275 1.275 0 01-.056.02c-.102.036-2.712 1.005-2.712 4.343v4.474h1.126v-4.474c0-3.339 2.61-4.307 2.712-4.343z" fill="#4982AA"/><path d="M65.318 59.738v-3.38l.216-.023c1.265-.137 3.51-.555 5.457-1.808a6.402 6.402 0 01-.378-.57l-.143-.246-.22.182c-2.106 1.756-4.867 2.284-6.325 2.442l-.216.024v3.38a4.083 4.083 0 004.079 4.078h1.094c.087 0 .172-.004.258-.01a4.083 4.083 0 01-3.822-4.069z" fill="#EDBA89"/><path d="M63.242 53.53a5.926 5.926 0 015.643-5.913 6.131 6.131 0 00-.276-.007h-.574a5.926 5.926 0 00-5.92 5.92v1.102l.316-.101.026-.01c.008-.003.017-.004.026-.006l.043-.012a.21.21 0 01.024-.006c.018-.004.038-.006.066-.01l.03-.004a.854.854 0 01.102-.005c.009 0 .19-.002.494-.024v-.925z" fill="#563B3B"/><path d="M48.457 70a.733.733 0 01-.055-.02l-4.51-1.808-2.267 2.353a1.208 1.208 0 01-.85.37h-.02c-.314 0-.616-.123-.841-.343l-2.401-2.338-4.52 1.77a.965.965 0 01-.056.02c-.101.036-2.712 1.004-2.712 4.343v4.474H51.18v-4.474c0-3.339-2.61-4.307-2.722-4.346z" fill="#6598CB"/><g fill="#FBCB99"><path d="M43.047 53.957l-.144-.247-.219.183c-2.102 1.752-4.865 2.28-6.325 2.44l-.216.023v3.382a4.083 4.083 0 004.079 4.079h1.094a4.083 4.083 0 004.078-4.079v-3.596l-.138-.065c-.887-.418-1.63-1.13-2.209-2.12zM34.213 59.57v-2.562l-.414.423a1.22 1.22 0 000 1.716l.414.423zM41.316 65.747h-1.094c-.232 0-.465-.014-.714-.044l-.27-.032v1.191l1.496 1.457 1.565-1.625v-1.023l-.27.032c-.248.03-.482.044-.713.044zM47.822 57.39l-.077-.014a.999.999 0 01-.107-.026l-.313-.098v2.309l.384-.283a1.221 1.221 0 00.167-1.83l-.054-.057z"/></g><path d="M41.043 47.61h-.574a5.926 5.926 0 00-5.92 5.92v1.102l.316-.101.026-.01c.008-.003.017-.004.026-.006l.043-.012a.21.21 0 01.024-.006c.019-.004.039-.006.066-.01l.03-.004a.856.856 0 01.102-.005c.05 0 5.026-.036 7.268-3.135a.973.973 0 01.976-.38.968.968 0 01.749.737c.024.097.607 2.394 2.402 2.803l.046.012.026.006.313.098v-1.09a5.926 5.926 0 00-5.92-5.92z" fill="#694B4B"/><path d="M34.063 70.004l.056-.02 3.717-1.456-.323-.314-4.52 1.77a1.203 1.203 0 01-.056.02c-.102.036-2.712 1.005-2.712 4.343v4.474h1.126v-4.474c0-3.339 2.61-4.307 2.712-4.343z" fill="#4982AA"/><path d="M37.752 59.738v-3.38l.216-.023c1.265-.137 3.51-.555 5.458-1.808a6.402 6.402 0 01-.379-.57l-.143-.246-.22.182c-2.106 1.756-4.867 2.284-6.325 2.442l-.215.024v3.38a4.083 4.083 0 004.078 4.078h1.095c.086 0 .172-.004.257-.01a4.083 4.083 0 01-3.822-4.069z" fill="#EDBA89"/><path d="M35.676 53.53a5.926 5.926 0 015.643-5.913 6.125 6.125 0 00-.276-.007h-.574a5.926 5.926 0 00-5.92 5.92v1.102l.316-.101.026-.01c.008-.003.017-.004.026-.006l.043-.012a.21.21 0 01.024-.006c.018-.004.038-.006.066-.01l.03-.004a.856.856 0 01.102-.005c.009 0 .19-.002.494-.024v-.925z" fill="#563B3B"/><path d="M20.793 70a.733.733 0 01-.055-.02l-4.51-1.808-2.267 2.353a1.208 1.208 0 01-.85.37h-.02c-.314 0-.616-.123-.842-.343l-2.4-2.338-4.52 1.77a.965.965 0 01-.056.02c-.102.036-2.712 1.004-2.712 4.343v4.474h20.954v-4.474c0-3.339-2.611-4.307-2.722-4.346z" fill="#6598CB"/><g fill="#FBCB99"><path d="M15.383 53.957l-.144-.247-.22.183c-2.1 1.752-4.865 2.28-6.325 2.44l-.215.023v3.382a4.083 4.083 0 004.078 4.079h1.095a4.083 4.083 0 004.078-4.079v-3.596l-.139-.065c-.886-.418-1.63-1.13-2.208-2.12zM6.549 59.57v-2.562l-.414.423a1.22 1.22 0 000 1.716l.414.423zM13.652 65.747h-1.094c-.232 0-.465-.014-.714-.044l-.27-.032v1.191l1.496 1.457 1.565-1.625v-1.023l-.27.032c-.248.03-.482.044-.713.044zM20.158 57.39l-.077-.014a.999.999 0 01-.107-.026l-.313-.098v2.309l.384-.283a1.221 1.221 0 00.167-1.83l-.054-.057z"/></g><path d="M13.379 47.61h-.574a5.926 5.926 0 00-5.92 5.92v1.102l.316-.101.026-.01c.008-.003.017-.004.026-.006l.043-.012a.21.21 0 01.024-.006c.019-.004.039-.006.065-.01l.03-.004a.854.854 0 01.102-.005c.05 0 5.027-.036 7.269-3.135a.973.973 0 01.975-.38.968.968 0 01.75.737c.023.097.606 2.394 2.402 2.803l.047.012.025.006.313.098v-1.09a5.926 5.926 0 00-5.92-5.92z" fill="#694B4B"/><path d="M6.399 70.004l.055-.02 3.717-1.456-.323-.314-4.52 1.77a1.203 1.203 0 01-.055.02c-.102.036-2.712 1.005-2.712 4.343v4.474h1.126v-4.474c0-3.339 2.61-4.307 2.712-4.343z" fill="#4982AA"/><path d="M10.088 59.738v-3.38l.216-.023c1.265-.137 3.51-.555 5.457-1.808a6.402 6.402 0 01-.378-.57l-.143-.246-.22.182c-2.106 1.756-4.867 2.284-6.325 2.442l-.216.024v3.38a4.083 4.083 0 004.079 4.078h1.094c.087 0 .172-.004.258-.01a4.083 4.083 0 01-3.822-4.069z" fill="#EDBA89"/><path d="M8.012 53.53a5.926 5.926 0 015.643-5.913 6.125 6.125 0 00-.276-.007h-.574a5.926 5.926 0 00-5.92 5.92v1.102l.316-.101.026-.01c.008-.003.017-.004.026-.006l.043-.012a.21.21 0 01.024-.006c.018-.004.038-.006.065-.01l.03-.004a.854.854 0 01.102-.005c.01 0 .191-.002.495-.024v-.925z" fill="#563B3B"/><g fill="#202121"><path d="M48.875 15.994c0-4.58-3.727-8.307-8.308-8.307-4.58 0-8.307 3.726-8.307 8.307a8.299 8.299 0 003.698 6.913v2.315a1.334 1.334 0 00-.006.124v4.433c0 .715.579 1.294 1.294 1.294h6.644c.714 0 1.294-.579 1.294-1.294v-4.433c0-.04-.003-.08-.006-.12v-2.32a8.3 8.3 0 003.697-6.912zm-14.027 0a5.726 5.726 0 015.72-5.72 5.726 5.726 0 015.719 5.72 5.717 5.717 0 01-3.017 5.042c-.42.225-.681.663-.681 1.14v1.876h-.704V19.35a1.294 1.294 0 10-2.588 0v4.703h-.751v-1.876c0-.476-.262-.914-.682-1.14a5.718 5.718 0 01-3.016-5.042zm7.747 12.491H38.54v-1.844h4.055v1.844zM41.969 31.76h-2.803a1.294 1.294 0 100 2.588h2.803a1.294 1.294 0 100-2.589zM31.04 15.785c0-.714-.579-1.294-1.294-1.294h-3.65a1.294 1.294 0 100 2.589h3.65c.715 0 1.294-.58 1.294-1.295zM55.04 14.491h-3.651a1.294 1.294 0 100 2.589h3.65a1.294 1.294 0 100-2.589z"/><path d="M32 22.522l-2.581 2.581a1.294 1.294 0 101.83 1.83l2.582-2.58a1.294 1.294 0 10-1.83-1.83zM48.22 9.428c.33 0 .662-.127.914-.38l2.582-2.58a1.294 1.294 0 10-1.83-1.831l-2.582 2.582a1.294 1.294 0 00.915 2.209zM40.567 6.258c.715 0 1.295-.58 1.295-1.294v-3.65a1.294 1.294 0 10-2.589 0v3.65c0 .715.58 1.294 1.294 1.294zM49.134 22.522a1.294 1.294 0 10-1.83 1.83l2.582 2.582a1.291 1.291 0 001.83 0 1.294 1.294 0 000-1.83l-2.582-2.582zM32 9.049a1.291 1.291 0 001.831 0 1.294 1.294 0 000-1.83L31.25 4.637a1.294 1.294 0 00-1.83 1.83L32 9.05zM49.24 67.695l-4.75-1.905v-.562a6.366 6.366 0 002.761-3.42A3.49 3.49 0 0050.4 58.34a3.48 3.48 0 00-1.25-2.67v-2.088c0-4.2-3.184-7.669-7.265-8.123v-7.542a1.294 1.294 0 10-2.588 0v7.567c-3.987.542-7.07 3.966-7.07 8.099v2.075a3.48 3.48 0 00-1.262 2.682 3.49 3.49 0 003.188 3.47 6.365 6.365 0 002.76 3.418v.555l-4.877 1.91c-.476.173-4.372 1.738-4.372 6.696v4.297c0 .714.579 1.295 1.294 1.295h3.064a1.294 1.294 0 100-2.589h-1.77V74.39c0-3.27 2.553-4.222 2.65-4.257l.06-.022 4.465-1.748 2.359 2.297c.241.236.565.367.902.367h.02c.345-.006.673-.148.912-.396l2.225-2.31 4.453 1.786c.023.01.034.014.058.022.108.039 2.661.99 2.661 4.261v3.003H35.854a1.294 1.294 0 100 2.589h16.457c.715 0 1.294-.588 1.294-1.303v-4.29c0-4.937-3.865-6.51-4.366-6.693zm-1.656-8.764v-1.183a.89.89 0 01.227.592.89.89 0 01-.227.591zm-7.182-10.935h.573a5.593 5.593 0 015.587 5.586v.647c-1.6-.376-2.132-2.537-2.136-2.552a1.293 1.293 0 00-2.31-.473c-2.141 2.96-6.929 2.997-6.998 2.997h-.004a1.3 1.3 0 00-.132.007c-.014.001-.027.004-.04.006-.03.004-.06.007-.088.013l-.039.01v-.654a5.593 5.593 0 015.587-5.587zM33.553 58.34c0-.216.08-.411.207-.566l.06-.013v1.216a.895.895 0 01-.267-.637zm2.855-1.636c1.566-.178 4.239-.73 6.34-2.44.478.791 1.198 1.629 2.247 2.138v3.386a3.75 3.75 0 01-3.746 3.747h-1.094a3.751 3.751 0 01-3.747-3.747v-3.084zm4.252 11.193L39.5 66.769v-.68c.215.022.434.034.654.034h1.094c.22 0 .438-.012.653-.034v.518l-1.242 1.29zM26.27 21.192H12.972c-.715 0-1.294.58-1.294 1.294v22.993c-4.008.522-7.114 3.956-7.114 8.103v2.076a3.48 3.48 0 00-1.262 2.682 3.49 3.49 0 003.188 3.47 6.366 6.366 0 002.76 3.418v.555l-4.877 1.91C3.896 67.866 0 69.431 0 74.389v4.296c0 .715.58 1.295 1.294 1.295h3.064a1.294 1.294 0 100-2.588h-1.77V74.39c0-3.271 2.553-4.222 2.65-4.257l.06-.022 4.465-1.748 2.359 2.297c.242.235.566.367.903.367h.02c.345-.006.672-.148.912-.396l2.225-2.31 4.452 1.786c.023.01.035.014.058.022.109.039 2.662.99 2.662 4.261v3.003H8.19a1.294 1.294 0 100 2.588h16.456c.716 0 1.295-.587 1.295-1.302v-4.289c0-4.938-3.865-6.51-4.367-6.694l-4.749-1.905v-.562a6.366 6.366 0 002.761-3.42 3.49 3.49 0 003.148-3.468c0-1.072-.486-2.03-1.249-2.67v-2.088c0-4.185-3.161-7.643-7.221-8.117V23.78H26.27a1.294 1.294 0 100-2.588zM5.89 58.34c0-.216.079-.411.206-.566l.06-.013v1.216a.895.895 0 01-.266-.637zm7.105 9.557l-1.158-1.128v-.68c.215.022.433.034.654.034h1.094c.22 0 .438-.012.653-.034v.518l-1.243 1.29zm.59-4.362H12.49a3.751 3.751 0 01-3.747-3.747v-3.084c1.566-.179 4.24-.732 6.34-2.44.478.791 1.198 1.629 2.247 2.138v3.386a3.75 3.75 0 01-3.746 3.747zm6.335-4.604v-1.183a.89.89 0 01.227.592.89.89 0 01-.227.591zm-1.022-5.349v.647c-1.6-.376-2.132-2.537-2.136-2.552a1.294 1.294 0 00-2.31-.473c-2.14 2.96-6.929 2.997-6.998 2.997h-.002-.002l-.036.002c-.09.002-.178.014-.262.033v-.653a5.593 5.593 0 015.586-5.587h.573a5.593 5.593 0 015.587 5.586zM76.903 67.695l-4.749-1.905v-.562a6.366 6.366 0 002.761-3.42 3.49 3.49 0 003.148-3.468 3.48 3.48 0 00-1.249-2.67v-2.088c0-4.185-3.161-7.643-7.221-8.117V22.486c0-.715-.58-1.294-1.294-1.294h-13.3a1.294 1.294 0 100 2.588h12.006V45.48c-4.008.522-7.114 3.956-7.114 8.103v2.076a3.48 3.48 0 00-1.262 2.682 3.49 3.49 0 003.188 3.47 6.366 6.366 0 002.76 3.418v.555l-4.877 1.91c-.476.173-4.373 1.738-4.373 6.696v4.296c0 .715.58 1.295 1.295 1.295h3.064a1.294 1.294 0 100-2.588h-1.77v-3.003c0-3.271 2.553-4.222 2.65-4.257l.06-.022 4.464-1.749 2.36 2.298c.241.235.565.367.902.367h.02c.345-.006.673-.148.912-.396l2.225-2.31 4.453 1.786c.023.01.035.014.058.022.109.039 2.661.99 2.661 4.26v3.004H63.518a1.294 1.294 0 100 2.588h16.457c.715 0 1.295-.587 1.295-1.302v-4.29c0-4.937-3.865-6.51-4.367-6.693zm-1.656-8.764v-1.183a.89.89 0 01.228.592.89.89 0 01-.228.591zm-7.181-10.935h.573a5.593 5.593 0 015.587 5.586v.647c-1.6-.376-2.133-2.537-2.136-2.552a1.294 1.294 0 00-2.311-.473c-2.14 2.96-6.928 2.997-6.997 2.997h-.004a1.3 1.3 0 00-.132.007c-.014.001-.027.004-.04.006-.03.004-.06.007-.089.013l-.038.01v-.654a5.593 5.593 0 015.587-5.587zM61.217 58.34c0-.216.08-.411.207-.566l.06-.013v1.216a.895.895 0 01-.267-.637zm2.855-1.636c1.566-.179 4.24-.732 6.34-2.44.478.791 1.198 1.629 2.247 2.138v3.386a3.75 3.75 0 01-3.746 3.747h-1.094a3.751 3.751 0 01-3.747-3.747v-3.084zm4.251 11.193l-1.158-1.128v-.68c.215.022.433.034.654.034h1.094c.22 0 .438-.012.653-.034v.518l-1.243 1.29z"/></g></g></svg>