<svg width="80" height="81" xmlns="http://www.w3.org/2000/svg"><g fill="none" fill-rule="evenodd"><g fill-rule="nonzero"><path d="M53.975 79.2H11.788a8.212 8.212 0 01-8.213-8.213v-1.574a8.212 8.212 0 018.213-8.213h42.187v18z" fill="#FFEBB7"/><path fill="#5C546A" d="M5.375 63h4.5v14.4h-4.5z"/><path d="M49.7 58.5H1.775V45.9H49.7a2.475 2.475 0 012.475 2.475v7.65A2.475 2.475 0 0149.7 58.5zM8.075 29.7h45.9v13.5h-45.9z" fill="#FFEBB7"/><path d="M54 81H12.6C6.645 81 1.8 76.156 1.8 70.2s4.845-10.8 10.8-10.8H54a1.8 1.8 0 010 3.6H12.6c-3.97 0-7.2 3.23-7.2 7.2s3.23 7.2 7.2 7.2H54a1.8 1.8 0 010 3.6z" fill="#00C37A"/><path d="M48.6 59.4H.9a.9.9 0 110-1.8h47.7c1.489 0 2.7-1.211 2.7-2.7v-5.4c0-1.489-1.211-2.7-2.7-2.7H.9a.9.9 0 110-1.8h47.7c2.481 0 4.5 2.019 4.5 4.5v5.4c0 2.481-2.019 4.5-4.5 4.5z" fill="#009BCA"/><path d="M53.975 34.2h-41.4a.9.9 0 010-1.8h41.4v1.8zM53.975 37.8h-41.4a.9.9 0 010-1.8h41.4v1.8zM53.975 41.4h-41.4a.9.9 0 010-1.8h41.4v1.8zM1.775 48.6h46.8a.9.9 0 010 1.8h-46.8v-1.8zM1.775 52.2h46.8a.9.9 0 010 1.8h-46.8v-1.8zM1.775 55.8h46.8a.9.9 0 010 1.8h-46.8v-1.8z" fill="#E6BE94"/><path d="M54.9 45H11.7a5.406 5.406 0 01-5.4-5.4v-7.2c0-2.978 2.422-5.4 5.4-5.4h43.2a1.8 1.8 0 010 3.6H11.7c-.993 0-1.8.807-1.8 1.8v7.2c0 .992.807 1.8 1.8 1.8h43.2a1.8 1.8 0 010 3.6z" fill="#FF4F19"/><path d="M12.575 75.6a.9.9 0 100 1.8h41.4v-1.8h-41.4zM12.575 72a.9.9 0 100 1.8h41.4V72h-41.4zM12.575 68.4a.9.9 0 100 1.8h41.4v-1.8h-41.4zM12.575 64.8a.9.9 0 100 1.8h41.4v-1.8h-41.4z" fill="#E6BE94"/></g><path d="M76.117 15.077h-25.83c-1.946 0-3.523 1.467-3.523 3.277v17.474c0 1.81 1.577 3.276 3.522 3.276h3.523l-1.957 7.28c-.133.494.472.874.915.574l11.609-7.854h11.741c1.946 0 3.523-1.467 3.523-3.276V18.354c0-1.81-1.577-3.277-3.523-3.277z" fill="#E2E7F2" fill-rule="nonzero"/><path d="M63.152 36.92h-2.184a4.368 4.368 0 01-4.369-4.368V15.077H67.52v17.475a4.369 4.369 0 01-4.368 4.368z" fill="#D5DCED" fill-rule="nonzero"/><path d="M74.63 14.046h-5.57c-.576 0-1.042.458-1.042 1.022 0 .564.466 1.022 1.042 1.022h5.57c1.268 0 2.3 1.012 2.3 2.256v17.48c0 1.244-1.032 2.256-2.3 2.256H63.49c-.221 0-.436.069-.614.196l-9.935 7.086 1.532-6.012a1.006 1.006 0 00-.19-.877 1.05 1.05 0 00-.82-.393H50.12c-1.268 0-2.3-1.012-2.3-2.256v-17.48c0-1.244 1.032-2.256 2.3-2.256h5.57c.576 0 1.043-.458 1.043-1.022 0-.565-.467-1.022-1.042-1.022h-5.57c-2.418 0-4.385 1.929-4.385 4.3v17.48c0 2.371 1.967 4.3 4.384 4.3h2.008l-1.533 6.012a1.539 1.539 0 00.657 1.68 1.615 1.615 0 001.835-.032l10.74-7.66H74.63c2.417 0 4.384-1.929 4.384-4.3v-17.48c0-2.371-1.967-4.3-4.384-4.3z" fill="#000" fill-rule="nonzero"/><path d="M53.287 4.7c.455-.402.953-.784 1.495-1.145a10.733 10.733 0 013.804-1.576c.736-.153 1.532-.23 2.388-.23 1.164 0 2.225.16 3.181.481.957.321 1.777.78 2.46 1.375A6.13 6.13 0 0168.2 5.763c.374.843.562 1.786.562 2.83 0 1.017-.147 1.897-.442 2.64a7.268 7.268 0 01-1.114 1.936 8.853 8.853 0 01-1.455 1.425c-.522.402-1.017.78-1.485 1.134-.469.355-.873.703-1.214 1.044-.342.341-.546.726-.613 1.154l-.461 2.93h-3.392l-.342-3.271a.893.893 0 01-.02-.17v-.171c0-.59.148-1.101.442-1.536a6.263 6.263 0 011.104-1.224c.441-.382.916-.753 1.425-1.114.508-.361.983-.753 1.425-1.174.442-.422.81-.9 1.104-1.435.294-.536.441-1.165.441-1.887 0-.482-.09-.913-.27-1.295a2.928 2.928 0 00-.753-.983 3.375 3.375 0 00-1.154-.632 4.638 4.638 0 00-1.455-.221c-.763 0-1.409.083-1.937.25a7.141 7.141 0 00-1.345.563c-.368.207-.68.394-.933.562-.255.167-.482.25-.683.25-.481 0-.83-.2-1.043-.602L53.287 4.7zm4.532 23.663c0-.415.077-.81.231-1.184a2.83 2.83 0 01.642-.964c.275-.267.6-.481.974-.642.375-.16.776-.24 1.204-.24.415 0 .81.08 1.184.24.375.16.696.375.964.642.267.268.481.589.642.964.16.374.24.77.24 1.184 0 .428-.08.826-.24 1.194a2.906 2.906 0 01-1.606 1.586c-.374.154-.769.23-1.184.23-.428 0-.83-.076-1.204-.23a3.02 3.02 0 01-.974-.633 2.853 2.853 0 01-.642-.953 3.064 3.064 0 01-.23-1.194z" stroke="#000" stroke-width="2" fill="#F70644"/></g></svg>