<svg width="103" height="80" xmlns="http://www.w3.org/2000/svg"><g fill-rule="nonzero" fill="none"><path d="M98.194 64.048H5.206A3.206 3.206 0 012 60.842V6.332a3.206 3.206 0 013.206-3.206h92.987a3.206 3.206 0 013.207 3.206v54.51a3.206 3.206 0 01-3.206 3.206z" fill="#7ECFC9"/><circle fill="#0C537A" cx="51.2" cy="31.984" r="20.842"/><path d="M60.333 31.157L46.193 23.3a.946.946 0 00-1.406.828v15.71a.946.946 0 001.406.827l14.14-7.855a.946.946 0 000-1.654z" fill="#FFF"/><path d="M15.929 49.62v5.288c0 1.354.721 3.304 1.603 4.333a6.658 6.658 0 011.604 4.334v.473h6.413v-.933c0-1.293.462-2.543 1.304-3.525l.598-.698c.717-.837 1.304-2.423 1.304-3.525v-5.748a4.81 4.81 0 00-4.81-4.81H20.74a4.81 4.81 0 00-4.81 4.81z" fill="#F0C087"/><path d="M22.342 59.239a6.413 6.413 0 01-6.413-6.413V49.62a4.81 4.81 0 014.81-4.81h3.206a4.81 4.81 0 014.81 4.81v3.206a6.413 6.413 0 01-6.413 6.413z" fill="#694B4B"/><path d="M23.144 44.81h-2.405a4.81 4.81 0 00-4.81 4.81v3.206c0 2.982 2.051 5.442 4.81 6.155V49.62c0-2.656 1.076-4.81 2.405-4.81z" fill="#5A4146"/><path d="M30.541 64.442l-3.56-1.424a8.014 8.014 0 00-2.976-.573h-3.326c-1.02 0-2.03.195-2.977.573l-3.56 1.424a4.81 4.81 0 00-3.023 4.466v9.57h22.445v-9.57a4.81 4.81 0 00-3.023-4.466z" fill="#B4E66E"/><path d="M44.787 49.62v5.288c0 1.354.721 3.304 1.603 4.333a6.658 6.658 0 011.604 4.334v.473h6.413v-.933c0-1.293.462-2.543 1.304-3.525l.598-.698c.717-.837 1.304-2.423 1.304-3.525v-5.748a4.81 4.81 0 00-4.81-4.81h-3.206a4.81 4.81 0 00-4.81 4.81z" fill="#F0C087"/><path d="M59.4 64.442l-3.56-1.424a8.014 8.014 0 00-2.977-.573h-3.326c-1.02 0-2.03.195-2.977.573L43 64.442a4.81 4.81 0 00-3.023 4.466v9.57h22.445v-9.57a4.81 4.81 0 00-3.023-4.466z" fill="#FFF082"/><path d="M73.645 49.62v5.288c0 1.354.722 3.304 1.603 4.333a6.658 6.658 0 011.604 4.334v.473h6.413v-.933c0-1.293.462-2.543 1.304-3.525l.598-.698c.717-.837 1.304-2.423 1.304-3.525v-5.748a4.81 4.81 0 00-4.81-4.81h-3.206a4.81 4.81 0 00-4.81 4.81z" fill="#F0C087"/><path d="M88.257 64.442l-3.56-1.424a8.014 8.014 0 00-2.976-.573h-3.326c-1.02 0-2.03.195-2.977.573l-3.56 1.424a4.81 4.81 0 00-3.023 4.466v9.57H91.28v-9.57a4.81 4.81 0 00-3.023-4.466z" fill="#FF507D"/><g fill="#959CB5"><path d="M28.755 68.858H15.929a4.81 4.81 0 00-4.81 4.81v4.81h22.446v-4.81a4.81 4.81 0 00-4.81-4.81zM57.613 68.858H44.787a4.81 4.81 0 00-4.81 4.81v4.81h22.446v-4.81a4.81 4.81 0 00-4.81-4.81zM86.471 68.858H73.645a4.81 4.81 0 00-4.81 4.81v4.81h22.446v-4.81a4.81 4.81 0 00-4.81-4.81z"/></g><path d="M51.2 59.239a6.413 6.413 0 01-6.413-6.413V49.62a4.81 4.81 0 014.81-4.81h3.206a4.81 4.81 0 014.81 4.81v3.206a6.412 6.412 0 01-6.413 6.413z" fill="#694B4B"/><path d="M52.002 44.81h-2.405a4.81 4.81 0 00-4.81 4.81v3.206c0 2.982 2.051 5.442 4.81 6.155V49.62c0-2.656 1.077-4.81 2.405-4.81z" fill="#5A4146"/><path d="M80.058 59.239a6.413 6.413 0 01-6.413-6.413V49.62a4.81 4.81 0 014.81-4.81h3.206a4.81 4.81 0 014.81 4.81v3.206a6.412 6.412 0 01-6.413 6.413z" fill="#694B4B"/><path d="M80.86 44.81h-2.405a4.81 4.81 0 00-4.81 4.81v3.206c0 2.982 2.051 5.442 4.81 6.155V49.62c0-2.656 1.077-4.81 2.405-4.81z" fill="#5A4146"/><path d="M97.694.022H4.706A4.712 4.712 0 000 4.73v54.51a4.712 4.712 0 004.706 4.706h3.206a1.5 1.5 0 000-3H4.706A1.708 1.708 0 013 59.239V4.729c0-.941.766-1.706 1.706-1.706h92.988c.94 0 1.706.765 1.706 1.706v54.51c0 .94-.766 1.706-1.706 1.706h-3.207a1.5 1.5 0 000 3h3.207a4.712 4.712 0 004.706-4.706V4.729A4.712 4.712 0 0097.694.022z" fill="#000"/><path d="M59.956 63.05l-4.05-1.62v-1.387c1.997-1.485 3.207-3.837 3.207-6.328v-4.079c0-1.69-.66-3.277-1.856-4.47a6.267 6.267 0 00-4.453-1.84h-.024l-3.206.012c-3.467.013-6.287 2.843-6.287 6.31v4.067c0 2.491 1.21 4.843 3.206 6.328v1.386l-4.05 1.62a6.28 6.28 0 00-3.966 5.859v9.57a1.5 1.5 0 003 0v-4.81a3.313 3.313 0 013.31-3.31h12.826a3.313 3.313 0 013.31 3.31v4.81a1.5 1.5 0 003 0v-9.57a6.279 6.279 0 00-3.967-5.859zm-13.669-9.335v-4.067a3.316 3.316 0 013.298-3.31l3.206-.01h.013c.881 0 1.71.342 2.335.964.628.626.974 1.459.974 2.345v4.079c0 1.75-.92 3.33-2.461 4.227a1.5 1.5 0 00-.746 1.296v1.706h-3.412V59.24a1.5 1.5 0 00-.746-1.296c-1.54-.898-2.46-2.478-2.46-4.228zm11.326 13.643H44.787c-1.186 0-2.296.33-3.244.9a3.29 3.29 0 012.015-2.423l4.724-1.89h5.835l4.725 1.89a3.29 3.29 0 012.015 2.423 6.27 6.27 0 00-3.244-.9zM88.814 63.05l-4.05-1.62v-1.387c1.998-1.485 3.207-3.837 3.207-6.328v-4.079c0-1.69-.66-3.277-1.856-4.47a6.267 6.267 0 00-4.453-1.84h-.024l-3.206.012c-3.467.013-6.287 2.843-6.287 6.31v4.067c0 2.492 1.21 4.843 3.207 6.328v1.386l-4.05 1.62a6.28 6.28 0 00-3.967 5.859V78.477a1.5 1.5 0 003 0v-4.81a3.313 3.313 0 013.31-3.31h12.826a3.313 3.313 0 013.31 3.31v4.81a1.5 1.5 0 003 0V68.908a6.28 6.28 0 00-3.967-5.859zm-13.669-9.335v-4.067a3.316 3.316 0 013.298-3.31l3.206-.01h.013c.881 0 1.71.342 2.335.964.628.626.974 1.459.974 2.345v4.079c0 1.75-.92 3.33-2.461 4.227a1.5 1.5 0 00-.746 1.296v1.706h-3.412V59.24a1.5 1.5 0 00-.746-1.296c-1.54-.898-2.46-2.478-2.46-4.228zm11.326 13.643H73.645c-1.185 0-2.295.33-3.244.9a3.29 3.29 0 012.015-2.423l4.725-1.89h5.835l4.724 1.89a3.29 3.29 0 012.015 2.423 6.273 6.273 0 00-3.244-.9zM31.098 63.05l-4.05-1.62v-1.387c1.997-1.484 3.207-3.836 3.207-6.328v-4.078c0-1.69-.66-3.277-1.856-4.47a6.269 6.269 0 00-4.477-1.84l-3.206.012c-3.467.012-6.287 2.842-6.287 6.31v4.066c0 2.492 1.21 4.844 3.206 6.328v1.387l-4.05 1.62a6.28 6.28 0 00-3.966 5.858v9.57a1.5 1.5 0 003 0v-4.81a3.313 3.313 0 013.31-3.31h12.826a3.313 3.313 0 013.31 3.31v4.81a1.5 1.5 0 003 0v-9.57a6.279 6.279 0 00-3.967-5.859zM17.43 53.714v-4.067a3.316 3.316 0 013.298-3.31l3.206-.01h.012c.882 0 1.711.342 2.336.964.628.626.974 1.459.974 2.345v4.079c0 1.75-.92 3.33-2.461 4.227a1.5 1.5 0 00-.746 1.296v1.706h-3.413V59.24a1.5 1.5 0 00-.745-1.296c-1.541-.898-2.461-2.478-2.461-4.228zm11.326 13.643H15.929c-1.186 0-2.296.33-3.244.9a3.29 3.29 0 012.015-2.423l4.724-1.89h5.835l4.725 1.89A3.29 3.29 0 0132 68.258a6.274 6.274 0 00-3.244-.9z" fill="#000"/><path d="M51.2 9.642c-12.32 0-22.342 10.022-22.342 22.342 0 6.924 3.133 13.344 8.595 17.613a1.498 1.498 0 002.106-.258 1.5 1.5 0 00-.258-2.106c-4.73-3.696-7.443-9.254-7.443-15.25 0-10.665 8.677-19.341 19.342-19.341s19.342 8.676 19.342 19.342c0 5.993-2.712 11.55-7.44 15.247a1.5 1.5 0 101.848 2.364c5.46-4.27 8.592-10.688 8.592-17.611 0-12.32-10.023-22.342-22.342-22.342z" fill="#000"/><path d="M46.922 21.99a2.423 2.423 0 00-2.43.03 2.424 2.424 0 00-1.205 2.109v15.71c0 .876.45 1.664 1.206 2.109a2.44 2.44 0 001.24.341c.407 0 .815-.104 1.188-.311l14.14-7.856a2.448 2.448 0 000-4.276L46.92 21.99zm-.635 16.908V25.07l12.446 6.915-12.446 6.914z" fill="#000"/></g></svg>