<svg xmlns="http://www.w3.org/2000/svg">

    <!-- Global Icon Set -->
    <symbol id="audio1" viewBox="0 0 184 184"><path d="M182 86v18c-.4 1.6-.8 3.2-1.1 4.8-5.4 30.3-21.6 53.1-49.2 66.6-9.5 4.7-20.4 6.5-30.7 9.6H83c-1.3-.3-2.5-.8-3.8-1-34.4-6-58.4-25-71.2-57.5-2.8-7.2-4-15-6-22.5V86c.4-1.6.8-3.2 1.1-4.8 5.4-30.3 21.5-53.1 49.2-66.6C61.8 9.9 72.7 8.1 83 5h18c1.3.3 2.5.8 3.8 1 34.4 6 58.4 25 71.2 57.5 2.9 7.2 4.1 15 6 22.5zm-89.4 6.3c0-14.2.1-28.3-.1-42.5 0-2.7-.9-6.7-2.7-7.7-1.8-.9-5.5.7-7.8 2.2-8.6 5.3-17.3 10.7-25.5 16.6-7.3 5.3-14.8 8.2-24 7.3-5.5-.6-6.8 1.1-6.8 6.6-.1 10.8 0 21.6 0 32.5 0 8.8.5 9.6 9.4 9.1 7-.4 12.8 1.3 18.5 5.4 9.5 6.7 19.4 12.9 29.3 19 2 1.3 5.4 2.5 7.1 1.7 1.6-.8 2.5-4.4 2.5-6.8.2-14.4.1-28.9.1-43.4zm63.5.3c-1.7-8.1-2.7-16.4-5.1-24.3-3.6-11.9-10.3-22-21-28.8-1.3-.9-3.7-.1-5.6-.1.6 1.7.7 4.1 1.9 4.9 11.2 7.7 17.2 18.7 20.5 31.5 7 27.5-2.3 51.8-25.7 67.9-1.1.7-1.2 3-1.7 4.5 1.5.3 3.4 1.5 4.3.9 5.6-3.8 11.8-7.2 16.2-12.1 10.9-12.4 14.9-27.7 16.2-44.4zm-17-1.3c-.3-2.4-.5-6.5-1.3-10.3-2.5-11.7-7.4-22.1-17.7-29-1.3-.9-3.7-.2-5.6-.2.6 1.7.6 4 1.8 4.9 11.9 8.7 16.1 21.1 16.3 34.8.2 16.3-4.2 31-20 39.7-1.1.6-1.3 2.9-1.9 4.3 1.6.4 3.6 1.6 4.7 1 3.6-2 7.3-4.2 10.1-7.1 9.8-10.2 13.3-22.8 13.6-38.1zm-15.7.9c-.2-9.7-3-19.7-12.3-26.8-1.4-1-4-.4-6-.6.7 1.8.9 4.2 2.2 5.2 14.3 10.7 12.5 40.4-2.5 47.7-1.3.6-1.6 3-2.4 4.6 1.7.3 3.8 1.3 5.1.7 2.5-1.1 4.9-2.9 6.8-4.8 6.6-6.8 8.9-15.4 9.1-26z"/></symbol>
    <symbol id="audio2" viewBox="0 0 40 35"><path d="M21.776.306a2.337 2.337 0 00-2.369.033.712.712 0 00-.1.071L8.92 9.131H.767A.763.763 0 000 9.892v14.456c0 .202.08.395.225.538a.77.77 0 00.542.223l8.134-.004 10.383 9.464c.038.035.08.066.123.092.378.226.795.339 1.213.339.397 0 .792-.102 1.156-.306A2.372 2.372 0 0023 32.598V2.403c0-.884-.458-1.667-1.224-2.097zM22 33.119a.873.873 0 01-.445.773.813.813 0 01-.77.02L10.462 24.52v-3.472a.765.765 0 00-.77-.761c-.425 0-.769.34-.769.761v3.045L2 24.095V11.143h6.923v3.047c0 .422.344.762.77.762.425 0 .769-.34.769-.762v-3.456l10.311-8.64a.81.81 0 01.782.014.872.872 0 01.445.773v30.238zM30 3.04a.757.757 0 00-.487 1.434A13.226 13.226 0 0138.49 17c0 5.663-3.6 10.697-8.958 12.527a.757.757 0 00.488 1.432A14.746 14.746 0 0040 17.001 14.738 14.738 0 0030 3.04z"/><path d="M33 17c0-4.594-2.909-8.693-7.073-9.97-.387-.116-.787.117-.898.526-.111.408.11.834.496.952 3.547 1.087 6.025 4.58 6.025 8.492 0 3.913-2.478 7.405-6.025 8.492-.385.117-.607.544-.496.952a.733.733 0 00.697.556.7.7 0 00.2-.03C30.093 25.693 33 21.593 33 17z"/></symbol>
    <symbol id="audio_list" viewBox="0 0 60 50"><title>Audio List</title><g fill-rule="evenodd"><path d="M0 7.5h60V0H0zM0 50h60v-7.5H0zM0 21.665h37.5v-7.5H0zM0 35.835h50v-7.503H0z"/></g></symbol>
    <symbol id="audio_next" viewBox="0 0 52 50"><title>Next</title><g fill-rule="evenodd"><path d="M44.02 50h7.5V0h-7.5zM.5.001v50L43.8 25z"/></g></symbol>
    <symbol id="audio_pause" viewBox="0 0 46 50"><title>Pause</title><g fill-rule="evenodd"><path d="M.5 50H18V0H.5zM28 50h17.5V0H28z"/></g></symbol>
    <symbol id="audio_play" viewBox="0 0 46 50"><title>Play</title><path fill-rule="evenodd" d="M.5.001v50L45.768 25z"/></symbol>
    <symbol id="audio_previous" viewBox="0 0 52 50"><title>Previous</title><g fill-rule="evenodd"><path d="M7.98 0H.48v50h7.5zM51.5 49.999v-50L8.2 25z"/></g></symbol>
    <symbol id="audio_repeat" viewBox="0 0 37 49"><title>Repeat</title><path fill-rule="evenodd" d="M29.186 0l7.837 7.838-7.837 7.837V9.613H6.103c-.98 0-1.775.795-1.775 1.776v6.367H.777v-6.367a5.327 5.327 0 015.326-5.327h23.083V0zM7.879 48.17L.041 40.331l7.838-7.838v6.062h23.082c.98 0 1.776-.795 1.776-1.775v-6.062h3.551v6.062a5.327 5.327 0 01-5.327 5.326H7.88v6.062z"/></symbol>
    <symbol id="audio_time_075" viewBox="0 0 50 50"><circle cx="25" cy="2.93" r="2.93"/><path d="M44.272 9.074A25.093 25.093 0 0031.515.861a6.807 6.807 0 01.02 4.077C40.097 7.726 46.093 15.811 46.093 25c0 11.631-9.463 21.094-21.094 21.094C13.369 46.094 3.906 36.63 3.906 25c0-3.624.909-7.107 2.616-10.191l-2.856-2.857C1.278 15.84 0 20.322 0 25c0 6.678 2.6 12.956 7.322 17.678C12.044 47.4 18.322 50 25 50c6.678 0 12.956-2.6 17.678-7.322C47.4 37.956 50 31.678 50 25c0-5.804-2.034-11.46-5.728-15.926z"/><path d="M14.613 18.763c2.329 0 3.655 2.074 3.655 5.593 0 3.757-1.394 5.831-3.842 5.831-2.159 0-3.621-2.023-3.655-5.678 0-3.706 1.598-5.746 3.842-5.746zm-.085 1.156c-1.309 0-2.261 1.598-2.261 4.607 0 2.873.884 4.505 2.244 4.505 1.53 0 2.261-1.785 2.261-4.607 0-2.72-.697-4.505-2.244-4.505zm6.239 10.268c-.595 0-1.003-.459-1.003-1.071 0-.629.425-1.071 1.02-1.071s1.003.442 1.003 1.071c0 .612-.391 1.071-1.02 1.071zm2.601-11.237h6.97v.986L25.527 30H23.98l4.794-9.775v-.034h-5.406V18.95zm15.113 0v1.258h-4.216l-.425 2.839c.255-.034.493-.068.901-.068.85 0 1.7.187 2.38.595.867.493 1.581 1.445 1.581 2.839 0 2.159-1.717 3.774-4.114 3.774-1.207 0-2.227-.34-2.754-.68l.374-1.139c.459.272 1.36.612 2.363.612 1.411 0 2.618-.918 2.618-2.397-.017-1.428-.969-2.448-3.179-2.448-.629 0-1.122.068-1.53.119l.714-5.304h5.287z"/></symbol>
    <symbol id="audio_time_1" viewBox="0 0 50 50"><circle cx="25" cy="2.93" r="2.93"/><path d="M44.272 9.074A25.093 25.093 0 0031.515.861a6.807 6.807 0 01.02 4.077C40.097 7.726 46.093 15.811 46.093 25c0 11.631-9.463 21.094-21.094 21.094C13.369 46.094 3.906 36.63 3.906 25c0-3.624.909-7.107 2.616-10.191l-2.856-2.857C1.278 15.84 0 20.322 0 25c0 6.678 2.6 12.956 7.322 17.678C12.044 47.4 18.322 50 25 50c6.678 0 12.956-2.6 17.678-7.322C47.4 37.956 50 31.678 50 25c0-5.804-2.034-11.46-5.728-15.926z"/><path d="M24.171 30v-9.656h-.034l-1.921 1.037-.289-1.139 2.414-1.292h1.275V30z"/></symbol>
    <symbol id="audio_time_125" viewBox="0 0 50 50"><circle cx="25" cy="2.93" r="2.93"/><path d="M44.272 9.074A25.093 25.093 0 0031.515.861a6.807 6.807 0 01.02 4.077C40.097 7.726 46.093 15.811 46.093 25c0 11.631-9.463 21.094-21.094 21.094C13.369 46.094 3.906 36.63 3.906 25c0-3.624.909-7.107 2.616-10.191l-2.856-2.857C1.278 15.84 0 20.322 0 25c0 6.678 2.6 12.956 7.322 17.678C12.044 47.4 18.322 50 25 50c6.678 0 12.956-2.6 17.678-7.322C47.4 37.956 50 31.678 50 25c0-5.804-2.034-11.46-5.728-15.926z"/><path d="M14.171 30v-9.656h-.034l-1.921 1.037-.289-1.139 2.414-1.292h1.275V30h-1.445zm6.596.187c-.595 0-1.003-.459-1.003-1.071 0-.629.425-1.071 1.02-1.071s1.003.442 1.003 1.071c0 .612-.391 1.071-1.02 1.071zM30.219 30h-7.055v-.918l1.173-1.139c2.822-2.686 4.097-4.114 4.114-5.78 0-1.122-.544-2.159-2.193-2.159-1.003 0-1.836.51-2.346.935l-.476-1.054a4.849 4.849 0 013.128-1.122c2.38 0 3.383 1.632 3.383 3.213 0 2.04-1.479 3.689-3.808 5.933l-.884.816v.034h4.964V30zm8.262-11.05v1.258h-4.216l-.425 2.839c.255-.034.493-.068.901-.068.85 0 1.7.187 2.38.595.867.493 1.581 1.445 1.581 2.839 0 2.159-1.717 3.774-4.114 3.774-1.207 0-2.227-.34-2.754-.68l.374-1.139c.459.272 1.36.612 2.363.612 1.411 0 2.618-.918 2.618-2.397-.017-1.428-.969-2.448-3.179-2.448-.629 0-1.122.068-1.53.119l.714-5.304h5.287z"/></symbol>
    <symbol id="audio_time_150" viewBox="0 0 50 50"><circle cx="25" cy="2.93" r="2.93"/><path d="M44.272 9.074A25.093 25.093 0 0031.515.861a6.807 6.807 0 01.02 4.077C40.097 7.726 46.093 15.811 46.093 25c0 11.631-9.463 21.094-21.094 21.094C13.369 46.094 3.906 36.63 3.906 25c0-3.624.909-7.107 2.616-10.191l-2.856-2.857C1.278 15.84 0 20.322 0 25c0 6.678 2.6 12.956 7.322 17.678C12.044 47.4 18.322 50 25 50c6.678 0 12.956-2.6 17.678-7.322C47.4 37.956 50 31.678 50 25c0-5.804-2.034-11.46-5.728-15.926z"/><path d="M18.532 30v-9.656h-.035l-1.92 1.037-.29-1.139 2.415-1.292h1.274V30h-1.444zm6.596.187c-.596 0-1.003-.459-1.003-1.071 0-.629.424-1.071 1.02-1.071.595 0 1.003.442 1.003 1.071 0 .612-.392 1.071-1.02 1.071zM34.12 18.95v1.258h-4.215l-.425 2.839c.255-.034.492-.068.9-.068.85 0 1.7.187 2.38.595.867.493 1.582 1.445 1.582 2.839 0 2.159-1.718 3.774-4.114 3.774-1.208 0-2.228-.34-2.755-.68l.375-1.139c.459.272 1.36.612 2.363.612 1.41 0 2.617-.918 2.617-2.397-.017-1.428-.969-2.448-3.179-2.448-.629 0-1.122.068-1.53.119l.715-5.304h5.287z"/></symbol>
    <symbol id="audio_time_200" viewBox="0 0 50 50"><circle cx="25" cy="2.93" r="2.93"/><path d="M44.272 9.074A25.093 25.093 0 0031.515.861a6.807 6.807 0 01.02 4.077C40.097 7.726 46.093 15.811 46.093 25c0 11.631-9.463 21.094-21.094 21.094C13.369 46.094 3.906 36.63 3.906 25c0-3.624.909-7.107 2.616-10.191l-2.856-2.857C1.278 15.84 0 20.322 0 25c0 6.678 2.6 12.956 7.322 17.678C12.044 47.4 18.322 50 25 50c6.678 0 12.956-2.6 17.678-7.322C47.4 37.956 50 31.678 50 25c0-5.804-2.034-11.46-5.728-15.926z"/><path d="M22.34 30h-7.056v-.918l1.173-1.139c2.822-2.686 4.098-4.114 4.114-5.78 0-1.122-.544-2.159-2.193-2.159-1.003 0-1.835.51-2.346.935l-.476-1.054a4.849 4.849 0 013.129-1.122c2.38 0 3.383 1.632 3.383 3.213 0 2.04-1.48 3.689-3.809 5.933l-.884.816v.034h4.965V30zm2.788.187c-.596 0-1.003-.459-1.003-1.071 0-.629.424-1.071 1.02-1.071.595 0 1.003.442 1.003 1.071 0 .612-.392 1.071-1.02 1.071zm6.085-11.424c2.33 0 3.655 2.074 3.655 5.593 0 3.757-1.394 5.831-3.842 5.831-2.159 0-3.62-2.023-3.654-5.678 0-3.706 1.598-5.746 3.841-5.746zm-.085 1.156c-1.308 0-2.26 1.598-2.26 4.607 0 2.873.884 4.505 2.244 4.505 1.53 0 2.26-1.785 2.26-4.607 0-2.72-.697-4.505-2.244-4.505z"/></symbol>
    <symbol id="audio_timer" viewBox="0 0 50 50"><title>Timer</title><circle cx="25" cy="2.93" r="2.93"/><path d="M24.902 26.855a1.953 1.953 0 001.381-3.334L8.95 6.187 6.187 8.95l17.334 17.334c.354.354.842.572 1.381.572z"/><path d="M44.272 9.074A25.093 25.093 0 0031.515.861a6.807 6.807 0 01.02 4.077C40.097 7.726 46.093 15.811 46.093 25c0 11.631-9.463 21.094-21.094 21.094C13.369 46.094 3.906 36.63 3.906 25c0-3.624.909-7.107 2.616-10.191l-2.856-2.857C1.278 15.84 0 20.322 0 25c0 6.678 2.6 12.956 7.322 17.678C12.044 47.4 18.322 50 25 50c6.678 0 12.956-2.6 17.678-7.322C47.4 37.956 50 31.678 50 25c0-5.804-2.034-11.46-5.728-15.926z"/></symbol>
    <symbol id="audio_volume_up" viewBox="0 0 51 50"><g fill-rule="evenodd"><path d="M24.099 42.656L9.64 33.015H0V16.146h9.64l14.459-9.637zM33.74 24.62c0 2.363-.853 4.47-2.41 6.015v5.75c4.328-2.19 7.228-6.663 7.228-11.824 0-5.17-2.9-9.635-7.228-11.824v5.878c1.557 1.525 2.41 3.652 2.41 6.005"/><path d="M33.688.701a23.846 23.846 0 00-2.358-.7V4.87c8.434 2.562 14.46 10.407 14.46 19.696 0 9.29-6.026 17.12-14.46 19.703v4.856a19.789 19.789 0 002.161-.626c9.95-3.41 17.117-12.829 17.117-23.945 0-11.038-7.074-20.394-16.92-23.852"/></g></symbol>
    <symbol id="bible" viewBox="0 0 51 60"><path fill-rule="evenodd" d="M49.5 48.7l1.3-.2V0H7.3C3.3 0 0 3 0 6.8v47.7c.8 3 3.7 5.5 7.3 5.5h42.3v-2.3c-.4 0-1.3-1.6-1.3-4.5 0-3 .8-4.4 1.2-4.5zM7.2 2.3h1v25.3l5-7 5.2 7V2.3h30v44.4h-41c-2 0-3.7.7-5 1.8V7c0-2.7 2.2-4.7 5-4.7z"/></symbol>
    <symbol id="bible_open" viewBox="0 0 52 43"><path d="M8.514 32.425c5.89.114 10.993.99 14.76 2.536a.53.53 0 00.491-.05.521.521 0 00.233-.433L24 6.446a.522.522 0 00-.33-.485L8.717.037A.526.526 0 008 .522v31.38c0 .285.229.517.514.523z"/><path d="M51.789 5.104a.524.524 0 00-.464-.082l-5.287 1.585a.526.526 0 00-.374.504v27.27s.024.431-.428.431h-.857c-4.265 0-12.19.444-17.354 3.418L26 38.818l-1.025-.588c-5.164-2.974-13.09-3.418-17.354-3.418H6.527c-.204 0-.191-.246-.191-.246V7.111a.526.526 0 00-.375-.504L.675 5.022A.524.524 0 000 5.526V38.52a.528.528 0 00.576.523 71.013 71.013 0 016.807-.338c6.104 0 11.01.894 14.189 2.586C22.039 41.537 24.747 43 26 43c1.254 0 3.961-1.463 4.428-1.71 3.18-1.691 8.085-2.585 14.19-2.585 2.778 0 5.235.184 6.806.338A.523.523 0 0052 38.52V5.526a.527.527 0 00-.211-.422z"/><path d="M28.235 34.912a.527.527 0 00.491.049c3.766-1.545 8.87-2.422 14.76-2.536a.523.523 0 00.514-.522V.523a.522.522 0 00-.718-.486L28.33 5.961a.522.522 0 00-.331.485l.002 28.032a.52.52 0 00.233.434z"/></symbol>
    <symbol id="bible_print" viewBox="0 0 35 29"><g fill-rule="evenodd"><path d="M18 23.435V6.565c0-.312-.224-.565-.5-.565s-.5.253-.5.565v16.87c0 .312.224.565.5.565s.5-.253.5-.565z"/><path d="M34.435 2.59c-1.193 0-2.68-.526-4.255-1.083C28.186.8 25.926 0 23.582 0c-2.712 0-4.367 1.216-5.277 2.235-.341.382-.605.764-.805 1.103-.2-.339-.464-.721-.804-1.103C15.786 1.215 14.13 0 11.418 0 9.074 0 6.814.8 4.82 1.507 3.245 2.064 1.758 2.59.565 2.59A.57.57 0 000 3.168v23.255c0 .319.253.577.565.577 1.383 0 2.957-.558 4.624-1.148 1.91-.676 4.075-1.443 6.229-1.443 1.847 0 3.342.626 4.444 1.86.21.235.567.251.797.036a.587.587 0 00.036-.815c-.91-1.02-2.565-2.236-5.277-2.236-2.344 0-4.604.8-6.598 1.507-1.335.473-2.607.923-3.691 1.05V3.716c1.241-.121 2.616-.608 4.06-1.12 1.91-.676 4.075-1.442 6.229-1.442 4.357 0 5.496 3.538 5.542 3.686a.566.566 0 00.54.408.566.566 0 00.54-.408c.01-.036 1.158-3.686 5.542-3.686 2.154 0 4.319.766 6.229 1.443 1.444.511 2.819.998 4.06 1.119V25.81c-1.084-.126-2.356-.576-3.69-1.049-1.995-.706-4.255-1.507-6.599-1.507-2.712 0-4.367 1.216-5.277 2.236-.21.235-.194.6.036.815.23.215.587.199.797-.037 1.102-1.233 2.597-1.859 4.444-1.859 2.154 0 4.319.767 6.229 1.443 1.667.59 3.241 1.148 4.624 1.148a.57.57 0 00.565-.577V3.168a.571.571 0 00-.565-.577z"/><path d="M34.436 27.767c-1.194 0-2.681-.563-4.256-1.158C28.186 25.855 25.926 25 23.582 25c-2.547 0-4.162 1.145-5.103 2.186h-1.958C15.58 26.145 13.965 25 11.418 25c-2.344 0-4.604.855-6.598 1.609-1.575.595-3.062 1.158-4.255 1.158-.312 0-.565.276-.565.616 0 .341.253.617.565.617 1.383 0 2.957-.595 4.624-1.226 1.91-.722 4.075-1.54 6.229-1.54 1.847 0 3.342.667 4.444 1.985.107.128.258.2.417.2h2.442c.159 0 .31-.072.417-.2 1.102-1.318 2.597-1.986 4.444-1.986 2.154 0 4.319.819 6.229 1.541 1.667.63 3.241 1.226 4.624 1.226.312 0 .565-.276.565-.617 0-.34-.253-.616-.564-.616z"/></g></symbol>
    <symbol id="bible_reader" viewBox="0 0 28 35"><path d="M0 34.608V3.476a.383.383 0 00.027-.118 3.916 3.916 0 01.89-1.982C1.274.95 1.765.653 2.27.392c.266-.143.571-.214.877-.273.238-.048.477-.083.73-.119h23.618c.372.154.505.415.505.783-.013 10.097-.013 20.205 0 30.302 0 .249-.027.486-.066.735a3.729 3.729 0 01-1.341 2.243c-.638.522-1.42.759-2.244.901-.066.012-.146 0-.212.036H.412c-.186-.071-.306-.225-.412-.392zm5.874-19.42c-.013 0-.026 0-.026-.011V2.188c0-.153-.04-.176-.198-.165-.688.094-1.336.247-1.905.634-.37.258-.714.528-.978.88C2.225 4.253 2 5.051 2 5.907V32.46c0 .27.225.54.595.54 6.347-.012 12.707-.012 19.055-.012.568 0 1.124-.07 1.666-.246.925-.305 1.626-.833 2.102-1.584.437-.692.582-1.455.582-2.241V2.634c0-.352-.344-.634-.7-.634-4.59.012-9.178.012-13.766 0-.172 0-.212.047-.212.188v12.954c-.952-1.232-1.877-2.43-2.816-3.65a366.81 366.81 0 00-2.632 3.696z"/></symbol>
    <symbol id="bible_resources" viewBox="0 0 90 60"><path d="M83.37 18.2c-.362-2.324-.413-6.327 2.114-7.67.045-.025.079-.06.118-.091 2.066-.565 3.496-1.357 2.373-2.423L57.503.173 8.161 6.033s-5.65.69-5.145 8.189c.274 4.081 1.772 6.086 3.083 7.072L2.05 22.336c-1.124 1.066.305 1.859 2.371 2.422.04.032.073.067.119.092 2.525 1.345 2.476 5.347 2.113 7.67-9.071 2.201-5.815 2.918-5.815 2.918l1.99.412c-1.4 1.08-2.79 3.129-2.53 7.015.506 7.497 5.147 8.015 5.147 8.015l32.289 8.965L86.47 49.761s3.257-.718-5.817-2.919c-.364-2.32-.415-6.322 2.116-7.67.046-.024.08-.06.118-.09 2.066-.565 3.494-1.357 2.372-2.422l-2.119-.547c1.413-.728 3.535-2.63 3.868-7.57.229-3.398-.809-5.389-2.01-6.56l4.187-.866c0 .001 3.258-.717-5.815-2.917zm-40.765-.096l8.196-1.44 27.696-4.861 4.127-.725c-1.319 2.061-1.263 4.882-1.045 6.695.048.41.103.785.156 1.07l-4.517.96-34.957 7.428.344-9.127zM7.4 25.4l4.126.725 26.599 4.671 2.323.407 6.969 1.223.344 9.128-35.93-7.636-3.541-.752c.052-.285.107-.66.157-1.07.217-1.813.273-4.634-1.047-6.696zM5.797 13.86c-.05-1.994.367-3.436 1.208-4.17.535-.468 1.166-.565 1.6-.565.228 0 .393.027.404.027l21.26 5.921 10.607 2.954-.348 9.192-29.756-7.127-1.57-.376a1.102 1.102 0 0 0-.197-.026c-.123-.007-3.064-.238-3.208-5.83zM37.81 55.864L6.484 48.36a1.08 1.08 0 0 0-.195-.026c-.125-.007-3.068-.238-3.21-5.828-.052-1.997.367-3.438 1.206-4.172.537-.468 1.168-.565 1.6-.565.23 0 .394.026.406.026 0 0 .002 0 0 0l31.865 8.876-.346 9.192zm41.05-9.446c.049.411.104.785.157 1.07l-39.475 8.389.345-9.128 8.44-1.482 1.246.258 4.671-1.297 21.534-3.78 4.128-.726c-1.32 2.061-1.265 4.884-1.047 6.696zm2.174-12.405a.878.878 0 0 0-.212.027l-2.977.712-28.348 6.79-.347-9.19 9.301-2.592 22.52-6.274c.004-.001 1.185-.226 2.053.528.84.733 1.256 2.176 1.207 4.17-.147 5.59-3.09 5.821-3.197 5.829z"/></symbol>
    <symbol id="bible_study" viewBox="0 0 46 36"><path d="M23.873 36c-.322 0-.62-.09-.874-.248a1.63 1.63 0 01-.873.248.719.719 0 01-.33-.08l-2.09-1.08H1.616C.726 34.84 0 34.14 0 33.276V1.566C0 .7.726 0 1.616 0h18.14c.998 0 2.445.402 3.294 1.676C24.015.402 25.659 0 26.782 0h17.605C45.277 0 46 .701 46 1.566v31.71c0 .864-.723 1.565-1.613 1.565H26.589l-2.419 1.095a.692.692 0 01-.297.064zm-1.37-1.79c.409 0 .738.36.738.79 0-.008.007-.008.023-.003l2.372-1.078a.71.71 0 01.293-.063h17.932c.086 0 .132-.041.139-.051l-.008-31.783c0 .02-.044-.019-.129-.019H26.302c-.136-.015-.949.011-1.716.393-.907.449-1.345 1.214-1.345 2.34 0 .428-.332.775-.742.775-.408 0-.74-.346-.74-.775 0-2.602-2.066-2.733-2.481-2.733H1.138c-.086 0-.131.04-.138.05l.007 31.782c0-.02.045.02.13.02h18.246c.115 0 .228.027.33.08l2.03 1.053a.063.063 0 00.015-.014c.004-.058.011-.115.023-.17a.736.736 0 01.722-.595z"/><path d="M22 3h1v33h-1zM10.986 15c-1.218-1.425-2.29-2.682-3.482-4.079a4889.78 4889.78 0 01-3.486 4.056v-.75c0-4.442.014-8.884-.018-13.325-.004-.68.202-.932 1.093-.9 1.65.06 3.305.037 4.956.009.66-.013.955.12.951.71-.025 4.689-.014 9.38-.014 14.279z"/></symbol>
    <symbol id="circle_full" viewBox="0 0 46 46"><path d="M23 0C10.287 0 0 10.289 0 23c0 12.713 10.289 23 23 23 12.713 0 23-10.289 23-23C46 10.287 35.711 0 23 0z"/></symbol>
    <symbol id="circle_left" viewBox="0 0 46 46"><path d="M23 0c12.711 0 23 10.287 23 23 0 12.711-10.287 23-23 23C10.289 46 0 35.713 0 23 0 10.289 10.287 0 23 0zm-1.797 42.324V3.676C11.385 4.572 3.593 12.821 3.593 23c0 10.178 7.79 18.428 17.61 19.324z"/></symbol>
    <symbol id="circle_quarter" viewBox="0 0 46 46"><path d="M23 0c12.711 0 23 10.287 23 23 0 12.711-10.287 23-23 23C10.289 46 0 35.713 0 23 0 10.289 10.287 0 23 0zm-1.797 21.128h20.925c-.895-9.818-9.144-17.61-19.323-17.61-10.178 0-18.428 7.79-19.324 17.61h.201c-.058.616-.088 1.24-.088 1.872 0 10.178 7.79 18.428 17.61 19.324V21.128z"/></symbol>
    <symbol id="circle_right" viewBox="0 0 46 46"><path d="M23 0C10.289 0 0 10.287 0 23c0 12.711 10.287 23 23 23 12.711 0 23-10.287 23-23C46 10.289 35.713 0 23 0zm1.797 42.324V3.676c9.818.896 17.61 9.145 17.61 19.324 0 10.178-7.79 18.428-17.61 19.324z"/></symbol>
    <symbol id="devotion" viewBox="0 0 512 512"><path d="M503.613 362.535l-57.784-28.392c-15.316-7.679-24.831-23.089-24.831-40.227v-76.671c0-16.217-3.833-32.455-11.066-46.92L339.664 28.792C330.785 11.033 312.935.001 293.081.001c-14.5 0-27.63 5.962-37.082 15.557C246.547 5.963 233.417.001 218.917.001c-19.854 0-37.704 11.032-46.603 28.828l-70.229 141.458C94.833 184.791 91 201.029 91 217.245v76.671c0 17.138-9.515 32.548-24.832 40.227L8.387 362.536c-7.488 3.679-10.533 12.768-6.779 20.215l61 120.999c3.748 7.435 12.815 10.365 20.184 6.623l130.166-66.083a104.736 104.736 0 0043.043-39.86c10.55 17.568 25.603 31.141 42.961 39.818l130.248 66.124c7.383 3.749 16.44.803 20.185-6.623l61-120.999c3.753-7.45.701-16.536-6.782-20.215zM241 350.375c0 28.591-15.886 54.296-41.541 67.123L82.624 476.813l-47.406-94.035 44.231-21.733.093-.046c25.573-12.786 41.459-38.49 41.459-67.081v-76.671c0-11.583 2.738-23.181 7.937-33.579L199.167 42.21c3.765-7.53 11.333-12.207 19.751-12.207 12.176 0 22.082 9.906 22.082 22.082 0 14.949.547 18.283-2.332 24.039-15.47 30.94-28.448 59.507-43.341 101.618l-11.763 33.257C182.122 214.748 181 220.462 181 226v89.999c0 8.284 6.716 15 15 15 8.284 0 15-6.716 15-15V226c0-8.442 6.87-15 15-15 8.271 0 15 6.729 15 15v124.375zm-14.976-169.376c9.276-25.605 19.298-49.732 29.884-71.977 10.591 22.67 20.625 46.76 29.971 71.977-11.469.031-21.938 4.38-29.878 11.496-7.962-7.137-18.469-11.49-29.977-11.496zm203.352 295.814l-116.917-59.357C286.886 404.671 271 378.966 271 350.375V225.999c0-8.271 6.729-15 15-15 8.146 0 15 6.575 15 15v89.999c0 8.284 6.716 15 15 15s15-6.716 15-15v-89.999c0-10.183-2.606-15.117-11.41-40.011-13.912-39.337-29.476-76.3-46.259-109.866-2.869-5.739-2.331-8.944-2.331-24.04C271 39.906 280.906 30 293.082 30c8.418 0 15.986 4.677 19.731 12.169l70.268 141.535a75.378 75.378 0 017.918 33.541v76.671c0 28.592 15.886 54.296 41.459 67.081l.093.046 44.232 21.733-47.407 94.037z"/></symbol>
    <symbol id="map_circle" viewBox="0 0 60 60"><path d="M42.117 43.007a1 1 0 0 0-.234 1.986C52.399 46.231 58 49.567 58 51.5c0 2.714-10.652 6.5-28 6.5S2 54.214 2 51.5c0-1.933 5.601-5.269 16.117-6.507a1 1 0 0 0-.234-1.986C7.354 44.247 0 47.739 0 51.5 0 55.724 10.305 60 30 60s30-4.276 30-8.5c0-3.761-7.354-7.253-17.883-8.493z"/><path d="M29.823 54.757L45.164 32.6c5.754-7.671 4.922-20.28-1.781-26.982C39.761 1.995 34.945 0 29.823 0s-9.938 1.995-13.56 5.617c-6.703 6.702-7.535 19.311-1.804 26.952l15.364 22.188zM30 12c3.86 0 7 3.141 7 7s-3.14 7-7 7-7-3.141-7-7 3.14-7 7-7z"/></symbol>
    <symbol id="map_language" viewBox="0 0 55.017 55.017"><path d="M51.688 23.013H40.789a1 1 0 1 0 0 2h9.102l2.899 27H2.268l3.403-27h9.118a1 1 0 1 0 0-2H3.907L0 54.013h55.017l-3.329-31z"/><path d="M17.48 45.164c-.586.275-1.183.53-1.774.759a1 1 0 1 0 .721 1.866 29.865 29.865 0 0 0 1.903-.813 1 1 0 0 0 .48-1.33.997.997 0 0 0-1.33-.482zm19.118-7.591a1 1 0 0 0 .998.959l.042-.001 2.002-.082a1 1 0 0 0 .954-1.044c-.025-.553-.504-1.004-1.045-.954l-1.993.082a.999.999 0 0 0-.958 1.04zm-5.171-.402a1 1 0 1 0 .418 1.956 23.245 23.245 0 0 1 1.886-.313.998.998 0 0 0 .869-1.115.987.987 0 0 0-1.115-.869c-.723.089-1.416.204-2.058.341zm-8.994 5.006c-.514.388-1.045.761-1.58 1.107a1 1 0 0 0 1.09 1.678 29.36 29.36 0 0 0 1.695-1.188c.44-.333.528-.96.196-1.401a1.004 1.004 0 0 0-1.401-.196zM9.994 48.842c.216.057.436.098.653.124.256.031.512.047.769.047.312 0 .626-.022.939-.062a.999.999 0 1 0-.25-1.984 4.891 4.891 0 0 1-1.215.015 3.368 3.368 0 0 1-.396-.075.996.996 0 0 0-1.218.718.998.998 0 0 0 .718 1.217zm36.694-16.079a1 1 0 1 0 1.91.592c.099-.317.16-.64.183-.964a3.985 3.985 0 0 0-.247-1.64 1.001 1.001 0 0 0-1.875.695c.086.232.13.466.13.694l-.004.116a2.21 2.21 0 0 1-.097.507zM10.201 41a1 1 0 0 0 .476-.121c.29-.157.597-.255.913-.289.135-.016.273-.016.406.002a.993.993 0 0 0 1.122-.86 1 1 0 0 0-.86-1.122 3.643 3.643 0 0 0-.891-.008 4.445 4.445 0 0 0-1.644.52A1 1 0 0 0 10.201 41zm33.172-4.891a1 1 0 1 0 .405 1.959c.844-.174 1.528-.451 2.072-.835.059-.039.114-.08.169-.122.436-.339.479-.941.14-1.378-.337-.435-1.002-.49-1.438-.149-.342.239-.77.406-1.348.525zM8.86 43.401a.999.999 0 1 0-1.93-.522 6.687 6.687 0 0 0-.233 1.753c0 .197.009.395.028.592a1 1 0 0 0 1.991-.204 3.618 3.618 0 0 1-.019-.389 4.658 4.658 0 0 1 .163-1.23zM44.698 27.81a5.918 5.918 0 0 0-2.386.18 1 1 0 1 0 .543 1.924 3.934 3.934 0 0 1 1.575-.121.993.993 0 0 0 1.125-.857 1 1 0 0 0-.857-1.126zM26.655 38.968c-.147.087-.307.165-.447.256-.219.142-.432.29-.641.441a1 1 0 0 0 1.178 1.617 10.67 10.67 0 0 1 1.562-.959.993.993 0 0 0 .464-1.271c.008-.008.018-.014.026-.023 1.809-1.916 7.905-9.096 10.429-21.058.512-2.426.627-4.754.342-6.918-.86-6.575-4.945-10.051-11.813-10.051-6.866 0-10.951 3.476-11.813 10.051-.284 2.166-.169 4.493.343 6.918 2.499 11.85 8.503 19.004 10.37 20.997zm1.1-33.735c4.051 0 7.346 3.295 7.346 7.346s-3.295 7.346-7.346 7.346-7.346-3.295-7.346-7.346 3.295-7.346 7.346-7.346z"/></symbol>
    <symbol id="map_pin" viewBox="0 0 39 55"><defs/><path d="M19.823 54.757L35.164 32.6c5.754-7.671 4.922-20.28-1.781-26.982A19.049 19.049 0 0019.823 0a19.052 19.052 0 00-13.56 5.617C-.44 12.319-1.272 24.928 4.459 32.569l15.364 22.188zM20 12c3.86 0 7 3.141 7 7s-3.14 7-7 7-7-3.141-7-7 3.14-7 7-7z"/></symbol>
    <symbol id="menu" viewBox="0 0 24 24"><rect width="23.172" height="5.217" x=".644" y="17.87" rx="1"/><rect width="23.172" height="5.217" x=".644" y="9.174" rx="1"/><rect width="23.172" height="5.217" x=".644" y=".478" rx="1"/></symbol>
    <symbol id="menu_about" viewBox="0 0 72 60"><path d="M43 10.5c3.3 2 5.6 5.5 6 9.6 1.3.8 2.8 1 4.4 1C59.2 21 64 16.5 64 10.8 64 5 59 .3 53.3.3 47.7.3 43 5 43 10.5zm-7 21.3c6 0 10.6-4.7 10.6-10.4S42 11 36 11c-5.6 0-10.3 4.7-10.3 10.4S30.4 31.8 36 31.8zm4.6.7h-9c-7.3 0-13.3 6-13.3 13.2v11l.8.2c7 2 13.4 2.7 18.4 2.7 9.8 0 15.5-2.8 16-3l.6-.3V45.7c0-7.3-6-13.2-13.4-13.2zM58 21.8h-9c0 3.4-1.5 6.6-4 9 6.6 1.8 11.4 7.8 11.4 15V49c8.7-.2 13.7-2.7 14-3l.8-.2V35c0-7.3-6-13.2-13.3-13.2zM17.7 21c2 0 4-.5 5.6-1.6.5-3.3 2.3-6.2 4.8-8v-.7C28.4 5 23.8.3 18 .3 12 .3 7.4 5 7.4 10.7S12 21 17.8 21zm9.4 9.7c-2.3-2.3-4-5.4-4-9h-9.7C6 21.7 0 27.7 0 35v11l.8.2c5.6 1.7 10.7 2.5 15 2.8v-3.2c0-7.2 4.8-13.2 11.4-15z"/></symbol>
    <symbol id="menu_about2" viewBox="0 0 54 41"><defs/><path d="M46.17 13.787a7.98 7.98 0 002.43-5.73C48.6 3.615 44.967 0 40.5 0a8.166 8.166 0 00-4.2 1.167.893.893 0 00-.306 1.23.904.904 0 001.236.304 6.358 6.358 0 013.27-.91c3.474 0 6.3 2.81 6.3 6.266a6.225 6.225 0 01-2.87 5.25 6.361 6.361 0 01-5.172.774.903.903 0 00-1.113.614c-.136.476.141.971.62 1.107.727.207 1.48.312 2.235.312a8.051 8.051 0 003.998-1.077c4.62 1.665 7.702 6.004 7.702 10.925v4.476h-8.207a17.028 17.028 0 00-9.935-13.697A9.785 9.785 0 0036.9 9.848C36.9 4.418 32.46 0 27 0c-5.459 0-9.9 4.418-9.9 9.848a9.785 9.785 0 002.844 6.895 17.344 17.344 0 00-5.039 3.457c-2.799 2.793-4.503 6.377-4.907 10.238H1.8v-4.476c0-3.1 1.217-6.023 3.424-8.228a11.835 11.835 0 014.287-2.692 8.058 8.058 0 003.99 1.072c.755 0 1.507-.105 2.235-.312a.895.895 0 00.619-1.107.904.904 0 00-1.113-.614 6.36 6.36 0 01-5.177-.777A6.225 6.225 0 017.2 8.057c0-3.455 2.827-6.266 6.3-6.266 1.148 0 2.278.314 3.27.91a.905.905 0 001.236-.305.893.893 0 00-.306-1.229A8.166 8.166 0 0013.5 0C9.033 0 5.4 3.615 5.4 8.057c0 2.189.893 4.231 2.424 5.726a13.71 13.71 0 00-3.872 2.685C1.404 19.013 0 22.385 0 25.962v5.371c0 .495.403.896.9.896h9v7.162c0 .494.403.895.9.895h32.4c.498 0 .9-.401.9-.895v-7.162h9c.498 0 .9-.401.9-.896v-5.371c0-5.293-3.092-10.002-7.83-12.175zM18.9 9.847c0-4.442 3.633-8.056 8.1-8.056s8.1 3.614 8.1 8.057c0 4.442-3.633 8.057-8.1 8.057s-8.1-3.615-8.1-8.057zm23.4 28.648H11.7V32.23c0-4.06 1.59-7.882 4.477-10.762a15.467 15.467 0 015.34-3.426A9.878 9.878 0 0027 19.695c2.03 0 3.918-.613 5.49-1.66 5.884 2.25 9.81 7.89 9.81 14.194v6.266z"/></symbol>
    <symbol id="menu_bookshelf" viewBox="0 0 512.003 512.003"><defs/><path d="M482.539 32.411h-34.555c-16.245 0-29.461 13.217-29.461 29.462v76.091a7.605 7.605 0 0015.208 0V61.872c0-7.859 6.394-14.254 14.253-14.254h34.555c7.858 0 14.253 6.394 14.253 14.254v388.259c0 7.859-6.394 14.254-14.253 14.254h-34.555c-7.858 0-14.253-6.394-14.253-14.254v-286.82a7.605 7.605 0 00-15.208 0v70.232a29.273 29.273 0 00-14.254-3.688h-34.554a29.278 29.278 0 00-14.254 3.688v-50.665c0-16.245-13.217-29.462-29.462-29.462h-53.244a29.278 29.278 0 00-14.254 3.688V61.872c0-16.245-13.217-29.462-29.462-29.462h-86.875c-16.245 0-29.462 13.217-29.462 29.462V80.06a29.272 29.272 0 00-14.253-3.688H29.462C13.217 76.372 0 89.588 0 105.833v93.976a7.605 7.605 0 0015.208 0v-93.976c0-7.859 6.394-14.254 14.254-14.254h68.99c7.858 0 14.253 6.394 14.253 14.254v344.298c0 7.859-6.394 14.254-14.253 14.254h-68.99c-7.859 0-14.254-6.394-14.254-14.254V225.157a7.605 7.605 0 00-15.208 0v224.974c0 16.245 13.217 29.462 29.462 29.462h68.99c8.662 0 16.462-3.759 21.857-9.73 5.396 5.971 13.195 9.73 21.858 9.73h86.875c8.662 0 16.462-3.759 21.858-9.73 5.396 5.971 13.195 9.73 21.858 9.73h53.244c8.662 0 16.462-3.759 21.858-9.73 5.396 5.971 13.195 9.73 21.858 9.73h34.555c8.662 0 16.462-3.759 21.858-9.73 5.396 5.972 13.194 9.73 21.857 9.73h34.555c16.245 0 29.461-13.217 29.461-29.462V61.872c-.004-16.245-13.22-29.461-29.465-29.461zM243.294 182.879v267.254c0 7.857-6.394 14.252-14.254 14.252h-86.875c-7.859 0-14.254-6.394-14.254-14.254V61.872c0-7.859 6.394-14.254 14.254-14.254h86.875c7.859 0 14.254 6.394 14.254 14.254v121.007zm15.208 25.963h53.887a7.605 7.605 0 000-15.208h-53.887v-10.755c0-7.859 6.393-14.254 14.253-14.254h53.244c7.859 0 14.254 6.394 14.254 14.254v10.755h-2.516a7.605 7.605 0 000 15.208h2.516v10.768h-81.751v-10.768zm81.75 241.289c.001 7.859-6.393 14.254-14.253 14.254h-53.244c-7.859 0-14.254-6.394-14.254-14.254v-10.755h81.751v10.755zm.001-25.962h-81.751v-10.768h81.751v10.768zm0-164.853v138.877h-81.751V234.817h81.751v24.499zm78.271 190.816c-.001 7.858-6.395 14.253-14.255 14.253h-34.554c-7.859 0-14.254-6.394-14.254-14.254V259.316c0-7.859 6.394-14.254 14.254-14.254h34.555c7.859 0 14.254 6.394 14.254 14.254v190.816z"/><path d="M98.049 125.888H29.863a7.605 7.605 0 000 15.208h68.186a7.605 7.605 0 000-15.208zM98.049 414.869H29.863a7.605 7.605 0 000 15.208h68.186a7.605 7.605 0 000-15.208zM219.697 81.116H151.51a7.605 7.605 0 000 15.208h68.186a7.605 7.605 0 00.001-15.208zM219.697 415.68H151.51a7.605 7.605 0 000 15.208h68.186a7.605 7.605 0 00.001-15.208zM219.697 110.338H151.51a7.605 7.605 0 000 15.208h68.186a7.605 7.605 0 00.001-15.208zM219.697 386.457H151.51a7.605 7.605 0 000 15.208h68.186a7.605 7.605 0 00.001-15.208zM386.992 299.227a7.605 7.605 0 00-7.604 7.604v95.786a7.605 7.605 0 0015.208 0V306.83a7.604 7.604 0 00-7.604-7.603zM478.25 74.747h-25.976a7.605 7.605 0 000 15.208h25.976a7.605 7.605 0 000-15.208zM478.25 101.011h-25.976a7.605 7.605 0 000 15.208h25.976a7.605 7.605 0 000-15.208zM478.25 127.273h-25.976a7.605 7.605 0 000 15.208h25.976a7.605 7.605 0 000-15.208z"/></symbol>
    <symbol id="menu_countries" viewBox="0 0 60 60"><path d="M30 0C13.4 0 0 13.4 0 30s13.4 30 30 30 30-13.4 30-30S46.6 0 30 0zm1.2 57.3H31V45.6h9.6C38.4 52 35 56.4 31.2 57.3zm-12-11.7h9.3v11.7c-3.8-1-7.2-5.3-9.3-11.7zM2.7 31.3h11.6c0 4.2.6 8.2 1.4 11.8H6c-2-3-3-7-3.3-11zm38-17H31V2.8h.2c3.8 1 7.2 5.3 9.4 11.7zm.6 2.6c1 3 1.5 7 1.6 11H31V17h10.3zM28.5 2v12h-9.3c2-6.3 5.5-10.7 9.3-11.6zm0 14.2V28H16.8c0-4 .7-8 1.6-11.7h10zm-14.2 12H2.7C3 24.4 4 20.4 6 17h9.7c-.8 3.5-1.4 7.5-1.4 11.7zm2.5 2.5h11.7v12h-10C17.5 39 17 35 16.8 31zM31 43V31.4h12c0 4.2-.7 8.2-1.7 11.8H31zm14.5-11.7h11.8C57 35.5 56 39.6 54 43H44c1-3.5 1.4-7.5 1.5-11.7zm0-2.6c0-4.2-.6-8.2-1.5-11.8h10c2 3 3 7 3.3 11H45.5zm7-14.3h-9.2C42 10 40 6.2 37.5 3.7c6 1.8 11.4 5.6 15 10.7zM22 3.8c-2 2.5-4 6.2-5.4 10.6h-9c3.6-5 8.7-8.8 14.6-10.6zM7.7 45.6h9c1.2 4.4 3.2 8 5.5 10.6-5.8-1.8-11-5.6-14.4-10.6zm30 10.7C40 53.8 42 50 43.4 45.6h9c-3.4 5-8.7 9-14.8 10.7z"/></symbol>
    <symbol id="menu_deaf" viewBox="0 0 49 46"><path fill-rule="evenodd" d="M48.735 17.14c-.337-1.011-1.493-1.54-3.803-1.252a5.043 5.043 0 00-2.84 1.3c-.674.625-.867 1.3-1.011 1.925 0-.24-1.107-5.102-1.3-5.776-.192-.722-1.974-6.21-2.214-7.125-.24-.914-.963-2.888-1.204-3.514-.433-1.203-2.743-1.444-3.032.53-.24-.915-.626-2.936-1.926-3.177-1.3-.24-2.551.337-2.503 2.503-.722-.385-2.359-.096-2.503 1.588-.048.915.096 1.974.193 2.889.096.77.24 1.444.288 1.925-.577-.433-2.262-.337-2.262 1.637 0 0-.048 2.647.144 4.573.145 1.444-.048 1.636-.096 3.321-.048.963.096-1.492-.048.048-.048.337-.096.722-.193 1.06-.096-.338-.192-.674-.192-1.06-.145-1.492-.048.915-.048-.048-.048-1.685-.29-1.877-.097-3.321.193-1.926.145-4.573.145-4.573 0-1.974-1.685-2.022-2.263-1.637.049-.481.193-1.155.29-1.925.096-.915.24-1.974.192-2.889a1.78 1.78 0 00-2.503-1.588C19.997.388 18.745-.19 17.446.051c-1.3.24-1.685 2.214-1.926 3.177-.289-1.974-2.6-1.781-3.032-.53-.241.626-.963 2.6-1.204 3.514-.24.915-2.022 6.45-2.214 7.125-.193.674-1.3 5.535-1.3 5.776-.144-.578-.337-1.3-1.01-1.925-.675-.626-1.686-1.156-2.889-1.3-2.359-.289-3.514.24-3.803 1.251-.24.722.193 1.54.722 1.685.53.193 2.022.819 2.696 1.252.674.481.674.818.77 1.444.096.626.481 1.059.722 1.83.24.77.433 1.828.626 4.765.24 2.936 3.177 5.969 3.562 7.028.144.433.289 1.203.722 3.032.433 1.83.337 2.792.337 2.792.53 3.707 10.638 5.006 10.927 3.37 1.204-5.97 2.648-5.536 3.177-8.617.048-.24.096-1.155.096-1.444.049.24.097 1.155.097 1.444.53 3.13 1.973 2.696 3.177 8.617.337 1.588 10.397.337 10.927-3.37 0 0-.096-.963.337-2.792.433-1.78.577-2.6.722-3.032.385-1.06 3.321-4.044 3.562-7.028.24-2.937.385-3.996.626-4.766.24-.77.626-1.203.722-1.83.096-.625.096-.962.77-1.443.674-.482 2.166-1.107 2.696-1.252.433-.144.866-.963.674-1.685z"/></symbol>
    <symbol id="menu_deafbible" viewBox="0 0 46 46"><g fill="none" fill-opacity="0" fill-rule="evenodd" stroke="#000"><path d="M28.846 1c-.982 0-1.815.672-1.777 2.496a1.23 1.23 0 00-.616-.148c-.697 0-1.545.468-1.645 1.697-.043.894.087 1.93.174 2.823.087.751.217 1.41.26 1.882a1.087 1.087 0 00-.663-.206c-.625 0-1.377.45-1.377 1.805 0 0-.044 2.588.13 4.47.117 1.273-.013 1.554-.072 2.81 0-.018-.003-.027-.003-.027-.006 0-.024.13-.055.511-.044.33-.087.706-.174 1.032-.086-.33-.173-.659-.173-1.032-.034-.35-.05-.48-.059-.49-.065-1.254-.226-1.528-.068-2.803.173-1.883.13-4.47.13-4.47 0-1.36-.756-1.785-1.384-1.785-.263 0-.505.074-.656.185.043-.468.173-1.128.26-1.882.086-.894.216-1.93.173-2.823-.099-1.232-.926-1.697-1.625-1.697-.236 0-.456.052-.632.148C19.034 1.672 18.198 1 17.217 1c-.158 0-.319.018-.48.05-1.173.233-1.52 2.165-1.737 3.102-.136-1.017-.78-1.442-1.415-1.442-.57 0-1.136.348-1.322.927-.217.613-.867 2.54-1.087 3.433-.216.893-1.823 6.303-1.997 6.96-.173.659-1.173 5.41-1.173 5.644-.13-.564-.303-1.272-.913-1.882a4.557 4.557 0 00-2.604-1.273 8.57 8.57 0 00-1.062-.077c-1.421 0-2.155.493-2.366 1.3-.216.706.174 1.507.65 1.646.477.187 1.824.797 2.434 1.223.61.468.61.798.697 1.41.086.614.433 1.033.65 1.788.217.752.39 1.787.563 4.655.217 2.869 2.864 5.833 3.214 6.868.13.425.26 1.177.65 2.964s.304 2.73.304 2.73C10.563 43.613 15.307 45 18.09 45c1.115 0 1.913-.222 1.988-.68 1.086-5.833 2.387-5.411 2.864-8.421.043-.234.086-1.128.086-1.411.044.234.087 1.127.087 1.41.477 3.06 1.78 2.635 2.864 8.421.087.444.885.66 1.997.66 2.783 0 7.517-1.362 7.86-3.954 0 0-.086-.942.304-2.73.39-1.74.523-2.538.65-2.963.347-1.032 2.997-3.953 3.214-6.868.217-2.868.347-3.903.564-4.655.216-.752.563-1.177.65-1.787.086-.613.086-.943.696-1.411.61-.469 1.954-1.082 2.434-1.223.39-.142.783-.943.61-1.646-.248-.807-.988-1.3-2.387-1.3-.313 0-.663.025-1.044.077a4.392 4.392 0 00-2.56 1.273c-.61.613-.783 1.272-.913 1.882 0-.234-1-4.985-1.174-5.644-.173-.706-1.78-6.067-1.997-6.96-.217-.894-.867-2.823-1.087-3.433-.185-.56-.758-.909-1.334-.909-.628 0-1.266.416-1.402 1.427-.217-.894-.564-2.868-1.737-3.103A2.056 2.056 0 0028.846 1h0z"/><path d="M28.58 2c-.937 0-1.732.641-1.696 2.382a1.175 1.175 0 00-.588-.141c-.665 0-1.475.447-1.57 1.62-.041.853.083 1.842.166 2.694.083.718.207 1.347.248 1.797a1.038 1.038 0 00-.632-.197c-.597 0-1.316.43-1.316 1.724 0 0-.04 2.47.125 4.267.112 1.215-.012 1.482-.068 2.682 0-.017-.003-.026-.003-.026-.006 0-.024.123-.054.488-.04.315-.082.673-.165.985-.083-.314-.166-.63-.166-.985-.032-.335-.047-.459-.056-.468-.062-1.197-.215-1.458-.065-2.676.166-1.797.124-4.267.124-4.267 0-1.297-.72-1.703-1.32-1.703-.252 0-.482.07-.627.176.041-.447.165-1.076.248-1.797.083-.852.207-1.84.166-2.694-.095-1.176-.884-1.62-1.552-1.62-.225 0-.434.05-.603.141C19.215 2.642 18.416 2 17.48 2c-.151 0-.305.018-.458.047-1.12.224-1.451 2.068-1.658 2.962-.13-.97-.745-1.377-1.35-1.377-.545 0-1.086.333-1.263.885-.207.586-.827 2.424-1.037 3.277-.207.853-1.74 6.017-1.906 6.643-.166.63-1.12 5.165-1.12 5.388-.125-.538-.29-1.214-.872-1.797a4.35 4.35 0 00-2.486-1.214 8.18 8.18 0 00-1.013-.074c-1.357 0-2.057.47-2.258 1.241-.207.674.165 1.438.62 1.57.455.18 1.741.762 2.323 1.168.582.447.582.762.665 1.347.083.585.414.985.62 1.706.208.718.373 1.706.539 4.444.207 2.738 2.733 5.567 3.067 6.555.124.406.249 1.124.62 2.83.373 1.705.29 2.605.29 2.605.326 2.47 4.853 3.794 7.51 3.794 1.064 0 1.827-.212 1.897-.65 1.038-5.567 2.28-5.164 2.734-8.038.042-.223.083-1.076.083-1.347.041.224.083 1.077.083 1.347.455 2.92 1.699 2.515 2.733 8.038.083.424.846.63 1.907.63 2.656 0 7.175-1.3 7.503-3.774 0 0-.082-.9.29-2.606.372-1.661.5-2.423.62-2.829.332-.985 2.861-3.773 3.068-6.555.207-2.738.331-3.726.538-4.444.207-.718.538-1.123.62-1.706.083-.585.083-.9.666-1.347.582-.447 1.865-1.032 2.323-1.167.372-.136.747-.9.582-1.57-.237-.771-.943-1.242-2.279-1.242-.298 0-.632.024-.996.074a4.193 4.193 0 00-2.444 1.214c-.582.586-.748 1.215-.872 1.797 0-.223-.954-4.758-1.12-5.388-.165-.673-1.7-5.79-1.906-6.643-.207-.853-.827-2.694-1.037-3.277-.178-.535-.724-.867-1.274-.867-.6 0-1.209.397-1.339 1.362-.207-.853-.538-2.738-1.658-2.962A1.963 1.963 0 0028.58 2h0z"/></g></symbol>
    <symbol id="menu_donate" viewBox="0 0 42 42"><path d="M34.005 4.392A3.528 3.528 0 0136.13 6.52a.698.698 0 101.317-.466 4.87 4.87 0 00-2.975-2.978.7.7 0 00-.467 1.317z"/><path d="M27.61 23.669a.701.701 0 00.67 0c7.951-4.337 12.24-11.472 12.24-15.984C40.52 3.448 37.075 0 32.837 0a7.714 7.714 0 00-6.97 4.442.698.698 0 101.267.59 6.314 6.314 0 015.703-3.634 6.294 6.294 0 016.288 6.287c0 4.102-4.173 10.62-11.179 14.571-7.005-3.951-11.178-10.469-11.178-14.57a6.295 6.295 0 018.806-5.764.699.699 0 10.56-1.28A7.63 7.63 0 0023.054 0c-4.237 0-7.685 3.447-7.685 7.685 0 4.512 4.29 11.647 12.24 15.984zm-18.528 2.88h5.59c.814 0 2.2 1.04 3.423 1.956 1.532 1.15 2.98 2.235 4.261 2.235h4.192c1.06 0 1.588.482 1.602.494a.697.697 0 00.988 0 .7.7 0 000-.988c-.093-.092-.95-.903-2.59-.903h-4.192c-.815 0-2.2-1.04-3.423-1.956-1.534-1.15-2.981-2.236-4.262-2.236H9.082a.698.698 0 100 1.398zM3.493 37.377a1.05 1.05 0 00-1.048-1.047 1.05 1.05 0 00-1.048 1.047c0 .578.47 1.048 1.048 1.048a1.05 1.05 0 001.048-1.048z"/><path d="M41.544 29.343a2.777 2.777 0 00-1.697-1.301 2.732 2.732 0 00-2.077.255l-8.042 3.914c-1.249.625-2.511.625-5.276.625-2.704 0-6.83-.682-6.872-.689a.7.7 0 00-.23 1.378c.174.03 4.282.709 7.102.709 2.9 0 4.357 0 5.895-.77l8.078-3.934a1.398 1.398 0 012.048 1.572c-.097.36-.328.662-.671.86l-9.446 5.88c-.02.012-2.035 1.282-6.603 1.282-3.96 0-10.079-3.372-10.167-3.42-.063-.031-1.578-.772-4.504-.772a.698.698 0 100 1.398c2.541 0 3.85.61 3.852.61.264.147 6.496 3.581 10.82 3.581 5.043 0 7.28-1.453 7.355-1.502l9.412-5.858a2.776 2.776 0 001.301-1.697 2.775 2.775 0 00-.278-2.12zM4.89 22.357H.7a.698.698 0 100 1.397H4.89a.7.7 0 01.699.699v15.37a.7.7 0 01-.699.698H.7a.698.698 0 100 1.397H4.89c1.156 0 2.096-.94 2.096-2.096v-15.37c0-1.155-.94-2.095-2.096-2.095z"/></symbol>
    <symbol id="menu_faqs" viewBox="0 0 55 60"><g fill-rule="evenodd"><path fill-rule="nonzero" d="M47.459 17.308h-8.972c-.927 0-1.678.571-1.678 1.277 0 .705.751 1.277 1.678 1.277h8.972c2.043 0 3.705 1.265 3.705 2.82v21.851c0 1.555-1.662 2.82-3.705 2.82H29.515c-.355 0-.7.085-.987.244l-16.003 8.858 2.468-7.515c.126-.381.013-.786-.305-1.096-.318-.31-.806-.491-1.323-.491H7.982c-2.043 0-3.705-1.265-3.705-2.82V22.682c0-1.555 1.662-2.82 3.705-2.82h8.972c.927 0 1.678-.572 1.678-1.277 0-.706-.751-1.278-1.678-1.278H7.982c-3.894 0-7.062 2.411-7.062 5.375v21.85c0 2.964 3.168 5.375 7.062 5.375h3.234l-2.47 7.516c-.265.809.15 1.633 1.06 2.1.44.227.94.34 1.44.34.53 0 1.058-.127 1.514-.38l17.3-9.575H47.46c3.893 0 7.061-2.411 7.061-5.375V22.682c0-2.964-3.167-5.374-7.061-5.374z"/><path d="M17.359 4.624a17.446 17.446 0 0 1 1.869-1.43c.677-.452 1.409-.845 2.195-1.18.786-.334 1.64-.597 2.56-.79.919-.192 1.914-.288 2.985-.288 1.455 0 2.78.2 3.976.602 1.196.401 2.22.974 3.074 1.719A7.663 7.663 0 0 1 36 5.954c.468 1.053.702 2.232.702 3.537 0 1.271-.184 2.371-.552 3.3-.368.928-.832 1.735-1.392 2.42-.56.686-1.167 1.28-1.82 1.782-.651.501-1.27.974-1.856 1.417-.585.443-1.091.878-1.518 1.305-.426.426-.681.907-.765 1.442l-.577 3.663h-4.24l-.426-4.09a1.116 1.116 0 0 1-.025-.212v-.214c0-.736.183-1.375.551-1.919a7.83 7.83 0 0 1 1.38-1.53c.552-.477 1.146-.941 1.782-1.393a15.98 15.98 0 0 0 1.781-1.467 7.386 7.386 0 0 0 1.38-1.794c.368-.67.552-1.455.552-2.359 0-.602-.113-1.141-.339-1.618a3.66 3.66 0 0 0-.94-1.23 4.218 4.218 0 0 0-1.443-.79 5.798 5.798 0 0 0-1.82-.276c-.953 0-1.76.105-2.42.314-.661.21-1.221.443-1.681.703-.46.259-.85.493-1.167.702-.318.21-.602.314-.853.314-.602 0-1.037-.251-1.305-.753l-1.63-2.584zm5.665 29.58c0-.519.096-1.012.289-1.48.192-.469.46-.87.803-1.205a3.952 3.952 0 0 1 1.216-.803c.469-.2.97-.3 1.506-.3.518 0 1.012.1 1.48.3.468.201.87.469 1.204.803.335.335.602.736.803 1.204.2.469.301.962.301 1.48 0 .536-.1 1.033-.3 1.493-.202.46-.47.858-.804 1.192a3.632 3.632 0 0 1-1.204.79 3.858 3.858 0 0 1-1.48.289 3.923 3.923 0 0 1-1.506-.289 3.776 3.776 0 0 1-1.216-.79 3.567 3.567 0 0 1-.803-1.192 3.83 3.83 0 0 1-.289-1.492z"/></g></symbol>
    <symbol id="menu_feedback" viewBox="0 0 512 512"><path d="M482 201h-63V57c0-16.542-13.458-30-30-30H123c-16.542 0-30 13.458-30 30v90H30c-16.542 0-30 13.458-30 30v184c0 16.542 13.458 30 30 30h88.858l37.071 37.071c1.953 1.953 4.512 2.929 7.071 2.929s5.119-.976 7.071-2.929L186 412.142V415c0 16.542 13.458 30 30 30h88.858l37.071 37.071c1.953 1.953 4.512 2.929 7.071 2.929s5.119-.976 7.071-2.929L393.142 445H482c16.542 0 30-13.458 30-30V231c0-16.542-13.458-30-30-30zM113 57c0-5.514 4.486-10 10-10h266c5.514 0 10 4.486 10 10v184c0 5.514-4.486 10-10 10h-93a10.001 10.001 0 0 0-7.071 2.929L256 286.858l-32.929-32.929A10.001 10.001 0 0 0 216 251h-93c-5.514 0-10-4.486-10-10V57zm82.929 316.929L163 406.858l-32.929-32.929A10.001 10.001 0 0 0 123 371H30c-5.514 0-10-4.486-10-10V177c0-5.514 4.486-10 10-10h63v74c0 16.542 13.458 30 30 30h88.858l37.071 37.071c1.953 1.953 4.512 2.929 7.071 2.929s5.119-.976 7.071-2.929L300.142 271H306v90c0 5.514-4.486 10-10 10h-93a10.001 10.001 0 0 0-7.071 2.929zM492 415c0 5.514-4.486 10-10 10h-93a10.001 10.001 0 0 0-7.071 2.929L349 460.858l-32.929-32.929A10.001 10.001 0 0 0 309 425h-93c-5.514 0-10-4.486-10-10v-22.858l1.142-1.142H296c16.542 0 30-13.458 30-30v-90h63c16.542 0 30-13.458 30-30v-20h63c5.514 0 10 4.486 10 10v184z"/><path d="M349 83H163.148c-5.523 0-10 4.477-10 10s4.477 10 10 10H349c5.523 0 10-4.477 10-10s-4.477-10-10-10zM356.07 141.93c-1.86-1.86-4.44-2.93-7.07-2.93s-5.21 1.07-7.07 2.93c-1.86 1.86-2.93 4.44-2.93 7.07s1.07 5.21 2.93 7.07S346.37 159 349 159s5.21-1.07 7.07-2.93c1.86-1.86 2.93-4.44 2.93-7.07s-1.07-5.21-2.93-7.07zM299.345 139H163.148c-5.523 0-10 4.477-10 10s4.477 10 10 10h136.197c5.523 0 10-4.477 10-10s-4.477-10-10-10zM349 195H212.071c-5.523 0-10 4.477-10 10s4.477 10 10 10H349c5.523 0 10-4.477 10-10s-4.477-10-10-10zM163.837 195H163c-5.523 0-10 4.477-10 10s4.477 10 10 10h.837c5.523 0 10-4.477 10-10s-4.477-10-10-10z"/></symbol>
    <symbol id="menu_flag1" viewBox="0 0 44 60"><path d="M43.371 3.146c-.203-.081-5.06-1.997-10.815-1.997-3.434 0-6.47.687-9.024 2.042C21.269 4.392 18.199 5 14.407 5 9.099 5 3.865 3.788 2 3.307V1a1 1 0 1 0-2 0v3c0 .014.007.026.008.04 0 .012-.008.022-.008.034V59a1 1 0 1 0 2 0V35.373C4.273 35.937 9.243 37 14.407 37c4.122 0 7.507-.688 10.062-2.042 2.263-1.201 4.983-1.81 8.087-1.81 5.357 0 10.027 1.836 10.073 1.854a.992.992 0 0 0 .932-.102.995.995 0 0 0 .439-.826v-30a1 1 0 0 0-.629-.928z"/></symbol>
    <symbol id="menu_flag2" viewBox="0 0 133 133"><path d="M131.218 11.575c-1.265-.542-2.793-.369-3.846.437-9.306 7.08-17.856 10.517-26.166 10.517-8.31 0-16.38-3.263-26.407-10.634-21.771-15.761-43.164-15.732-68.163-.67-1.751 1.049-1.751 1.049-1.442 31.377 0 11.916.24 26.687 0 28.755-.475 1.558.629 3.147 2.464 3.55 1.104.242 2.278.004 3.133-.636 8.714-5.704 19.352-8.89 30.356-9.09 7.165.033 14.221 1.49 20.603 4.253 6.974 3.172 14.72 4.927 22.63 5.128 41.481 0 48.315-57.598 48.59-60.045.189-1.194-.507-2.363-1.752-2.942z"/><path d="M2.985 0h-.932C.919 0 0 2.447 0 5.465v122.07C0 130.553.92 133 2.053 133h.932c1.134 0 2.053-2.447 2.053-5.465V5.465C5.038 2.447 4.118 0 2.985 0z"/></symbol>
    <symbol id="menu_folders" viewBox="0 0 51 44"><defs/><path d="M47.323 11.753c-.593-1.42-1.81-2.51-3.296-3.038-.848-2.035-2.975-3.393-5.34-3.393H22.757a8.907 8.907 0 00-1.24-1.01L19.59 2.407C17.98.787 16.137 0 13.961 0H5.718C2.565 0 0 2.366 0 5.275v27.369c0 2.18 1.472 4.143 3.678 4.924.572 1.371 1.754 2.493 3.294 3.04C7.795 42.59 9.878 44 12.312 44h32.97C48.435 44 51 41.634 51 38.726V16.678c0-2.245-1.53-4.166-3.677-4.925zm-1.943-.347l-.098-.002h-16.15L27.499 9.79h14.487c1.365 0 2.623.621 3.395 1.617zm-3.297-3.041l-.098-.002h-15.66a.83.83 0 00-.237.034 8.373 8.373 0 00-2.128-1.543.66.66 0 00.002-.106h14.726c1.365 0 2.622.621 3.395 1.617zM1.545 32.644V5.274c0-2.122 1.872-3.848 4.173-3.848h8.243c1.613 0 2.955.53 4.195 1.664a8.462 8.462 0 00-.898-.049H9.015c-3.153 0-5.718 2.366-5.718 5.275v27.369l.002.09c-1.08-.712-1.754-1.872-1.754-3.131zm3.297 3.04V8.317c0-2.123 1.872-3.85 4.173-3.85h8.243c1.203 0 2.255.296 3.227.916l.737.728a8.519 8.519 0 00-.667-.028h-8.243c-3.153 0-5.718 2.366-5.718 5.275v27.369l.002.09c-1.08-.712-1.754-1.871-1.754-3.131zm44.613 3.042c0 2.122-1.872 3.849-4.173 3.849h-32.97c-2.3 0-4.173-1.727-4.173-3.849V21.24c0-2.122 1.872-3.849 4.173-3.849h32.97c2.3 0 4.173 1.727 4.173 3.849v17.486zm-4.173-22.76h-32.97c-1.645 0-3.128.644-4.173 1.673v-6.282c0-2.123 1.872-3.85 4.173-3.85h8.243c1.743 0 3.17.619 4.494 1.95l3.183 3.146c.146.145.35.227.565.227h16.485c2.3 0 4.173 1.726 4.173 3.848v.961c-1.045-1.029-2.528-1.673-4.173-1.673z"/><path d="M37.16 34H20.074c-.804 0-1.456.336-1.456.75 0 .415.652.75 1.456.75h17.088c.804 0 1.456-.335 1.456-.75 0-.414-.652-.75-1.456-.75zm0-5H20.074c-.804 0-1.456.336-1.456.75 0 .415.652.75 1.456.75h17.088c.804 0 1.456-.335 1.456-.75 0-.414-.652-.75-1.456-.75zm0-5H20.074c-.804 0-1.456.336-1.456.75 0 .415.652.75 1.456.75h17.088c.804 0 1.456-.335 1.456-.75 0-.414-.652-.75-1.456-.75z"/></symbol>
    <symbol id="menu_languages" viewBox="0 0 77 60"><path d="M45 40.7c4.6-2 8.2-4.5 11-8 2.5-3.2 3.8-7 3.8-10.8 0-4-1.3-8-4-11-2.6-4-6.2-6-10.8-8-4.7-2-9.7-3-15-3-5.5 0-10.5 1-15 3-4.7 2-8.3 4-11 8-2.7 3-4 7-4 11 0 3 1 6 3 9s4.8 6 8.3 8l-1 1.3c-.2.6-.5 1-1 1.6-.3.6-.7 1-1 1.3 0 .3-.5.7-1 1.2l-1 1H6l-.2.2-.3.3v1c0 .4.2.7.5 1 .2.4.5.5.8.5H7c1.4 0 2.6-.3 3.6-.6 4.4-1 8.3-3 11.8-5.6 2.6.5 5 .7 7.5.7 5 0 10-1 15-3zm-23.8-3.5l-2 1.3-2.5 1.7 1.5-3.6-4.2-2.4c-2.7-1.6-4.8-3.4-6.3-5.6-1.5-2.2-2.3-4.4-2.3-6.7 0-3 1.2-6 3.4-9 2.2-2.7 5.2-4.7 9-6 3.7-1.6 7.8-2 12-2 4.5 0 8.5.5 12.3 2 4 1.4 7 3.4 9 6 3 2.5 4 5.2 4 8 0 3-1 5.7-3 8.2-2.2 2.4-5 4.4-9 6-3.7 1.4-7.7 2-12 2-2.2 0-4.4 0-6.6-.5l-2.2-.4z"/><path d="M73.2 42.3c2-3 3-6 3-9.5S75.2 26 73 23c-2-3-5-5.6-8.7-7.6.7 2 1 4.3 1 6.5 0 3-1 7-3 10-1.8 3.2-4.5 6.2-8 9-3.3 3-7 5-11.3 6-4 1-8.5 2-13 2l-3.8-.5c5.7 3.3 12.4 5 20 5 2.5 0 5 0 7.5-.6 3.5 3 7.5 5 11.8 6l3.7 1c.3 0 .7 0 1-.6l.5-1V58l-.2-.3v-.2c-.2 0-.3-.2-.3-.2h-.4c0-.3-.4-.7-1-1.2l-1-1-1-1c-.4-.2-.8-1-1-1.3l-1-2c3.6-2 6.3-4.3 8.4-7.3z"/></symbol>
    <symbol id="menu_library" viewBox="0 0 77 60"><path d="M75.15 45.911h-5.09v-31.85H57.313v31.835h-8.507l3.94-1.806c.314-.15.553-.403.672-.716.12-.314.104-.672-.045-.985l-10.91-22.836L30.97 25l9.985 20.895h-12.94V18.045l11.313-5.03-2.194-4.596a1.285 1.285 0 0 0-1.686-.612l-7.433 3.417V8.971c0-.702-.567-1.269-1.269-1.269H16.552c-.701 0-1.268.567-1.268 1.269H5.09v2.552h10.194v2.552H5.09v31.836H1.269C.567 45.911 0 46.478 0 47.18v6.373c0 .701.567 1.268 1.269 1.268h3.03l2.194 4.389c.223.432.656.701 1.134.701H14a1.26 1.26 0 0 0 1.134-.701l2.194-4.389H59.06l2.194 4.389c.224.432.656.701 1.134.701h6.373a1.26 1.26 0 0 0 1.135-.701l2.194-4.389h3.03c.7 0 1.268-.567 1.268-1.268V47.18a1.224 1.224 0 0 0-1.239-1.269zM62.402 19.165a1.268 1.268 0 1 1 2.537 0V40.82a1.268 1.268 0 1 1-2.537 0V19.165zm-24.612 8.328a1.293 1.293 0 0 1 .597-1.701 1.288 1.288 0 0 1 1.702.597l5.955 12.447c.298.627.03 1.388-.597 1.702-.18.09-.358.12-.552.12-.478 0-.926-.27-1.15-.732l-5.955-12.433zm-19.955-15.97v-1.269h7.642v3.821h-7.642v-2.552zm0 5.09h7.642v2.552h-7.642v-2.552zm0 5.09h7.642v24.193h-7.642V21.702zm-7.642-2.538a1.268 1.268 0 1 1 2.537 0V40.82a1.268 1.268 0 1 1-2.537 0V19.165zm63.687 33.104H2.552v-3.82H73.881v3.82zM16.567.06H6.373c-.701 0-1.269.567-1.269 1.269v5.09h12.732v-5.09c0-.702-.567-1.269-1.269-1.269z"/><path d="M21.657 25.523c-.702 0-1.269.567-1.269 1.269v14.015a1.268 1.268 0 1 0 2.537 0V26.792c0-.702-.567-1.269-1.268-1.269zM40.433 15.314l-11.627 5.179 1.06 2.209 11.492-5.433zM68.776.06H58.582c-.701 0-1.269.567-1.269 1.269v5.09h12.732v-5.09c0-.702-.567-1.269-1.269-1.269zM57.313 8.971h12.731v2.552H57.313z"/></symbol>
    <symbol id="menu_library1" viewBox="0 0 77 53"><defs/><rect width="7" height="7" x="41" y="10" rx="1"/><path d="M76.963 48.518L68.731 4.875a2.197 2.197 0 00-.972-1.424 2.49 2.49 0 00-1.765-.364l-11.39 1.878a2.38 2.38 0 00-1.172.548V2.206C53.43.986 52.37 0 51.066 0H39.49c-1.297.008-2.344.993-2.345 2.206V7.69a2.14 2.14 0 00-.694-1.562 2.45 2.45 0 00-1.672-.646H27.77c-1.302.003-2.355.99-2.356 2.206v6.703c-.001-1.218-1.057-2.205-2.36-2.206H8.222c-1.302.002-2.356.989-2.357 2.206v13.863c.002.344.092.682.262.987H2.36c-1.303.002-2.358.989-2.36 2.206v19.347C.001 52.012 1.057 52.999 2.36 53h20.69a2.45 2.45 0 001.67-.645c.444-.414.693-.976.694-1.561.001 1.218 1.057 2.205 2.36 2.206h7.004c1.305.001 2.363-.986 2.366-2.206 0 1.213 1.048 2.198 2.345 2.206h11.57c1.302-.001 2.358-.988 2.36-2.206V11.412l7.494 39.753c.2 1.055 1.179 1.825 2.325 1.828.137 0 .275-.012.41-.033l11.4-1.883a2.38 2.38 0 001.526-.907c.36-.48.5-1.075.39-1.652zM23 50.685a.323.323 0 01-.33.315H2.33a.323.323 0 01-.33-.315v-19.37c0-.174.148-.315.33-.315h20.34c.182 0 .33.14.33.315v19.37zm1-22.99c0 .168-.155.304-.347.305H8.347c-.192-.001-.347-.137-.347-.305v-13.39c0-.168.155-.304.347-.305h15.306c.192.001.347.137.347.305v13.39zM26 31c-.002-.568-.363-1.11-1-1.5.637-.388 1-.931 1-1.5v3zm9 19.682c0 .175-.157.318-.35.318h-7.298a.369.369 0 01-.249-.093.305.305 0 01-.103-.225V22h7.996L35 50.682zM35 21h-8v-1h8v1zm0-2h-8V8.302c0-.08.037-.158.103-.214a.38.38 0 01.25-.088h7.293c.193 0 .35.135.35.302L35 19zm16 31.687a.323.323 0 01-.33.313H39.332a.323.323 0 01-.331-.313V2.313A.323.323 0 0139.331 2H50.66c.182.001.328.14.33.313L51 50.687zM55.006 7.29a.309.309 0 01.054-.241.333.333 0 01.217-.132l11.288-1.912a.344.344 0 01.25.053.32.32 0 01.137.208L68 10.976 56.053 13l-1.047-5.71zM57 14.123L67.707 12 68 13.877 57.292 16 57 14.123zm0 2.793L68.639 15 73 38.086 61.36 40 57 16.916zm5 25.206L72.707 40 73 41.878 62.295 44 62 42.122zm12.937 6.829a.333.333 0 01-.215.132l-11.289 1.912a.334.334 0 01-.387-.26L62 45.022 73.945 43l1.048 5.705a.296.296 0 01-.056.246z"/><path d="M12.794 22.63c-.597-.596-1.478-.636-2.115-.095-.637.54-.856 1.515-.527 2.34.329.823 1.117 1.274 1.892 1.08.776-.193 1.328-.977 1.326-1.883v-4.704l5.06-1.451v3.16a1.595 1.595 0 00-1.132-.476c-.931.008-1.681.875-1.676 1.937.005 1.063.763 1.92 1.694 1.917.932-.003 1.685-.866 1.684-1.93V15l-6.206 1.77v5.86zM9.5 35.5v12l9-6.001z"/></symbol>
    <symbol id="menu_player" viewBox="0 0 38 60"><path d="M34.26 0H3.479A3.478 3.478 0 0 0 0 3.478v53.044A3.478 3.478 0 0 0 3.478 60h30.783a3.478 3.478 0 0 0 3.478-3.478V3.478A3.478 3.478 0 0 0 34.261 0zM18.92 54.033c-6.117 0-11.076-4.96-11.076-11.076 0-6.118 4.959-11.077 11.076-11.077 6.117 0 11.076 4.96 11.076 11.077s-4.96 11.076-11.076 11.076zm13.603-30.207c0 .478-.392.87-.87.87H6.261a.872.872 0 0 1-.87-.87V7.652c0-.478.392-.87.87-.87h25.391c.478 0 .87.392.87.87v16.174z"/><path d="M24.906 41.87l-8.407-5.81c-.866-.597-1.542-.225-1.542.827v12.14c0 1.051.676 1.423 1.542.826l8.415-5.81c.866-.598.858-1.575-.008-2.173z"/></symbol>
    <symbol id="menu_search" viewBox="0 0 16 16"><path d="M1.8 1.8C-.6 4-.6 8 1.8 10.4c2.3 2.3 6.2 2.3 8.6 0 2.3-2.4 2.3-6.3 0-8.6C8-.6 4-.6 1.8 1.8zm8 .7c2 2 2 5.2 0 7.2s-5.4 2-7.3 0c-2-2-2-5.3 0-7.2 2-2 5.2-2 7.2 0zm.2 9l1.5-1.4 4.5 5-1.4 1.5L10 12z"/></symbol>
    <symbol id="menu_store" viewBox="0 0 42 41"><defs/><path d="M33.694 20.15h-12.27a.744.744 0 00-.754.756v12.27c.094.471.377.754.755.754h12.27a.744.744 0 00.754-.755v-12.27a.744.744 0 00-.755-.754zm-.66 12.365H22.18V21.66h10.854v10.854zm-18.558-3.059c-.377 0-.755.099-.755.263v.985c0 .13.283.262.755.262.472 0 .755-.098.755-.262v-.985c0-.164-.283-.263-.755-.263z"/><path d="M41.245 39.027h-2.36v-21.52a5.652 5.652 0 003.02-5.001c0-.095 0-.284-.094-.378L34.733.425c-.095-.189-.378-.378-.567-.378H7.08c-.283 0-.472.189-.661.378L.094 12.128C0 12.222 0 12.317 0 12.506c0 2.17 1.227 4.058 3.115 5.096v21.52H.66v-.095c-.378 0-.661.283-.661.755 0 .378.283.755.66.755h40.585a.744.744 0 00.755-.755.744.744 0 00-.755-.755zM33.6 1.463l6.23 10.288h-8.023L28.22 1.463h5.38zm-11.987 0h5.097l3.587 10.288h-8.684V1.463zm8.59 11.703c-.378 2.077-2.077 3.587-4.248 3.587-2.17 0-3.87-1.605-4.247-3.587h8.494zM20.197 1.463V11.75h-9.25l3.587-10.288h5.663zm0 11.703c-.378 2.077-2.077 3.587-4.247 3.587-2.171 0-3.87-1.605-4.248-3.587h8.495zM7.456 1.463h5.569L9.533 11.75H1.888L7.456 1.463zM1.51 13.166H10.1c-.378 2.077-2.077 3.587-4.247 3.587-2.171 0-3.964-1.605-4.342-3.587zm14.818 25.861H8.683V21.661h7.645v17.366zm21.047.094H17.744V21a.744.744 0 00-.755-.755h-9.06a.744.744 0 00-.756.755v18.121H4.436V18.074h.094c.378.095.85.189 1.322.189a5.652 5.652 0 005.002-3.02 5.652 5.652 0 0010.004 0 5.652 5.652 0 005.003 3.02c2.17 0 4.152-1.227 5.096-3.115.944 1.888 2.832 3.115 5.097 3.115.472 0 .85-.094 1.321-.189v21.047zm-1.227-22.368c-2.17 0-3.87-1.605-4.247-3.587h8.495c-.378 2.077-2.171 3.587-4.248 3.587z"/></symbol>
    <symbol id="nav_api" viewBox="0 0 34 34"><path d="M16.69 8.036c-4.771 0-8.654 3.883-8.654 8.655 0 4.772 3.883 8.654 8.655 8.654 4.772 0 8.654-3.882 8.654-8.654s-3.882-8.655-8.654-8.655zm0 16.073c-4.09 0-7.417-3.328-7.417-7.418S12.6 9.273 16.69 9.273c4.09 0 7.418 3.327 7.418 7.418 0 4.09-3.328 7.418-7.418 7.418z"/><path d="M31.663 12.982h-1.247a14.09 14.09 0 00-1.397-3.374l.881-.881c.325-.325.503-.757.503-1.215 0-.46-.178-.891-.503-1.216L27.086 3.48c-.65-.648-1.781-.65-2.432 0l-.881.882A14.13 14.13 0 0020.4 2.966V1.719A1.72 1.72 0 0018.681 0h-3.98a1.72 1.72 0 00-1.72 1.719v1.247a14.12 14.12 0 00-3.373 1.397l-.881-.881c-.65-.65-1.782-.65-2.431 0L3.48 6.296a1.709 1.709 0 00-.503 1.216c0 .459.178.89.503 1.215l.882.882a14.073 14.073 0 00-1.397 3.373H1.719A1.72 1.72 0 000 14.7v3.98c0 .95.77 1.72 1.719 1.72h1.247a14.12 14.12 0 001.397 3.373l-.881.882a1.708 1.708 0 00-.504 1.215c0 .46.18.891.504 1.216l2.814 2.815c.65.65 1.782.65 2.431 0l.882-.882a14.146 14.146 0 003.373 1.397v1.248c0 .948.771 1.718 1.719 1.718h3.98a1.72 1.72 0 001.719-1.718v-1.248a14.12 14.12 0 003.373-1.397l.882.882c.65.65 1.782.649 2.431 0l2.815-2.815c.324-.324.503-.756.503-1.216 0-.458-.179-.89-.503-1.215l-.882-.882a14.146 14.146 0 001.397-3.373h1.248a1.72 1.72 0 001.718-1.719v-3.98c0-.948-.771-1.72-1.719-1.72zm.482 5.7a.483.483 0 01-.482.482h-2.22l-.112.477a12.91 12.91 0 01-1.615 3.902l-.26.416 1.57 1.57a.482.482 0 010 .683l-2.814 2.814a.482.482 0 01-.683 0l-1.57-1.57-.416.26a12.882 12.882 0 01-3.902 1.615l-.477.112v2.22a.483.483 0 01-.483.482h-3.98a.483.483 0 01-.483-.482v-2.22l-.478-.112a12.91 12.91 0 01-3.901-1.615l-.417-.26-1.57 1.57a.482.482 0 01-.682 0l-2.814-2.814a.482.482 0 010-.683l1.57-1.57-.26-.416A12.882 12.882 0 014.05 19.64l-.11-.477H1.718a.483.483 0 01-.483-.483v-3.98c0-.266.217-.483.483-.483h2.22l.111-.478A12.898 12.898 0 015.666 9.84l.26-.417-1.57-1.57a.482.482 0 010-.682L7.17 4.356a.482.482 0 01.683 0l1.57 1.57.416-.26A12.882 12.882 0 0113.74 4.05l.478-.11V1.718c0-.266.217-.483.482-.483h3.98c.267 0 .484.217.484.483v2.22l.477.111a12.91 12.91 0 013.902 1.616l.416.26 1.57-1.57a.482.482 0 01.683 0l2.814 2.814a.482.482 0 010 .683l-1.57 1.57.26.416a12.87 12.87 0 011.615 3.901l.112.478h2.22c.266 0 .482.217.482.482v3.981z"/><path d="M16.69 10.51a6.189 6.189 0 00-6.18 6.18 6.189 6.189 0 006.18 6.183 6.189 6.189 0 006.183-6.182 6.189 6.189 0 00-6.182-6.182zm0 11.126a4.951 4.951 0 01-4.945-4.945 4.951 4.951 0 014.946-4.946 4.951 4.951 0 014.945 4.946 4.951 4.951 0 01-4.945 4.945z"/></symbol>
    <symbol id="nav_arrow_left" viewBox="0 0 40 34"><path d="M.505 18.225c-.044-.056-.077-.122-.122-.189-.033-.067-.067-.133-.1-.211a.519.519 0 01-.055-.111c-.012-.022-.012-.045-.023-.067-.033-.078-.055-.155-.077-.233-.023-.067-.034-.122-.056-.189-.022-.078-.022-.156-.044-.222a1.237 1.237 0 01-.023-.19c-.01-.077 0-.155 0-.232v-.19c0-.077.023-.155.034-.244l.033-.178c.011-.077.044-.155.067-.233.022-.055.033-.122.055-.178.011-.022.011-.055.022-.077l.067-.134c.033-.055.056-.122.089-.178.033-.066.078-.133.122-.2.034-.055.067-.1.111-.155.056-.067.111-.133.167-.189.022-.033.044-.056.078-.089L14.55.858a2.917 2.917 0 014.133 0 2.917 2.917 0 010 4.134l-8.7 8.689H37.05c1.01 0 1.9.51 2.422 1.288.311.467.5 1.034.5 1.634 0 .81-.333 1.533-.856 2.066a2.896 2.896 0 01-2.066.856H9.983l8.689 8.689a2.917 2.917 0 010 4.133 2.93 2.93 0 01-2.067.856 2.93 2.93 0 01-2.066-.856L.86 18.658c-.033-.033-.056-.066-.078-.089a2.225 2.225 0 01-.155-.177c-.045-.056-.078-.111-.123-.167z"/></symbol>
    <symbol id="nav_arrow_right" viewBox="0 0 40 34"><path d="M39.467 18.225c.044-.056.077-.122.122-.189.033-.067.067-.133.1-.211a.519.519 0 00.055-.111c.012-.022.012-.045.023-.067.033-.078.055-.155.077-.233.023-.067.034-.122.056-.189.022-.078.022-.156.044-.222.012-.067.023-.134.023-.19.01-.077 0-.155 0-.232v-.19c0-.077-.023-.155-.034-.244l-.033-.178c-.011-.077-.044-.155-.067-.233-.022-.055-.033-.122-.055-.178-.011-.022-.011-.055-.022-.077l-.067-.134c-.033-.055-.056-.122-.089-.178a1.933 1.933 0 00-.122-.2 1.348 1.348 0 00-.111-.155 2.877 2.877 0 00-.167-.189c-.022-.033-.044-.056-.078-.089L25.422.858a2.917 2.917 0 00-4.133 0 2.917 2.917 0 000 4.134l8.7 8.689H2.922A2.91 2.91 0 00.5 14.969a2.953 2.953 0 00-.5 1.634c0 .81.333 1.533.856 2.066a2.896 2.896 0 002.066.856H29.99L21.3 28.214a2.917 2.917 0 000 4.133 2.93 2.93 0 002.067.856c.744 0 1.5-.29 2.066-.856l13.678-13.689c.033-.033.056-.066.078-.089.055-.055.111-.122.155-.177.045-.056.078-.111.123-.167z"/></symbol>
    <symbol id="nav_art" viewBox="0 0 33 29"><path d="M16.682 10.255a3.364 3.364 0 00-3.36 3.367 3.364 3.364 0 003.36 3.367 3.364 3.364 0 003.36-3.367 3.364 3.364 0 00-3.36-3.367zm0 5.13c-.972 0-1.76-.79-1.76-1.763 0-.974.788-1.764 1.76-1.764s1.76.79 1.76 1.764-.788 1.763-1.76 1.763z"/><path d="M30.083 2.56L8.242.073a2.996 2.996 0 00-2.36.682 3.048 3.048 0 00-1.16 2.084l-.4 3.287h-1.24c-1.76 0-3.08 1.563-3.08 3.326v16.394a3.044 3.044 0 002.958 3.125c.04.002.08.002.121.002h21.961c1.76 0 3.36-1.364 3.36-3.127v-.641a3.996 3.996 0 001.52-.642 3.329 3.329 0 001.16-2.164l1.84-16.273a3.245 3.245 0 00-2.84-3.568zm-3.28 23.287c0 .882-.88 1.523-1.76 1.523H3.08a1.441 1.441 0 01-1.48-1.523V22.88l6.2-4.57a1.917 1.917 0 012.48.12l4.36 3.849a3.756 3.756 0 002.361.881 3.635 3.635 0 001.92-.52l7.88-4.57v7.776zm0-9.66l-8.721 5.09a2.037 2.037 0 01-2.36-.2l-4.4-3.888a3.555 3.555 0 00-4.44-.16l-5.28 3.848V9.453c0-.882.6-1.723 1.48-1.723h21.96c.94.039 1.7.782 1.76 1.723v6.734zM31.323 5.91l-.001.016-1.88 16.273c.003.422-.19.822-.52 1.083-.16.16-.52.24-.52.32V9.453a3.443 3.443 0 00-3.36-3.326H5.92L6.281 3c.079-.405.29-.772.6-1.042.351-.243.775-.356 1.2-.32l21.802 2.524c.88.084 1.525.867 1.441 1.748z"/></symbol>
    <symbol id="nav_back_arrow" viewBox="0 0 80 50"><path d="M23.333 10.059V.098L0 23.34l23.333 23.242v-9.96L10 23.34l13.333-13.281zm20 3.32V.098L20 23.34l23.333 23.242V32.969C60 32.969 71.667 38.28 80 49.902 76.667 33.301 66.667 16.7 43.333 13.38z"/></symbol>
    <symbol id="nav_cart" viewBox="0 0 59 60"><circle cx="19" cy="54" r="6"/><circle cx="52" cy="54" r="6"/><path d="M52.083 41H16.706c-.492 0-.885-.293-.983-.781L8.058 1.952H.983c-.59 0-.983-.39-.983-.976S.393 0 .983 0h7.861c.492 0 .885.293.983.781l7.665 38.267h33.804L56.8 13.667H20.637c-.59 0-.983-.39-.983-.977 0-.585.393-.976.983-.976h37.342c.295 0 .59.098.786.39.196.196.295.489.196.782l-5.896 27.333c-.098.488-.491.781-.982.781z"/></symbol>
    <symbol id="nav_check" viewBox="0 0 30 28"><g fill="none" fill-rule="evenodd" transform="translate(1)"><circle cx="12" cy="15" r="12" stroke="#000" stroke-width="2"/><path fill="#000" fill-rule="nonzero" stroke="#FAFAFA" d="M12.053 21.506a44.907 44.907 0 01-.602-1.354l-.834-1.927a35.019 35.019 0 00-.656-1.45l-.506-1.025c-.975-1.932-2.128-3.295-3.459-4.088 1.559-1.312 2.949-1.969 4.17-1.969.811 0 1.45.313 1.914.937.465.624.861 1.707 1.19 3.247 2.37-4.494 4.215-7.597 5.537-9.31 1.185-1.541 2.199-2.562 3.042-3.063.843-.501 1.962-.752 3.356-.752.875 0 1.823.169 2.844.506-2.38 1.558-4.974 4.12-7.786 7.683-2.812 3.564-5.549 7.752-8.21 12.565z"/></g></symbol>
    <symbol id="nav_contact" viewBox="0 0 34 32"><g fill-rule="evenodd"><path fill-rule="nonzero" d="M32.139.053H8.693c-.788.001-1.426.64-1.427 1.427v6.467L6.194 6.34a1.658 1.658 0 00-2.238-.504L1.75 7.161A3.236 3.236 0 00.272 9.08c-.805 2.93-.208 7.978 7.201 15.388 5.892 5.886 10.285 7.471 13.313 7.471.701.004 1.4-.088 2.076-.27a3.242 3.242 0 001.918-1.477l1.325-2.208a1.658 1.658 0 00-.504-2.236l-5.281-3.52a1.667 1.667 0 00-2.232.362l-1.538 1.977a.535.535 0 01-.685.144l-.292-.16c-.963-.526-2.162-1.18-4.583-3.6-.261-.262-.499-.507-.721-.741h21.87c.785 0 1.423-.635 1.427-1.42V1.48c-.001-.787-.64-1.426-1.427-1.427zM15.037 25.532l.285.156c.714.4 1.614.214 2.112-.435l1.538-1.977a.544.544 0 01.727-.118l5.282 3.52c.24.16.312.48.164.728l-1.325 2.208a2.126 2.126 0 01-1.254.974c-2.645.727-7.274.112-14.3-6.915C1.24 16.647.626 12.018 1.353 9.375c.15-.528.499-.977.973-1.254l2.208-1.325a.541.541 0 01.727.164l3.523 5.282a.543.543 0 01-.119.727l-1.977 1.538a1.648 1.648 0 00-.435 2.112l.156.284c.56 1.027 1.255 2.304 3.79 4.838 2.536 2.535 3.813 3.231 4.838 3.79zm17.41-6.743a.306.306 0 01-.308.302H9.259a14.112 14.112 0 01-1.867-2.722l-.161-.294a.534.534 0 01.144-.684l1.978-1.538a1.666 1.666 0 00.362-2.231l-1.33-1.996V1.48a.304.304 0 01.308-.308h23.446a.304.304 0 01.307.308V18.79z"/><path d="M30.211 2.644L20.86 9.737a.755.755 0 01-.887 0l-9.349-7.093a.56.56 0 10-.676.892l9.35 7.092a1.883 1.883 0 002.238 0l9.352-7.092a.56.56 0 00-.676-.892zm-14.57 8.031l-5.733 6.138a.56.56 0 00.819.764l5.732-6.142a.56.56 0 00-.819-.76zm9.587 0a.56.56 0 10-.819.763l5.73 6.139a.56.56 0 10.82-.764l-5.73-6.138z"/></g></symbol>
    <symbol id="nav_email" viewBox="0 0 24 24"><defs/><path d="M21.586 3H2.414L12 12.586z"/><path d="M12.707 14.707a1 1 0 01-1.414 0L1 4.414V20a1 1 0 001 1h20a1 1 0 001-1V4.414z"/></symbol>
    <symbol id="nav_filter" viewBox="0 0 47 39"><path d="M14.25 6.367c-.517 2.191-2.34 3.81-4.511 3.81-2.573 0-4.658-2.274-4.658-5.08S7.166.016 9.74.016c2.17 0 3.994 1.62 4.51 3.81h31.587c.643 0 1.164.57 1.164 1.27 0 .702-.521 1.271-1.164 1.271H14.25z"/><path d="M12.491 5.097a2.54 2.54 0 11-2.54-2.54c1.796 0 2.54.743 2.54 2.54zm-11.22 2.54h3.97a5.087 5.087 0 010-2.54h-3.97a1.27 1.27 0 100 2.54zm26.78 24.135c-.52-2.191-2.361-3.81-4.551-3.81s-4.03 1.619-4.552 3.81H1.175c-.649 0-1.175.57-1.175 1.27 0 .702.526 1.27 1.175 1.27h17.773c.522 2.192 2.362 3.812 4.552 3.812 2.19 0 4.03-1.62 4.552-3.811h17.772c.65 0 1.175-.569 1.175-1.27 0-.702-.526-1.27-1.175-1.27H28.052z"/><path d="M23.69 35.583a2.54 2.54 0 10.001-5.08 2.54 2.54 0 000 5.08zM42.153 17.8c-.522-2.19-2.362-3.81-4.552-3.81-2.19 0-4.03 1.62-4.552 3.81H1.175C.526 17.8 0 18.37 0 19.07c0 .702.526 1.271 1.175 1.271h31.873c.522 2.191 2.362 3.81 4.552 3.81 2.19 0 4.03-1.619 4.552-3.81h3.673c.648 0 1.175-.569 1.175-1.27 0-.702-.527-1.27-1.175-1.27h-3.673z"/><path d="M37.79 21.61a2.54 2.54 0 10.001-5.08 2.54 2.54 0 000 5.08z"/></symbol>
    <symbol id="nav_grid" viewBox="0 0 46 46"><path d="M9 0H1C.4 0 0 .4 0 1v8c0 .6.4 1 1 1h8c.6 0 1-.4 1-1V1c0-.6-.4-1-1-1zm0 18H1c-.6 0-1 .4-1 1v8c0 .6.4 1 1 1h8c.6 0 1-.4 1-1v-8c0-.6-.4-1-1-1zm0 18H1c-.6 0-1 .4-1 1v8c0 .6.4 1 1 1h8c.6 0 1-.4 1-1v-8c0-.6-.4-1-1-1zM27 0h-8c-.6 0-1 .4-1 1v8c0 .6.4 1 1 1h8c.6 0 1-.4 1-1V1c0-.6-.4-1-1-1zm0 18h-8c-.6 0-1 .4-1 1v8c0 .6.4 1 1 1h8c.6 0 1-.4 1-1v-8c0-.6-.4-1-1-1zm0 18h-8c-.6 0-1 .4-1 1v8c0 .6.4 1 1 1h8c.6 0 1-.4 1-1v-8c0-.6-.4-1-1-1zM45 0h-8c-.6 0-1 .4-1 1v8c0 .6.4 1 1 1h8c.6 0 1-.4 1-1V1c0-.6-.4-1-1-1zm0 18h-8c-.6 0-1 .4-1 1v8c0 .6.4 1 1 1h8c.6 0 1-.4 1-1v-8c0-.6-.4-1-1-1zm0 18h-8c-.6 0-1 .4-1 1v8c0 .6.4 1 1 1h8c.6 0 1-.4 1-1v-8c0-.6-.4-1-1-1z"/></symbol>
    <symbol id="nav_info" viewBox="0 0 27 60"><path d="M25.694 53.323l-.835 3.414c-2.506.989-4.507 1.742-5.998 2.26-1.492.518-3.225.776-5.2.776-3.034 0-5.393-.743-7.075-2.219-1.683-1.481-2.525-3.359-2.525-5.637 0-.882.061-1.789.188-2.713.128-.925.332-1.967.61-3.132L7.991 34.99a52.02 52.02 0 00.705-3.018c.192-.945.285-1.815.285-2.597 0-1.416-.293-2.406-.877-2.962-.583-.555-1.696-.837-3.349-.837-.81 0-1.641.13-2.49.38a34.74 34.74 0 00-2.19.721l.837-3.416a78.371 78.371 0 015.887-2.144c1.876-.595 3.648-.893 5.324-.893 3.013 0 5.337.728 6.97 2.184 1.632 1.457 2.448 3.346 2.448 5.674 0 .481-.054 1.33-.17 2.543a17.01 17.01 0 01-.627 3.342l-3.117 11.038c-.256.887-.486 1.9-.686 3.041-.206 1.133-.304 1.999-.304 2.58 0 1.465.326 2.466.982 2.998.66.532 1.796.797 3.411.797.758 0 1.62-.135 2.579-.399.956-.264 1.653-.496 2.085-.7zm.79-46.343c0 1.924-.724 3.566-2.18 4.917-1.454 1.355-3.204 2.033-5.252 2.033-2.055 0-3.81-.678-5.28-2.033-1.466-1.351-2.201-2.993-2.201-4.917 0-1.92.735-3.564 2.202-4.932C15.239.683 16.998 0 19.052 0c2.047 0 3.798.684 5.251 2.048 1.458 1.368 2.182 3.013 2.182 4.932z"/></symbol>
    <symbol id="nav_info1" viewBox="0 0 42 42"><g fill="none" fill-rule="evenodd" transform="translate(1 1)"><circle cx="20" cy="20" r="20" stroke="#222"/><path fill="#000" fill-rule="nonzero" d="M26 28.39l-.359 1.382c-1.075.4-1.935.704-2.575.914-.64.21-1.385.314-2.233.314-1.302 0-2.315-.3-3.037-.898-.723-.6-1.084-1.359-1.084-2.28 0-.357.026-.724.08-1.098.055-.374.143-.796.262-1.267l1.345-4.483c.12-.43.221-.837.303-1.221.082-.383.122-.734.122-1.05 0-.573-.126-.974-.376-1.2-.25-.224-.729-.338-1.438-.338-.348 0-.705.053-1.07.154-.365.102-.678.2-.94.292l.36-1.382c.88-.338 1.722-.628 2.527-.868.806-.24 1.567-.361 2.286-.361 1.294 0 2.292.295 2.993.884.7.59 1.05 1.353 1.05 2.295 0 .195-.022.538-.072 1.029a6.528 6.528 0 01-.27 1.352l-1.338 4.466c-.11.358-.208.768-.294 1.23-.089.458-.13.808-.13 1.043 0 .593.14.998.42 1.213.284.215.772.322 1.465.322a4.47 4.47 0 001.108-.16c.41-.108.71-.201.895-.284zm0-18.383c0 .828-.292 1.535-.878 2.117A2.882 2.882 0 0123.01 13a2.913 2.913 0 01-2.124-.876A2.866 2.866 0 0120 10.007c0-.827.296-1.536.886-2.125A2.9 2.9 0 0123.01 7c.823 0 1.528.295 2.112.882.587.59.878 1.298.878 2.125z"/></g></symbol>
    <symbol id="nav_info2" viewBox="0 0 20 20"><g fill-rule="evenodd"><path fill-rule="nonzero" d="M10 0C4.486 0 0 4.486 0 10s4.486 10 10 10 10-4.486 10-10S15.514 0 10 0zm0 18.77c-4.835 0-8.77-3.935-8.77-8.77 0-4.835 3.935-8.77 8.77-8.77 4.835 0 8.77 3.935 8.77 8.77 0 4.835-3.935 8.77-8.77 8.77z"/><circle cx="10.159" cy="6.013" r="1.029"/><path d="M9.888 8.72a.616.616 0 00-.615.616v5.23a.616.616 0 001.23 0v-5.23a.615.615 0 00-.615-.615z"/></g></symbol>
    <symbol id="nav_items" viewBox="0 0 30 26"><g fill-rule="evenodd"><path d="M0 20h6v6H0zM0 10h6v6H0zM0 0h6v6H0zM8 20h6v6H8zM8 10h6v6H8zM8 0h6v6H8zM16 20h6v6h-6zM16 10h6v6h-6zM16 0h6v6h-6zM24 20h6v6h-6zM24 10h6v6h-6zM24 0h6v6h-6z"/></g></symbol>
    <symbol id="nav_language" viewBox="0 0 29 24"><path d="M24.333 17.657l-2.24-6.52-2.38 6.52h4.62zm-3.285-8.71h2.26l5.354 14.756h-2.19l-1.497-4.42H19.14l-1.598 4.42h-2.049l5.555-14.755zM1.018 0h14.69v1.32h-3.15v4.997h4.13v1.301h-4.13v8.354h-1.376V7.618h-5.45c-.17 1.943-.527 3.545-1.093 4.828-.717 1.584-1.905 2.81-3.564 3.677l-.736-1.17c1.528-.867 2.603-2.017 3.206-3.45.396-1.094.66-2.376.811-3.885H0v-1.3h4.431c0-.246.02-.472.02-.66V1.32H1.017V0zm4.828 1.32v4.337c0 .226-.02.453-.02.66h5.356V1.32H5.846z"/></symbol>
    <symbol id="nav_next" viewBox="0 0 13 23"><path fill-rule="evenodd" d="M.549.903l10.59 10.41L.549 21.722l1.014.904 11.145-10.862v-.903L1.563 0z"/></symbol>
    <symbol id="nav_previous" viewBox="0 0 13 23"><path  fill-rule="evenodd" d="M12.604.903l-10.41 10.41 10.41 10.409-.998.904L.652 11.764v-.903L11.606 0z"/></symbol>
    <symbol id="nav_phone" viewBox="0 0 32 32"><defs/><path d="M30.035 22.6c-.082-.065-6.035-4.356-7.669-4.048-.78.138-1.226.67-2.121 1.735-.144.172-.49.584-.759.877a12.517 12.517 0 01-1.651-.672 13.7 13.7 0 01-6.321-6.321 12.458 12.458 0 01-.672-1.651c.294-.27.706-.616.882-.764 1.06-.89 1.593-1.336 1.731-2.118.283-1.62-4.005-7.614-4.05-7.668A2.289 2.289 0 007.7 1C5.962 1 1 7.437 1 8.521c0 .063.091 6.467 7.988 14.5C17.013 30.909 23.416 31 23.479 31 24.564 31 31 26.038 31 24.3a2.283 2.283 0 00-.965-1.7z"/></symbol>
    <symbol id="nav_list" viewBox="0 0 32 32"><g fill-rule="evenodd"><path d="M9 25h23v7H9zM9 13h23v7H9zM9 0h23v7H9zM0 25h6v7H0zM0 13h6v7H0zM0 0h6v7H0z"/></g></symbol>
    <symbol id="nav_listen" viewBox="0 0 30 31"><g fill-rule="evenodd"><path fill-rule="nonzero" d="M17.513 0H.487A.493.493 0 000 .5v30c0 .276.218.5.487.5h17.026a.493.493 0 00.487-.5V.5c0-.276-.218-.5-.487-.5zm-.487 30H.974V1h16.052v29z"/><path d="M2.217 12.917h1.341a.506.506 0 00.503-.51.506.506 0 00-.503-.508H2.72V2.74h12.56V11.9H5.57a.506.506 0 00-.504.509c0 .28.226.509.503.509h10.214a.506.506 0 00.503-.51V2.232a.506.506 0 00-.503-.509H2.217a.506.506 0 00-.503.51v10.176c0 .28.225.509.503.509z"/><path fill-rule="nonzero" d="M9.429 15.5c-3.309 0-6 2.704-6 6.028 0 3.324 2.691 6.028 6 6.028 3.308 0 6-2.704 6-6.028 0-3.324-2.692-6.028-6-6.028zm0 11.075c-2.77 0-5.024-2.264-5.024-5.047s2.254-5.047 5.024-5.047 5.023 2.264 5.023 5.047-2.253 5.047-5.023 5.047z"/><path fill-rule="nonzero" d="M9.429 18.944a2.58 2.58 0 00-2.572 2.584A2.58 2.58 0 009.43 24.11 2.58 2.58 0 0012 21.528a2.58 2.58 0 00-2.571-2.584zm0 4.21c-.893 0-1.62-.73-1.62-1.626 0-.897.727-1.627 1.62-1.627.892 0 1.619.73 1.619 1.627s-.727 1.626-1.62 1.626zm12.428-11.96c-1.654 0-3 1.31-3 2.92 0 1.124.661 2.136 1.68 2.621v4.36c0 .282.233.51.522.51h.275v8.886c0 .281.234.509.523.509a.516.516 0 00.523-.51v-8.885h.275a.516.516 0 00.523-.51v-4.36a2.912 2.912 0 001.68-2.621c0-1.61-1.347-2.92-3-2.92zm1.318 4.322a.518.518 0 00-.52-.456.516.516 0 00-.524.509v5.017h-.548V15.57a.516.516 0 00-.524-.51c-.27 0-.493.2-.52.457a1.877 1.877 0 01-.635-1.402c0-1.049.876-1.901 1.953-1.901s1.954.852 1.954 1.9c0 .546-.24 1.05-.636 1.403z"/><path fill-rule="nonzero" d="M30 8.886c0-1.576-1.346-2.858-3-2.858s-3 1.282-3 2.858c0 1.1.661 2.091 1.679 2.566v4.269c0 .275.234.498.523.498h.275v14.283c0 .275.234.498.523.498a.511.511 0 00.523-.498V16.219h.275a.511.511 0 00.523-.498v-4.269C29.339 10.977 30 9.987 30 8.886zm-1.682 1.373a.514.514 0 00-.52-.447.511.511 0 00-.524.498v4.912h-.548V10.31a.511.511 0 00-.524-.498.515.515 0 00-.52.446 1.822 1.822 0 01-.636-1.372c0-1.026.877-1.861 1.954-1.861s1.953.835 1.953 1.86c0 .535-.24 1.028-.635 1.374z"/></g></symbol>
    <symbol id="nav_recordings" viewBox="0 0 435.2 435.2"><path d="M356.864 224.768c0-8.704-6.656-15.36-15.36-15.36s-15.36 6.656-15.36 15.36c0 59.904-48.64 108.544-108.544 108.544-59.904 0-108.544-48.64-108.544-108.544 0-8.704-6.656-15.36-15.36-15.36s-15.36 6.656-15.36 15.36c0 71.168 53.248 131.072 123.904 138.752v40.96h-55.808c-8.704 0-15.36 6.656-15.36 15.36s6.656 15.36 15.36 15.36h142.336c8.704 0 15.36-6.656 15.36-15.36s-6.656-15.36-15.36-15.36H232.96v-40.96c70.656-7.68 123.904-67.584 123.904-138.752z"/><path d="M217.6 0c-47.104 0-85.504 38.4-85.504 85.504v138.752c0 47.616 38.4 85.504 85.504 86.016 47.104 0 85.504-38.4 85.504-85.504V85.504C303.104 38.4 264.704 0 217.6 0z"/></symbol>
    <symbol id="nav_stories" viewBox="0 0 43 32"><path d="M41.761 3.508h-4.16V.495a.432.432 0 00-.432-.432H.432A.432.432 0 000 .495v28.617a2.817 2.817 0 002.814 2.814h36.651a2.732 2.732 0 002.729-2.729V3.94a.432.432 0 00-.433-.432zm-.432 25.69a1.866 1.866 0 01-1.864 1.863 1.866 1.866 0 01-1.863-1.864V28a.432.432 0 10-.865 0v1.197c0 .72.28 1.376.738 1.864H2.814a1.951 1.951 0 01-1.95-1.949V.928h35.873V23.96a.432.432 0 10.865 0V4.372h3.727v24.825zM17.653 5.803H3.876a.432.432 0 00-.432.432v10.332c0 .239.194.432.432.432h13.777a.432.432 0 00.432-.432V6.236a.432.432 0 00-.432-.432zm-.433 10.331H4.31V6.67H17.22v9.466zm2.296-9.899c0-.239.194-.432.433-.432h13.776a.432.432 0 110 .865H19.95a.432.432 0 01-.433-.433zm0 3.445c0-.239.194-.432.433-.432h13.776a.432.432 0 110 .864H19.95a.432.432 0 01-.433-.432zm0 3.445c0-.239.194-.433.433-.433h13.776a.432.432 0 110 .865H19.95a.432.432 0 01-.433-.432zm.433 3.877a.432.432 0 110-.865h13.776a.432.432 0 110 .865H19.95zm-1.864 3.012a.432.432 0 01-.432.433H3.876a.432.432 0 110-.865h13.777c.239 0 .432.194.432.432zm0 3.443a.432.432 0 01-.432.432H3.876a.432.432 0 110-.865h13.777c.239 0 .432.194.432.433zm0 3.442a.432.432 0 01-.432.432H3.876a.432.432 0 110-.865h13.777c.239 0 .432.194.432.433zm16.237-6.885a.432.432 0 01-.433.433H20.113a.432.432 0 110-.865h13.776c.24 0 .433.194.433.432zm0 3.443a.432.432 0 01-.433.432H20.113a.432.432 0 110-.865h13.776c.24 0 .433.194.433.433zm0 3.442a.432.432 0 01-.433.432H20.113a.432.432 0 110-.865h13.776c.24 0 .433.194.433.433z"/></symbol>
    <symbol id="nav_tables" viewBox="0 0 31 31"><g fill-rule="evenodd"><path d="M0 26.219h31v4.5H0zM0 17.219h31v4.5H0zM0 8.594h31v4.5H0zM0 0h31v4.5H0z"/></g></symbol>
    <symbol id="nav_tools" viewBox="0 0 29 29"><path d="M27.507 11.278h-2.713c-.436 0-.795-.24-.962-.643a1.013 1.013 0 01.225-1.135l1.918-1.918c.282-.282.438-.657.438-1.056s-.156-.774-.438-1.056L23.53 3.025c-.564-.564-1.547-.565-2.112 0L19.5 4.942a1.013 1.013 0 01-1.135.226 1.013 1.013 0 01-.643-.962V1.493C17.722.67 17.052 0 16.23 0h-3.458c-.824 0-1.493.67-1.493 1.493v2.713c0 .436-.24.795-.643.962A1.012 1.012 0 019.5 4.942L7.582 3.025c-.565-.565-1.548-.564-2.112 0L3.025 5.47a1.484 1.484 0 00-.438 1.056c0 .399.156.773.438 1.056L4.943 9.5c.308.308.392.732.225 1.135a1.012 1.012 0 01-.962.643H1.493C.67 11.278 0 11.948 0 12.77v3.458c0 .824.67 1.493 1.493 1.493h2.713c.436 0 .795.24.962.643.167.403.083.827-.225 1.135l-1.918 1.918a1.484 1.484 0 00-.438 1.056c0 .399.156.774.438 1.056l2.445 2.445c.564.565 1.547.566 2.112 0L9.5 24.057a1.013 1.013 0 011.135-.225c.403.167.643.526.643.962v2.713c0 .823.67 1.493 1.493 1.493h3.458c.823 0 1.493-.67 1.493-1.493v-2.713c0-.436.24-.795.643-.962a1.012 1.012 0 011.135.225l1.918 1.918c.565.565 1.548.564 2.112 0l2.445-2.445c.282-.282.437-.657.437-1.056s-.155-.773-.437-1.056L24.057 19.5a1.014 1.014 0 01-.226-1.135c.166-.403.527-.643.963-.643h2.713c.823 0 1.493-.67 1.493-1.493v-3.458c0-.824-.67-1.493-1.493-1.493zm.419 4.951a.42.42 0 01-.419.42h-2.713c-.872 0-1.621.5-1.955 1.305a2.082 2.082 0 00.459 2.306l1.918 1.918a.42.42 0 010 .593l-2.445 2.445a.42.42 0 01-.593 0l-1.918-1.918a2.084 2.084 0 00-2.306-.459 2.083 2.083 0 00-1.306 1.955v2.713a.42.42 0 01-.419.419h-3.458a.42.42 0 01-.42-.419v-2.713c0-.872-.5-1.621-1.305-1.955a2.086 2.086 0 00-2.306.458l-1.918 1.918a.42.42 0 01-.593 0L3.784 22.77a.42.42 0 010-.593l1.918-1.917c.617-.617.793-1.5.459-2.306a2.083 2.083 0 00-1.955-1.306H1.493a.42.42 0 01-.419-.419v-3.458a.42.42 0 01.419-.42h2.713c.872 0 1.621-.5 1.955-1.305a2.082 2.082 0 00-.459-2.306L3.784 6.822a.42.42 0 010-.593l2.445-2.445a.42.42 0 01.593 0L8.74 5.702c.616.616 1.5.792 2.306.458a2.082 2.082 0 001.306-1.954V1.493a.42.42 0 01.419-.419h3.458a.42.42 0 01.42.419v2.713c0 .872.5 1.621 1.305 1.955.807.334 1.69.158 2.306-.459l1.918-1.917a.42.42 0 01.593 0l2.445 2.445a.42.42 0 010 .593L23.298 8.74a2.083 2.083 0 00-.459 2.306 2.083 2.083 0 001.955 1.306h2.713c.231 0 .419.188.419.419v3.458z"/><path d="M14.5 9.667A4.839 4.839 0 009.667 14.5a4.839 4.839 0 004.833 4.833 4.839 4.839 0 004.833-4.833A4.839 4.839 0 0014.5 9.667zm0 8.592a3.764 3.764 0 01-3.76-3.759 3.764 3.764 0 013.76-3.76 3.764 3.764 0 013.76 3.76 3.764 3.764 0 01-3.76 3.76z"/></symbol>
    <symbol id="nav_wifi" viewBox="0 0 30 23"><path d="M4.87 10.58a1.646 1.646 0 000 2.3c.625.633 1.641.633 2.272 0a11.003 11.003 0 0115.68 0 1.59 1.59 0 001.132.478c.41 0 .82-.16 1.133-.477a1.646 1.646 0 000-2.3 14.179 14.179 0 00-20.217 0z"/><path d="M9.205 14.97a1.646 1.646 0 000 2.3c.625.632 1.64.632 2.272 0a4.908 4.908 0 017.004 0 1.59 1.59 0 001.132.478c.41 0 .82-.162 1.133-.478a1.638 1.638 0 000-2.294 8.09 8.09 0 00-11.54-.006z"/><ellipse cx="14.979" cy="20.81" rx="2.137" ry="2.164"/><path d="M29.489 6.117c-8.002-8.096-21.019-8.096-29.02 0a1.646 1.646 0 000 2.3c.624.633 1.64.633 2.27 0 6.748-6.838 17.731-6.838 24.484 0a1.59 1.59 0 001.133.478c.41 0 .82-.162 1.133-.478a1.646 1.646 0 000-2.3z"/></symbol>
    <symbol id="people_agencies" viewBox="0 0 60 60"><path d="M33.098 14.056c1.862-1.302 3.115-3.715 3.115-6.472 0-3.732-.746-7.547-6.278-7.547-5.533 0-6.279 3.815-6.279 7.547 0 2.757 1.254 5.17 3.115 6.472-4.118 1.25-7.105 4.874-7.105 9.14 0 2.198 1.106 3.76 3.287 4.64 1.597.645 3.816.945 6.982.945 3.165 0 5.384-.3 6.98-.945 2.182-.88 3.289-2.442 3.289-4.64 0-4.266-2.987-7.89-7.106-9.14zM13.433 42.28c1.86-1.302 3.115-3.714 3.115-6.471 0-3.732-.746-7.548-6.28-7.548-5.532 0-6.278 3.816-6.278 7.548 0 2.757 1.254 5.17 3.115 6.471C2.987 43.531 0 47.155 0 51.42c0 2.199 1.106 3.76 3.288 4.64 1.597.645 3.815.945 6.98.945 3.167 0 5.385-.3 6.982-.944 2.182-.881 3.288-2.442 3.288-4.641 0-4.265-2.987-7.889-7.105-9.14zm39.331 0c1.862-1.302 3.115-3.714 3.115-6.471 0-3.732-.746-7.548-6.278-7.548-5.533 0-6.28 3.816-6.28 7.548 0 2.757 1.255 5.17 3.116 6.471-4.119 1.251-7.105 4.875-7.105 9.14 0 2.199 1.106 3.76 3.287 4.64 1.597.645 3.816.945 6.981.945 3.166 0 5.385-.3 6.982-.944 2.181-.88 3.287-2.442 3.287-4.641 0-4.265-2.986-7.889-7.105-9.14zM36.872 56.476a.739.739 0 0 0-.392-.407.724.724 0 0 0-.56-.007c-1.578.638-3.535.948-5.985.948s-4.407-.31-5.984-.948a.726.726 0 0 0-.562.007.739.739 0 0 0-.392.407l-.544 1.379c-.15.38.033.813.41.965 1.929.78 4.242 1.16 7.072 1.16s5.143-.38 7.073-1.16a.745.745 0 0 0 .409-.965l-.545-1.38zM8.308 24.49l1.348.586a.726.726 0 0 0 .964-.39c.67-1.58 1.837-3.2 3.569-4.954 1.733-1.754 3.333-2.936 4.894-3.613a.738.738 0 0 0 .392-.407.751.751 0 0 0-.008-.569l-.578-1.364a.73.73 0 0 0-.963-.39c-1.91.83-3.81 2.217-5.811 4.243-2.001 2.025-3.372 3.95-4.191 5.883a.746.746 0 0 0 .384.975zm32.48-8.371c1.56.677 3.16 1.86 4.893 3.613 1.732 1.754 2.9 3.374 3.569 4.954a.733.733 0 0 0 .963.39l1.348-.586a.746.746 0 0 0 .385-.975c-.82-1.933-2.19-3.858-4.19-5.883-2.002-2.026-3.902-3.414-5.812-4.243a.73.73 0 0 0-.963.39l-.579 1.364a.752.752 0 0 0-.007.569c.072.183.213.329.392.407z"/></symbol>
    <symbol id="people_contact" viewBox="0 0 70 58"><g><circle cx="54.411" cy="5.902" r="4.89"/><path d="M68.36 26.195c-1.622-4.548-4.387-10.577-6.318-12.949-.987-1.335-4.89-1.318-5.132-1.386l-2.608 5.579.668-4.787h.1v-.792H53.1v.793h.095l.566 4.78-2.606-5.357s-3.012-.749-4.423.421c-.777.58-1.483 1.232-2.24 1.771.331-1.202.883-2.338 1.665-3.275 1.062-1.28.678-2.845-.241-3.765l2.264.454V2.63l-6.49.975v1.25H26.831v-1.25l-6.49-.975v5.053l2.263-.454c-.917.92-1.303 2.485-.24 3.765.781.937 1.333 2.073 1.664 3.275-.756-.539-1.463-1.19-2.24-1.77-1.41-1.17-4.421-.422-4.421-.422l-2.606 5.357.566-4.78h.095v-.793h-1.971v.793h.102l.667 4.786-2.608-5.58c-.24.07-4.145.052-5.132 1.387C4.55 15.62 1.784 21.648.164 26.196c-1.127 3.161 3.89 4.511 5.008 1.38a60.451 60.451 0 0 1 2.307-5.6l-.038 15.37-1.3 18.795c0 1.545 1.133 2.797 2.72 2.797 1.59 0 2.878-1.252 2.878-2.797l1.297-19.582s.092-.993 1.104-1.003c1.012-.011.984.956.984.956l.65 19.575c0 1.543 1.287 2.798 2.876 2.798 1.588 0 2.877-1.255 2.877-2.798l-.556-20.2.006-17.562c1.77 1.266 3.458 2.18 5.995 2.255 1.501.045 2.478-1.221 2.594-2.595.32-3.839-1.1-7.744-3.53-10.662a2.502 2.502 0 0 0-.76-.627l1.558-.311v-.88h14.854v.88l1.557.311a2.53 2.53 0 0 0-.76.627c-2.43 2.918-3.848 6.823-3.529 10.662.115 1.375 1.094 2.64 2.594 2.595 2.537-.075 4.224-.99 5.995-2.255l.006 17.561-.556 20.201c0 1.543 1.288 2.798 2.877 2.798 1.589 0 2.878-1.255 2.878-2.798l.649-19.575s-.027-.966.985-.956c1.01.01 1.102 1.003 1.102 1.003l1.299 19.582c0 1.545 1.285 2.797 2.878 2.797 1.586 0 2.718-1.252 2.718-2.797l-1.299-18.794-.037-15.37a60.15 60.15 0 0 1 2.305 5.598c1.119 3.133 6.136 1.782 5.01-1.38zM14.476 24.41l-1.03-1.853 1.027-4.108 1.046 4.05-1.043 1.911zm39.567 0L53 22.5l1.047-4.05 1.028 4.108-1.032 1.853z"/><circle cx="14.111" cy="5.902" r="4.89"/></g></symbol>
    <symbol id="people_contributors" viewBox="0 0 60 60"><path d="M32.704 4.41a.428.428 0 0 0-.428-.202.453.453 0 0 0-.356.328l-.505 1.723-3.266-1.122c-.362-.124-.749.093-.864.485l-2.823 9.631 2.275-1.642c1.88-1.356 4.45-.701 5.556 1.475l2.271-7.745-1.86-2.93z"/><ellipse cx="11.122" cy="4.974" rx="4.556" ry="4.931"/><path d="M30.72 15.786c-.674-1.094-2.039-1.389-3.05-.66l-4.054 2.927-3.345-4.484c-.992-1.33-2.466-2.092-4.045-2.092H5.24c-2.855 0-5.189 2.513-5.203 5.602L0 25.05c-.006 1.207.825 2.228 1.933 2.373 9.662 1.273 9 1.194 9.192 1.194 1.096 0 2.044-.885 2.18-2.092.147-1.305-.711-2.491-1.917-2.65l-6.981-.92.027-5.85c0-.276.207-.498.46-.497.255 0 .46.223.46.498v2.384l.671-1.667c.481-1.195 1.762-1.724 2.849-1.212l4.07 1.92c1.093.515 1.596 1.898 1.119 3.082l-.585 1.453c.978.853 1.54 2.215 1.377 3.663-.251 2.233-2.128 3.82-4.187 3.547l-5.314-.7s-.048 26.86-.048 27.527c0 1.577 1.181 2.855 2.638 2.855 1.457 0 2.639-1.278 2.639-2.855V34.279h1.139v22.823c0 1.577 1.18 2.855 2.638 2.855 1.457 0 2.638-1.278 2.638-2.855L17 16.759l4.456 5.973c.714.957 1.985 1.167 2.93.485l5.725-4.132c1.01-.729 1.283-2.206.61-3.3z"/><path d="M12.37 19.952l-4.069-1.92c-.37-.174-.8.01-.961.41l-1.223 3.036 5.46.72c.217.028.427.077.63.143l.542-1.348c.16-.4-.008-.867-.378-1.041z"/><ellipse cx="45.653" cy="6.059" rx="4.467" ry="4.834"/><path d="M44.396 22.779c-.645-1.193-.273-2.73.829-3.429l2.514-1.592-.297-.549c-.218-.403-.697-.539-1.07-.303l-4.098 2.596c-.373.236-.498.754-.28 1.157l3.363 6.221c-.1-.705-.04-1.4.152-2.042l-1.113-2.06z"/><path d="M51.168 18.49c-.218-.403-.697-.538-1.07-.303L46 20.783c-.373.236-.498.754-.28 1.157l.676 1.25a4.05 4.05 0 0 1 2.173-1.349l3.917-.913-1.318-2.437z"/><path d="M59.676 23.28l-3.185-7.292c-.943-2.16-2.979-3.555-5.186-3.555H39.857c-2.798 0-5.086 2.464-5.1 5.492l-.08 17.136c-.006 1.288.954 2.338 2.144 2.344h.011c1.185 0 2.15-1.036 2.155-2.32l.08-17.136c.002-.427.295-.85.855-.85l.001 40.06c0 1.545 1.158 2.798 2.586 2.798 1.429 0 2.586-1.253 2.586-2.799V34.786h1.117v22.372c0 1.546 1.158 2.8 2.586 2.8s2.586-1.254 2.586-2.8c0-.96-.031-26.822-.031-26.822l-1.044.244c-1.19.277-2.408-.029-3.36-.808-.99.213-1.967-.296-2.451-1.193l-3.828-7.081c-.646-1.196-.276-2.73.83-3.429l4.098-2.595c1.104-.7 2.523-.296 3.168.897l.297.55.261-.166c1.113-.705 2.504-.279 3.146.859.072.279-.062-.06 2.149 5.003l-5.634 1.313c-1.163.271-1.903 1.512-1.653 2.772.251 1.26 1.398 2.06 2.561 1.789l8.289-1.933c.643-.15 1.187-.61 1.479-1.248a2.506 2.506 0 0 0 .015-2.03z"/></symbol>
    <symbol id="people_groups" viewBox="0 0 72 60"><path d="M64.994 19.903c-2.243 0-4.065 1.821-4.065 4.057s1.822 4.056 4.065 4.056a4.06 4.06 0 0 0 4.056-4.056c0-2.236-1.821-4.057-4.056-4.057zm-58.323 0c-2.243 0-4.065 1.821-4.065 4.057s1.822 4.056 4.065 4.056c2.238 0 4.058-1.819 4.058-4.056s-1.821-4.057-4.058-4.057zm46.249-7.378a6.04 6.04 0 0 0-6.032 6.042c0 3.327 2.702 6.03 6.032 6.03s6.042-2.703 6.042-6.03a6.05 6.05 0 0 0-6.042-6.042zM71.657 49.24h-6.878V36.58c0-2.175-.639-4.194-1.666-5.955.605-.177 1.226-.302 1.882-.302 3.668 0 6.663 2.995 6.663 6.672V49.24zM18.736 12.525a6.05 6.05 0 0 0-6.042 6.042c0 3.327 2.708 6.03 6.042 6.03a6.04 6.04 0 0 0 6.031-6.03c0-3.33-2.707-6.042-6.031-6.042zM6.671 30.323c.656 0 1.268.125 1.875.302-1.038 1.761-1.666 3.78-1.666 5.955v12.66H0V36.994c0-3.678 2.997-6.672 6.671-6.672zM35.822.463a8.94 8.94 0 0 0-8.925 8.926c0 4.921 4.004 8.93 8.925 8.93s8.931-4.009 8.931-8.93A8.94 8.94 0 0 0 35.822.463zm26.747 53.489H52.032V34.689c0-2.649-.699-5.113-1.829-7.323.862-.255 1.769-.436 2.718-.436a9.66 9.66 0 0 1 9.648 9.649v17.372zM19.614 34.689v19.262H9.09V36.58a9.66 9.66 0 0 1 9.651-9.649c.949 0 1.847.181 2.708.436-1.131 2.209-1.834 4.673-1.834 7.323zm2.209 24.838h27.998V34.689a14.02 14.02 0 0 0-14.001-13.998c-7.724 0-13.997 6.278-13.997 13.998v24.838z"/></symbol>
    <symbol id="people_volunteer" viewBox="0 0 56 60"><circle cx="11.525" cy="7.99" r="4.665"/><path d="M50.31 14.141c-9.284 0-6.093-.081-10.34 0l-6.8-3.697-3.133-8.94A2.25 2.25 0 0 0 27.97.002L27.89 0l-.078.001a2.25 2.25 0 0 0-2.068 1.504l-3.133 8.94-6.8 3.696c-4.247-.081-1.056 0-10.34 0-2.968 0-5.394 2.377-5.41 5.31v16.536a2.25 2.25 0 0 0 4.502 0V19.463a.488.488 0 0 1 .977.003v37.833a2.7 2.7 0 1 0 5.403 0V35.711h1.166v21.588a2.7 2.7 0 1 0 5.401 0V18.438h-.048l8.078-4.47a2.251 2.251 0 0 0 1.035-1.225l1.316-3.753 1.315 3.753c.183.521.551.958 1.035 1.225l8.078 4.47h-.048v38.861a2.7 2.7 0 1 0 5.402 0V35.711h1.166v21.588a2.7 2.7 0 1 0 5.401 0l.001-37.833a.488.488 0 0 1 .977-.003v16.524a2.25 2.25 0 0 0 4.501 0V19.452c-.014-2.934-2.441-5.31-5.41-5.31z"/><circle cx="44.256" cy="7.99" r="4.665"/></symbol>
    <symbol id="social_facebook" viewBox="0 0 100 100"><defs/><path d="M40.4 55.2h-9.9c-1.6 0-2.1-.6-2.1-2.1V41c0-1.6.6-2.1 2.1-2.1h9.9v-8.8c0-4 .7-7.8 2.7-11.3 2.1-3.6 5.1-6 8.9-7.4 2.5-.9 5-1.3 7.7-1.3h9.8c1.4 0 2 .6 2 2v11.4c0 1.4-.6 2-2 2-2.7 0-5.4 0-8.1.1-2.7 0-4.1 1.3-4.1 4.1-.1 3 0 5.9 0 9h11.6c1.6 0 2.2.6 2.2 2.2V53c0 1.6-.5 2.1-2.2 2.1H57.3v32.6c0 1.7-.5 2.3-2.3 2.3H42.5c-1.5 0-2.1-.6-2.1-2.1V55.2z"/></symbol>
    <symbol id="social_instagram" viewBox="0 0 504.4 504.4"><path d="M296.8 219.8c-10-14-26.4-23.2-44.8-23.2s-34.8 9.2-44.8 23.2c-6.4 9.2-10.4 20.4-10.4 32.4 0 30.4 24.8 55.2 55.2 55.2 30.4 0 55.2-24.8 55.2-55.2 0-12-4-23.2-10.4-32.4z"/><path d="M331.6 220.2c4 8 6.4 20.8 6.4 32 0 47.2-38.4 86-86 86s-86-38.4-86-86c0-11.6 2.4-24 6.4-32H124v128.4c0 16.8 14.8 31.6 31.6 31.6h192.8c16.8 0 31.6-14.8 31.6-31.6V220.2h-48.4zM365.6 131.4h-46.4v53.2H372V131z"/><path d="M377.6.2H126.4C56.8.2 0 57 0 126.6v251.6c0 69.2 56.8 126 126.4 126H378c69.6 0 126.4-56.8 126.4-126.4V126.6C504 57 447.2.2 377.6.2zM408 219.8v128.8c0 33.6-26 59.6-59.6 59.6H155.6c-33.6 0-59.6-26-59.6-59.6V155.8c0-33.6 26-59.6 59.6-59.6h192.8c33.6 0 59.6 26 59.6 59.6v64z"/></symbol>
    <symbol id="social_twitter" viewBox="0 0 410 410"><path d="M403.632,74.18c-9.113,4.041-18.573,7.229-28.28,9.537c10.696-10.164,18.738-22.877,23.275-37.067 l0,0c1.295-4.051-3.105-7.554-6.763-5.385l0,0c-13.504,8.01-28.05,14.019-43.235,17.862c-0.881,0.223-1.79,0.336-2.702,0.336 c-2.766,0-5.455-1.027-7.57-2.891c-16.156-14.239-36.935-22.081-58.508-22.081c-9.335,0-18.76,1.455-28.014,4.325 c-28.672,8.893-50.795,32.544-57.736,61.724c-2.604,10.945-3.309,21.9-2.097,32.56c0.139,1.225-0.44,2.08-0.797,2.481 c-0.627,0.703-1.516,1.106-2.439,1.106c-0.103,0-0.209-0.005-0.314-0.015c-62.762-5.831-119.358-36.068-159.363-85.14l0,0 c-2.04-2.503-5.952-2.196-7.578,0.593l0,0C13.677,65.565,9.537,80.937,9.537,96.579c0,23.972,9.631,46.563,26.36,63.032 c-7.035-1.668-13.844-4.295-20.169-7.808l0,0c-3.06-1.7-6.825,0.485-6.868,3.985l0,0c-0.438,35.612,20.412,67.3,51.646,81.569 c-0.629,0.015-1.258,0.022-1.888,0.022c-4.951,0-9.964-0.478-14.898-1.421l0,0c-3.446-0.658-6.341,2.611-5.271,5.952l0,0 c10.138,31.651,37.39,54.981,70.002,60.278c-27.066,18.169-58.585,27.753-91.39,27.753l-10.227-0.006 c-3.151,0-5.816,2.054-6.619,5.106c-0.791,3.006,0.666,6.177,3.353,7.74c36.966,21.513,79.131,32.883,121.955,32.883 c37.485,0,72.549-7.439,104.219-22.109c29.033-13.449,54.689-32.674,76.255-57.141c20.09-22.792,35.8-49.103,46.692-78.201 c10.383-27.737,15.871-57.333,15.871-85.589v-1.346c-0.001-4.537,2.051-8.806,5.631-11.712c13.585-11.03,25.415-24.014,35.16-38.591 l0,0C411.924,77.126,407.866,72.302,403.632,74.18L403.632,74.18z"/></symbol>
    <symbol id="social_vimeo" viewBox="0 0 434 434"><path d="M416.049,52.27c-10.508-11.324-25.72-17.356-45.207-17.928 c-55.02-1.774-93.932,27.496-115.651,86.986c-1.14,3.124-0.444,6.588,1.814,9.041c2.247,2.439,5.622,3.409,8.812,2.534 c6.246-1.718,12.44-2.588,18.412-2.588c8.018,0,18.689,1.474,24.001,8.497c4.077,5.39,4.632,13.472,1.649,24.02 c-2.518,8.899-15.476,32.721-31.515,57.929c-19.539,30.712-30.333,44.48-33.445,44.48c-10.31,0-47.565-165.194-48.589-168.817 c-10.686-37.86-16.05-56.864-50.798-56.864c-26.483,0-85.551,48.362-134.051,90.495c-2.983,2.591-5.495,4.774-7.44,6.436 c-4.688,4.008-5.395,10.97-1.607,15.849l9.038,11.644c3.807,4.906,10.751,5.93,15.812,2.331l0.497-0.354 c15.691-11.163,30.514-21.706,41.704-22.284c12.16-0.597,22.711,18.4,35.29,63.605c23.957,87.803,60.355,192.468,97.709,192.468 c39.036,0,85.605-33.091,145.802-111.429c54.482-70.902,83.655-127.135,85.529-168.048l0,0 C435.222,89.372,429.245,66.493,416.049,52.27z"/></symbol>
    <symbol id="social_youtube" viewBox="0 0 461 461"><path d="M365.257,67.393H95.744C42.866,67.393,0,110.259,0,163.137v134.728 c0,52.878,42.866,95.744,95.744,95.744h269.513c52.878,0,95.744-42.866,95.744-95.744V163.137 C461.001,110.259,418.135,67.393,365.257,67.393z M300.506,237.056l-126.06,60.123c-3.359,1.602-7.239-0.847-7.239-4.568V168.607 c0-3.774,3.982-6.22,7.348-4.514l126.06,63.881C304.363,229.873,304.298,235.248,300.506,237.056z"/></symbol>
    <symbol id="type_android" viewBox="0 0 553.05 553.05"><defs/><path d="M85.36 183.33c-17.64-.48-33.16 14.89-32.76 32.44v136.77a31.56 31.56 0 009.55 23.22c12 12.68 34.35 12.78 46.28 0a31.88 31.88 0 009.38-23.22V215.77c.45-17.38-15.08-32.89-32.45-32.44zM348.73 60.55l22.58-41.66c1.48-2.76 1-4.87-1.59-6.36-2.75-1.28-4.87-.63-6.36 1.9l-22.89 42c-39.72-17.83-88.16-17.83-127.87 0l-22.9-42c-1.49-2.53-3.61-3.18-6.36-1.9-2.55 1.49-3.08 3.6-1.59 6.36l22.58 41.66c-44.45 22.26-75.54 67.45-75.06 117.38h294.2c.53-49.76-30.61-95.05-74.74-117.38zM205 124.23a14.3 14.3 0 1114.3-14.3 14.3 14.3 0 01-14.3 14.3zm139.77 0a14.3 14.3 0 1114.3-14.3 14.3 14.3 0 01-14.28 14.3zM130.53 401.2c-.45 19.08 15.91 35.44 35 35h23.54l.32 72.21a31.62 31.62 0 009.54 23.22c12.14 12.81 34.06 12.64 46.12 0a31.62 31.62 0 009.54-23.22v-72.22h43.89v72.21a31.62 31.62 0 009.52 23.22c12.08 12.73 34.36 12.73 46.44 0A31.62 31.62 0 00364 508.4v-72.21h23.85a34.72 34.72 0 0034.67-35V189.37h-292zM490.9 192.71c-20.31-20.09-55.87-6.08-55.66 23.06v136.77a31.56 31.56 0 009.55 23.22c20.35 20.63 56 5.76 55.65-23.22V215.77a31.1 31.1 0 00-9.54-23.06z"/></symbol>
    <symbol id="type_data" viewBox="0 0 256.61 256.61"><path d="M60.859 112.533c-6.853 0-6.853 10.646 0 10.646h81.875c6.865 0 6.865-10.646 0-10.646H60.859zm81.875 25.171H60.859c-6.853 0-6.853 10.634 0 10.634h81.875c6.866 0 6.866-10.634 0-10.634zm0 23.314H60.859c-6.853 0-6.853 10.633 0 10.633h81.875c6.866-.001 6.866-10.633 0-10.633zm0 25.166H60.859c-6.853 0-6.853 10.629 0 10.629h81.875c6.866-.001 6.866-10.629 0-10.629zm-1.564 23.75H59.28c-6.848 0-6.848 10.633 0 10.633h81.89c6.845-.001 6.845-10.633 0-10.633z"/><path d="M25.362 58.087V256.61h152.877V85.63l-28.406-27.543H25.362zm139.664 185.306H38.585V71.305h104.443v20.97h21.988v151.118h.01z"/><path d="M51.204 27.667v22.978h13.223V40.88h104.448v20.97h21.993v151.121h-5.809v13.217h19.027V55.205L175.68 27.667z"/><path d="M202.837 0H78.363v22.983h13.218v-9.765h104.451v20.97h21.993v151.118h-5.804v13.217h19.027V27.543z"/></symbol>
    <symbol id="type_download" viewBox="0 0 50 47"><path d="M48.483 22.578c-.795 0-1.43.636-1.43 1.43v13.008c0 3.538-2.882 6.409-6.409 6.409H9.27c-3.538 0-6.409-2.882-6.409-6.409v-13.22c0-.794-.636-1.43-1.43-1.43-.794 0-1.43.636-1.43 1.43v13.22c0 5.116 4.163 9.269 9.269 9.269h31.375c5.116 0 9.269-4.163 9.269-9.269V24.008a1.43 1.43 0 00-1.43-1.43z"/><path d="M23.95 34.93a1.44 1.44 0 001.006.423c.36 0 .731-.138 1.007-.424l9.088-9.088a1.426 1.426 0 000-2.023 1.426 1.426 0 00-2.023 0l-6.642 6.652V1.456c0-.794-.635-1.43-1.43-1.43-.794 0-1.43.636-1.43 1.43V30.47l-6.652-6.652a1.426 1.426 0 00-2.023 0 1.426 1.426 0 000 2.023l9.099 9.088z"/></symbol>
    <symbol id="type_download1" viewBox="0 0 52 55"><path d="M24.548 40.252l12.393-18.296h-7.436V0h-9.914l.045 21.956h-7.481z"/><path d="M43.212 38.999v8H8.704v-8H.078v16h51.76v-16z"/></symbol>
    <symbol id="type_epub" viewBox="0 0 34 34"><path d="M27.605 9.805c-3.545 3.552-7.077 7.094-10.587 10.613l-3.475-3.488 7.068-7.076c-.075-.087-.127-.153-.187-.211-1.077-1.079-2.157-2.152-3.228-3.234-.147-.15-.236-.159-.389-.004-3.456 3.468-6.918 6.93-10.381 10.391-.15.148-.14.23.004.372 3.47 3.465 6.935 6.935 10.4 10.403.049.049.103.091.169.15 4.748-4.759 9.488-9.509 14.24-14.269.087.076.14.116.19.165.643.643 1.287 1.284 1.927 1.93.861.872.86 2.009-.01 2.876-4.97 4.977-9.94 9.952-14.912 14.927-.869.87-1.998.866-2.87-.006L.649 18.414c-.865-.866-.867-2.007.002-2.876C5.604 10.576 10.566 5.623 15.51.649c.858-.863 2.121-.865 2.97-.007 2.988 3.023 6.003 6.02 9.007 9.03.048.048.09.102.118.133z"/></symbol>
    <symbol id="type_external" viewBox="0 0 60 60"><path d="M57.161 0H35.385a2.725 2.725 0 00-2.722 2.727 2.725 2.725 0 002.722 2.728H50.59L22.573 33.526a2.73 2.73 0 001.925 4.656 2.71 2.71 0 001.924-.8L54.44 9.313v15.234a2.725 2.725 0 002.722 2.727 2.725 2.725 0 002.722-2.727V2.727A2.725 2.725 0 0057.161 0z"/><path d="M46.273 27.273A2.725 2.725 0 0043.551 30v24.546H5.444V16.364h24.498a2.725 2.725 0 002.722-2.728 2.725 2.725 0 00-2.722-2.727H2.722A2.725 2.725 0 000 13.636v43.637A2.725 2.725 0 002.722 60h43.551a2.725 2.725 0 002.722-2.727V30a2.725 2.725 0 00-2.722-2.727z"/></symbol>
    <symbol id="type_pdf" viewBox="0 0 42 42"><defs/><path d="M1.08 40.423c-2.263-2.34.185-5.554 6.83-8.968l4.18-2.148 1.628-3.685a147.825 147.825 0 002.971-7.347l1.342-3.664-.925-2.71c-1.137-3.334-1.542-8.344-.82-10.145.977-2.44 4.178-2.19 5.446.426.99 2.043.888 5.742-.285 10.407l-.962 3.824.847 1.488c.466.818 1.828 2.76 3.026 4.316l2.25 2.896 2.802-.378c8.9-1.201 11.947.84 11.947 3.766 0 3.692-6.987 3.997-12.855-.264a17.989 17.989 0 01-2.227-1.911s-3.677.773-5.486 1.278c-1.869.52-2.8.846-5.537 1.802 0 0-.96 1.441-1.586 2.49-2.328 3.899-5.046 7.13-6.987 8.307-2.174 1.317-4.452 1.407-5.6.22zm3.55-1.311c1.273-.813 3.847-3.961 5.63-6.883l.72-1.183-3.284 1.708C2.62 35.39.3 37.878 1.507 39.38c.678.845 1.49.775 3.124-.27zm32.96-9.566c1.245-.901 1.064-2.717-.343-3.449-1.094-.57-1.976-.686-4.82-.643-1.747.123-4.557.487-5.033.598 0 0 1.543 1.103 2.229 1.509.912.538 3.129 1.538 4.747 2.05 1.597.506 2.52.453 3.22-.065zm-13.252-5.695c-.753-.819-2.033-2.527-2.845-3.796-1.062-1.44-1.594-2.455-1.594-2.455s-.776 2.58-1.413 4.134l-1.987 5.076-.575 1.152s3.061-1.038 4.62-1.459c1.649-.446 4.998-1.126 4.998-1.126l-1.204-1.526zM20.067 6.142c.192-1.666.274-3.33-.244-4.17-1.436-1.623-3.17-.269-2.876 3.59.098 1.3.41 3.519.827 4.887l.759 2.487.534-1.873c.293-1.03.743-3.245 1-4.921z"/></symbol>
    <symbol id="video" viewBox="0 0 73 70"><path d="M69.637 6.01C67.022 1.74 62.192 0 52.97 0H19.49C10.058 0 5.147 1.853 2.54 6.397 0 10.827 0 17.355 0 26.39v17.22C0 61.113 3.014 70 19.49 70h33.48c7.998 0 12.43-1.536 15.297-5.303 2.94-3.862 4.195-10.17 4.195-21.087V26.39c0-9.528-.197-16.094-2.825-20.38zM49.962 37.365l-20.087 10.31c-.45.23-.94.345-1.43.345-.556 0-1.11-.146-1.6-.438-.925-.55-1.49-1.534-1.49-2.595V24.434c0-1.06.563-2.042 1.485-2.592.923-.55 2.07-.588 3.027-.1l20.087 10.244c1.022.52 1.664 1.557 1.666 2.687 0 1.132-.638 2.17-1.658 2.693z"/></symbol>
    <symbol id="video1" viewBox="0 0 32 25"><path d="M19.715 11.578l-6.77-3.5a.743.743 0 00-.626-.017c-.197.088-.319.256-.319.439v7c0 .182.122.35.32.438a.73.73 0 00.626-.016l6.77-3.5c.176-.092.284-.251.284-.422 0-.171-.108-.33-.285-.422zm-6.484 3.011V9.41L18.238 12l-5.007 2.59z"/><path d="M31.448 0H.552A.547.547 0 000 .543v23.914c0 .3.247.543.552.543H31.448a.547.547 0 00.552-.543V.543c0-.3-.247-.543-.552-.543zM5.518 11.957H1.102V7.065h4.414v4.892zm-4.415 1.086h4.414v4.892H1.103v-4.892zm5.518 5.435V1.087h18.758V23.913H6.621v-5.435zm24.276-6.521h-4.414V7.065h4.414v4.892zm-4.414 1.086h4.414v4.892h-4.414v-4.892zm4.414-11.956v4.891h-4.414V1.087h4.414zm-29.794 0h4.414v4.891H1.103V1.087zm0 22.826v-4.891h4.414v4.891H1.103zm29.794 0h-4.414v-4.891h4.414v4.891z"/></symbol>
    <symbol id="video2" viewBox="0 0 50 39"><path d="M33.1 17.8l-11.718-7.323a1.465 1.465 0 00-2.241 1.242v14.648a1.465 1.465 0 002.24 1.242l11.72-7.324a1.465 1.465 0 000-2.484zm-11.03 5.924v-9.362l7.49 4.681-7.49 4.681z"/><path d="M42.676 0H7.324C3.286 0 0 3.286 0 7.324v23.438c0 4.038 3.286 7.324 7.324 7.324h35.352c4.038 0 7.324-3.286 7.324-7.324V7.324C50 3.286 46.714 0 42.676 0zm4.394 30.762a4.4 4.4 0 01-4.394 4.394H7.324a4.4 4.4 0 01-4.394-4.394V7.324A4.4 4.4 0 017.324 2.93h35.352a4.4 4.4 0 014.394 4.394v23.438z"/></symbol>
    <symbol id="video_round" viewBox="0 0 42 42"><path d="M20.994 0C9.4 0 0 9.4 0 20.994 0 32.59 9.4 41.988 20.994 41.988c11.595 0 20.994-9.4 20.994-20.994C41.976 9.404 32.584.012 20.994 0zm8.842 21.663a1.5 1.5 0 01-.674.673v.008l-11.996 5.998a1.5 1.5 0 01-2.17-1.35V14.996a1.5 1.5 0 012.17-1.342l11.996 5.998a1.5 1.5 0 01.674 2.011z"/></symbol>
    <symbol id="video_youtube" viewBox="0 0 50 36"><path d="M48.051 3.169C46.246 1.023 42.914.148 36.551.148H13.448c-6.51 0-9.898.932-11.696 3.216C0 5.59 0 8.872 0 13.414v8.656c0 8.799 2.08 13.266 13.45 13.266h23.1c5.519 0 8.577-.772 10.555-2.666C49.135 30.73 50 27.56 50 22.07v-8.656c0-4.79-.136-8.09-1.949-10.245zm-15.95 15.768L21.61 24.42a1.611 1.611 0 01-2.36-1.43V12.06a1.613 1.613 0 012.355-1.431l10.49 5.447a1.613 1.613 0 01.004 2.861z"/></symbol>

</svg>
