<svg xmlns="http://www.w3.org/2000/svg" width="57" height="59" viewBox="0 0 57 59">
  <path d="M56.6479245,7.9245283 C56.6479245,2.72150943 42.4098113,0 28.3460377,0 C14.2822642,0 0.0441509434,2.72150943 0.0441509434,7.9245283 C0.0441509434,9.10415094 0.781132075,10.1535849 2.07735849,11.0750943 L21.5535849,37.7241509 L21.5535849,57.5671698 C21.5535849,58.0539623 21.8433962,58.4875472 22.2916981,58.6754717 L23.0683019,58.9539623 L35.1384906,46.8826415 L35.1384906,37.7275472 L54.5932075,11.1045283 L54.5920755,11.0909434 C55.9007547,10.1660377 56.6479245,9.10981132 56.6479245,7.9245283 Z M28.3460377,2.26415094 C44.2403774,2.26415094 54.3837736,5.61622642 54.3837736,7.9245283 C54.3837736,8.40226415 53.9264151,8.92415094 53.0988679,9.45169811 L53.0411321,9.44490566 L53.0603774,9.4754717 C49.8486792,11.4916981 40.905283,13.5849057 28.3460377,13.5849057 C15.7743396,13.5849057 6.82528302,11.4883019 3.62264151,9.46981132 L3.64188679,9.43924528 L3.1754717,9.16188679 C2.61962264,8.73396226 2.30830189,8.31396226 2.30830189,7.9245283 C2.30830189,5.61622642 12.4516981,2.26415094 28.3460377,2.26415094 Z M32.8743396,45.9464151 L23.8177358,55.0030189 L23.8177358,38.490566 L32.8743396,38.490566 L32.8743396,45.9464151 Z M33.4335849,36.2264151 L23.2596226,36.2264151 L6.35660377,13.094717 C11.8166038,14.9139623 20.1090566,15.8490566 28.3460377,15.8490566 C36.5830189,15.8490566 44.8743396,14.9139623 50.3354717,13.0958491 L33.4335849,36.2264151 Z"/>
</svg>
