<svg xmlns="http://www.w3.org/2000/svg" width="120" height="118" viewBox="0 0 120 118">
    <g fill="none">
        <g fill="#78B9C4">
            <rect width="7" height="4" x="2" y="60" rx="1"/>
            <rect width="9" height="5" y="67" rx="1.5"/>
            <rect width="34" height="20" x="10" y="42" rx="1.5"/>
            <rect width="14" height="8" x="20" y="32" rx="1.5"/>
            <rect width="14" height="10" x="36" y="29" rx="1.5"/>
            <rect width="12" height="7" x="36" y="18" rx="1.5"/>
            <rect width="12" height="7" x="21" y="21" rx="1.5"/>
            <rect width="15.5" height="9" x="33.5" y="74.5" rx="1"/>
            <rect width="11" height="7" x="32" y="65" rx="1"/>
            <rect width="4" height="3" x="19" y="66" rx="1"/>
            <rect width="5" height="3" x="25" y="64" rx="1"/>
            <rect width="9" height="5" x="22" y="71" rx="1"/>
            <rect width="10.8" height="6.7" x="46.9" y=".2" rx="1"/>
            <rect width="12.1" height="6.8" x="47" y="110.5" rx="1"/>
            <rect width="16.5" height="9.5" x="50.5" y="75.8" rx="1"/>
            <rect width="12" height="6.9" x="52.3" y="15.3" rx="1"/>
            <rect width="16.3" height="9.3" x="59" y="1.8" rx="1"/>
            <rect width="12.3" height="7" x="70.8" y="106.8" rx="1"/>
            <rect width="37.8" height="22" x="31" y="86.5" rx="1.5"/>
            <rect width="10.8" height="6.3" x="80" y="9.2" rx="1"/>
            <rect width="14" height="8.1" x="85.5" y="96.7" rx="1"/>
            <rect width="16.3" height="9.7" x="99.8" y="69.7" rx="1"/>
            <rect width="10.8" height="6.4" x="100.8" y="82.9" rx="1"/>
            <rect width="10.8" height="6.3" x="102.5" y="62.2" rx="1"/>
            <rect width="6.5" height="3.6" x="23.3" y="102.5" rx="1"/>
            <rect width="7.2" height="4.1" x="38.3" y="3" rx="1"/>
            <rect width="7.1" height="4" x="60.7" y="110.2" rx="1"/>
            <rect width="8.3" height="4.6" x="64" y="35" rx="1"/>
            <rect width="6" height="3.5" x="84.2" y="107.7" rx="1"/>
            <rect width="7.4" height="4.3" x="91" y="90.5" rx="1"/>
            <rect width="6.8" height="3.8" x="100.3" y="91.7" rx="1"/>
            <rect width="3.2" height="1.8" x="26.3" y="95.7" rx=".5"/>
            <rect width="4.7" height="1.8" x="31.8" y="6" rx=".5"/>
            <rect width="3.6" height="1.8" x="31.8" y="110.3" rx=".5"/>
            <rect width="4" height="2.2" x="47.1" y="70.8" rx=".5"/>
            <rect width="4" height="2.2" x="52.5" y="30" rx=".5"/>
            <rect width="4" height="2.2" x="54.8" y="11.8" rx=".5"/>
            <rect width="4" height="2.2" x="62.5" y="23.4" rx=".5"/>
            <rect width="5.1" height="2.8" x="65.8" y="13.3" rx=".5"/>
            <rect width="3.6" height="1.8" x="68.3" y="115.8" rx=".5"/>
            <rect width="4" height="2.2" x="73.8" y="40" rx=".5"/>
            <rect width="3.6" height="1.8" x="74" y="43.5" rx=".5"/>
            <rect width="4" height="2.2" x="74.5" y="11.9" rx=".5"/>
            <rect width="5.1" height="2.8" x="76.9" y="4.7" rx=".5"/>
            <rect width="2.5" height="1.4" x="79" y="42" rx=".5"/>
            <rect width="3.6" height="1.8" x="80.7" y="103.3" rx=".5"/>
            <rect width="5.2" height="2.4" x="82.3" y="42.8" rx=".5"/>
            <rect width="4" height="2.2" x="82.8" y="34" rx=".5"/>
            <rect width="2.5" height="1.5" x="84" y="6" rx=".5"/>
            <rect width="2.4" height="1" x="88" y="36" rx=".5"/>
            <rect width="4.5" height="2.8" x="91.5" y="12.5" rx=".5"/>
            <rect width="3" height="1.8" x="92.8" y="84.7" rx=".5"/>
            <rect width="5.3" height="3" x="93.7" y="78.7" rx=".5"/>
            <rect width="3.6" height="2" x="96.5" y="15.3" rx=".5"/>
            <rect width="3.6" height="1.8" x="100.5" y="97.7" rx=".5"/>
            <rect width="5.1" height="2.8" x="105.5" y="56.1" rx=".5"/>
            <rect width="3.6" height="1.8" x="115.5" y="61.8" rx=".5"/>
        </g>
        <g fill="#9EC946" transform="translate(0 9)">
            <rect width="7" height="4" x="2" y="32" rx="1"/>
            <rect width="11" height="6" x="6" y="23" rx="1"/>
            <rect width="5" height="3" y="42" rx="1"/>
            <rect width="11" height="6" x="31" y="1" rx="1"/>
            <rect width="8" height="4" x="11" y="14" rx="1"/>
            <rect width="11" height="5" x="18" y="5" rx="1"/>
            <rect width="10" height="5" x="10" y="66" rx="1"/>
            <rect width="7" height="4" x="10" y="60" rx="1"/>
            <rect width="4.7" height="4" x="13.8" y="73" rx=".5"/>
            <rect width="12.5" height="7.3" x="13.8" y="78.8" rx="1"/>
            <rect width="6.1" height="3.9" x="19.1" y="87" rx="1"/>
            <rect width="10" height="5.8" x="21.6" y="70.5" rx="1"/>
            <rect width="2.8" height="2" x="27" y="83" rx=".5"/>
            <rect width="2.3" height="1.5" x="27.3" y="79.7" rx=".5"/>
            <rect width="3.3" height="2" x="19.3" y="92" rx=".5"/>
            <rect width="16.6" height="9.5" x="60.3" y="40" rx="1"/>
            <rect width="21.9" height="12.6" x="65" y="50.5" rx="1"/>
            <rect width="18.5" height="10.5" x="89" y="14.6" rx="1"/>
            <rect width="12.3" height="7.1" x="47" y="44" rx="1"/>
            <rect width="10.4" height="5.8" x="53.1" y="57.8" rx="1"/>
            <rect width="10.7" height="5.8" x="59.5" y="32.9" rx="1"/>
            <rect width="8.7" height="5.1" x="65.8" y="18.3" rx="1"/>
            <rect width="10.2" height="5.9" x="70.8" y="79.7" rx="1"/>
            <rect width="10.8" height="5.9" x="72.3" y="71.3" rx="1"/>
            <rect width="9" height="4.8" x="74" y="64.5" rx="1"/>
            <rect width="11.4" height="6.3" x="76" y="16.8" rx="1"/>
            <rect width="10.8" height="5.9" x="77.5" y="37.5" rx="1"/>
            <rect width="9" height="4.8" x="83.5" y="75.8" rx="1"/>
            <rect width="9" height="4.8" x="84.3" y="64.8" rx="1"/>
            <rect width="10.7" height="6.1" x="88.3" y="57.2" rx="1"/>
            <rect width="11.3" height="6.5" x="94.3" y="32.9" rx="1"/>
            <rect width="8.7" height="4.8" x="95.5" y="45.5" rx="1"/>
            <rect width="11" height="6" x="100.8" y="26.1" rx="1"/>
            <rect width="10" height="5.8" x="106.3" y="32.9" rx="1"/>
            <rect width="7.3" height="4.1" x="51" y="38.4" rx="1"/>
            <rect width="7.3" height="4.2" x="54.5" y="26.3" rx="1"/>
            <rect width="6" height="3.7" x="58.3" y="20.8" rx="1"/>
            <rect width="6.8" height="3.9" x="65.8" y="9.6" rx="1"/>
            <rect width="5.8" height="3.4" x="79.3" y="87.3" rx="1"/>
            <rect width="7.2" height="3.9" x="81.3" y="11.3" rx="1"/>
            <rect width="8.3" height="4.8" x="81.8" y="44.5" rx="1"/>
            <rect width="5.5" height="3.2" x="82.5" y="82.2" rx="1"/>
            <rect width="5.7" height="3.3" x="83.5" y="28.8" rx="1"/>
            <rect width="5.5" height="3.2" x="83.8" y="71" rx="1"/>
            <rect width="5.5" height="3.2" x="88" y="52.3" rx="1"/>
            <rect width="6.2" height="3.4" x="89.3" y="9.6" rx="1"/>
            <rect width="5.4" height="3.4" x="91.5" y="40.5" rx="1"/>
            <rect width="6" height="3.6" x="104.8" y="40.1" rx="1"/>
            <rect width="6.5" height="3.4" x="111.7" y="41.1" rx="1"/>
            <rect width="5" height="3" x="111.8" y="46.3" rx="1"/>
            <rect width="2.3" height="1.5" x="46" y="4.5" rx=".5"/>
            <rect width="5.7" height="3.4" x="46.9" y="53.7" rx=".5"/>
            <rect width="5" height="2.9" x="47.3" y=".3" rx=".5"/>
            <rect width="2.8" height="2" x="49" y="58.5" rx=".5"/>
            <rect width="2.3" height="1.5" x="53.3" y=".3" rx=".5"/>
            <rect width="5" height="3" x="53.5" y="34.3" rx=".5"/>
            <rect width="6.3" height="3.8" x="53.8" y="52.5" rx=".5"/>
            <rect width="3.5" height="2.1" x="58.3" y="16.6" rx=".5"/>
            <rect width="4.2" height="2.5" x="68.3" y="67.8" rx=".5"/>
            <rect width="5.1" height="3.4" x="72.3" y="6" rx=".5"/>
            <rect width="5.1" height="3.3" x="72.3" y="87.8" rx=".5"/>
            <rect width="5.1" height="3.1" x="73.3" y="92" rx=".5"/>
            <rect width="3.1" height="2" x="73.8" y="25.1" rx=".5"/>
            <rect width="4.5" height="2.3" x="75.8" y="10.3" rx=".5"/>
            <rect width="3.5" height="2" x="77.5" y="46.3" rx=".5"/>
            <rect width="3.5" height="2" x="77.8" y="26.8" rx=".5"/>
            <rect width="2.8" height="1.9" x="79.2" y="91.5" rx=".5"/>
            <rect width="4.7" height="2.8" x="88.8" y="36" rx=".5"/>
            <rect width="3.6" height="1.9" x="89.2" y="33" rx=".5"/>
            <rect width="3.9" height="2.2" x="91.5" y="29.4" rx=".5"/>
            <rect width="3.9" height="2.2" x="96.3" y="51" rx=".5"/>
            <rect width="4.6" height="2.8" x="98.2" y="10.6" rx=".5"/>
            <rect width="2.5" height="1.5" x="99.3" y="55.8" rx=".5"/>
            <rect width="2" height="1.1" x="108" y="18.3" rx=".5"/>
            <rect width="4" height="2.5" x="108" y="21.5" rx=".5"/>
            <rect width="2" height="1.1" x="112.5" y="27.5" rx=".5"/>
            <rect width="2.5" height="1.5" x="112.8" y="50.3" rx=".5"/>
            <rect width="2.3" height="1.1" x="113" y="30.3" rx=".5"/>
        </g>
    </g>
</svg>
