<svg xmlns="http://www.w3.org/2000/svg" viewBox="0 0 29 24">
    <g>
        <path d="M24.333 17.657l-2.24-6.52-2.38 6.52h4.62zm-3.285-8.71h2.26l5.354 14.756h-2.19l-1.497-4.42H19.14l-1.598 4.42h-2.049l5.555-14.755zM1.018 0h14.69v1.32h-3.15v4.997h4.13v1.301h-4.13v8.354h-1.376V7.618h-5.45c-.17 1.943-.527 3.545-1.093 4.828-.717 1.584-1.905 2.81-3.564 3.677l-.736-1.17c1.528-.867 2.603-2.017 3.206-3.45.396-1.094.66-2.376.811-3.885H0v-1.3h4.431c0-.246.02-.472.02-.66V1.32H1.017V0zm4.828 1.32v4.337c0 .226-.02.453-.02.66h5.356V1.32H5.846z" />
    </g>
</svg>