<svg xmlns="http://www.w3.org/2000/svg" version="1.1" id="svg2" stroke-linejoin="round" stroke="#000" fill="none" viewBox="0 0 2000 1001">
    <defs id="defs4">
        <style type="text/css" id="style6">
            path{fill-rule:evenodd}
        </style>
    </defs>
    <path id="AF" data-name="Afghanistan" data-id="AF" d="M1370 334h-5l-4-1-3 3-2 1-1 1-3-2-1-5-2-1v-2l-3-1-1 2v3l-1 1h-3l-1 3-2-2-3 2h-2l-4-2h-5l-3-2v3l-4 1v5l-3 2-4 1v3l-4 1-6-3v8l-1 5 3 1-2 3 3 5 1 5 4 1 1 4-4 5 10 4 5-1 3 1 1-2 4 1 7-3-1-5 2-4h4v-2l4-1 3 1 1-2-1-4 2-3 3-2-3-4h5l1-2-1-3 2-2-2-4-1-2 2-3 5-2h6l2-2h3l-1-2z" fill="#f2f2f2" fill-rule="evenodd"/>
    <path id="AO" data-name="Angola" data-id="AO" d="M1068 610h-20l-2 1-1 1 3 4 1 5 2 6-2 2v2l1 3 2 4 1 2v9l-2 3-3 4-2 2-2 6v3l-2 6-1 5 1 4 2-1 4-1h3l4 3h0l23-1 4 3 13 1 10-2-3-4-4-5 1-21h12l-1-2 1-2-1-3 1-3-1-2-2-1-4 1h-2l-2 1 1-8-2-2v-4l1-4-2-2v-4h-6v-3h-3v1l-3 1-2 3-1 2-3-1-2 1-3 1-3-4-1-2-1-4-2-4zm-22-2l1-2 1-2 2-1-2-3-2 1-2 3 1 5 2-1z" fill="#f2f2f2" fill-rule="evenodd"/>
    <path id="AL" data-name="Albania" data-id="AL" d="M1078 301l-2 3v2h0l1 1v1l-1 5 1 3 3 2v1l1 1 2-3 1-3h1v-2l-2-2-1-2v-2h0v-3h-2l-1-2-1 1v-2z" fill="#f2f2f2" fill-rule="evenodd"/>
    <path id="AE" data-name="United Arab Emirates" data-id="AE" d="M1284 409l-1-3-3 4-4 4-3 5h-4l-4-1-4 1-1-1h-1l1 1 2 7 17 3 1-1v-3l1-2v-3l2-1-1-1v-4h3l-1-5z" fill="#f2f2f2" fill-rule="evenodd"/>
    <path id="AR" data-name="Argentina" data-id="AR" d="M670 921l1-3-8-2-7-3-5-5-3-3 6 14h8l3 2h5zm-51-208l-7-2-4 6 1 1-1 7-6 3 2 11-1 2 2 2-3 4-3 6-1 6 2 6-2 7 5 11 1 1 2 6-2 6 1 5-3 5 2 6 3 6-2 2v6l1 6 3 8-2 1 4 7 3 3-1 2 3 1 1 3-1 1 1 4 2 8-1 5 2 3v4l-3 3 3 6 3 3 3-1 1 5 4 3 12 1 5 1 2 1-5-4-4-6 1-3 4-3v-7l5-3v-6l-6-1-6-5v-5l3-3h4l1-3-2-6 3-4 4-2-2-3-2 2-4-2-3-6 2-2 5 2h5l3-3-2-3v-5l-2-3h6l10-1 7-3 3-9v-3l-4-3v-4l-8-6v-3l-1-4 1-2-1-6v-6l1-6 6-8 5-6 3-3 5-3-1-6-3-3-3 1v6l-4 4-4 2-7-1-5-2 4-10-1-3-6-2-7-5-5-1-11-10-1-2h-6l-2 5-4-4z" fill="#f2f2f2" fill-rule="evenodd"/>
    <path id="AM" data-name="Armenia" data-id="AM" d="M1219 325l-1-4-2-1-3-2 1-2-3-2 1-2-2-1-2-2-7 1 1 3v3l5 1 2 2h1l2 2h2v1l3 3h2z" fill="#f2f2f2" fill-rule="evenodd"/>
    <path id="AU" data-name="Australia" data-id="AU" d="M1727 832h-3l-2 2-1 6-2 4v5h3v1l7-5 1 2 4-5 3-2 4-7-3-1-4 1-4 1-3-2zm50-172v-6l-1-3v-3l-1-1v-4l-2-3-2 2v2l-2 4-2 3 1 2-1 1-2 5v9l-3 5-1 3-2 3-1 4-4 2-5-2-1-2-2-2h-2l-3-4-3-2-4-2-3-3-1-2 3-3 2-4v-2h2l2-3 2-3-2-3-2 1-2-1-3 2-3-2-2 1-4-2-3-3-4-1-3 1 4 2v3l-5 1h-3l-3 2-3 4v1l-2 2-4 5 1 3h-7l-3-4-3-3-3 1-3 1v1h-2l-1 1-3 2-1 2-4 3-1 5-3-1-2 3 2 3-3 1-1-6-5 6-1 3-1 3-3 3-2 4-4 2-6 2h-3l-2 1-1 1-3 1-5 2-1-1-3 1-4 2-4 3-4 2-4 4 1-4-3 4v4l-2 3-1 2-1 3 1 2v2l1 5v3l-1-2-3-2 1 6-2-3v3l2 5-1 5 2 3v6l-1 3v4l1 6-1 4-2 4-1 3-1 1-3 1-2 4 3 1 4 4h7l3-2 4-2 1 1 5-4h3l4-1 5 1h8l3-3 2-3 5-2 7-3h5l7-2 8-2 10-1 4 4h3l6 4-2 1 2 2 1 5-1 3 3 3 4-5 4-2 7-6-2 5-3 3-3 4-4 4 5-2 5-4-1 5-3 3 4 1 2 2-1 3-1 5 1 4 4 2 3 1 2 1 4 1 7-4 4-1-3 3 3 1 2 3 5-3 4-2 6-3h6l4-3 1-2 3-4 4-5 4-3 4-6 3-3 5-5 5-3 5-6 3-4 2-4 3-5 3-3 2-6-1-5 2-4 1-4v-5l-3-5-2-3-2-4v-6l-1 1-2-3-2 1-1-7-2-4 1-1-3-3-3-3-6-3-1-5 2-3-1-5-1-1v-9l1-3-3-2-1-3-4 3-1-5z" fill="#f2f2f2" fill-rule="evenodd"/>
    <path id="AT" data-name="Austria" data-id="AT" d="M1060 264l-2-1h-2l-4-2-2 1-3 2-3-2-2 3-2 1 1 4v1l-2-1h-2l-4 1-4-1-1 2-2-2-2 1v2l2 1 3 1 3 1v-2l5-1 1 2 8 2h4l2-1h4l1-1 2-4-1-1h2l1-3-1-2v-1z" fill="#f2f2f2" fill-rule="evenodd"/>
    <path id="AZ" data-name="Azerbaijan" data-id="AZ" d="M1210 319h-1l1 2 3 3 4 1-3-3v-1h-2l-2-2zm10-9l-4-4h-2l3 4-1 1-3-1-4-2-1 1 2 2 2 1-1 2 3 2-1 2 3 2 2 1 1 4 5-5h2l2 2-1 3 4 3h1l-1-3 2-2v-7h4l-2-2h-2l-4-5-3-3h0l-3 2v2h-2z" fill="#f2f2f2" fill-rule="evenodd"/>
    <path id="BI" data-name="Burundi" data-id="BI" d="M1148 590v-2h0l-3-1-2 4-3-1 1 3v1l2 6v1h1l2-3 2-3 1-1v-2l-1-2z" fill="#f2f2f2" fill-rule="evenodd"/>
    <path id="BE" data-name="Belgium" data-id="BE" d="M1001 246l-5 1h-3 0l-4 1 1 2h2l2 3 4 3 2-1 5 3v-3l1-1 1-4-3-1-3-3z" fill="#f2f2f2" fill-rule="evenodd"/>
    <path id="BJ" data-name="Benin" data-id="BJ" d="M997 498l-4-4h-2l-2 2-1 2-3 1-1 2-2 1-1 3 2 2 2 3v3l1 1v15l1 4 5-1v-14l1-4 2-2 2-4v-2l1-2-1-4v-2z" fill="#f2f2f2" fill-rule="evenodd"/>
    <path id="BF" data-name="Burkina Faso" data-id="BF" d="M979 477h-4l-1-1-3 1-5 2-2 3-4 2-1 2-2 1-3-1-1 2-1 4-4 6v2l-2 3 1 3 2 2 1 2 3 1 1-2h3l4 2-1-5v-4h10l2 1 2-1h8l2-1 1-2 3-1 1-2v-4l-7-2v-3l-3-4-1-3 1-3z" fill="#f2f2f2" fill-rule="evenodd"/>
    <path id="BD" data-name="Bangladesh" data-id="BD" d="M1487 432l-5-10h-1l-1 4-3-3 1-4h2l2-6-4-1h-5l-5-1-1-4h-3l-5-3-1 4 5 4-3 2-1 2 4 2-1 4 3 5 1 5h3l1 1 1-1 2 1 2-3-1-3h5l3 4 1 3 1 3 2 4-1-5 2 1-1-5z" fill="#f2f2f2" fill-rule="evenodd"/>
    <path id="BG" data-name="Bulgaria" data-id="BG" d="M1122 294h-3l-4-3-6 2-3 1h-7l-4-1-2 1-2-3-1 1 1 3 3 2-2 2-1 2 1 1-1 1 3 2 1 4h4l3-2 4 2h5v-3l5-2 4 1-2-4 1-4 3-3z" fill="#f2f2f2" fill-rule="evenodd"/>
    <path id="BA" data-name="Bosnia and Herz." data-id="BA" d="M1062 285h-2l-1 1-2-1-1 2 3 3 1 2 3 2 2 2 2 2 4 3 1-4 1-1 1-1h2v-3l-3-2 1-3h-1 0l-3-1h-3l-5-1z" fill="#f2f2f2" fill-rule="evenodd"/>
    <path id="BY" data-name="Belarus" data-id="BY" d="M1113 219l-5-1-5 2-3 1 1 3-3 2-1 3-4 2h-5l1 3 1 2 1 3-3 1 2 3v3l2-1 3-1 4-1 5 1 5 2h6l2-1 1 2h6v-3l1-1 4-1h0l-2-4-1-2h5l1-1-1-2-4-1v-1l-2-1-4-4 1-2-1-3-5-1-2 1-1-2z" fill="#f2f2f2" fill-rule="evenodd"/>
    <path id="BZ" data-name="Belize" data-id="BZ" d="M483 471l1-2h1l1-2 1-3v-1l1-2-1-1 2-3v-2h-1 0-1l-2 3h-2v1l-1 5-1 7h2z" fill="#f2f2f2" fill-rule="evenodd"/>
    <path id="BO" data-name="Bolivia" data-id="BO" d="M656 701l1-2v-3l1-3v-5l-1-4-3-2-1-2v-4h-10l-3-8h1v-3l-1-1v-4l-4-2h-3l-3-2-4-1-2-2-6-1-7-6 1-4-1-3v-5l-7 1-3 3-5 2-1 2h-7l6 10-2 2 1 5v5l-2 3 1 3-1 2 3 5-3 7 3 4 1 5 4 3-2 6 4 7 3 9 4-1 4-6 7 2 4 4 2-5h6l1 2 2-8-1-3 2-6 10-2h5l5 4 1 1z" fill="#f2f2f2" fill-rule="evenodd"/>
    <path id="BR" data-name="Brazil" data-id="BR" d="M659 560h-4l-2 2-3 1h-2v1h-3l-4-3v-3l-1-3 1-6 1-2-1-3-2-1 1-3-1-1h-3l1 2-2 2-7 3-4 1-2 1-4-1-4-1h-1l2 2v4l1 4 4 1 1 1-4 2-1 3-2 1-5 1-1 2-4 1-3-4-1 1-1-4-2-2-2 2h-11v4l4 1-1 2h-1l-3 1v4l3 3 1 3-1 3-2 18-5-1-1 1-4 1-6 5-1 3-1 2 1 3-4 2v3l-1 1 3 6 3 4-1 2 4 1 2 3h5l4-3v9l3 1 3-1h7l1-2 5-2 3-3 7-1v5l1 3-1 4 7 6 6 1 2 2 4 1 3 2h3l3 2 1 4 1 1v3h-1l3 8h10v6l4 2 1 4v5l-2 3 1 3-1 2 2 3v9l6 1 2-1 4 1 1 2 1 6 1 3h2l2-1 2 1v7l-1 4 3-1 3 3 1 6-5 3-3 3-5 6-6 8h3l7 5 1-1 7 5 4 3 4 4-2 3 2 4 3-4 2-6 3-3 4-5 4-11 4-3 1-3v-7l-1-3v-5l4-6 6-6 6-1 4-3 8-3h6l1-3 4-3 1-7 5-8 1-9 1-2v-4l2-10-1-12 1-5h1l4-5 4-8 7-8 3-5 2-10-1-4-2-8-2-2h-5l-4-2-8-7-8-6-8 1-11-4-7 2 1-3-3-4-9-4-7-2-4 4-1-6-10-1-1-2 4-5v-5l-3-1-3-11-1-4-2 1-4 6-2 4-2 3h-2l-1-2h-1l-2 2-3-1-3-2-3 1-2-1v2l1 1-1 2-3-1z" fill="#f2f2f2" fill-rule="evenodd"/>
    <path id="BN" data-name="Brunei" data-id="BN" d="M1618 543l2 4 2-3 2 1v-8l-4 4-2 2z" fill="#f2f2f2" fill-rule="evenodd"/>
    <path id="BT" data-name="Bhutan" data-id="BT" d="M1475 396l-3-2h-3l-4-2-3 2-2 4v2l6 2 3-1 4 1 5-1-1-4-2-1z" fill="#f2f2f2" fill-rule="evenodd"/>
    <path id="BW" data-name="Botswana" data-id="BW" d="M1117 685h-1l-3 1h-2l-4 3-2-3-8 2h-4l-1 23h-6v19l1 1 3 6-1 4 1 2 4-1 3-3 3-1 1-4 3-1 2 1 3 2h4l4-2 1-2 1-3h3l1-3 2-4 6-5 8-4-4-3-4-1-1-4v-2l-3-1-6-7-1-4-1-1-2-5z" fill="#f2f2f2" fill-rule="evenodd"/>
    <path id="CF" data-name="Central African Rep." data-id="CF" d="M1111 517h-1l-2-2v-2l1-2v-3l-4-4v-3l-4 1-3 3-4 7-5 3-5-1-2 1 1 2-3 3-3 2-7 2-1-1h-1l-1 2h-5l-2 6-2 2v9l3 3v3l2 3 3 2v3l1 2 3-6 3-4 4 2h3l1-5 2-3 3-2 5 2 3 3h4l4 2 2-4 1-1 2 1 7-3 2 1h2l1-2h6l3 1 2-1-1-2-4-3-1-3-3-3-4-4v-2l-3-2-4-3z" fill="#f2f2f2" fill-rule="evenodd"/>
    <path id="CA" data-name="Canada" data-id="CA" d="M659 277l-1-3-2 2v2l6 2h2l3-3-5 1-3-1zm14-16l1-1-4-3-6-2-2 1 3 3 6 2h2zm-305 4v-4l-3-2v-6h-5l-2-1-4-1-1 1-1 3 4 1v2l3 2v3l6 2h3zm336-14l4-4 2-2h-3l-5 2-4 4-8 10-5 3 1 2-3 2v2h15l4 1-4 3 3 1 7-6 1 1-2 5 3 1h2l4-5-1-4v-4l-3 1 2-4-4-2-3 2-3-2 2-2-3-2-4 2 5-5zm-357-21l-1 2-2 2 1 2-1 3 1 3h2v-5l7-7-5 1-2-1zm281-47v-1h-2l-3 1v2l2 1 3-3zm-9-3v-1l-6-1-4 3v2h3l7-3zm-3-17h-3l-5 5-4 4-5 3 6-1-1 4 8-3 6-3 1 2 6 2 5-2-2-2h-3l1-2-4-2-3-2-2-1-2 1 1-3zm44-8l4-2 1-1 1-2-2-1h-4l-4 3-1 3h5zm-74-11v-2l-1-1-1-1-3-1-5 2-5 2 3 2 4-1 4 2 4-2zm23-2l-7-1 6-3-1-6-1-2-5-1-8 4-5 6 2 2 2 3-6 6h-3l-7 4 4-5-4-2-5 1-2 3h-6l-7 1-5-2h-5l-2-3-2-1h-4l-5 1-4 1 2 3-7 3-2-4-4 1-12 1-6-1 8-3-3-3-4 1-5-1-7-2-4-3h-5l-3 2-6 1 4-4-9 3-2-5h-2l-4 2-4 2v-3l-8 2-9 2-5-1-7 2-7 2h-3l-4-3-6-1h0l-24 20-35 33h4l3 1v7l8-4 6-1v3l1 2 1 3-1 4-1 7 4 3-3 4-5 3h0l-2 3 2 5-3 4 4 3-4 4-1 5 7 3 1 2 6 7h136l2-3h1l-1 4 1 1h4l4 1 4 2 4-1 6 2h0l3-3 3-1 2-1 1-1 4 1h4l1 1v4l5 1-2 1 1 2-2 3h2l-2 2h0l2 1 1-1v1l4 1h4l3 1 4 1 1 2 1 4-2 2h-4l-1-4-1 4-3 3-1 3-1 2-4 2h0l-4 3-2 2 3 1 4-2 3-2h4l2-1h3l4-1h0l1-2h-4l2-2 2-1 4-1 5-1 1 1 2-1 2-1 1 1h0l7-5 3-1h17l1-1 1-1 3-1 3-2 3-5 5-5 1 2 4-1 2 1-3 9 2 4 6-1 8-1-11 6-1 5h4l7-4 6-3 12-3 7-4-2-3 1-4-7 7-9 1-6-3v-5l1-7 6-4-3-3-8 1-12 5-11 8-4 1 7-6 10-8 8-3 5-4 6-1h7l10 2 8-1 8-5 9-3 4-2 4-2 2-7-1-2-3-1v-5l-2-2-7-1-3-4-5-3 3-4-2-7-2-8-1-5-4 3-8 6-8 4-2-4-3-1 2-7 3-5h-8v-3l-4-3-3-2-4 2-5-1-6-2-4 2-4 9-1 5-9 6 3 5 1 5-2 4-4 4-8 4-9 3 2 3-2 10-6 6-5 2-4-6v-7l2-6 3-5-5-1h-7l-4-3-5-1-1-3-4-2-7-3-7 1 1-4 2-6-6-1 4-6 5-5 10-7 8-4 6-1 3-4 5-2h6l8-4 3-3 7-4 4-3 3 2 6-1 11-4 2-3v-3l5-3 1-2-3-3-6-1h-5l-5 6-6 4-7 4-2-3 4-4-2-4-8 4 4-5zm-76-19l-3-1-14 3-5 2-8 4 6 2h6l-11 2v2h5l9-1 7 1-7 1h-5l-7 1-3 1v4l4-1 4 2v2h8l11-1 10-2h5l5 1 7 1 3-2-1-2h7l3-3-5-2-4-3 2-4 3-5-2-2h-8l-2 6-5 2 3-5-2-2-7 3-3-3-10 2 4-3zm39-1l-1-1h-8l2 4 7-3zm108 1l-4-3h-11l-1 2 2 3h0l5-1 4 1h4l1-2zm-39 0l5-3-11 1-6 2-7 5-3 5h6l-6 2 1 2 6 1 8 2 13 1 8-1 3-1 2 1 4 1 2 3-4 1 7 2 5 3v4l-9 5-3 3v2l-9 1h-8l-5 4 2 2 13-1 1-1 5 2 4 3-2 2 4 3 7 3 11 2 1-2-3-3-4-5 9 4 4 2 4-4v-6l-1-1-4-3-3-3 2-3 6-1 4 5 4 3 10-7 4-4h-7l-3-5-6-1-7-4 9-2-1-5-2-2-9-2-2-4-8 1 1-2-3-2-7-3-5 2-9 2 3-4-2-5-12 2-7 4v-3zm-50-3l-7 2 1 3h-8l-2 1 6 4 1 2 3 1 9-2 5-5-4-2 6-3 1-1-8 1-3-1zm22 5l6-1 10-5-6-1h-8l-5 1-5 3-2 2-2 5h4l8-4zm-115 7l3-2 9-4 14-3 6-2-1-2-2-1h-10l-4-2-14 1v3l-8 4-7 3-4 3 6 2-1 3 13-3zm124-18l1-2-2-1-7 1-4 2 3 1 5 1 4-2zm-8-9l-1 1h-5l-8 1h-4l-4 4h7l-4 2 4 1h6l6-4 3-2v-3zm-39 3l1-3h-3l-5 2-1 4h-6l-3-3-8-2-6 2-11 5h22l-11 2-1 2h5l13-3h13l6-3 2-2h-4l-4 1 1-2zm55-5h-7l-4 2 2 2h8l1 2-2 3-2 3 9 1 5 1h8l12-1h4l7-1 3-1 1-2-2-2h-14l-7 1h-10l-1-1-3-2 3-1-2-2h-7l-2-2zm-75-2l-6 1-6-1-12 4-11 3h0l3 1h7l10-3h4l5-1 6-4zm80 0h1l-1-1h-7l-1 1 6 1 2-1zm-58 0l3-2-4-1-6 1-5 1 3 2 9-1zm8-5h-4l-1-1-6 2h-1 6l6-1zm46 3l3-2-2-1-2-1h-4l-2 2-1 2 1 1 7-1zm-14-1v-2l-7-2-6-1-2 2 3 1-6 1 8 1 4 1 5 1 1-2zm54-6l1-3-5-1-5-1-1-2h-9l1 1h-4l-4 2-5 2v1l2 2h6l-4 1-2 2 1 2h14l10-4 7-1-3-1zm79-14h-7l-7-1-11 1h-18l-5 1-5 2-2-1h-4l-7 1-7 1h-10l-1 2 2 1 1 2 4 1h20l-7 2-2-1h-10l-1 2 3 2-3 2-7 1-5 1 5 1 2 3-8-2-2 1-2 3-8 1-2 2 6 1h17l8 1 13-3 1-1h-7l1-1 7-1 3-2 7-2 5-1-1-2 3-1-4-1h11l3-1 8-1 10-3 6-2 11-2h-8l4-1 9-1 10-1 1-1-5-1-7-1h-8z" fill="#f2f2f2" fill-rule="evenodd"/>
    <path id="CH" data-name="Switzerland" data-id="CH" d="M1024 271l-5-2-1 1h-4l-2 1h-2v1l-3 4v2h2l2 2 2 2 3-1 2-2 1 1h3l1-3 3 1 2-1 1-2-3-1-2-1v-2z" fill="#f2f2f2" fill-rule="evenodd"/>
    <path id="CL" data-name="Chile" data-id="CL" d="M648 905h-3l-4 2 1 4-2 3-7-2-8-4-5-2 10 7 6 3 8 4 5 1 4 1 3 1h2l4-2v-2h-8l-6-14zm-47-196l-4-7 1-6-3-3-1-5-3-4-1 3-3 2 2 9 2 10v40l-1 8 2 8-1 5 3 9v10l-1 10-1 11h-2l3 7 3 6-1 5 2 11 1 9 4 1-1-8 4 2 2 13-7-3 2 11-3 5 9 2-4 5v6l5 10 5 4v4l3 4 8 3h0l7 5 6 2 2-1-2-5 4-2 2-2h4l-5-1-12-1-4-3-1-5-3 1-3-3-3-6 3-3v-4l-2-3 1-5-1-9-2-3 2-1-2-3-3-1 1-3-3-2-3-7 1-1-3-8-1-6v-6l2-2-3-7-1-5 2-5-1-5 2-6-2-6-1-1-5-11 2-7-2-6 1-6 3-6 3-4-2-2 1-2-2-11 6-3 1-7-1-1-4 1-3-9z" fill="#f2f2f2" fill-rule="evenodd"/>
    <path id="CN" data-name="China" data-id="CN" d="M1587 453l1-3 2-3-2-3h-3l-6 2-2 3 1 5 5 2 4-3zm13-196l-6-6-4-4-4-3-8-6-5-2-9-2h-6l-5 1-2 3 4 2 2 3-1 2v7l2 2-4 4-8-2 1 5v6l3 2h2l6 1 2-3 5 2 7 5 1 2-4-1-7 1-2 2-2 4-6 2-3 4-6-2h-3l-1 4 3 2 2 2-2 2-2 3-5 3h-8l-7 2-4 3-3-2h-7l-9-3-5-1-7 1-11-2h-6l-4-3-5-6-4-1-7-3-8-1-6-1-3-3-1-7-6-5-8-3-6-3-3-4h-2l-2 4-4 1 3 6-2 3-10-2 1 11-2 1-9 3 8 11-3 1 2 4v1l-7 3-1 3-6 1-1 4-6-1-3 1-4 3 1 1-1 2 3 6 2-1 3 2 1 2 2 4 1 2 5 3 3 5 9 2 8 8 1 5 3 3v4l-4-1 3 7 7 4 8 4 2-1 5 2 6 4 3 1 3 3 4 1 5 3 7 1 6 1 3-2 2 6 2-5 3-2 4 2h3l3 2 4-1 4-5 5-4 5 1 3-2 4 4-2 2 7 1h3l2 4 3 1 1 5 1 5-4 6 1 7 5-1 3 6 3 1-1 5 5 3 2 1 4-2 1 3 1 1h2l-1-7 2-1 3-1h4l6-1 4-3 3 2 5 1v4l3 2 6 2 2-1 8 2-1 3 2 4h3l1-7 5-1 8-3 2-3 2 2 3-3 6-1 7-5 6-6 3-8 3-8 2-7h3v-5l-1-6-4-2-3-3 3-2-1-4-6-5-5-6-5-6-7-4 1-4 4-4 1-3 7-2-3-3-3-1-6-2-4 5-5-2-1-3-5-1-5-5 1-3h5l2-4 3-4 4-3 4 4-2 4 2 2-1 3 5-1 2-3 7-2 2-4 3-4 1-4 4 2h5l-3-3 6-3v-3l6 3h0l-2-3h2l-4-7-4-5 3-3 6 1v-6l-3-6v-3l-1-5-7 2-2 2h-8l-6-6-9-4-10-2z" fill="#f2f2f2" fill-rule="evenodd"/>
    <path id="CI" data-name="Côte d'Ivoire" data-id="CI" d="M947 506l-3 1-1 1-1-3-2 1h-1l-1 2h-4l-1-1h-1l-1 1-1 2 2 2 1 6h-2l-1 1 1 1-1 3h-1v2l1 3-1 3 1 2h2l2 3v3l-1 5 1 1 6-3 4-2 7-1h3l4 1h3v-2l-2-6 1-7 2-5-1-9-4-2h-3l-1 2-3-1-1-2-2-2z" fill="#f2f2f2" fill-rule="evenodd"/>
    <path id="CM" data-name="Cameroon" data-id="CM" d="M1060 503v-9l-2-4-2 1v2l2 2-1 1v2l-4 6-2 4-1 3-1 1-1 5-3 2-1 4-1 2v3l-4 2-3-3h-3l-3 4h-1l-3 6-2 5v2l2 1 1 2 3 1 2 5-1 5h9l3-1 3 1 4-1v1h7l5 2 4 1 1-3-1-2v-3l-3-2-2-3v-3l-3-3v-9l2-2 2-6 1-2-2-4v-3l-3-1-3-4 1-3 3 1h4l-3-6z" fill="#f2f2f2" fill-rule="evenodd"/>
    <path id="CD" data-name="Dem. Rep. Congo" data-id="CD" d="M1125 539h-6l-1 2h-2l-2-1-6 3-3-1-1 1-1 4-5-2h-4l-3-3-5-2-3 2-2 3-1 5v4l-2 3-1 4v9l-1 2v3l-1 2-3 3-3 3-3 6 1 6-2 2-3 3-3 4-2-1-1-2h-3l-2 2h-1l-2 1-1 2v2l-2 1 1 2 2-1h20l2 4 1 4 2 2 2 4 3-1 2-1 3 1 1-2 2-3 3-1v-1h3v3h7v4l1 2-1 4v4l2 2v8l1-1h2l4-1 2 1h2l1 2h6l2 3 4 1 3-2 2 3 4 1 2 3 2 3h4v-6l-1 1-4-3-2-1 1-6 1-8-1-3 2-4h1l8-1h1v-1l-2-2v-3l-4-4-2-4 1-3-1-4 1-10h0v-1l-1-3v-3l1-1v-4l2-1v-5l1-3 1-5 1-3 2-3 2-2 2-2-2-1v-7h0l-5-4-2-3-3 1h-2l-2 1-2-1-4-5h-5z" fill="#f2f2f2" fill-rule="evenodd"/>
    <path id="CG" data-name="Congo" data-id="CG" d="M1080 550l-3-1-4-1-3 4-3 6-1 3-4-1-5-2h-7v2l1 4 4-1 2 1-2 8 2 4 1 5-1 4-2 3h-5l-3-3v2l-4 1-2 2 2 4-4 3 5 7 2-3 2-1 2 3h1l2-2h3v2l2 1 4-4 3-3 2-2-1-6 3-6 2-3 4-3 1-2v-3l1-2v-9l1-4 2-3v-4z" fill="#f2f2f2" fill-rule="evenodd"/>
    <path id="CO" data-name="Colombia" data-id="CO" d="M578 497l1-2-1-2h-2l-3 3-2 2-5 3-4-1v1l-4 1-3 3-2 5v2l-2 1-5 4h-2l-1 1 1 4-1 2-2-1-1 3 2 4 1 5-1 2 1 5-1 4 2 2-3 3-2 4h-3l-1 3v3h-2l1 2 5 4h1l2 3h4l2-1 3 3 2 1 2-1 3 3 2 3 3 2 3 7 4 1 3-2 3 1 3-1 4 3-3 7h1l3 3 3-17v-3l-1-3-3-3v-4l3-1h2v-2l-4-1v-4h11l2-2 2 2 1 4 1-1-2-6-1-2-2-2 3-3v-1l-2-2-1-5 1-4 1-2 1-4-2-1-3 1h-6l-4-5-3-1-8 1-1-2-1-1v-6l-1-2-1-3h-3l2-4 1-4 2-3 2-1 2-4 3-1z" fill="#f2f2f2" fill-rule="evenodd"/>
    <path id="CR" data-name="Costa Rica" data-id="CR" d="M509 503l-1 1h-2l-1-2h-1l-2 1-3-2-1 1-2 1 2 1-1 2v2l1 1 1 1 1 1 2-1-1-2 2 1v2l2 1 2 1 2 2v1l-1 1 1 1 3 2v-1l1-2v-1l1-1-2-1v-2l3-1-3-2-2-3-1-3z" fill="#f2f2f2" fill-rule="evenodd"/>
    <path id="CU" data-name="Cuba" data-id="CU" d="M539 427l-5-2h-10l-4 1-3 1-3 2-2 2-3 2h5l1-2h2l5-3h5l-2 2 2 1 7 1 1 1 5 2h3l1 3 2 2 3 1 2 1-4 4 8-1 4 1 4-1h4v-2l-4-3h-4l1-2-3-1h-2l-3-3-4-4-2-1-5 1-2-3z" fill="#f2f2f2" fill-rule="evenodd"/>
    <path id="CZ" data-name="Czech Rep." data-id="CZ" d="M1049 249h-2l-1-1-1 2-4 1-1 1-4 2 1 1 1 3 3 2 2 2 4 2 3-2 2-1 4 2h2l2 1 1-1h2l2-1h0l1-1v-1h1v-2h2l-3-3h-3l-1-2-3-1-1 2-3-1v-2l-3-1-3-1z" fill="#f2f2f2" fill-rule="evenodd"/>
    <path id="DE" data-name="Germany" data-id="DE" d="M1044 232l-3-2-5-2-3 2-5 1v-2l-5-2v-2l-3 1-3-1v3l1 3-3 3-1-2-4 1-1 1 1 2-1 6-1 2h-3l2 6-1 4 1 2v3l2 1 7 1-2 5v4h4l1-1 5 2 2-1 2 2 1-2 4 1 4-2 2 1 2 1v-1l-1-4 2-1 2-3-3-2-3-2-1-3-1-1 4-2 1-1 4-1 1-2 1 1 2-1-2-3v-3l-1-3-2-2 1-2-1-3z" fill="#f2f2f2" fill-rule="evenodd"/>
    <path id="DJ" data-name="Djibouti" data-id="DJ" d="M1218 499l-3-2 3-1v-3l-1-2-2 2-2-1-2 3-2 3 1 2v2h4l2 1 2-4z" fill="#f2f2f2" fill-rule="evenodd"/>
    <path id="DK" data-name="Denmark" data-id="DK" d="M1036 221l-2-3-6 2v3l6 3 2-5zm-9-5l-2-1-1-1 1-2v-3l-3 1-2 2h-4l-1 2-1 2 1 6 2 3 3 1 3-1-1-3 3-4h1l1-2z" fill="#f2f2f2" fill-rule="evenodd"/>
    <path id="DO" data-name="Dominican Rep." data-id="DO" d="M580 457v2l1 1 3-4 2-1v2l2-1 2-1h4l2 1 3-2-3-3h-2v-2h-3l-1-2h-1l-3-1h-5v4l-1 3-1 1 1 2v1z" fill="#f2f2f2" fill-rule="evenodd"/>
    <path id="DZ" data-name="Algeria" data-id="DZ" d="M1021 337h-4l-2-1h-5l-5 2-3-1-9 1-9 1-5 2-3 3-6 1-5 3 2 4v4l2 7 2 1-1 3-7 1-3 2-3 1v5l-7 2-2 3-4 2-5 1-9 5v8l-1 1 21 15 18 14 19 14 1 3 3 2 3 1v4l6-1 8-3 16-12 18-12-2-4-4-3-3 1-2-4v-2l-4-5 3-3-1-4 1-3-1-3 1-5v-3l-2-6-3-11-3-3v-1l-5-4v-5l3-3 1-6-1-6 1-3z" fill="#f2f2f2" fill-rule="evenodd"/>
    <path id="EC" data-name="Ecuador" data-id="EC" d="M553 573l-2-1-3-2-2 1-4-1-2-3h-1l-5-4-4 3-3 1v3l-2 4-1 4-2 1 1 6-1 1 3 3 2-3 2 3-3 5v2l-1 2v2h5l2 4 3-3 1-4 3-6 7-2 6-7 2-4-1-5z" fill="#f2f2f2" fill-rule="evenodd"/>
    <path id="EG" data-name="Egypt" data-id="EG" d="M1130 375l-6-2-5-2h-7l-2 3 1 3-1 4 2 5 1 23 1 23h66l-1-1-7-6-1-4 1-1-5-7-2-4-2-3-5-10-4-7-3-6 1-1 4 9 3 3 2 2 1-1 1-3 1-5 1-3v-1l-4-9h0l-3 1h-4l-4-2-1 2-2-3-4-1-5 1-2 2-4 2-2-1z" fill="#f2f2f2" fill-rule="evenodd"/>
    <path id="ER" data-name="Eritrea" data-id="ER" d="M1198 474l-3-3-2-6-4-7-2 3-4 1-2 2v5l-2 9 1 2 6 2 2-5 3 3 3-2 2 2h4l5 2 1 3 3 2 2 3 2 2 3 1 1-2-3-1-2-3-3-3-3-4-8-6z" fill="#f2f2f2" fill-rule="evenodd"/>
    <path id="EE" data-name="Estonia" data-id="EE" d="M1093 198h-5l-6 2 1 3 4 3 1-1v3l4-1 2 1 4 2h4l2-2-3-5 3-4-1-1h0-5l-5-1z" fill="#f2f2f2" fill-rule="evenodd"/>
    <path id="ET" data-name="Ethiopia" data-id="ET" d="M1188 477l-2 5-6-2-1 6-2 6-3 3-3 5v3l-3 1-1 7v6l-1 2h-3l-2 4h4l3 3 1 3 2 1 4 7 3 1v4l2 2h4l7 5h3l1 1h4l2-2 5-3 2 2h4l1-2h4l5-4 7-1 16-19h-5l-19-7-2-2-2-4-2-3 1-2-1-1h-5v-2l-1-2 2-3 2-3-2-2-2-3-3-3-1-2-5-2h-4l-2-2-3 2-3-3z" fill="#f2f2f2" fill-rule="evenodd"/>
    <path id="FI" data-name="Finland" data-id="FI" d="M1093 144l1-3-5-3-6 2-1 4-4 3-4-2-6 1-5-3-2 1 6 3 7 4 2 8 2 2 6 3 1 2-3 1-8 6-4 4-1 3 3 5v6l4 2 4 3 7-1 7-2 8-1h0l8-7 3-3 1-3-7-4 1-4-5-4 2-5-7-6 3-4-7-4-1-4z" fill="#f2f2f2" fill-rule="evenodd"/>
    <path id="FJ" data-name="Fiji" data-id="FJ" d="M1977 674l-4 2-2 1-3 1v2l4-1 4-2 1-3zm-11 8l-2 2-2-1-3 2v3l3 1 3-1 2-4-1-1z" fill="#f2f2f2" fill-rule="evenodd"/>
    <path id="GA" data-name="Gabon" data-id="GA" d="M1050 558v-1l-4 1-3-1-3 1v7h-8l-2 1-1 5-1 4-2 2v2l3 7 4 5 6 7 4-4-2-4 2-2 4-1v-2l3 3h5l2-3 1-4-1-5-2-4 2-7-1-2-5 1-1-3v-3z" fill="#f2f2f2" fill-rule="evenodd"/>
    <path id="GB" data-name="United Kingdom" data-id="GB" d="M950 228l-5-4h-4l1 3-1 4 3-1 3 2 3-4zm13-25l-5 1-4-1-4 5-2 6 2 3 1 6 2-3 2 2-2 2 1 2 6 1h0l3 4-1 3h0-7l-1 4 3 3-6 2 2 2 7 2h0l-4 1-7 6 2 2 4-3 4 1 3-3 3 1 8-2 6 1 5-4-2-3 2-2 1-4-6-1-1-2-3-7-3-1-5-7v-1h-5l4-5 2-5h-5l-5 1 5-7z" fill="#f2f2f2" fill-rule="evenodd"/>
    <path id="GE" data-name="Georgia" data-id="GE" d="M1200 300l-7-3-8-1-5-1v1l2 2h3l3 3 3 4-1 3 6-1 5 3 7-1 1-1 4 2 3 1 1-1-3-4h1l-4-2-2-2-5-2-3 1-1-1z" fill="#f2f2f2" fill-rule="evenodd"/>
    <path id="GH" data-name="Ghana" data-id="GH" d="M977 502h-3l-2 1-2-1h-10v4l1 5 1 9-2 5-2 7 3 6v2l5 2 5-2 3-2 9-4-2-2-1-4-1-3 2-6-2-2v-10l-3-3 1-2z" fill="#f2f2f2" fill-rule="evenodd"/>
    <path id="GN" data-name="Guinea" data-id="GN" d="M912 493h0-3l-1 1h-1l-4-2h-3v5l-1 1h-1l-2 1h-1l-3 3 2 1 1 1v3l2 1 1 1 2 3 3 3 3-2v-2l1-1 2-1 1-1h5l1 3 1 2v2l1 2v2h3l1-1 2 4v2l1 2h2l1-3h2l1-2-1-2 1-1h2l-1-5-2-3 1-2 1-1-2-2v-2h-1v-2l1-1-2-3-1-2-1-1h-1l-2 1h-1l-2 2-2-1-2-1h-3l-1-2z" fill="#f2f2f2" fill-rule="evenodd"/>
    <path id="GM" data-name="Gambia" data-id="GM" d="M883 489h5l1-1h1l2-2 3 2h2l2-2-1-2-1 2-2-1-2-1h-2l-1 2h-6l-1 3z" fill="#f2f2f2" fill-rule="evenodd"/>
    <path id="GW" data-name="Guinea-Bissau" data-id="GW" d="M900 492h-10l-2 1-1-1-3 1v2l2 1v1l1 2h2l3 3 3-3h1l2-1h1l1-1v-5z" fill="#f2f2f2" fill-rule="evenodd"/>
    <path id="GQ" data-name="Eq. Guinea" data-id="GQ" d="M1040 558h-9l-2 7 1 1 2-1h8v-7z" fill="#f2f2f2" fill-rule="evenodd"/>
    <path id="GR" data-name="Greece" data-id="GR" d="M1102 345l-1 3 7 1v1l7-1 1-2-3 1v-1h-8l-3-2zm11-38l-2-1v3h-5l-3-2-4 2h-5l-1 1h-3l-2 1-3 1v2l-2 1v2l-2 3 1 2 3 3 2 3 1 4 3 6 4 2h4l-3-5 4-1-2-3 5 1-1-3-3-2-3-3 2-2-3-3-1-3 1-2 3 4h2l3-1-4-4 6-2 3 1h3l1-1 1-4z" fill="#f2f2f2" fill-rule="evenodd"/>
    <path id="GL" data-name="Greenland" data-id="GL" d="M887 76h-37l-5 1h-12l-13 2-1 2 6 2-6-1h-4l-7-2-11 2-3-1h-10l-11 1-9 1v2h-5l-15 3-4 2 8 1-3 2-15 2-15 2-3 2 7 2 14 1h-7l-11 2 4 3 3 1h27l8 3-2 2 4 2 1 5 1 4 2 2-7 5 2 1 5-1 2 2 6 3-8-1h-4l-3 3-1 3 4 2 4-1h3l5-2-3 4-2 2-7 2-7 6 2 3-4 4 4 5-2 5 1 3 5 7 1 6 3 3h9l5 5h6l4-6 4-5v-4l8-5 3-4 2-3 5-4 6-1 6-2h3l10-4 8-5 5-3h4l13-1 12-5 12-4-6-1h-10l5-3-1-3 5 3 2 2 8-1-1-4-5-4-5-1 3-1 7 2 1-2-5-4h6l5-1 2-1-4-3h9l-4-4 4-1v-4l-6-2 6-2h6l-4-3 1-5 4-3 5-3-8-1h11l2-1 15-3-2-2-10-1-16 2-10 1 5-2-2-1-7 1-10-2-12 1-2-1h32l6-2-20-3z" fill="#f2f2f2" fill-rule="evenodd"/>
    <path id="GT" data-name="Guatemala" data-id="GT" d="M483 459h-11v3h-2l1 2 2 2 1 1v3h-7l-3 5v3l-1 2 3 2 2 2h4l3 1v-1l2-2 1-1h0l1-1 1-1v-1l1-2 2-1 3-3-1-1-1 1-2-1h-1l1-7 1-5z" fill="#f2f2f2" fill-rule="evenodd"/>
    <path id="GY" data-name="Guyana" data-id="GY" d="M656 534l-2-2-3-3h-2v-4l-3-4-4-2-5 4v2l2 2-2 1-3 2v3l-2 1 4 5h3l1 1-1 3 2 1 1 3-1 2-1 6 1 3v3l4 3h3v-1h2l3-2 2-1h4l-3-6-1-3h-2l-2-5 1-3v-2l3-1 1-6z" fill="#f2f2f2" fill-rule="evenodd"/>
    <path id="HN" data-name="Honduras" data-id="HN" d="M514 477l-1-2-2-1-2-1-1-2h-1l-2-1-2 1h-2l-2-1-1 1-2 1h-2l-3-1-1 1v-1h-2l-1 1h-1l-3 3-2 1-1 2v1l-1 1 2 1 1 1 1 1v1l3-1 1 1 1 1-1 2 2 1 1 2 1-1 1-1h1v-3l1-1 2 1 1-2 2 1v-1h1l2-2 1-1h0l1-2h1l1 1h1l1-1h3l1-1h2z" fill="#f2f2f2" fill-rule="evenodd"/>
    <path id="HR" data-name="Croatia" data-id="HR" d="M1065 280l-4-2-2-1-3 2-1 2-1 1v1h-2l-2-1-1 1h-4v2l2 2 1-2 4 1v2l3 2-1 1 4 4 5 2 3 2 5 3h0v-1l-4-3-2-2-2-2-3-2-1-2-3-3 1-2 2 1 1-1h2l5 1h3l2 1h1l1-2-1-2-2-2h0l-2 1-4-2z" fill="#f2f2f2" fill-rule="evenodd"/>
    <path id="HT" data-name="Haiti" data-id="HT" d="M581 447l-5-1-3-1-2 2 4 1-1 3 3 2-3 2-4-1-5-1v2l2 2 3-1 3 1 3-1 4 1v-1l-1-2 1-1 1-3v-3z" fill="#f2f2f2" fill-rule="evenodd"/>
    <path id="HU" data-name="Hungary" data-id="HU" d="M1079 264h-2v2h-3 0l-3 1h-1l-1 1-4 1-2-1-2-1-1 2-2 1 1 1-2 4h1l1 2 2 1 4 2 4 2 2-1h0l4-2h3l4-1 2-4 2-4 3-2v-1l-3-2-1 1-6-2z" fill="#f2f2f2" fill-rule="evenodd"/>
    <path id="ID" data-name="Indonesia" data-id="ID" d="M1652 637v-1l-1-2-3-2-5 1 7 4h2zm21 0l4-5v-2l-1-1-5 2-3 4-1 2 1 1 5-1zm-36-13l-1 2h-3l-3 4h3l4-1 7-1-1-3h-4l-2-1zm28 0l-5 2h-4l-3-1-5 1v2l8 1 8-2 1-3zm-79-9l-1-2h-2l-5-3h-6l-4 6h5v3l10 3 3-1h4l6 3 5 1 6 1 5-1 6 3 7-3-7-3-8-1-2-5-10-3-1 3-11-1zm146-3l1-3-2-2-1 2-1 2v5l3-4zm-41-18l-1-2h-6l1 3 4 1 2-2zm19-2l-7-2h-6l-2 4h12l4 3-1-5zm21-13l-1-2-9-2-3 2-8 1 3 3 5 2 2 3h8v2h-4l-6 2 4 3v3l1 2h3l1-3 8 6h5l11 6 2 5 1 7-4 1-3 6 8-1 1-1 6 1 4 5 2-21 1-20-6-2-4-2-5-2h-5l-7 4-5 7-5-4-2-11zm-50-16l-1-1-6 4-6 1-8-1-4-2-5 5-1 2-3 10-1 5-2 4 1 4h3v7l-2 5 3 2 3-1 1-9-1-7 4-2v6l3 4v2l1 2 6-2-3 5 2 2 3-2v-4l-5-7 1-3-5-8 5-2 3-4 2 1 1-3-11 2-3 3-5-5 1-5 5-1 9-1 6 2 4-2 4-6zm19 2l-1-3h-3v-4l-2 3-1 5 1 8 3 4 1-1-2-3 1-4 3 1v-6zm-61-4l1-3-4-6 3-6-5-1h-7l-1 7-2 2-3 9-5 1-5-1h-3l-3 3h-4l-3 1-4-3-1-5-3 5-1 6 1 5 2 6 3 1 1 9 4 1 4-1 2 3 7-2 3 2h4l2 4 6-3 1 3 2-10 1-6 5-5v-5l2-5 6-1-6-5zm-69 48l1-9 2-8-3-4-4-1-2-3-1-5h-2l-3-2 2-6-4-2-3-6-5-4h-6l-5-7-3-3-5-4-5-6-9-1-4-1 1 3 6 8 4 3 4 6 5 4 2 5 2 5 4 5 5 9 2 5 4 5 3 4 7 5 4 5h6z" fill="#f2f2f2" fill-rule="evenodd"/>
    <path id="IN" data-name="India" data-id="IN" d="M1414 380l-8-4-7-4-3-7 4 1v-4l-3-3-1-5-8-8-3 6-6 1-9-2-2 3 4 5 3 5 5 3-4 4 1 4-4 6-2 7-5 7-6-1-5 7 4 3 1 5 4 3 2 5h-12l-4 4 8 6 1 2-2 3 8 7 4 1 8-4 1 6 1 8 3 8 3 12 6 9 1 4 2 8 4 6 2 3 2 7 4 8 5 7 2-2 2-5 5-1-2-3 2-4 3-1v-10l1-7v-5l-2-8 1-5h3l4-3 3-1v-3l5-4 3-4 6-8 7-4 2-4v-5l6-1h4v-2l-1-5-3-5 1-4-4-2 1-2 3-2-5-4 1-4 5 3h3l1 4 5 1h5l4 1-2 6h-2l-1 4 3 3v-4h2l5 10 2-2-1-2 1-2-1-7 5 1 1-5v-3l2-5-1-4 6-4 4 1-1-4 1-1v-3l-7-1 2-2-4-4-3 2-5-1-5 4-4 5-4 1 2 2 1 3-5 1-4-1-4 1-5-2v-1l-2-6-3 2v3l2 4v2h-5l-7-1-4-1-4-3-7-1-8-3-6-4-6-2 1-6 3-3z" fill="#f2f2f2" fill-rule="evenodd"/>
    <path id="IE" data-name="Ireland" data-id="IE" d="M947 232l-3-2h-3l1-3-1-3-3 3-7 5 2 6-4 6 6 1 9-4 4-5-1-4z" fill="#f2f2f2" fill-rule="evenodd"/>
    <path id="IR" data-name="Iran" data-id="IR" d="M1214 324l-4-3-1-2-3 2 3 7-1 2 4 5h0l4 8 4 2 1 4-2 2-1 5 5 6 7 4 3 5v4h2v3l4 4 2-3 3 2 3-1 5 9 4 6 6 2 6 5 7 2 5-3 4-1 3 1 3 7 6 1 6 2 11 2 1-8 7-3v-3l-3-1-1-6-6-2-3-4-3-4 4-5-1-4-4-1-1-4-3-6 2-3-3-1 1-5v-8l-1-5h-4l-8-6-4-1-6-3-4-1-2 2-4-1-3 4-4 1v2l-8 2-8-2-4-3-5-1-3-5h-1l-4-3 1-3-2-2h-2l-5 5h-2l-3-1z" fill="#f2f2f2" fill-rule="evenodd"/>
    <path id="IQ" data-name="Iraq" data-id="IQ" d="M1207 335l-6-1-2 1-2 4-3 2 1 4v8l-11 7 3 8 6 1 9 5 16 13h11l3-6h4l3 1-4-4v-3h-2v-5l-3-4-7-4-5-6 1-5 2-2-1-4-4-2-4-8h0l-3 1-2-1z" fill="#f2f2f2" fill-rule="evenodd"/>
    <path id="IS" data-name="Iceland" data-id="IS" d="M916 159l-7-1-7 3-6-1-6 3-6-4-7 1-3 3 8 2v1l-8 1 9 3-4 2 11 2 6 1 4-1 13-4 6-4-5-4 2-3z" fill="#f2f2f2" fill-rule="evenodd"/>
    <path id="IL" data-name="Israel" data-id="IL" d="M1168 361h-2v1h-2 0l-1 1v5l-1 3v1l-1 2h0l4 9v2l2-11v-2l-3 1v-2l2-1h-2l1-5 2 1 1-2h0v-3z" fill="#f2f2f2" fill-rule="evenodd"/>
    <path id="IT" data-name="Italy" data-id="IT" d="M1058 329h-4l-5 1-7-1v4l7 3 3 1 4 2 1-3-1-2 2-5zm-34-19l-2 2-3-1 1 4v8l3 1 2-2 2 1v-9l-3-4zm14-35l-1-2-5 1v2l-3-1-1 2-2 1-3-1-1 3h-3l-1-1-2 2-3 1-2-2v2l1 2-1 2 1 5 3 1-1 2h3l2-3 3-1 4 2 2 1 2 6 4 4 5 4 4 2 4 1 2 2 4 2 1 2 3 1 1 3 3 4-1 1-1 4v2l2-1 2-5 3-1v-3l-4-2 2-4 4 1 4 3v-4l-5-3-4-2-5-2 2-2-2-1h-4l-6-5-3-5-4-3-2-3v-5l4-2 4 1-2-3 1-3-8-2z" fill="#f2f2f2" fill-rule="evenodd"/>
    <path id="JM" data-name="Jamaica" data-id="JM" d="M551 459l4-1-1-1-3-2-4-1h-1l-2 1-1 1 3 2 3 1 2-1z" fill="#f2f2f2" fill-rule="evenodd"/>
    <path id="JO" data-name="Jordan" data-id="JO" d="M1187 368l-4-8-9 7-6-3-1 2v8l-2 10 1 1 6 1 2-2 1-2 4-1 1-2 1-1-6-6 11-3 1-1z" fill="#f2f2f2" fill-rule="evenodd"/>
    <path id="JP" data-name="Japan" data-id="JP" d="M1693 355l-5-1-1 2-3-1-2 4 2 3 4 2v-4l2-1 3 2 1-4-1-2zm24-19l-4-7 2-7-3-5-8-8-5 1v4l5 7 1 8-1 2-5 7-5-3v11l-6-1-10 2-2 4-4 3-1 4-4 2 4 5 4 2 1 5 3 3 3-3-1-11-7-4 6-1 5-3 9-1 2 5 5 2 4-7h9l5-3 1-5-2-3-1-5zm-12-45l-5-2-11-6 2 5 5 8-6 1 1 4 5 6h5l-1-6 11 4v-6l6-2-6-7-1 3-5-2z" fill="#f2f2f2" fill-rule="evenodd"/>
    <path id="KZ" data-name="Kazakhstan" data-id="KZ" d="M1309 224l-9-1-3 2-11 2-2 2-17 2-1 2 5 4-4 2 2 1-4 3 9 4v3h-7l-1 2-7-3h-7l-5 2-6-2-12-4h-8l-8 6 1 5-6-4-2 7 2 1-2 5 5 4h4l4 4v4l3 1 4-2 5-2 5 1h5l2 4v6l-4-1-4 1 1 4h-5v2l4 1 3 6 7 2 1 2-1 3 1 1 2-2 5-1 4 1 5 5h3l-7-23 12-3h1l10 5 4 2 7 5h6l8-1 8 5 1 6h3l2 5h7l2 3h2l1-4 5-5 3-1v-3h3l9 2v-4l2-1 8 2h18l4 3 3 1-1-4 2-2-8-10 9-3 2-1-1-11 10 2 2-3-2-6 3-1 2-4-4-4-6 1-4-2-3-2-5-3-3-1-6 1-8-3-1 3-18-16-9-4 1-2-9 6h-4l-2-3-7-2-4 1-4-6z" fill="#f2f2f2" fill-rule="evenodd"/>
    <path id="KE" data-name="Kenya" data-id="KE" d="M1212 547h-4l-2-2-5 3-2 2h-4l-1-1h-3l-7-5h-4l-2-2v-4l-3-1-4 4-3 4 2 5 1 3 3 7-2 5-3 4-2 3h0l2 2-1 5 20 13 1 4 8 6 2-2 1-4 2-3 1-4 2-1 1-3 4-2-3-5v-24l5-7z" fill="#f2f2f2" fill-rule="evenodd"/>
    <path id="KG" data-name="Kyrgyzstan" data-id="KG" d="M1387 303l-3-1-4-2-7-1h-11l-8-2-2 1v4l-9-2h-3v3l2 1-3 4 4 2 3-1 7 3-5 4h-4l-1 2-6-1v3h6l7 2 9-1 1-2-1-1 4-3 4-1 5 1 1-4 6-1 1-3 7-3v-1z" fill="#f2f2f2" fill-rule="evenodd"/>
    <path id="KH" data-name="Cambodia" data-id="KH" d="M1575 482l-5-2-2 4-5-3-6-1-7 2-3 5 2 8 4 6 2 4h5l5-2 6-1-3-3 9-5v-8l-2-4z" fill="#f2f2f2" fill-rule="evenodd"/>
    <path id="KR" data-name="Korea" data-id="KR" d="M1637 332l6 5-3 1 5 7 1 5 2 3h5l3-3 4-1 1-4-4-7-3-4-8-8v2h-6v3h-3v1z" fill="#f2f2f2" fill-rule="evenodd"/>
    <path id="KW" data-name="Kuwait" data-id="KW" d="M1236 381h-4l-3 6 5 1 1 3h4l-2-5v-2l-1-3z" fill="#f2f2f2" fill-rule="evenodd"/>
    <path id="LA" data-name="Lao PDR" data-id="LA" d="M1575 482v-7l-2-4-5-4-4-6-6-8-7-3 1-3 4-1-3-6h-7l-4-6-4-5-2 1 1 7h-2l-1-1-4 4-1 2 3 2v4h4v7l1 6 5-4 2 1h3l1-2h4l5 5 1 7 6 5v5l-1 3 5 3 2-5 5 3z" fill="#f2f2f2" fill-rule="evenodd"/>
    <path id="LB" data-name="Lebanon" data-id="LB" d="M1168 361l1-4 2-2-1-3h-2 0l-3 5-1 5h2v-1l2-1z" fill="#f2f2f2" fill-rule="evenodd"/>
    <path id="LR" data-name="Liberia" data-id="LR" d="M929 523h-1l-1 3h-2l-1-2v-2l-2-4h-1l-2 1-2 3-3 3v2l-1 2 3 4 5 4 5 4 6 3h1l1-5v-3l-2-3h-2l-1-2 1-3-1-3v-2z" fill="#f2f2f2" fill-rule="evenodd"/>
    <path id="LY" data-name="Libya" data-id="LY" d="M1112 371l-2-2-5-1-2-1h-2l-2-2-7-2-4 1-3 3-2 3 2 5-3 3-2 2-6-4-8-2-5-1-3-6-7-3-4-1-3 1-6-3v5l-3 2-1 2-4 3 1 2-1 3-2 1 2 6v3l-1 5 1 3-1 3 1 4-3 3 4 5v2l2 4 3-1 4 3 3 4 8 3 3 3 4-2 6-4 22 12 22 13v-3h7l-1-13-1-23-1-23-2-5 1-4-1-3 2-3z" fill="#f2f2f2" fill-rule="evenodd"/>
    <path id="LK" data-name="Sri Lanka" data-id="LK" d="M1432 533l3-2v-7l-3-6-3-5-4-3-2 10 2 9 2 5 5-1z" fill="#f2f2f2" fill-rule="evenodd"/>
    <path id="LS" data-name="Lesotho" data-id="LS" d="M1128 767l1-2 3-1 1-3 2-3-1-2-3-2-2 2-3 2-4 4 4 5 2-1z" fill="#f2f2f2" fill-rule="evenodd"/>
    <path id="LT" data-name="Lithuania" data-id="LT" d="M1100 221l-5-3h-2l-1-1h-12l-5 2 1 5 5 1 3 1-1 1 1 2h2l2 2h4l5-2 1-3 3-2-1-3z" fill="#f2f2f2" fill-rule="evenodd"/>
    <path id="LU" data-name="Luxembourg" data-id="LU" d="M1007 259v-3l-1-1h-1v3l1 1h1z" fill="#f2f2f2" fill-rule="evenodd"/>
    <path id="LV" data-name="Latvia" data-id="LV" d="M1102 210h-4l-4-2-2-1-4 1v5h-4l-4-5-4 3-2 3 1 5 5-2h12l1 1h2l5 3 3-1 5-2-3-4v-2l-3-2z" fill="#f2f2f2" fill-rule="evenodd"/>
    <path id="MA" data-name="Morocco" data-id="MA" d="M965 348h-2l-6-1h-5l-3-2h-4l-1 3-4 7-4 3-5 3-4 4-1 3-2 6 1 8-5 5-2 2-5 4-5 1-3 2h0l-3 7-4 2-2 4v3l-2 4-2 1-3 4-2 5v2l-2 3-2 2v3h0l12-1 1-2 2-3 2-9 8-6 3-9h2l2-5 4-1 2 1h3l1-1h4v-4h1v-7l9-5 5-1 4-2 2-3 7-2v-5l3-1 3-2 7-1 1-3-2-1-2-7v-4l-2-4z" fill="#f2f2f2" fill-rule="evenodd"/>
    <path id="MD" data-name="Moldova" data-id="MD" d="M1119 283h1v-2l1-2v-2h1v1h3l2-1h-1v-1l-2-2-1-2-2-1v-2l-3-2h-2l-4-2h-3l-1 1 2 1 1 2 2 2 4 4v5l1 3z" fill="#f2f2f2" fill-rule="evenodd"/>
    <path id="MG" data-name="Madagascar" data-id="MG" d="M1256 658l-1-4-2-3-2-2-2 3v3l-3 5-2-1v3l-2 3-4 4-4 4h-2l-2 1-4 1h-2l-1 4-3 4 1 6v4l1 3v4l-3 5-1 2-2 1-1 4v5l1 5v6l1 3 5 2 3 2 5-3 4-1 3-8 3-8 4-12 4-9 2-8 1-5 2-1 1-3-1-5 1-2 2 4 1-2v-3l-1-3v-8z" fill="#f2f2f2" fill-rule="evenodd"/>
    <path id="MX" data-name="Mexico" data-id="MX" d="M444 408l-3-2-4-2-1-3v-4l-3-4v-3l-2-5-3-2h-5l-4 5-4-2-3-2v-3l-1-4-2-3-2-2-2-2h-9l-1 3h-15l-10-5-8-3 1-1-7 1h-6v6l1 5 1 4 1 4 2 2 3 4-1 3-3 3-2-1v1l2 4 3 1 1 2 1-1 3 3 2 2v3l-1 5 2 1 4 4 3 3v4h1l3-2v-1l-1-3-2-3h-2v-4l-1-3-1-3v-5l-3-4-1-2-1-2v-4h-1v-2h-1v-2l-3-4-1-3 1-4v-3l2-3 3 2 1-1 4 3-1 2v5l2 5-1 2 2 3 2 3 3 1v4l3 3 2 2-2 4 1 1 4 3 2 4 4 5 4 6 2 4v2l1 3v2l-2 2v2h-2l1 3 2 4 6 4 2 3 5 2h3l1 2 4 3 6 3 4 1 5 3 4 1 4 2 3-1 5-3h3l4 2 3 2 5 7 1-2v-3l3-5h7v-3l-1-1-2-1-2-3h3v-3h11v-1h1l3-3h1l1-1 1 2 2-5 2-3-1-1 1-4 4-3 1-4-2-1-3 1-5-1-6 2-4 2-1 1-1 6-2 4-4 2-4 1-4 1-4 1-5 2-2-3-6-2-2-3v-3l-3-5-1-5-1-3v-4l1-3 2-8 1-5 3-5h-2z" fill="#f2f2f2" fill-rule="evenodd"/>
    <path id="MK" data-name="Macedonia" data-id="MK" d="M1094 305l-3-2h-4l-1 1-3 1v1h-1 0v2l1 2 2 2 3-1 2-1h3l1-1h1l-1-4z" fill="#f2f2f2" fill-rule="evenodd"/>
    <path id="ML" data-name="Mali" data-id="ML" d="M1000 450l-6 1v-4l-3-1-3-2-1-3-19-14-18-14h-9l3 28 2 27 1 1-1 5h-22l-1 1h-2l-4 1-3-2h-2l-1 4-2 1v4l1 4 2 2 1 2-1 2 1 2h1l1-1 1 1 2 1 2 1 2-2h1l2-1h1l1 1 1 2 2 3-1 1-1 2h2v2l2 2h1l1 1h4l1-2h1l2-1 1 3 1-1 3-1-1-4 2-2v-2l4-6 1-4 1-2 3 1 2-1 1-2 4-3 2-1 5-3 3-1 1 1h7l2-2 8-1 5-1v-4l3-4v-15z" fill="#f2f2f2" fill-rule="evenodd"/>
    <path id="MM" data-name="Myanmar" data-id="MM" d="M1534 436l-1-3-3 2-3-1-4-3v-5l-3-1-3-6-5 1-1-7 4-6-1-5-1-5-3-1-2-4h-3l1 3-2 1 1 4-4-1-6 4 1 4-2 5v3l-1 5-5-1 1 7-1 2 1 2-2 2v4h-2l1 5 5 5 3 1v2l5 7 2 6-1 8 4 2h3l6-4 3-4 3 6 2 8 3 7 2 4v7l3 3-2 5 1 5 2-7 3-6-3-5v-3l-1-4-4-5-2-3 2-1 1-6-3-4-4-5-3-5 2-1 1-7 4-1 3-2 3-2 1-2 4-4z" fill="#f2f2f2" fill-rule="evenodd"/>
    <path id="ME" data-name="Montenegro" data-id="ME" d="M1080 300v-1l-2-1-1-1h-1l-2-2-1 1-1 1v4l-1 1h0l2 1 2 2h1l-1-1 2-4 1 2 1-1 1-1z" fill="#f2f2f2" fill-rule="evenodd"/>
    <path id="MN" data-name="Mongolia" data-id="MN" d="M1474 252l-4-5-7-1-4-1-7-2-2 6 4 4-2 4-8-2h-5l-5-3h-5l-5-2-6 3-7 6-4 1 3 4 6 3 8 3 6 5 1 7 3 3 6 1 8 1 7 3 4 1 5 6 5 3h5l11 1h7l5 1 9 3h7l3 2 4-3 7-2h8l5-3 2-3 2-2-2-2-3-2 1-4h3l6 1 3-3 6-2 2-4 2-2 7-1 4 1v-2l-8-5-5-2-2 3-6-1h-2l-3-2v-6l-1-5h-5l-4-2h-3l-5 4-6 1-3 2-7-1h-4l-5-3-7-3-5-1-6 1-4 1-8-3z" fill="#f2f2f2" fill-rule="evenodd"/>
    <path id="MZ" data-name="Mozambique" data-id="MZ" d="M1203 641l-1-3h0l-4 4-7 2h-3l-2 2h-4l-1 1-7-2h-2l-2 6 1 8h0l2 2 2 4 1 8-3 2-2 4-3-4v-4l1-3-1-3-2-1h-1l-3-3-17 5v7h5l3 1 1 2 2 1 3 2v8l-2 4v5l1 2-1 3-1 1-2 5-6 7 2 9 1 4-1 7v3l1 3v2h4l1-3h-1l-1-3 3-2 7-4 4-2 3-2 1-3-1-1 1-3v-6h-1v-2l-1-4-2-4 1-5 2-1 4-5 2-1 7-7 6-3 6-2 3-4 3-5 2-4-1-3v-22z" fill="#f2f2f2" fill-rule="evenodd"/>
    <path id="MR" data-name="Mauritania" data-id="MR" d="M950 413l-21-15v10l-18-1v16l-5 1-1 3v10l-21-1-1 3 2 2 2 3-1 3 1 4v6l-1 6-1 3v3l2-2 3 1 3-1h3l2 1 4 2 3 5 4 4 2-1 1-4h2l3 2 4-1h2l1-1 22-1 1-4-1-1-2-27-3-28h9z" fill="#f2f2f2" fill-rule="evenodd"/>
    <path id="MW" data-name="Malawi" data-id="MW" d="M1169 662v-3l-1-2v-2l-1-5 1-4v-7l-2-4 1-1h0l-2-2-5-1 3 3 1 5-1 2-1 5 1 5-2 2-2 6 3 2 3 3 1-1 2 2 1 3-2 3 1 4 3 4 2-4 3-2-1-8-2-5-2-2h0v1l1 1 1 3v1l-2-3-1 2-1-2z" fill="#f2f2f2" fill-rule="evenodd"/>
    <path id="MY" data-name="Malaysia" data-id="MY" d="M1544 533l-5-3-1 1 1 3v4l2 4 1 5 3 4 1 4 7 5 5 4h4v-2l-2-6-2-2v-3l-1-2 1-3-1-5-3-4-3-4h-1l-2 2-4 1v-3zm99 11l-2-3 4-1v-2l-4-2-4-2-1-3-3-3h-2l-2 5-5 5v7h-2l-1 2-3-4-3 4-4 5-6 2-3 1-1 5-4 2-4-3 1 5 4 3 3-1h4l3-3h3l5 1 5-1 3-9 2-2 1-7h7l5 1 4-2z" fill="#f2f2f2" fill-rule="evenodd"/>
    <path id="NA" data-name="Namibia" data-id="NA" d="M1105 684l-10 2-13-1-4-3-22 1h-1l-4-3h-3l-4 1-2 1v5l4 6 2 4 2 8 3 5 2 3 1 3v8l1 10 1 4 1 7 2 4 4 5 3-3 2 2 1 2 2 1 4 1h2l6-4 1-23v-19h6v-23h5l8-2 2 2 4-2h1l4-1v-1l-2-1-4-1-5 2z" fill="#f2f2f2" fill-rule="evenodd"/>
    <path id="NE" data-name="Niger" data-id="NE" d="M1051 426l-9-3-18 12-16 13-8 2v15l-3 4v4l-5 1-8 1-2 2h-3l-1 3 1 3 3 4v3l7 2v4l2-2h2l4 4v-6l2-2 1-4 1-1 6-1 6 2 2 3h3l2-2 7 4 3-1 3-2h3l2-1h3l4 2 5-3h1l4 7h1v-2l2-1v-3h-4v-4l-2-2 2-9 7-6v-8l2-13 1-2-2-3v-2l-2-1-2-10-4 2-3-3z" fill="#f2f2f2" fill-rule="evenodd"/>
    <path id="NG" data-name="Nigeria" data-id="NG" d="M1056 493h-1l-4-7h-1l-5 3-4-2h-3l-2 1h-3l-3 2-3 1-7-4-2 2h-3l-2-3-6-2-6 1-1 1-1 4-2 2v8l1 4-1 2v2l-2 4-2 2-1 4v14h9l4 5 2 4 3 4h4l3-1h2l5-2 2-5 3-6h1l3-4h3l3 3 4-2v-3l1-2 1-4 3-2 1-5 1-1 1-4 2-4 4-5 1-2v-1l-2-2z" fill="#f2f2f2" fill-rule="evenodd"/>
    <path id="NI" data-name="Nicaragua" data-id="NI" d="M514 477h-2l-1 1h-3l-1 1h-1l-1-1h-1l-1 2h0l-1 1-2 2h-1v1l-2-1-1 2h-3v3h-1l-1 1-1 1h-1l-1-1v1l2 3 2 2 1 2 3 3 2 2 1-1 3 2 2-1h1l1 1 2 1 1-1-1-2v-1l1-2v-2l1-2 1-1v-7l1-3 1-2v-4h1z" fill="#f2f2f2" fill-rule="evenodd"/>
    <path id="NL" data-name="Netherlands" data-id="NL" d="M1006 244h2l1-2 2-6-1-2h-4l-7 2-4 9-2 2h0l3 1 5-2 3 3 3 1-1-6z" fill="#f2f2f2" fill-rule="evenodd"/>
    <path id="NO" data-name="Norway" data-id="NO" d="M1089 133l-7 1h-7l-6 4h-6l-9 2-10 7-6 4-9 11-7 8-8 5-11 5-4 4 2 13 1 7 7 3 6-2 8-7 4 4 1-3 4-4 1-7-3-3-1-8 2-5h4l2-2-2-2 5-8 4-6 2-4h4l1-3 8 1v-4h2l2-1 5 3 6-1 4 2 4-3 1-4 6-2 5 3-1 3h4l6-2h0l-5-4 4-1-13-4zm-23-33l-5-1-2-2-7 1 2 2-2 1 7 1 7-2zm-25-9l-5-1h-5l-1 2h-5l-2-2-10 2 4 3 7 4 6 1-3 2 8 3h5l1-4 3-1 1-3 8-2-12-4zm24-3l-9-1-3 2-6-1-10 1 4 2h5l1 1 11 1 10-1 4-2-7-2z" fill="#f2f2f2" fill-rule="evenodd"/>
    <path id="NP" data-name="Nepal" data-id="NP" d="M1455 395l-6-1-7-1-5-3-4-1-3-3-3-1-6-4-5-2-2 1-3 3-1 6 6 2 6 3 8 4 7 1 4 3 4 1 7 1h5v-2l-2-5v-2z" fill="#f2f2f2" fill-rule="evenodd"/>
    <path id="NZ" data-name="New Zealand" data-id="NZ" d="M1869 833v-3l-5 3-4 3-3 2-6 5-5 3-7 3-6 3-4 1-12 6-6 4-1 3h5l2 2h4l4-2 6-2 8-7 5-4 6-2h4l1-3 5-2 7-5 4-3 2-2v-3l-5 2 1-2zm28-31l2-5-3-2-1-4-2 1v4l1 6v4l-1 4-2 4-5 5-5 3-2 2 4 3-1 3-7 5 2 1-1 2 6-3 6-4 5-4 1-1 2-2 3-2h3l4-4 6-6-3-1-4 3h-3l-3-3 2-5-1-1-3 4v-7z" fill="#f2f2f2" fill-rule="evenodd"/>
    <path id="OM" data-name="Oman" data-id="OM" d="M1301 438l2-2 1-2 1-4v-1l-2-1-1-2-3-4-4-1-4-1-3-2-3-4h-3v4l1 1-2 1v2l-1 3v3l3 4-3 13-16 6 5 11 3 4h2l4-2h3l2-1v-3l2-2h3l2-1v-3l3-2h3v-1l-1-4 1-4 1-1h2l2-4zm-17-31l1-2-1-1-1 2 1 3v-2z" fill="#f2f2f2" fill-rule="evenodd"/>
    <path id="PK" data-name="Pakistan" data-id="PK" d="M1388 346l-9-2-3-5-5-3h-3l-2 2h-6l-5 2-2 2 1 3 2 4-2 2 1 3-1 2h-5l3 4-3 2-2 3 1 4-1 2-3-1-4 1v2h-4l-2 4 1 5-7 3-4-1-1 2-3-1-5 1-10-4 3 4 3 4 6 2 1 6 3 1v3l-7 3-1 8 7-1h9l10-2 5 5 2 5 4 1 4-4h12l-2-5-4-4-1-4-4-3 5-7 6 1 5-7 2-7 4-6-1-4 4-4-5-3-3-4-3-6 1-3 9 2 6-1 3-6z" fill="#f2f2f2" fill-rule="evenodd"/>
    <path id="PA" data-name="Panama" data-id="PA" d="M544 517l-2-2-2-2-3-1h-3v-1h-3l-2 2-3 1-3 2h-2l-2-1h0-3l1-1-2-3-3 1v2l1 1v2l-1 2v2l1-2h2l2 1 2 1 1 2 2 1v-2l1 4h3l1-1 1-1-2-3v-2h2l2-1 1-3h3l2 2 1 2h2l-2 2 1 3 2 2 1-3 2 1 1-2-1-4v-1z" fill="#f2f2f2" fill-rule="evenodd"/>
    <path id="PE" data-name="Peru" data-id="PE" d="M584 600l-3-4h-1l3-6-4-3h-4l-2-1-3 2-4-1-3-7-3-1-2-3-3-3h-2l1 5-2 4-6 7-7 2-3 6-1 4-3 3-2-3-3-1h-2v-2l1-1v-3l-5 4-1 4 3 6-2 3 4 3 5 4 2 5 2 3 6 12 6 12 6 8-1 2 3 5 4 4 11 7 11 7 1 2 6 4 3-2 1-3 3-7-3-5 1-2-1-3 2-3-1-5v-5l1-2-5-10-3 1-3-1v-9l-4 3h-5l-2-3-4-1 1-2-3-4-3-6 2-1-1-3 4-2-1-3 1-2 1-3 6-5 4-1 1-1 5 1z" fill="#f2f2f2" fill-rule="evenodd"/>
    <path id="PH" data-name="Philippines" data-id="PH" d="M1685 519l-1-3-1-3-5-3 1 5h-4v3l-5 2-2-3-3 2-3 2-2 5 1 2 4-3h3l1-3 4 3-1 3 1 5 7 4 2-3-2-5 2-3 3 6 1-6-1-3v-4zm-15-12v-6l-4 6 1-4h-3v4l-1 2-1 1 3 5 2-2 1-4 2-2zm-30 6l3-5 3-3-1-5-3 6-3 5-4 4-2 4 7-6zm17-17l2 4v6l3-2 3-3v-2h-4l-4-2zm20-1l-1-3h-6l4 5 1 3-4-1 1 4h2l1 5 2-2-1-4-1-2 5 2-3-7zm-22-6l-3-2-5-1 4 5 3 4 1-6zm-7-35h-3l-1 6 1 10-3-2 2 6 1 3 3 4v-3l2 2-1 1v3l3 1 5-1 4 4 1-2 2 3 5 3v-3l-2-1v-4l-7-3-2 1-3-1-2-5v-5l3-2v-6l-2-4v-3l-1-1-1 1-4-2z" fill="#f2f2f2" fill-rule="evenodd"/>
    <path id="PG" data-name="Papua New Guinea" data-id="PG" d="M1851 616l1-2-3-2-2-4-2-2v-2l-1 1 1 5 2 4 2 2h2zm-21-9l2-4v-3l-1-1h-3v3l-3 3-2 2h-3l-1-3h-1v3l-4 1-5-1v2l3 2 4 1h3l3-1 4-2 1-1 3-1zm-28 12l-1-4 5-1-1-3-9-4-1-4-3-3-3-3-11-4-9-4-1 20-2 21h6l3 2 5-3-1-4 4-2 5-2 7 3 2 5 3 4 4 4 6 1h4l2 2h3l1-2-5-3 1-1-4-1 1-3h-4l-3-7-4-4zm34-18v-3l-2-3-2-2-2-2-2-1-3-2-2 2 4 2 3 2 3 2 1 3 1 4 1-2z" fill="#f2f2f2" fill-rule="evenodd"/>
    <path id="PL" data-name="Poland" data-id="PL" d="M1069 228h-4l-1-1-4-1-6 2-7 3-3 1 1 3-1 2 2 2 1 3v3l2 3 3 2 4 1-1 2 3 1 1-2 3 1 1 2h3l3 3v1l2-1 3 2 3-1h6l4 2h2l-2-3 4-5h2v-2l-3-5v-3l-2-3 3-1-1-3-1-2-1-3-1-2h-12l-6-1z" fill="#f2f2f2" fill-rule="evenodd"/>
    <path id="KP" data-name="Dem. Rep. Korea" data-id="KP" d="M1645 302h0l-6-3v3l-6 3 3 3h-5l-3-2-1 4-4 4-2 4 3 1 3 1 1 1 1 4 1 1h-1v3l2 1 1 1 1 1h1v-2l3 2v-1h3l1-3h5v-2l-4-3-3-1h0l-1-3 1-2 3-1 1-2 1-1 2-1-3-5v-2l1-2h2l-1-1z" fill="#f2f2f2" fill-rule="evenodd"/>
    <path id="PT" data-name="Portugal" data-id="PT" d="M938 336l-1-2 2-3 1-1-2-2 2-5-2-3 2-1v-3l1-1v-5l3-1-1-3-3-1-1 1h-3l-2-3-2 1-2 1 1 3v2l1 3-2 3v3l-2 2-1 4 1 3h3v4l-1 5h3l2 1 3-2z" fill="#f2f2f2" fill-rule="evenodd"/>
    <path id="PY" data-name="Paraguay" data-id="PY" d="M656 701l-1-2-5-4h-5l-10 2-2 6 1 3-2 8 11 10 5 1 7 5 6 2 1 3-4 10 6 2 6 1 4-2 4-4 1-6v-4l1-4-1-3-2-1-2 1h-2l-1-3-1-6-1-2-4-1-2 1-6-1v-9l-2-3z" fill="#f2f2f2" fill-rule="evenodd"/>
    <path id="PS" data-name="Palestine" data-id="PS" d="M1167 366l-2-1-1 5h2l-2 1v2l3-1v-6z" fill="#f2f2f2" fill-rule="evenodd"/>
    <path id="QA" data-name="Qatar" data-id="QA" d="M1258 416l1-4-1-4-2-2-1 1-1 3 1 5 1 1 2-1z" fill="#f2f2f2" fill-rule="evenodd"/>
    <path id="RO" data-name="Romania" data-id="RO" d="M1108 266h-2l-1 2h-4l-1 1-3-1h-3l-3-1-2 1-3 2-2 4-2 4-4 1 3 3 1 2 3 1v3l4 2 1-2 1 1-1 1 1 1 2 3 2-1 4 1h8l2-1 6-2 4 3h3v-7h2l2-1v-1l-3-2-2 1-3-1-1-2v-6l-4-4-2-2-1-2-2-1z" fill="#f2f2f2" fill-rule="evenodd"/>
    <path id="RU" data-name="Russia" data-id="RU" d="M1332 95l-4-4-14-4-9-2-6 1-6 3 6 1 7 3 8 1 11 2 7-1zm-178-7v-1l-5-1-3 1-1 1-2-1h-5l-6 1h7l-1 1 5 1 3-1h1l2-1h5zm200 10l-1-2-13-3h-3l-2 1 1 6 18-2zm15 6l-9-1 3-1-8-1-6 1-1 3 2 2-7-1-6 3-4-1-9 1v1h-9l-5 3h-4l-1 3 5 3-8 1-9-1-6 2 5 5 7 4-10-3-8 1-5 2 5 3-5-1-2-5-4-2h-2l3 3-4 4 8 4v5l3 3 5 1v3l5 3-2 3v3l-3 1-1 2-5-1 3-8v-3l-7-3-4-8-3-3-4-2 1-4-3-3-11-2-2 1v5l-4 5 1 2 5 4v2l5 1 1 1 6 3-1 3-19-7-6-1-13-2-1 2 5 3-2 4-7-4-5 3h-7l-2 2-6-1 3-3-3-1-13 5-7 3v3l-6 1-4-2-1-3h5l-4-3-12-2 4 3v4l4 3-1 4-4-2-4-1-8 6 4 4-3 1-12-3-2 2 3 2 1 3-4-1-6-2-2-6-1-2-8-4 3-1 20 4 6-1 4-3-2-4-4-3-17-6-12-1-7-3-4 2h0l-6 2h-4l1 4 7 4-3 4 7 6-2 5 5 4-1 4 7 4-1 3-3 3-8 7h0l5 3-4 3h0l1 1-3 4 3 5-2 2 3 1 1 3 2 4 5 1 1 2 2-1 5 1 1 3-1 2 4 4 2 1v1l4 1 1 2-1 1h-5l1 2 2 4h0l2 1 1-2h7l3 3-1 2 1 2h4l2 2 1 2 6 2 4-1 3 3h3l8 2v2l-1 3 2 3-1 2-4 1-3 1 1 3 4-1v2l-6 2 3 3-3 5-4 1 5 3 6 3 8 5v-1l5 1 8 1 7 3 1 1 3-1 5 2 2 2 4 2h1l5 4h2v-2l3-2h0l-7-7-1-4-6-6 4-7 5-1 1-3-3-1v-4l-4-4h-4l-5-4 2-5-2-1 2-7 6 4-1-5 8-6h8l12 4 6 2 5-2h7l8 3v-2h7v-3l-9-4 4-3-2-1 4-2-5-4 1-2 17-2 2-2 11-2 3-3 9 2 4 6 4-1 7 2 2 3h4l9-6-1 2 9 4 18 16 1-3 8 3 6-1 4 1 4 3 4 2 3 2 6-1 4 4h2l5-1 6-6 6-3 5 2h5l5 3h5l8 2 2-4-4-4 2-6 7 2 4 1 7 1 4 5 8 3 4-1 6-1 5 1 7 3 5 3h4l7 1 3-2 6-1 5-4h3l4 2h5l8 2 4-4-2-2v-7l1-2-2-3-4-2 2-3 5-1h6l9 2 5 2 8 6 4 3 4 4 6 6 10 2 9 4 6 6h8l2-3 7-1 2 5-1 3 3 6 1 6-7-1-3 2 5 6 3 7h-2l2 3h0l1 1h0v-2l4-4 5 3h3l4-4 1-4 3-7 1-7-1-4 1-9-5-10-6-7-1-7-5-5-12-6-6-1v3l-6-1-6-4-8-1 5-14 4-11 13-2 15 1 2-3 8 1 4 4h7l8-2-7-3v-10l9-2 12 7 3-6-3-5 5-1 6 9-2 4-1 6v8l-5 1 3 3-1 3 7 9 16 13 10 9 6 4 2-6-5-6 6-1-6-7 5-3-4-3-4-5h4l-9-9-6-1-3-3-1-5-3-4 7 1 1-3 5 2 6-4 11 4-2-3 2-3 2-4 3-1 7-4 9 1-1-2-3-2-4-2-10-4-8-3h6l2-2h0l-32-22-10-2-16-3h-7l-16-1 2 2 9 4-3 1-14-4h-7l-9-1h-7l-4 1-7-1-5-4-7-2-9-1-15 1-16-4-8-3-40-4-2 3 10 4h-8l-1 1-10-1-5 1-9-2 3 5-9-2-10-4v-2l-6-4-10-2h-6l-9-1 4 4-17-1-4-2-13-1-5 1-1 1-5-3-3 1-7-1-5-1 1-2 6-3 3-1-3-2-5-2-12-3h-11l-2 1-4-2zm-162 32l-10-5-3-4 3-5 3-5 9-5 10-2 11-2 1-2-4-2-7 1-5 2h-11l-10 4-7 2 2 2-6 5 4 1-6 4 2 3-4 1 2 3 8 1 2 2 14 1h2zm314-25l-18-3h-10l-3 1 3 3 12 4 5-2 14 1-3-4zm25 2l-11-1-9-1 2 2 10 2h7l1-2zm-12 10l-3-2-8-2-4 1-1 2h1l9 1h6zm162 12l-6-4-1 3 3 1h4zm-612 94l-1-2 1-1-3-1-5-1-6 2-1 2 6 1h9zm590 22l-7-6-6-6-6-6-5-4-2 1 5 2-2 3 7 8 8 6 6 9 2 4 6 7 4 6 4 5v-4l7 3-3-4-10-6-4-9 9 2-13-11z" fill="#f2f2f2" fill-rule="evenodd"/>
    <path id="RW" data-name="Rwanda" data-id="RW" d="M1148 579l-4 2h-1l-2 1v4l-1 1v3l3 1 2-4h5v-4l-2-4z" fill="#f2f2f2" fill-rule="evenodd"/>
    <path id="EH" data-name="W. Sahara" data-id="EH" d="M930 396h-1 0v4h-3l-2 1h-3l-2-1-4 1-2 5h-2l-3 9-7 6-2 9-3 3v2l-13 1h0v3l1-3h22l-1-9 1-3h5v-17h18l1-9v-2z" fill="#f2f2f2" fill-rule="evenodd"/>
    <path id="SA" data-name="Saudi Arabia" data-id="SA" d="M1229 387h-10l-17-13-9-5-6-1-1 1-11 3 6 6-1 1-1 2-4 1-1 2-2 2-6-1-1 3v6h2l3 4 4 5 3 5 1 1 2 4v1l2 4 3 1 3 3 3 7v3l1 5 4 6 3 1 4 4 2 5 3 6 3 2 1 3 1 1 1 3 3-2-1-3 1-3 2 2 2-1h6l1 1h8l2 2 2-1 4-6 5-3 15-3 16-6 3-13-3-4-1 1-17-3-2-7-1-1-1-2h-2l-1-1-1-2-1-2-2-2-1-2v-5l-4-2-1-3-3-1-3-5h-4l-1-3-5-1z" fill="#f2f2f2" fill-rule="evenodd"/>
    <path id="SD" data-name="Sudan" data-id="SD" d="M1181 469v-5l2-2 4-1 2-3-3-3-2-1-2-8-2-6 2-2-3-6h-65l1 13h-7v3l2 25-5-1-3 5-1 4 1 1-2 2 1 3-1 3-1 2h2l1 2v4l2 2v1l1 3 3 4v7l2 2h2l2-2 1-5 2-3 4-1 1 2 3 3 1 1 2-1h4l1 1h6v-1l3-1v-2l2-1 5 3h3l3-5 3-3-1-4-1-2h3v-2l3 1v9l3 2 1 3v3h1v-1l1-7 3-1v-3l3-5 3-3 2-6 1-6-1-2 2-10z" fill="#f2f2f2" fill-rule="evenodd"/>
    <path id="SS" data-name="S. Sudan" data-id="SS" d="M1166 509l-1-3-3-2v-9l-3-1v2h-3l1 2 1 4-3 3-3 5h-3l-5-3-2 1v2l-3 1v1h-6l-1-1h-4l-2 1-1-1-3-3-1-2-4 1-2 3-1 5-2 2h-1l3 3 3 2v2l4 4 3 3 1 3 4 3 1 2 4 5 2 1 2-1h2l3-1 2 3 5 4h0l2-2 4 2 4-2h4l4-3 3-4 4-4-4-7-2-1-1-3-3-3h-4l2-4h3l1-2v-5h-1v-3z" fill="#f2f2f2" fill-rule="evenodd"/>
    <path id="SN" data-name="Senegal" data-id="SN" d="M909 479l-4-4-3-5-4-2-2-1h-3l-3 1h-3l-2 2-1 3-3 4-2 1 2 3 2 5 7-1 1-1h2l2 1h2l1-1 1 2-2 2h-2l-3-2-2 2h-1l-1 1-5-1 1 5 3-1h16l4 2h1l1-1h3l1-2-1-2-2-2-1-4v-4z" fill="#f2f2f2" fill-rule="evenodd"/>
    <path id="SL" data-name="Sierra Leone" data-id="SL" d="M919 519h-1v-2l-1-2v-2l-1-2-1-3h-5l-1 1-2 1-1 1v2l-3 3v4l1 3 3 3 4 3h2l1-2v-2l3-3 2-3z" fill="#f2f2f2" fill-rule="evenodd"/>
    <path id="SV" data-name="El Salvador" data-id="SV" d="M487 487l1-2-1-1-1-1-2 1-1-1-1-1-1-1-2-1-1 1v1h-1l-2 2v1l1 1 3 1 2 1h2l3 1 1-2z" fill="#f2f2f2" fill-rule="evenodd"/>
    <path id="RS" data-name="Serbia" data-id="RS" d="M1085 285l-3-1-1-2-3-3h-3l-4 2h0l1 2 2 2-2 2h2l-1 3 3 2-1 3h-1l2 2h1l1 1 2 1v1l1-1 1-2h1v1h1l1 1 1 1 1 1h1l-1 1v1h4l1-1-1-1 1-2 2-2-3-2-1-3 1-1-1-1 1-1-1-1-1 2-4-2v-3z" fill="#f2f2f2" fill-rule="evenodd"/>
    <path id="SR" data-name="Suriname" data-id="SR" d="M668 534h-5v1l-7-1-1 6-3 1v2l-1 3 2 5h2l1 4 3 5 3 1 1-2-1-1v-2l2 1 3-1 3 2 2-3v-3l1-3-2-4v-4l3-5-6-2z" fill="#f2f2f2" fill-rule="evenodd"/>
    <path id="SK" data-name="Slovakia" data-id="SK" d="M1087 261l-4-2h-6l-3 1-3-2-2 1v-1h-2v1l-1 1v1h-1v1l-2 1h-2l-1 1v1l1 2 2 2h2l4-1 1-1h1l3-1h2l2-2h1l6 2 1-1v-2l1-2z" fill="#f2f2f2" fill-rule="evenodd"/>
    <path id="SI" data-name="Slovenia" data-id="SI" d="M1059 277l-1-2h-1v1h-5l-2 1h-4l-1 3 2 3h-1 3l1-1 2 1h2v-1l1-1 1-2 3-2z" fill="#f2f2f2" fill-rule="evenodd"/>
    <path id="SE" data-name="Sweden" data-id="SE" d="M1078 161l-2-2-2-8-7-4-6-3h-3v4l-7-1-1 3h-4l-2 4-4 6-5 8 1 2-1 2h-4l-2 5 1 8 3 3-1 7-4 4-1 3 4 8 4 7 2 6 6-1 2-4h5l2-5 1-10 5-2 3-6-5-3-3-4 2-9 7-4 6-5-1-3 4-4 7-2z" fill="#f2f2f2" fill-rule="evenodd"/>
    <path id="SZ" data-name="Swaziland" data-id="SZ" d="M1151 737l-3-2-2 1v2l-2 2v2l3 4 3-1 1-3v-5z" fill="#f2f2f2" fill-rule="evenodd"/>
    <path id="SY" data-name="Syria" data-id="SY" d="M1184 360l11-7v-8l-1-4 3-2 2-4-6 1h-3l-5 2h-5l-3-1-5 2-2-1v3l-1 2-1 1-1 3 1 5h2l1 3-2 2-1 4v2l-1 1h1l6 3 9-7z" fill="#f2f2f2" fill-rule="evenodd"/>
    <path id="TD" data-name="Chad" data-id="TD" d="M1108 448l-22-13-22-12-6 4 2 10 2 1v2l2 3-1 2-2 13v8l-7 6-2 9 2 2 1 4h3v3l2 4v9l3 6h-5l-2-1-1 3 3 4 3 1v3l2 4-1 2h5l1-2h1l1 1 7-2 3-2 3-3-1-2 2-1 5 1 5-3 4-7 3-3 4-1v-1l-3-2v-4l-1-2h-2l1-2 1-3-1-3 2-1-1-2 1-4 3-5 5 1-2-25z" fill="#f2f2f2" fill-rule="evenodd"/>
    <path id="TG" data-name="Togo" data-id="TG" d="M982 502h-5l-1 2 3 3v10l2 2-1 6v3l1 4 2 2 4-1-1-4v-15l-1-1v-3l-2-3-2-1 1-4z" fill="#f2f2f2" fill-rule="evenodd"/>
    <path id="TH" data-name="Thailand" data-id="TH" d="M1563 481l1-3v-5l-5-5-2-7-5-5h-4l-1 2h-3l-2-1-5 4-1-6v-7h-3l-1-4-3-2-3 2-3 3h-4l-1 7-2 1 3 5 4 5 3 4-1 6-2 1 2 3 4 5 1 4v3l3 6-3 5-2 7-1 6v4l1 4v-4l3 3 4 3 1 4 2 2 1-1 5 3v3l4-1 2-2-3-4h-4l-3-4-2-6-2-5-4-1-1-4 2-6 2-9v-7h5l-1 5h5l5 3-2-8 3-5 7-2 6 1z" fill="#f2f2f2" fill-rule="evenodd"/>
    <path id="TJ" data-name="Tajikistan" data-id="TJ" d="M1344 316h-2l-1-2v-3l-6 2-1 4-1 3h-5l-1 3 5 1 2 5-1 7h2l3-2 2 2 1-3h3l1-1v-3l1-2 3 1v2l2 1 1 5 3 2 1-1 2-1 3-3 3 1h6l-2-4-1-2-3-2-2 1-3-6-9 1-7-2h-6v-3l6 1 1-2z" fill="#f2f2f2" fill-rule="evenodd"/>
    <path id="TM" data-name="Turkmenistan" data-id="TM" d="M1326 334l-1-4-8-3-6-3-4-3-7-4-5-6-2-2-5 1-2-2-2-5-8-3-3 4-4 2 1 3h-8l-5-4-4-2-5 1-2 2 3 4-1-4 4-2 2 4 5 3-4 2-6-1 1 5h3v5l4 2 1 7 2 4 4-1 3-4 4 1 2-2 3 1 7 3 4 1 8 6h3l2 5 6 3 4-1v-3l4-1 3-2v-5l4-1v-3l3 2h2z" fill="#f2f2f2" fill-rule="evenodd"/>
    <path id="TL" data-name="Timor-Leste" data-id="TL" d="M1677 632l5-2 6-3 2-1-2-1-2 1h-4l-5 1-1 2 1 1v2z" fill="#f2f2f2" fill-rule="evenodd"/>
    <path id="TN" data-name="Tunisia" data-id="TN" d="M1038 361l-2-1-1-3h-3l-1-3 3-3 1-6-2-2v-3l2-3v-1l-5 2v-3l-3-1-6 3-1 3 1 6-1 6-3 3v5l5 4v1l3 3 3 11 2-1 1-3-1-2 4-3 1-2 3-2v-5z" fill="#f2f2f2" fill-rule="evenodd"/>
    <path id="TR" data-name="Turkey" data-id="TR" d="M1167 309l-10-5-9 1-5 1-6 4h-10l-1 4-8 1-5 6 3 3-2 5 4 3 4 7h6l5 3 4-1 1-2h5l5 3h8l3-4 5 1h3l-2 2 3 3 1-1 1-2v-3l2 1 5-2 3 1h5l5-2h3l6-1 2-1 6 1 2 1 3-1h0l-4-5 1-2-3-7 3-2-2-2-5-1v-3l-1-3-5-3-6 1-5 3-5-1-6 1-7-2zm-50 4l2-2h6l1-2-5-2-1-2-4-1-5 2 2 2-1 3-1 1v1l2 3 4-3z" fill="#f2f2f2" fill-rule="evenodd"/>
    <path id="TW" data-name="Taiwan" data-id="TW" d="M1642 427l1-10 1-4-3-2-4 5-2 6 2 5 4 5 1-5z" fill="#f2f2f2" fill-rule="evenodd"/>
    <path id="TZ" data-name="Tanzania" data-id="TZ" d="M1150 579h-2l2 4-1 4-1 1h0v2l1 2v2l-1 1-2 3-2 2-1 1v2l1 1v3l1 2-2 3 5 4v4l3 7h0l2 1 4 1 3 2 5 1 2 2h0v-1l3 3v7l2 2h2l7 2 1-1h4l2-2h3l7-2 4-4h0l-2-2-2-6-2-4 1-3-1-2 2-4v-1l-4-3v-3l3-8-8-6-1-4-20-13h0l-3 3-2 3 3 2-4 1h0-3l-3 1-2-2 2-4v-4h0-6z" fill="#f2f2f2" fill-rule="evenodd"/>
    <path id="UG" data-name="Uganda" data-id="UG" d="M1168 545l-4 3h-4l-4 2-4-2-2 2h0v7l2 1-2 2-2 2-2 3-1 3-1 5-1 3v5h1l4-2h8v-3l2-3 4-1 2-2 3 1v1h0l2-3 3-4 2-5-3-7-1-3-2-5z" fill="#f2f2f2" fill-rule="evenodd"/>
    <path id="UA" data-name="Ukraine" data-id="UA" d="M1139 241l-5 1-2-1-1 2-2-1h0l-4 1-1 1v3h-6l-1-2-2 2-2-1h-4l-5-2h-9l-3 1-2 1 3 5v2h-2l-4 6 2 2h-2l-1 2v2l3 2v1l2-1 3 1h3l3 1 1-1h4l1-2h2l1-1h3l4 2h2l3 2v2l2 1 1 2 2 2v1l1 1h-5v-1h-1v2l-1 2v2h-1l2 1 2-1 3 2 3-5 1-3 5-1v2l8 2 2 1-4 2-1 1 6 2-1 3 3 1 6-3 6-1v-3l-5 1-3-2-1-4 4-2h5l3-2 4-1-1-2 3-2 4-1 1-2-2-3 1-3v-2l-8-2h-3l-3-3-4 1-6-2-1-1-2-3h-4l-1-2 1-2-3-3z" fill="#f2f2f2" fill-rule="evenodd"/>
    <path id="UY" data-name="Uruguay" data-id="UY" d="M693 787l-3-4 2-3-4-4-4-3-6-5-2 1-7-5h-3v6l-1 6 1 6-1 2 1 4 4 3h3l6 3 2-1 5 2 5-4 2-4z" fill="#f2f2f2" fill-rule="evenodd"/>
    <path id="US" data-name="United States" data-id="US" d="M117 451l2-1 2-2h0v-2l-1-1-1-1-2-1h0l-1 1v1l-1 1v3l-1 2 2 1 1-1zm-1-10l1-1-1-1h-3 0l1 1v1h2zm-3-4h-2l-1 1h3v-1zm-5 0l-1-3h0l-2 1h0l1 2h2zm-8-5v-1h-2v1l1 1 1-1zm412-173h-1l-2 3H373l-1 5-3 5-2 1 1-6-6-2-1 2v2l-2 6-4 8-4 6-4 5-6 6-1 5-3 5-4 5 1 4-1 5 1 5 1 3v10l2 7v3l1 1 4 1 2 1 2 1v2h2l3 4-1 3h7l7-1-1 1 7 3 10 5h15l1-3h9l2 2 2 2 2 3 1 3v4l3 2 4 2 4-5h5l3 2 2 5 1 3 2 4v4l1 3 4 2 3 2h3l-1-3v-3l1-4 2-3 4-3 6-3 6-4 5-2h3l4 1 5-1 3 4h4l2-1 2 1 1-1-1-2 1-2v-2l2-1h4l5 1 6-1 3 1 2 3 1 1 6-3 2 1 3 5 1 3-2 5v2l2 5 2 6 2 1v3l3 1 1-1 2-4 1-3 1-4-1-7v-3l-1-5-1-5v-4l2-5 3-4 4-3 7-4 1-2 4-2 2-1 5-3 6-2 4-5 1-7v-2h-1l1-6-3-3 4 1v-4l2-2-1 5 2 2-3 5h0l4-5 3-3v-3l-1-4 2 2h1v2l5-5 2-4-1-1 2-2v1h3l8-2-1-1-8 1 5-1 3-1h2l4-1h3l3-1 1-2-1-1v2h-2l-1-3 1-4 2-1 4-4 6-1 6-3 6-3v-2l-2-3 2-9-1-1-4 1-1-2-5 5-4 5-2 2-3 1-1 1-1 1h-17l-3 1-7 5v3l-5 2-4-1h-4l-2 1-1 2h0l-6 4-4 2-3 1-4 1-4 1h-2l-3-1 3-3h0l2-2 4-3h0v-3l1-3-2-1-4 3h-1v-2l4-2 2-3v-3l-2-2-4-2-2 3h-1l-2 3v-2l-3 2-2 2-2 3-2 3 1 3-2 4-4 3-1 1-2 1h-2v-4l1-1 1-2v-3l3-3 3-5 4-4h0l-6 4v-1l3-2 4-4 4-1 4-1 4 1h0l5-1-2-2h0l-1-1h0-1l-1-2-5 1-5 1-2-2-3-1 3-3-5 2-5 2-4 1-2-2-6 2v-1l5-3 5-2 6-2h0l-6-2-4 1-4-2-4-1-4-1-1-1 1-3zm-240-47l7-3v-1l-3-1-4 1-6 2-2 3 1 2 7-3zm-39-16l2-2-3-1-5 1v2l2 1 4-1zm1-22l-3 2h5v1l2 1 5-1 1-1h-4l-1-2-4 1-1-1zm125-41l-4-1-11 3h-3l-11 2-5 1-7 2-5 3-9 2h-7l-7 3 3 2 1 2-1 3 3 2-2 4h-9l5-3h-4l-13 3-9 2 1 3-1 2 4 2 7-1 2 1 3-1 6-1h3l-6 2 1 1-3 3-5 1h-3l-7 3-1-1h-5l-5 3-7 3-6 4v2l-4 3 1 2 1 2 7-1 1 2-4 3-3 3h2l8-2-2 3 4-2-1 3 5-3v1l8-1-7 3-5 5-6 2-2 1-11 3-4 3-7 1-8 3-7 2-8 2-1 1 10-1 6-2 7-2 6-2 3 1 8-3 5-3 10-3 4-3 7-1 7-3 9-4v-3l11-4 8-4 9-3-1 1-6 2-9 6-3 3 7-1 6-2 6-1 3-1 4-4 6-1 3 3 6 2h6l6 2 3 1 3 6 4 2h11l-2 6 1 5-3 5 3 2v2h0l5-3 3-4-4-3 1-7 1-4-1-3-1-2v-3l-6 1-8 4v-7l-3-1h-4l35-33 24-20h0l-3-1-4-1h-9l-7-1-6-1h-5l-5-1 2-1h-6l-3 1v-3z" fill="#f2f2f2" fill-rule="evenodd"/>
    <path id="UZ" data-name="Uzbekistan" data-id="UZ" d="M1340 303l-3 1-5 5-1 4h-2l-2-3h-7l-2-5h-3l-1-6-8-5-9 1-5 1-7-6-5-2-9-5h-1l-12 3 7 23h5l-1-3 4-2 3-4 8 3 2 5 2 2 5-1 2 1 5 7 7 4 4 3 6 3 8 3 1 4h3l4 2 1-7-2-5-4-1v-3h4l2-3 1-4 6-2v3l1 2h6l5-4-7-4-3 2-5-2 4-4-2-1z" fill="#f2f2f2" fill-rule="evenodd"/>
    <path id="VE" data-name="Venezuela" data-id="VE" d="M642 519l-2-2-3 1-1-5-4-4h-4l-2-3 5-2h-7l-7 1v1l-3 2-5-1-3-3-6 1h-5v-2l-3-4h-4l-2-4-2 2 1 3-7 2v5l1 2-1 5h-3l-2-5 3-3v-4l-1-3h3v-2l-3 1-2 4-2 1-2 3-1 4-2 4h3l1 3 1 2v2l-1 3 1 1h1l1 3 7-1 4 1 3 5h7l3-1 2 1-1 4-2 2v4l1 5 1 2 1 1-3 3 2 2 1 2 2 6 3 4 4-1 1-2 5-1 2-1 1-3 4-2-1-1-4-1-1-4v-4l-2-2h1l4 1 4 1 2-1 4-1 6-3 3-2-1-2-4-5 2-2v-2l3-1 2-2-2-2v-2l5-4z" fill="#f2f2f2" fill-rule="evenodd"/>
    <path id="VN" data-name="Vietnam" data-id="VN" d="M1572 435l-6-2-3-2v-4l-5-1-3-2-4 3-6 1h-4l-3 1 4 5 4 6h7l3 6-4 1-1 3 7 3 6 8 4 5 5 5 2 4v7l2 4v8l-9 5 3 3-6 1-5 2 5 4-2 4 3 4 6-6 4-5 6-4 5-4-1-11-4-12-4-5-5-4-7-8-5-7v-5l4-6 7-5z" fill="#f2f2f2" fill-rule="evenodd"/>
    <path id="VU" data-name="Vanuatu" data-id="VU" d="M1909 677l-3-4-1 2 2 3 2-1zm-2-10l-3-2-1 5 1 2 1-1 1 1 1-5z" fill="#f2f2f2" fill-rule="evenodd"/>
    <path id="YE" data-name="Yemen" data-id="YE" d="M1272 466l-3-4-5-11-15 3-5 3-4 6-2 1-2-2h-8l-1-1h-6l-1 1-3-2-1 3 1 3-3 2 1 3-1 1 1 3h-1l1 3 2 5 1 2v3l1 4h4l2-1h3l1-1 1-1 1-1 2-1h4l4-1 3-3h4l5-4 8-3 6-3v-2l1-3 4-2z" fill="#f2f2f2" fill-rule="evenodd"/>
    <path id="ZA" data-name="South Africa" data-id="ZA" d="M1148 714l-3-1-2 1-2-1h-2l-8 4-6 5-2 4-1 3h-3l-2 3v2l-4 2-4-1-3-1-2-1-3 1-1 4-3 1-3 3-4 1-1-2 1-4-3-6-1-1-2 23-4 4h-3l-4-1-2-1-1-2-2-2-3 3 4 8h0l2 6 3 6v4l-1 2 1 4v5l1-1 2 3h2l2 3h2l4-3 4-1 6-2h2l3-1 6 1 3-1 3 1 1-2h2l6-2 4-3 5-4 6-7 4-4 1-3 3-4 1-1 4-3 2-3 1-5 1-5h-4l-1 3-3 1-3-4v-2l1-2 1-2 2-1 2 2v-3l1-7-1-4-2-9zm-20 53h-2l-4-5 4-4 3-2 2-2 3 2 1 2-2 3-1 3-3 1-1 2z" fill="#f2f2f2" fill-rule="evenodd"/>
    <path id="ZM" data-name="Zambia" data-id="ZM" d="M1149 627l-2-1 1-1h-1l-8 1h-1l-2 5 1 2-1 8-1 6 2 1 4 3 1-1v7h-4l-2-4-2-3-4-1-2-3-3 2-4-1-2-3h-6l-1-2h-2l1 2-1 3 1 3-1 2 1 2h-12l-1 21 4 5 3 4 5-2 4 1 2 1v1h1l6 1h4l3-4 5-5 2-1 1-2 3-2 4-1v-5l17-5-3-2 2-5 2-3-1-5 1-5 1-2-1-5-3-3-3-2-4-1-2-1h0v1h-1l-1-1z" fill="#f2f2f2" fill-rule="evenodd"/>
    <path id="ZW" data-name="Zimbabwe" data-id="ZW" d="M1148 714l6-7 2-5 1-1 1-3-1-2v-5l2-4v-9l-3-2h-2l-1-2-3-1h-5v-2l-4 1-3 2-1 2-2 1-5 5-3 4h-4l-6-1 2 5 1 1 1 4 6 7 3 1v2l1 4 4 1 4 3h2l2 1 2-1 3 1z" fill="#f2f2f2" fill-rule="evenodd"/>
    <path id="SO" data-name="Somalia" data-id="SO" d="M1223 506l-2-3-1-3-2-1-2 4-1 2 2 3 2 3 2 3 19 7h5l-16 19-7 1-5 4h-4l-1 2-5 7v24l3 5 2-2 1-3 6-8 5-4 9-7 5-5 7-9 4-7 5-9 3-8 3-7 1-7 1-2v-9h-2l-3 2-3 1h-2l-2 1h0-3l-2 1h-3l-5 2-6 1-5 2h-3z" fill="#f2f2f2" fill-rule="evenodd"/>
    <path id="GF" data-name="French Guiana" data-id="GF" d="M681 556l2-4 4-6-1-3-6-5-4-2h-2l-3 5v4l2 4-1 3v3l-2 3 3 1 2-2h1l1 2h2l2-3z" fill="#f2f2f2" fill-rule="evenodd"/>
    <path id="FR" data-name="France" data-id="FR" d="M1026 304l-1-5-4 2-1 2 2 4 2 2 2-5zm-32-51l-2-2-2-1-1-2-4 1-2 6-11 4-5-2 2 7-8-2-7 1 1 5 7 2 4 3 5 7-1 12-3 4 2 2 9 3 2-1 6 3 6-1 1-4 7-2 10 2 4-4 1-2-3-1-1-5 1-2-1-2v-2l-2-2h-2v-2l3-4v-1h2l2-1v-4l2-5-7-1-2-1h-1l-2-1-4-3-2 1-4-3z" fill="#f2f2f2" fill-rule="evenodd"/>
    <path id="ES" data-name="Spain" data-id="ES" d="M985 326v-1 1l-1-1h0v1h1zm-1-2h1v-1h0-1 0v1h-1 1zm-17-28h-12l-6-1h-7l-6-1-7 5 2 2-1 5 2-2 2-1 2 3h3l1-1 3 1 1 3-3 1v5l-1 1v3l-2 1 2 3-2 5 2 2-1 1-2 3 1 2 4 1 2 4 2 2h2l2-2 4-2h11l4-5 4-2 1-4 3-3-2-3 2-5 3-4 1-2 6-1 5-5v-3l-6 1-6-3-2 1-9-3-2-2zm26 23v-1h0v-1h0l-1 1h-1l-2 2h1v1-1h1v1h1l1 1v-1h1v-1h0l1-1h0-1 0-1 0zm6-1h0v-1h-2 0v1h2z" fill="#f2f2f2" fill-rule="evenodd"/>
    <path id="AW" data-name="Aruba" data-id="AW" d="M587 493h0l-1-1h0v1h1z" fill="#f2f2f2" fill-rule="evenodd"/>
    <path id="AI" data-name="Anguilla" data-id="AI" d="M628 456h0-1 1z" fill="#f2f2f2" fill-rule="evenodd"/>
    <path id="AD" data-name="Andorra" data-id="AD" d="M985 302v-1h1-1 0-1 0v1h1z" fill="#f2f2f2" fill-rule="evenodd"/>
    <path id="AG" data-name="Antigua and Barb." data-id="AG" d="M634 464h1v-1h-1 0-1v1h1zm0-4h1-1 0v1-1z" fill="#f2f2f2" fill-rule="evenodd"/>
    <path id="BS" data-name="Bahamas" data-id="BS" d="M574 437h1-1 0l-1 1h0l-1-1h0l-1 1h0v1h3v-2zm1-2h0-1v1l1-1zm0-5v-1l-1 1h3-1 0-1v-1zm-6 1v-1h1l1-1v-2l-1 1h0v1h0v1h0-1l-1 1h1zm1-3l-1-1h0-1 0l1 1h1zm-4-1v-1l-1-1h0v-1l-1-1v-1h0v2h0v1h1l1 2h0zm-4-4h-1v-1h-1 0l1 1h1zm7-4h0-1v1h0l1-1zm-18-1h0-1 0-1l1 1h0v1h0v1h1l1-1h0v-1h0l-1-1v1-1h0zm13 0l-1-1h0v-2h-1 0l1 1h0v1l1 1h0-1v1h0l1-1h0zm-10-5h0-1 1zm-3 2v-1l-1-1h0v-1h-1 0v2l-1 1h0v1-1l-1 1h1l1 1v-1 1h0v1l1-1h1v-1h0v-1zm7-5h0-1 1l1 1h0l1 1h0v2h0-1 0l1 1h0v-1l1-1-1-1h0l-1-1h0l-1-1zm-9-8h0-1 0v1h0-1v-1h-1l1 1 1 1h0l1-1h3v-1h0-2 0-1zm6 5h0l1-2h1v-2h-1 0v-1h0-1v-1h0-2 0-1 3v2h1v1h0l-1 1v1h0l-1 1h1z" fill="#f2f2f2" fill-rule="evenodd"/>
    <path id="BM" data-name="Bermuda" data-id="BM" d="M630 367l1-1h0l-1 1h-1 1z" fill="#f2f2f2" fill-rule="evenodd"/>
    <path id="BB" data-name="Barbados" data-id="BB" d="M645 489v-1h0l-1-1h0v2h1z" fill="#f2f2f2" fill-rule="evenodd"/>
    <path id="KM" data-name="Comoros" data-id="KM" d="M1221 651v-1h-1 0v1h1zm4-2h0v1h-1 0l1 1h0v-2zm-6-1h1l-1-1v-2h0-1 0v2h1v1h0z" fill="#f2f2f2" fill-rule="evenodd"/>
    <path id="CV" data-name="Cape Verde" data-id="CV" d="M841 478v-1h0-1 0l1 1h0zm7-2h0v-1h0-1 0v1h1zm-2 1v-1h-1v-1h0l-1 1h0l1 1h1zm3-8h0v1h1v1-1h1v-1h-1 0-1zm-6-3h-2 0l1 1h1v-1zm7 0h0v-1h-1 0v1h0l1 1v-1zm-11-1h0-1 1zm-2-1h1v-1h0-2v1h0v1l1-1z" fill="#f2f2f2" fill-rule="evenodd"/>
    <path id="KY" data-name="Cayman Is." data-id="KY" d="M527 449h0v1h0l1-1h0-1 0zm8-2h0-1 1zm1 0v-1 1-1h0v1h-1 1z" fill="#f2f2f2" fill-rule="evenodd"/>
    <path id="DM" data-name="Dominica" data-id="DM" d="M636 475v-2h0-1 0v2h1z" fill="#f2f2f2" fill-rule="evenodd"/>
    <path id="FK" data-name="Falkland Is." data-id="FK" d="M690 903v-1h0v1h0zm6-2h0-1v1h1v-1zm-13-1h0-1l1 1h1v-1h-1 0zm3-2h-1l-1-1h0l1 1h0v1h1l-1 1h2-1v1h-1 0l-1 1h1v1h1v-1h1v-1h2v-1l1-1h0v-1h1-1v-1 1h-1 0-1 0-1 0-1zm0 0v-1h0-1 1v1h0zm6-1h0l-1 1 1 1h0v1h0-1 0l-1 1h0v1h0l1 1h1v-1l1 1v-1l-1-1h1l2 1h0v-1h-1 2l1-1h1v-1h0-1 0l1-1h-1 0-2 1v1h0l-1-1h-1 1l-1-1h0-2z" fill="#f2f2f2" fill-rule="evenodd"/>
    <path id="FO" data-name="Faeroe Is." data-id="FO" d="M947 187h0v-1h0-1 0l1 1h0zm1-2h0-1v-1h0-1v1h1zm-3-2h0-1 2-1zm3-1h-3l1 1 1 1h0v-1h0l1-1zm1 0h-1 0v1h0l1-1z" fill="#f2f2f2" fill-rule="evenodd"/>
    <path id="GD" data-name="Grenada" data-id="GD" d="M632 496l1-1v-1h0l-1 1h0v1h0z" fill="#f2f2f2" fill-rule="evenodd"/>
    <path id="HK" data-name="Hong Kong" data-id="HK" d="M1605 431h0v-1h0-1v1h1zm-1 0v-1h0-1v1h1zm1-1v-1h0-1 0-1 0v1h2z" fill="#f2f2f2" fill-rule="evenodd"/>
    <path id="KN" data-name="St. Kitts and Nevis" data-id="KN" d="M630 463h0-1 1zm-1-1h0v-1l-1 1h1v1h0z" fill="#f2f2f2" fill-rule="evenodd"/>
    <path id="LC" data-name="Saint Lucia" data-id="LC" d="M637 484v-1h0l-1 1h0v1h1v-1z" fill="#f2f2f2" fill-rule="evenodd"/>
    <path id="LI" data-name="Liechtenstein" data-id="LI" d="M1024 274v-1h1-1 0v-1h0v1h0v1h0z" fill="#f2f2f2" fill-rule="evenodd"/>
    <path id="MV" data-name="Maldives" data-id="MV" d="M1389 552h0v-1h0v1h0zm0-6h0v-1h0v1h0z" fill="#f2f2f2" fill-rule="evenodd"/>
    <path id="MT" data-name="Malta" data-id="MT" d="M1054 344h-1v-1h-1v1h2zm-2-1h0-1 1z" fill="#f2f2f2" fill-rule="evenodd"/>
    <path id="MS" data-name="Montserrat" data-id="MS" d="M632 466v-1h0l-1 1h1z" fill="#f2f2f2" fill-rule="evenodd"/>
    <path id="MU" data-name="Mauritius" data-id="MU" d="M1295 703v-1h1v-1l-1-1v-1h-1v1h0l-1 1h0v1h0v1h2z" fill="#f2f2f2" fill-rule="evenodd"/>
    <path id="NC" data-name="New Caledonia" data-id="NC" d="M1897 716h0zm5-7v-1h0-1 0v2h1v-1h0v-1zm-3-2v-1h0v-1h0v-1h0-1 0v1h-1v1h1l1 1h0zm-4-3h0l1-1h-1 0l1-1h0l-1 1h0v1h0zm-12-3l-1-1h0v1h0v1h0v1h1v2h1v1l1 1v1h0l2 1v1h1l1 1h0l1 1h1v1h1v1h3v-1l-1-1h0l-1-1h0l-1-1-1-1h-1v-1h0l-1-1h0l-1-1h0v-1h0l-1-1h0-1l-1-2-1-1h-1 0zm-22-6h0v-1h0v1h0z" fill="#f2f2f2" fill-rule="evenodd"/>
    <path id="NR" data-name="Nauru" data-id="NR" d="M1915 576v-1h0v1h0z" fill="#f2f2f2" fill-rule="evenodd"/>
    <path id="PN" data-name="Pitcairn Is." data-id="PN" d="M274 727h0z" fill="#f2f2f2" fill-rule="evenodd"/>
    <path id="PR" data-name="Puerto Rico" data-id="PR" d="M601 457h0zm13 0h1-1 0zm-3-2h0-4l-1-1h-1v1h0-1v1h1v2h6l1-1h1v-2h0-2 0z" fill="#f2f2f2" fill-rule="evenodd"/>
    <path id="PF" data-name="Fr. Polynesia" data-id="PF" d="M213 705h0v-1h0v1h0zm9-15h0-1 2zm-24-1h-1 1zm21 0l-1-1h0v1h0zm-22-1v-1h-1 0v1h1zm0-2h-1 1v-1h0-1 0v1h1zm-48-1v-1h0l-1-1-1 1h0l1 1h1l1 1h0v-1h0-1zm-3-1v-1h0v1h0zm-9-5h0-1 0v1l1-1zm43-1h1zm0 0h0-1 1zm-44 0h0zm33-2h0l-1-1h0v1h1zm16-1v-1h0v1h0zm-14-2l-1-1h0v1h1zm30-34h1-1v-1 1h0zm-2-4h0-1 0v1l1-1zm0-1h-1v1h1l1-1h0-1zm-6-2h0v-1l-1 1h1zm2-3h1-1v-1 1h0zm-3 0h1v-1h-1 0-1 0l1 1h0z" fill="#f2f2f2" fill-rule="evenodd"/>
    <path id="SG" data-name="Singapore" data-id="SG" d="M1561 564h0v-1h0-2v1h2z" fill="#f2f2f2" fill-rule="evenodd"/>
    <path id="SB" data-name="Solomon Is." data-id="SB" d="M1909 646h0-1 0l1 1v-1zm-36 1h0l-2-2h0-1v1h2v1h1zm33-6v-1h0-2 0v1h1zm-25-3h0l-1-1h-1 0v1h1v1h0l1 1 1 1h2v-2h-1 0-1 0l-1-1zm0-5l-1-1h0v1h0v1h1v-1zm-10-2h0-1v1h0v1h0l1 1h0l1 1h5l-1-1h0v-1h-1l-1-1h-2l-1-1zm2-2v1h1v1h0v-1 1l1-1h-1 0l-1-1zm-5 1h0v-1h0l-1 1h1zm-9-2h0v-1h0l-1 1h1zm4 0h0v-1l-1 1h1zm-1-1h0v-1h0-1v1h0v1h1v-1zm-4 1v-1h0v-1h0-1v1l1 1h0zm13-2h0-1 1zm6-1h0-1 0l1 2h-1l1 2v1l1 1h0l1 1v1h1l-1-2h0v-1h0v-1h-1v-1h0v-1h0l-1-2zm-17 0v-1h0v-1h-1 0l-1 1h0l-1 1h2v1h1l1 1h0v-2h0zm-6-1h0v-1h0v1h0zm3 0h0v-1h0v-1h0-1v1h0v1h1zm-2-1v-1h0v-1h0-1v-1 1h0v1h0v1h1zm17 4v-1h0v-1l-2-2h0-1v-1h-1 0l-1-1h-1l-1-1h0v2h1v1h1l1 1h1v1h2v1l1 1h0zm-22-10h0-1 1zm9 2h0v-1h-1v-1l-1-1h0l-1-1-1-1h-1 0v1h0l1 1 1 2 1 1h3-1z" fill="#f2f2f2" fill-rule="evenodd"/>
    <path id="ST" data-name="São Tomé and Principe" data-id="ST" d="M1014 571h1v-1h-1 0-1 0v1h0v1h1v-1zm4-9h1v-1h-1 0v1h0z" fill="#f2f2f2" fill-rule="evenodd"/>
    <path id="SX" data-name="Sint Maarten" data-id="SX" d="M627 457h1-1z" fill="#f2f2f2" fill-rule="evenodd"/>
    <path id="SC" data-name="Seychelles" data-id="SC" d="M1289 602l-1-1v1h0v1-1z" fill="#f2f2f2" fill-rule="evenodd"/>
    <path id="TC" data-name="Turks and Caicos Is." data-id="TC" d="M579 433v1h1v-1h0-1 0zm3 1h1l-1-1h0-1v1h1zm-1-1h0z" fill="#f2f2f2" fill-rule="evenodd"/>
    <path id="TO" data-name="Tonga" data-id="TO" d="M13 708h0l1 1-1-1zm-1-1h0-1 0v-1h0v1h1zm2-16h0v-1h0v1h0z" fill="#f2f2f2" fill-rule="evenodd"/>
    <path id="TT" data-name="Trinidad and Tobago" data-id="TT" d="M635 508v-1h1v-1h0-1v-1l1-1h0v-1h-1 0-1l-1 1h-1 1v1h0v2h0-1 0l-2 1h5zm2-7h1v-1h0-1v1h0z" fill="#f2f2f2" fill-rule="evenodd"/>
    <path id="VC" data-name="St. Vin. and Gren." data-id="VC" d="M635 491h0-1 0zm0-2h0v1h0zm1-1h0v-1h0-1v1h0v1-1z" fill="#f2f2f2" fill-rule="evenodd"/>
    <path id="VG" data-name="British Virgin Is." data-id="VG" d="M619 455h1-1 0zm1 0l1-1h-1v1h0zm1-2h0-1 1z" fill="#f2f2f2" fill-rule="evenodd"/>
    <path id="VI" data-name="U.S. Virgin Is." data-id="VI" d="M618 459h-1 2-1 0zm1-4h-1 0v1l1-1zm-1 0h-1 0v1h1z" fill="#f2f2f2" fill-rule="evenodd"/>
    <path id="CY" data-name="Cyprus" data-id="CY" d="M1150 348h0-1v1h-1 0v1l1 1h0l1 1h2v-1h2l1-1h2v-1h0-1v-1h0l3-2v-1h-1v1h-1 0l-3 1h0-3v1h0-1 0z" fill="#f2f2f2" fill-rule="evenodd"/>
    <path id="RE" data-name="Reunion" data-id="RE" d="M1284 708v-1h0v-1l-1-1h0-1 0l-1 1h0v1h1l1 1h1z" fill="#f2f2f2" fill-rule="evenodd"/>
    <path id="YT" data-name="Mayotte" data-id="YT" d="M1229 655v-1h0v-1h0-1 0v1h0v1h1z" fill="#f2f2f2" fill-rule="evenodd"/>
    <path id="MQ" data-name="Martinique" data-id="MQ" d="M638 480v-1h0-1l1-1h0-1 0l-1-1h0v1h0v1h1v1h1z" fill="#f2f2f2" fill-rule="evenodd"/>
    <path id="GP" data-name="Guadeloupe" data-id="GP" d="M636 471h1l-1-1h0v1h0zm-2-1h1v-1h0l-1-1h0l-1 1 1 1v1h0l1-1zm2-1h1l-1-1h0v-1h-1 0v1h0v1h1z" fill="#f2f2f2" fill-rule="evenodd"/>
    <path id="CW" data-name="Curaco" data-id="CW" d="M596 495v-1h-1 0v1h0l1 1v-1z" fill="#f2f2f2" fill-rule="evenodd"/>
    <path id="IC" data-name="Canary Islands" data-id="IC" d="M880 395h-1v1h-1 1l1-1zm13-2h0-1l-1 1h0v1h1v1l1-1h0v-1h0v-1zm-10 1l1-1h0-1 0v1h0zm5-2l1-1v-1h-1l-1 1h0l-1 1h-1 0l1 1v1h1l1-1v-1zm12 1l1-1 1-1v-1h0v-1h-1 0v1l-1 1-1 2h0-1 0l1 1 1-1zm-20-2l1-1h0v-1h0-1 0-1l1 1v1h0zm22-3h2v-2h0l-1 1h0-1v1h0v1-1z" fill="#f2f2f2" fill-rule="evenodd"/>
</svg>
