<svg xmlns="http://www.w3.org/2000/svg" width="63" height="100" xmlns:v="https://vecta.io/nano"><path d="M31.5 0C14.102 0 0 14.303 0 31.95a32.04 32.04 0 0 0 7.022 20.072c1.413 1.765 3.777 4.545 5.009 6.445 7.095 10.933 16.197 26.81 18.849 39.84.455 2.225 1.004 2.264 1.594.072 1.892-7.026 6.799-22.377 16.932-38.44 1.208-1.916 3.658-4.596 5.179-6.266a32.27 32.27 0 0 0 5.429-8.21C61.914 41.344 63 36.782 63 31.954 63 14.305 48.898 0 31.5 0zm0 49.213c-9.711 0-17.583-7.984-17.583-17.834S21.789 13.547 31.5 13.547s17.583 7.984 17.583 17.832S41.211 49.213 31.5 49.213z" fill="#edd906"/><circle fill="#656565" opacity=".706" cx="31.5" cy="30.5" r="7.5"/></svg>