<svg id="Layer_1" xmlns="http://www.w3.org/2000/svg" viewBox="0 0 500 500"><style>.st0{fill:#65c2e5}.st1{fill:#abd03a}</style><path class="st0" d="M186.6 474.1c-3.2-.4-5.7-2.1-7.9-4-5.7-5-10.4-10.7-13.5-17.6-1-2.3-2.5-3-5-2.9-5.3.2-10.5.1-15.8.1-6.7-.1-11-4.3-11-11v-69.3c0-6.6 4.5-11.1 11.3-11.1 10.9-.1 21.8 0 32.7 0h99.7c8.9 0 12.9 4 12.9 12.9 0 22-.2 44 .1 66 .1 7.5-4.8 12.8-12.9 12.7-30.6-.3-61.2-.1-91.8-.1-.8 0-1.6-.1-2.4 0-3.6.2-4.9 1.7-4.5 5.2.7 5.9 2.7 11.3 6.5 16 .7.7 1.7 1.5 1.6 3.1z"/><path class="st1" d="M303.4 314.2c-4.9-1-8.3-4.2-10.1-8.1-2.2-5-5.6-6.2-10.4-5.5-1.3.2-2.6.1-3.9 0-4.1-.2-6.6-2.7-6.6-6.7-.1-13.3-.1-26.6 0-40 0-4.1 2.5-6.6 6.7-6.6 26.1-.1 52-.1 78.1 0 4.1 0 6.5 2.6 6.5 6.7.1 13.2.1 26.4 0 39.6 0 4.5-2.6 6.9-7.3 6.9h-53c-4.7 0-5.3.8-4.2 5.4.4 1.6 1 3 1.8 4.5.6 1.3 1.6 2.5 2.4 3.8zM396.6 157.5c-1.5.4-2.4-.5-3.4-1.2-1.9-1.5-4.1-3-4.9-5.3-1.9-5.3-5.8-5.6-10.5-5.4-6.1.4-7.5-1.3-7.5-7.4v-30.9c0-4.7 1.9-6.6 6.6-6.6h63.9c4.7 0 6.6 1.9 6.6 6.7v31.8c0 4.7-1.8 6.5-6.7 6.5h-43.9c-4.4 0-4.9.8-3.9 5 .8 2.6 2.3 4.6 3.7 6.8zM299.3 194.1c4.2 1 6.8 4.1 8.6 7.7 1 1.9 2.1 2.7 4.2 2.5 1.9-.2 3.8-.1 5.8 0 2.7.2 4.6 1.9 4.6 4.7.1 10.2.1 20.4 0 30.6-.1 3.1-2.1 4.8-5.8 4.8H260c-4.4 0-6.1-1.6-6.1-6.1 0-9.4-.1-18.8 0-28.1 0-4.2 1.6-5.8 5.9-5.8h39.1c3.8 0 4.3-.7 3.3-4.3-.3-1-.7-2.1-1.3-3.1-.4-1.1-1-2-1.6-2.9z"/><path class="st0" d="M437.5 338.5c-3.9-1-6.2-3.8-7.9-7-.9-1.9-2-2.6-4.2-2.5-10.4.1-10.6-.2-10.6-10.7v-22.1c0-5.3 1.6-7 6.8-7h54.8c4.7 0 6.2 1.5 6.2 6.1v27.2c0 5-1.5 6.5-6.4 6.5h-37.6c-4.4 0-4.9.8-3.4 5 .7 1.5 1.6 3 2.3 4.5zm-167-277.6c-4-.8-6.1-3.9-7.7-7.1-1.3-2.5-2.9-3.3-5.7-3.3-9 .2-9 .1-9-9.1V16.7c0-3.8 1.7-5.5 5.6-5.5H310c4 0 5.9 1.9 5.9 5.9.1 9.2.1 18.3 0 27.5 0 4.4-1.6 5.9-6.1 5.9h-36.7c-1.1 0-2.2.1-3.3.2-2.2.2-2.6 1.5-2.2 3.4.4 2.4 2 4.4 2.9 6.6v.2zM259.2 304c4.2 1.1 6.5 4.1 8.3 7.5 1 1.9 2.2 2.6 4.2 2.4 1.6-.1 3.2-.1 4.8 0 3.5.1 5.5 1.9 5.5 5.4.1 9.7.1 19.4 0 29.1 0 3.1-1.8 4.9-4.9 5-19.4.1-38.8.1-58.2 0-3.3 0-4.8-1.6-4.8-4.9-.1-9.8-.1-19.6 0-29.4 0-3.6 1.8-5.1 5.6-5.1h37.9c4.8 0 5.7-1.3 3.8-5.8-.6-1.5-1.5-2.8-2.2-4.2zm117.6 137.8c-3.6-1.2-5.3-3.5-6.7-6-1-1.9-2.2-2.7-4.4-2.7-7.7.1-7.9-.2-7.9-7.9v-20.3c0-3.6 1.3-5 4.9-5 15.6-.1 31.3-.1 46.9 0 3.3 0 4.9 1.5 5 4.8.1 7.9.1 15.7 0 23.6-.1 3.5-1.7 4.8-5.2 4.8-10.4.1-20.8 0-31.2 0-4.3 0-5 1-3.3 5 .5 1.1 1.1 2.1 1.9 3.7zM238.1 103.4c-3.2-1-4.8-2.8-5.8-5-1.1-2.2-2.5-2.8-4.8-2.5-1 .1-2.1.1-3-.1-1.8-.4-3.1-1.4-3.1-3.5V70.5c0-2.3 1.5-3.5 3.7-3.5 13.8-.1 27.6-.1 41.5 0 2.7 0 3.9 1.7 3.9 4.4v20c0 3.3-1.2 4.5-4.5 4.6-8.8.1-17.6 0-26.4 0-4.5 0-5.1.9-2.9 5 .3.6.6 1.1 1.4 2.4zm76 373.4c-2.7-.8-4.5-2.6-5.6-4.8-.8-1.6-1.9-2.2-3.6-2-1.1.1-2.2.1-3.3 0-2.4-.2-3.8-1.5-3.8-3.9-.1-7.1-.1-14.1 0-21.2 0-2.4 1.4-3.8 3.8-3.8 13.8-.1 27.6-.1 41.4 0 2.7 0 3.9 1.5 3.9 4.3-.1 6.7 0 13.3-.1 20 0 3.5-1.2 4.6-4.8 4.6h-26c-4.2 0-4.8.9-3 4.7.4.7.8 1.4 1.1 2.1zM216.2 492c-2.8-.7-4.3-2.5-5.2-4.4-1.3-2.6-3.1-3.1-5.8-3.1-4.7.2-5.5-.7-5.5-5.3v-18.5c0-3.8.9-4.7 4.5-4.7h40.3c3.3 0 4.2.8 4.2 4.1.1 6.8.1 13.5 0 20.3 0 3-1.2 4.2-4.2 4.2-9 .1-18 0-27 0-4.1 0-4.6.8-2.8 4.7.4.7.8 1.4 1.5 2.7z"/><path class="st1" d="M404.5 207.4c-1.1-3.4-3.2-4.8-7-4.5-3.5.4-4.5-.9-4.6-4.4 0-6.2-.1-12.5 0-18.8 0-3.3 1.1-4.3 4.4-4.3h38.2c3.5 0 4.5 1.1 4.5 4.5v18.5c0 3.5-1.1 4.5-4.5 4.5-8.4.1-16.8 0-25.1 0-4.1 0-4.7 1-2.8 4.8.3.6.7 1.2 1.2 2.1-2.2.1-2.9-1.9-4.3-2.4zm-70.7-63.3c-2.9-.9-4.4-2.7-5.4-4.7-1-1.9-2.2-2.5-4.2-2.5-5.8.1-6.4-.5-6.4-6.4v-16.3c0-3.9 1-4.9 4.8-4.9h37.5c3.8 0 4.8 1 4.8 4.8v18.2c0 3.6-1.1 4.7-4.7 4.7-8.4.1-16.7 0-25.1 0-3.9 0-4.4.9-2.7 4.4.3.8.7 1.5 1.4 2.7zm63.4 164.2c.5-1 .5-1.3.7-1.5 1-1.6 2.3-3.3 1.4-5-.8-1.6-2.9-.7-4.5-.7-7.6-.1-15.1 0-22.7-.1-3.5 0-4.5-1-4.5-4.5 0-5.9-.1-11.7 0-17.6 0-3.3 1.1-4.3 4.4-4.3h36.4c3.3 0 4.2 1.1 4.3 4.4.1 5.8 0 11.5 0 17.3 0 3.8-.9 4.8-4.6 4.6-2.8-.2-4.7.4-6 3.1-.8 1.9-2.4 3.1-4.9 4.3zm-64.5 57.1c3.6-7.6 2.7-6.9-4.1-6.8-7.1.1-14.1.1-21.2 0-3.6 0-4.6-1-4.7-4.7V337c0-3.7 1-4.8 4.6-4.8 12 0 24-.1 36 0 3.4 0 4.4 1 4.4 4.3 0 6.1-.1 12.1-.1 18.2 0 2.9-1.4 4.2-4.1 3.9-3.2-.4-5.3.5-6.7 3.5-.6 1.5-2.1 2.8-4.1 3.3zm117.9-224.7c2.1.7 3.3 2.3 4.2 4.1 1 2 2.3 2.7 4.5 2.6 5.3-.2 5.7.4 5.7 5.6v16.3c0 3.6-.8 4.4-4.2 4.4h-37c-3.3 0-4.2-.9-4.2-4.4v-17.6c0-3.5.9-4.4 4.5-4.4H448c4 0 4.6-.9 2.8-4.6-.2-.5-.6-1.1-.8-1.6.3-.1.4-.3.6-.4zM325.3 399c2.5-6.5 2.5-6.5-4.8-6.5h-19.9c-3.8 0-4.7-.9-4.7-4.6 0-5.8.1-11.5 0-17.3-.1-2.8 1.2-4.1 4-4.1 12 .1 24 .1 36 0 2.8 0 4.1 1.2 4.1 3.9v17.9c0 2.8-1.4 4.3-4.1 4.1-3.1-.3-5.3.4-6.8 3.5-.6 1.4-2 2.6-3.8 3.1z"/><path class="st0" d="M348.9 74.9c-2-1.2-3.6-2.6-4.5-4.5-.9-1.9-2.2-2.2-4.1-2.2-5.4.1-5.6-.2-5.6-5.6v-16c0-3.1 1.1-4.2 4.1-4.2 11.8-.1 23.6 0 35.4 0 3.3 0 4.5 1 4.6 4.2.1 5.9.1 11.9 0 17.9-.1 2.7-1.5 3.9-4.3 3.9-7.8-.1-15.6-.1-23.3 0-4.2 0-4.8 1-2.8 4.8.2.1.9.5.5 1.7z"/><path class="st1" d="M254.3 270.2c1.9.7 3.2 2.2 4.1 3.9.9 1.9 2.2 2.5 4.2 2.4 5.2-.1 5.6.4 5.6 5.7v16c0 3.2-1 4.1-4.2 4.1h-35.7c-3.2 0-4.2-1-4.2-4.2-.1-5.9-.1-11.7 0-17.6 0-3.1 1.1-4.1 4.2-4.2 7.9-.1 15.8 0 23.6 0 3.8 0 4.2-.7 2.7-4.2-.2-.5-.5-1.1-.8-1.6.2 0 .3-.2.5-.3z"/><path class="st0" d="M457.2 252c1.9.7 3.2 2.2 4 3.9 1 1.9 2.3 2.4 4.4 2.4 5-.1 5.5.5 5.5 5.4 0 5.4-.1 10.9 0 16.3 0 2.7-1.2 4.1-4 4.1h-36c-3 0-4.2-1.2-4.2-4.3-.1-5.8-.1-11.5 0-17.3 0-3.2 1.2-4.4 4.4-4.4 7.8-.1 15.5 0 23.3 0 4.2 0 4.5-.4 2.9-4.2-.2-.5-.4-1.2-.5-1.7.1 0 .2 0 .2-.2zM228.5 39.7c.6-1 1-1.5 1.2-2.1 1.8-3.5 1.2-4.7-2.7-4.7h-23c-3.7 0-4.4-.7-4.4-4.4 0-5.9.1-11.7-.1-17.6-.1-2.9 1.3-4 4-4h36c2.5 0 3.9 1 3.9 3.8-.1 6.1-.1 12.3 0 18.4.1 2.6-1.3 3.9-3.6 3.6-3.2-.3-5.5.5-7 3.6-.7 1.5-1.9 2.8-4.3 3.4zm220.3 336.7c3.5-8.2 1.6-6.8-4.4-6.8h-20.6c-3.5 0-4.3-.8-4.3-4.2 0-5.9.1-11.7-.1-17.6-.1-2.8 1.1-4.1 3.9-4.1h36.1c2.5 0 3.9 1.2 3.9 3.9 0 6.2-.1 12.3 0 18.5 0 2.2-1 3.8-3.2 3.5-3.8-.4-6.3.8-8 4.2-.5.9-1.7 1.9-3.3 2.6z"/><path class="st1" d="M265.1 168.4c-3.1 6.7-3 6.7 3.9 6.7h21.2c3.3 0 4.3 1 4.3 4.4.1 5.6.1 11.3 0 16.9 0 3.5-1 4.4-4.3 4.4h-35.7c-3.3 0-4.1-.8-4.1-4.1-.1-5.9.1-11.7 0-17.6-.1-2.8 1.3-4.2 4.1-3.9 3 .4 5.2-.3 6.5-3.3.6-1.5 2-2.7 4.1-3.5zm75.1 58c-2.8-1.4-4.4-2.9-5.3-4.8-.9-1.9-2.2-2.2-4.1-2.2-5.2.1-5.6-.4-5.6-5.4 0-5.3.1-10.5 0-15.7-.1-2.8 1.2-4.1 4-4.1h35.1c3.2 0 4.1 1 4.2 4.2.1 5.6.1 11.3 0 16.9 0 3.1-1 4.1-4.2 4.1h-23c-3.8 0-4.3.8-2.7 4.2.3.8.7 1.4 1.6 2.8zm129.1-20.7c2.5-5.3 3.5-6.4-3.5-6.2-6.7.2-13.3 0-20 .1-2.8.1-4.1-1-4.1-3.9.1-5.4.1-10.9 0-16.3-.1-2.9 1.3-3.9 4.1-3.9 11.1.1 22.2.1 33.3 0 2.6 0 4 1 4 3.8v16.6c0 2.4-1 4-3.6 3.7-3.1-.4-5.2.5-6.5 3.4-.6 1.2-1.7 2.4-3.7 2.7zm-181.5-62.6c-1.6-.7-2.9-1.8-3.6-3.3-.9-2-2.4-2.4-4.4-2.3-3.6.1-4.3-.6-4.3-4.1 0-4.7.1-9.5 0-14.2-.1-2.5 1-3.7 3.6-3.7 10.2.1 20.4.1 30.6 0 2.6 0 3.6 1.3 3.6 3.8-.1 4.8-.1 9.7 0 14.5.1 2.7-1.2 3.9-3.8 3.8-6.4-.1-12.7 0-19.1 0-4.4 0-4.7.5-2.8 4.4.2.2.6.5.2 1.1zm47.5 186.4c.2-.5.4-.9.5-1.4 1.1-3 .8-3.3-2.2-3.3-6.5 0-13.1-.1-19.6.1-2.8.1-4.1-1.1-4-3.9.1-4.6.1-9.3 0-13.9-.1-2.8 1.2-3.9 4-3.9 9.8.1 19.6.1 29.3 0 2.7 0 3.9.9 3.9 3.7-.1 4.9-.1 9.9 0 14.8 0 2.1-.8 3.5-3 3.2-2.8-.4-4.8.4-6 3.1-.4 1-1.3 1.8-2.4 2.2-.2-.3-.4-.5-.5-.7zm41.5 3.8c2.2-5.6 2.2-5.6-3.8-5.6h-17c-3.4 0-4.2-.7-4.2-4 0-4.7.1-9.3 0-13.9-.1-2.7 1.1-3.8 3.8-3.8 9.9.1 19.8.1 29.6 0 2.7 0 3.9 1.1 3.8 3.8-.1 4.7-.1 9.4 0 14.2 0 2.5-.9 3.9-3.6 3.7-2.4-.2-4.2.3-5.3 2.7-.5 1.3-1.7 2.3-3.3 2.9zm45.3-80c2.1-5.4 2.1-5.4-3.8-5.4-5.8 0-11.5-.1-17.3 0-2.8.1-4-1.2-3.9-4 .1-4.7.1-9.3 0-13.9-.1-2.7.9-3.9 3.7-3.9 10 .1 20 .1 29.9 0 2.4 0 3.5 1 3.5 3.5-.1 5 0 10 0 15.1 0 2.1-1.1 3.4-3.2 3.1-2.9-.4-4.7.7-6.1 3.1-.3 1.1-1.2 2.2-2.8 2.4zm-48.6 124.2c2.2-5.5 2.2-5.5-3.6-5.5-5.8 0-11.7-.1-17.5 0-2.7.1-3.9-1-3.8-3.7.1-4.8.1-9.7.1-14.5 0-2.4 1-3.5 3.5-3.5 10.1.1 20.2.1 30.2 0 2.4 0 3.5 1.1 3.4 3.5-.1 5-.1 9.9 0 14.8 0 2.1-.7 3.5-2.9 3.3-2.9-.2-5 .4-6.3 3.2-.5 1.1-1.5 1.9-3.1 2.4z"/><path class="st1" d="M365.3 248.8c2.4-5.6 2.4-5.6-3.5-5.6-5.5 0-11.1-.1-16.6.1-2.7.1-3.8-1-3.8-3.8.1-4.5.1-9.1 0-13.6-.1-2.4 1-3.5 3.4-3.5 9.7.1 19.3.1 29 0 2.3 0 3.3 1 3.3 3.3-.1 4.8 0 9.7 0 14.5 0 2-1 3.1-3 3-2.7-.2-4.6.4-5.8 3-.4 1.1-1.5 2-3 2.6z"/><path class="st0" d="M280.8 171.7c-.4-.1-.9 0-1.1-.2-2.1-2.4-4.1-4.7-7.8-4.4-1.4.1-1.9-1.6-1.9-3v-13c0-2.1 1-3.1 3.2-3.1 9 .1 17.9.1 26.9 0 2.4 0 3.2 1.2 3.2 3.4-.1 4.1-.1 8.2 0 12.3.1 2.6-1.2 3.6-3.7 3.6-5.2-.1-10.5 0-15.7 0-4.8 0-4.8 0-3.1 4.4zm119.5 225.1c.3-.6.6-1.2.8-1.9.7-1.7.1-2.4-1.8-2.4-5.3.1-10.7-.1-16.1.1-2.7.1-3.9-1-3.8-3.7.1-3.6.1-7.3 0-10.9-.1-2.6 1.1-3.6 3.6-3.6 7.9.1 15.8.1 23.6 0 2.5 0 3.8.8 3.7 3.5-.1 3.8-.1 7.4 0 11.2.1 2.4-.9 3.7-3.4 3.5-1.8-.2-3 .4-3.9 2.1-.5 1-1.5 1.8-2.3 2.7.1-.2-.2-.4-.4-.6z"/><path class="st1" d="M359.6 83.3c.7-.1 1.2.4 1.5.8 1.4 2.2 3 3.8 6 3.4 1.3-.2 1.8 1.1 1.8 2.3v12c0 1.8-.8 2.5-2.6 2.5h-23.9c-1.9 0-2.7-1-2.7-2.8V90.1c0-2.1 1.1-2.8 3-2.8 4.5.1 9.1 0 13.6 0 4.4 0 4.4 0 3.3-4zM249.8 171c.5-1 .6-1.3.8-1.7 1.2-2.1.7-3.1-1.9-3-5 .1-9.9-.1-14.8.1-2.5.1-3.5-.8-3.4-3.4.1-3.5.1-7.1 0-10.6-.1-2.2.8-3.1 3-3.1 7.8.1 15.5.1 23.3 0 2 0 3 .9 2.9 2.9-.1 3.8 0 7.7 0 11.5 0 1.2-.4 2.7-1.6 2.5-3.5-.6-4.9 1.9-6.7 3.9-.2.1-.5.2-1.6.9z"/><path class="st0" d="M184.6 38.7c1.4-4.5 1.4-4.5-2.8-4.5-4.6 0-9.3-.1-13.9 0-2.1.1-2.9-.8-2.9-2.8.1-3.8.1-7.6 0-11.5 0-1.9.8-2.7 2.7-2.7 7.8.1 15.5.1 23.3 0 2.2 0 3.2 1 3.1 3.1-.1 3.6 0 7.3 0 10.9 0 1.5-.4 3.1-1.9 2.8-3.2-.4-4.7 1.5-6.2 3.7-.2.4-.6.5-1.4 1z"/><path class="st1" d="M296.1 77.1c.6.5 1.4 1 1.7 1.6.8 1.7 2 2.4 3.8 2.1 2.2-.3 3.1.8 3 3-.1 3.7-.1 7.4 0 11.1.1 2.1-.8 2.9-2.9 2.8-7.8-.1-15.5-.1-23.3 0-2.2 0-3.1-.9-3-3.1.1-3.6.1-7.3 0-10.8-.1-2.4 1.1-3.1 3.3-3.1 4.8.1 9.7-.1 14.5.1 3 .1 3.3-1 2.2-3.3.4-.1.5-.3.7-.4z"/><path class="st0" d="M275.7 474.9c.4-3.6.4-3.6-3.2-3.6-4.2 0-8.5-.1-12.7 0-2.3.1-3.3-.8-3.2-3.2.1-3.3.1-6.7 0-10-.1-2.2.9-3.1 3.1-3.1 7.1.1 14.3.1 21.4 0 2.2 0 3.2 1 3.2 3 .1 3.5.1 6.8 0 10.3 0 1.3-.5 3-2.1 2.8-2.8-.3-4.2 1.1-5.5 3.1-.1.4-.6.4-1 .7zm160.8-76.1c.9-3.9.9-3.9-3.1-3.9-4.2 0-8.5-.1-12.7 0-2.2.1-3.2-.7-3.1-3 .1-3.5.1-6.8 0-10.3-.1-2.1.7-3 2.8-3h21.8c2 0 3 .8 2.9 2.9-.1 3.5-.1 7 0 10.6 0 1.3-.2 2.8-1.8 2.6-2.8-.4-4.2 1.1-5.5 3.1-.1.6-.7.7-1.3 1z"/><path class="st1" d="M103.7 416.8c.7-3.7.7-3.7-3-3.7-4.2 0-8.5-.1-12.7 0-2.2.1-3.1-.8-3-3 .1-3.3.1-6.7 0-9.9-.1-2 .7-3 2.8-3h21.8c1.8 0 2.5.8 2.5 2.6-.1 3.6 0 7.3 0 10.8 0 1.1-.3 2.5-1.4 2.3-3.5-.6-5 2-7 3.9z"/><path class="st0" d="M121.1 442.5c1.3-3.9 1.3-3.9-2.1-3.9-4.2 0-8.5-.1-12.7 0-2.6.1-3.6-1-3.5-3.6.1-3 .1-6.1 0-9.1 0-2.1.7-3.1 3-3.1 7 .1 14.1.1 21.1 0 2.2 0 3.1.8 3 3-.1 3.2-.1 6.4 0 9.7 0 1.5-.4 3-1.9 2.9-2.8-.2-4.2 1.2-5.6 3.1-.1.3-.5.4-1.3 1z"/><path class="st1" d="M482.4 227.2c1-2.4.5-3.4-2.3-3.3-4.1.2-8.3 0-12.4.1-2.4.1-3.3-1-3.2-3.3.1-3 .1-6.1 0-9.1-.1-2 .7-3 2.8-3H488c1.9 0 2.7.8 2.7 2.8-.1 3.3 0 6.7 0 10 0 .9-.1 2.4-1 2.2-3.3-.4-4.8 2.2-7 3.8l-.3-.2zm-28.7-3.1c1-3.9 1-3.9-2.8-3.9-4.1 0-8.1-.1-12.1 0-2.1.1-2.9-.8-2.8-2.9.1-3.2.1-6.4 0-9.7-.1-2.1 1-2.8 3-2.8 6.7.1 13.5.1 20.2 0 2.2 0 3.1.8 3 3-.1 3.2-.1 6.4 0 9.7 0 1.2-.2 2.7-1.5 2.5-3-.4-4.3 1.5-5.8 3.3-.4.4-.8.6-1.2.8zM253 269.7c-.3.2-.6.8-.9.8-3.2.1-5.6 1.4-7.2 4.3.6-3.9.6-3.9-3-3.9-3.9 0-7.9-.1-11.8.1-2.2.1-3.1-.9-3-3 .1-3 .1-6.1 0-9.1-.1-2.2 1-3 3.2-3 6.5.1 13.1.1 19.6 0 2.2 0 3.2.8 3.1 3-.1 3.6-.1 7.2 0 10.8-.1.1 0 0 0 0z"/><path class="st0" d="M368.6 462.2c1-2.4.3-3.1-2.3-3.1-4.1.2-8.3 0-12.4.1-2.1.1-2.9-.8-2.8-2.8.1-3.1.1-6.2 0-9.4-.1-2.2 1-2.8 3-2.8h20c1.8 0 2.6.7 2.6 2.5-.1 3.5 0 6.8 0 10.3 0 .8-.2 2.1-1 1.9-3.2-.5-4.6 2.2-6.8 3.5l-.3-.2z"/><path class="st1" d="M390.5 99.1c.7-3-.7-3.6-3.5-3.5-3.6.2-7.3 0-10.9.1-2.2.1-3.4-.7-3.3-3.1.1-2.9.1-5.9 0-8.8-.1-2.1.7-3 2.8-2.9 6.5.1 13.1.1 19.7 0 1.8 0 2.8.6 2.8 2.6-.1 3.2 0 6.5 0 9.7 0 1-.2 2.3-1.1 2.2-3.1-.5-4.5 2-6.5 3.7zm-41.4 315.4c.5-2.2-.6-2.6-2.3-2.6-4.4.1-8.8-.1-13.3.1-2 .1-2.7-.7-2.6-2.7.1-3 .1-6.1 0-9.1-.1-1.8.5-2.6 2.4-2.6 6.7.1 13.5.1 20.2 0 1.7 0 2.4.8 2.3 2.4-.1 3.2 0 6.4 0 9.6 0 1.5-.7 2.4-2.2 2.2-2.1-.4-3.3.8-4.5 2.7zm-85.8-269.8c1.6-3.3.4-3.9-2.4-3.8-3.9.2-7.9 0-11.8.1-2.1.1-3.2-.7-3.1-3 .1-3.1.1-6.2 0-9.4 0-1.8.7-2.5 2.5-2.5 6.7.1 13.5.1 20.2 0 2 0 2.7.8 2.6 2.8-.1 3.1-.1 6.2 0 9.4 0 1 0 2.5-1.2 2.4-2.9-.3-4.6 1.8-6.8 4zm102 31.5c.9-2.1.2-2.8-2.1-2.8-4.1.1-8.2-.1-12.4.1-2.2.1-3.1-.8-3-3 .1-3 .1-6.1 0-9-.1-1.9.7-2.7 2.7-2.7 6.7.1 13.3.1 19.9 0 2 0 2.7.8 2.6 2.8-.1 3.1 0 6.2 0 9.3 0 1.2-.1 2.7-1.5 2.5-3.1-.7-4.1 1.9-5.8 3.3l-.4-.5zm17.9 94.7c.6-2-.1-2.7-2.2-2.6-3.6.1-7.3 0-10.9.1-2.2.1-3.2-.8-3.1-3 .1-2.6.1-5.3 0-7.9 0-1.8.5-2.8 2.6-2.8 6.1.1 12.1.1 18.2 0 1.8 0 2.6.7 2.6 2.5-.1 2.9 0 5.9 0 8.8 0 1.2-.4 2.4-1.5 2.2-2.7-.4-3.8 1.8-5.4 3l-.3-.3zm-168 6.4c.7-2.1.2-2.8-2.2-2.8-3.7.2-7.5 0-11.1.1-1.9.1-2.8-.7-2.7-2.7.1-2.7.1-5.4 0-8.2-.1-1.9.6-2.8 2.6-2.7 6.1.1 12.1.1 18.1 0 2 0 2.7.8 2.7 2.7-.1 2.7 0 5.4 0 8.2 0 1-.2 2.6-1.2 2.4-3-.5-4 2.1-5.9 3.2-.2 0-.2 0-.3-.2zm145.4 115.6c.6-1.8.4-2.8-1.9-2.7-3.7.2-7.5-.1-11.2.1-2.3.1-3-.8-3-3 .1-2.7.1-5.4 0-8.2 0-1.6.7-2.4 2.4-2.4 6.1.1 12.3.1 18.4 0 1.9 0 2.5.9 2.5 2.6v6.1c.1 2.7.5 5.4-3.8 5-1.6-.2-1.6 2.5-3.2 2.8 0-.1-.1-.2-.2-.3zm43.9-185.6c.1 3.7.1 7.4.1 11.1 0 1.4-.4 2.5-2 2.3-1.7-.1-2.8.4-3.6 1.9-.3.5-.7 1.5-1.8 1l.1.1c1.2-2.4.4-3.1-2.2-3-3.5.2-7-.1-10.6.1-2.2.1-3.2-.6-3.1-2.9.1-2.6.1-5.3 0-7.9-.1-1.9.5-2.8 2.6-2.7 6.8.1 13.7.1 20.5 0 0 .1 0 0 0 0zm-38.8 139.9c1-2.3.4-3.1-2.2-3-3.5.2-7-.1-10.6.1-2.2.1-3.2-.6-3-2.9.1-2.6.1-5.3 0-7.9-.1-1.9.5-2.8 2.5-2.8 6.1.1 12.1.1 18.2 0 1.8 0 2.5.7 2.5 2.5-.1 2.8 0 5.6 0 8.5 0 .8 0 2.2-.7 2.1-3.1-.3-4.5 2.4-6.7 3.4zm105.5-119.7c-.3 1.6-.1 2.6 2 2.5 3.4-.2 6.8 0 10.2-.1 2.1-.1 2.9.7 2.8 2.8-.1 2.4-.1 4.8 0 7.3.1 1.9-.5 2.8-2.5 2.7-5.5-.1-11.1-.1-16.6 0-2 0-2.7-.8-2.6-2.7.1-1.9.1-3.8 0-5.8-.1-2.5-.1-4.7 3.5-4.4 1.6.1 1.5-2.3 3.1-2.5l.1.2z"/><path class="st0" d="M406.2 341.7c.3-2.1-.2-3.1-2.7-3-3.4.2-6.8 0-10.2.1-2.1.1-2.9-.8-2.8-2.8.1-2.5.1-5 0-7.6-.1-1.8.7-2.5 2.5-2.5 5.8.1 11.7.1 17.5 0 1.8 0 2.5.8 2.5 2.5-.1 2-.1 4.1 0 6.1.1 2.5.1 4.7-3.5 4.4-1.7-.1-1.7 2.4-3.3 2.8z"/><path class="st1" d="M313.5 432.6c-1.6-1-2.7-3.2-5.2-2.8-.8.1-1.2-.9-1.2-1.8v-8.5c0-1.5.8-2.1 2.3-2.1 5.6.1 11.3.1 17 0 1.7 0 2.4.7 2.4 2.4-.1 2.6-.1 5.3 0 7.9.1 1.9-.8 2.5-2.6 2.5-3.5-.1-6.8.1-10.3-.1-1.9-.1-2.6.5-2.1 2.4l-.3.1zm4.9-350c-.1-1-1.8.2-1.4-.8 1.2-3.5-1.5-2.2-2.8-2.3-2.9-.1-5.8-.1-8.7 0-1.8.1-2.8-.6-2.8-2.6.1-2.4.1-4.8 0-7.2 0-1.6.6-2.4 2.3-2.4h16.3c1.6 0 2.4.7 2.4 2.4-.1 1.9-.1 3.8 0 5.8.1 2.4.1 4.4-3.3 4.3-1.2-.2-2.5 1.1-2 2.8z"/><path class="st0" d="M445.1 249.1c-1.6-1-2.6-3-5-2.7-.8.1-1.3-.8-1.5-1.7-.1-.5-.1-1-.1-1.5.1-10.6-1.4-9 8.8-9.1 3.2-.1 6.2 0 9.4 0 1.9 0 3 .7 2.8 2.9-.1 2.3-.1 4.7 0 7 .1 1.9-.7 2.7-2.7 2.7-3.2-.1-6.2.1-9.4-.1-1.9-.1-2.7.5-2.3 2.5z"/><path class="st1" d="M214.6 57.1c1-2.2.2-2.8-1.9-2.8-3.2.1-6.4-.1-9.6.1-1.9.1-2.7-.8-2.7-2.7.1-2.3.1-4.6 0-7-.1-1.8.6-2.6 2.5-2.6 5.3.1 10.7.1 16 0 1.8 0 2.5.8 2.5 2.5-.1 1.9-.1 3.8 0 5.8.1 2.3.1 4.2-3.2 4-1.7-.1-1.6 2.2-3.6 2.7z"/><path class="st0" d="M358.5 193.2c-.1-2.7-.1-2.7-3-2.7s-5.8-.1-8.7 0c-2 .1-3-.7-2.9-2.8.1-2.3.1-4.6 0-7-.1-1.8.8-2.5 2.5-2.5 5.3.1 10.7.1 16 0 2 0 2.7.9 2.6 2.8-.1 1.6-.1 3.2 0 4.8.1 2.5.5 5-3.5 4.7-1.4 0-1.4 2.4-3 2.7z"/><path class="st1" d="M240.9 195.9c.8-1.9.2-2.7-1.9-2.5-3.2.2-6.5 0-9.7.1-1.9.1-2.7-.7-2.7-2.7-.5-9.5-.5-9.5 8.8-9.5 2.8 0 5.7.2 8.5-.1 3-.2 3.9 1 3.7 3.8-.2 1.6-.1 3.2 0 4.8.1 2.2-.2 3.9-3 3.6-2-.3-1.8 2.8-3.7 2.5z"/><path class="st0" d="M337.1 37.8c.3-1.8-.6-2.2-2.2-2.2-3.3.1-6.7-.1-9.9.1-1.6.1-2.5-.6-2.3-2.3v-.6c-.2-9.3-.2-9.3 9-9.3 3 0 6.1.1 9 0 1.9-.1 2.7.8 2.7 2.7-.1 1.6 0 3.2 0 4.8 0 2.4.7 5-3.3 4.8-.8-.1-1.8 1.5-2.6 2.2l-.4-.2z"/><path class="st1" d="M317.1 415.5c.8-1.9.2-2.5-1.6-2.5-3 .1-6.1-.1-9.1.1-2 .1-3-.6-2.9-2.8.1-2.1.1-4.2 0-6.4s.8-2.8 2.9-2.7c4.7.1 9.5.1 14.2 0 2.1-.1 3 .7 2.8 2.8-.1 1.6-.1 3.2 0 4.8.1 2.4.2 4.5-3.3 4.3-1.1-.1-1.3 1.9-3 2.4z"/><path class="st0" d="M290.5 73c.4-2.1-.5-2.6-2.5-2.5-2.9.1-5.8 0-8.8.1-1.9.1-2.8-.7-2.7-2.7.1-2.2.1-4.4 0-6.7-.1-1.9.6-2.8 2.6-2.8 4.9.1 9.9.1 14.8 0 1.9 0 2.8.7 2.7 2.7-.1 1.7-.1 3.5 0 5.1.1 2.3.3 4.5-3.2 4.3-1.3 0-1.5 2.2-2.9 2.5z"/><path class="st1" d="M422.7 99.1c.3-2.1-.6-2.7-2.7-2.5-2.8.2-5.6-.1-8.4.1-1.9.1-2.5-.7-2.5-2.5.2-11-1.7-8.7 8.4-8.9 2.8-.1 5.6.1 8.5 0 1.8-.1 2.6.7 2.5 2.5-.1 1.7-.1 3.5 0 5.1.1 2.2.1 4.1-3 3.8-1.5-.2-1.4 2.1-2.8 2.4zm-39.5 103.4c1.2-2.6-.3-2.6-2.2-2.5-2.7.1-5.5-.1-8.2.1-2.1.1-2.7-.8-2.8-2.8-.1-8.4-.2-8.4 8.1-8.4 2.9 0 5.9.1 8.8 0 1.6 0 2.4.6 2.4 2.3-.1 1.7-.1 3.5 0 5.1.1 2.1.2 4.1-3 3.9-1.4-.3-1.4 1.9-3.1 2.3z"/><path class="st0" d="M394.7 68.1c.1-1.4-.5-1.9-1.9-1.9-2.4.1-4.8.1-7.2 0-.7 0-1.5.2-2.1-.1-3.9-2.1-1.3-5.8-1.9-8.6-.4-1.9 1.2-2.2 2.7-2.2 4.4.1 8.8.1 13.3 0 2-.1 2.7.8 2.6 2.7-.1 1.6-.1 3.2 0 4.8.1 2.1-.1 3.6-2.8 3.5-1.2 0-1.5 1.6-2.7 1.8z"/><path class="st1" d="M298.4 330.7c.7-2-.1-2.5-1.8-2.5-2.3.1-4.6 0-6.9 0-.5 0-1.1.2-1.5-.1-3.3-1.9-1-5-1.6-7.5-.3-1.5.2-2.5 2.1-2.5 4.3.1 8.7 0 13 0 .3 0 .6 0 .9.1 1.6.5 1.5 1.9 1.3 3-.4 2.3 1.5 5.4-1.3 6.8-1.6.7-3 1.3-4.2 2.7zm162.1-189.6c0-1.5-.2-2.2-1.9-2.1-2.5.1-5 .1-7.5 0-.8 0-1.8.1-2-.8-.4-2.6-.4-5.2-.1-7.8.1-1 1.1-1 1.9-1h12.4c.3 0 .7-.1.9.1 2.3 2 .7 4.7 1.1 7 .2 1 .3 2.5-1.3 2.5-1.7-.2-2.5 1-3.5 2.1zm-47.6 120.1c0-1.2-.3-1.9-1.7-1.8-2.1.1-4.2.1-6.4.1-.5 0-1-.1-1.5 0-2.5.2-2.3-1.8-1.9-3.1.5-2.2-2.1-5.8 1.9-6.4 4-.6 8.2-.1 12.4-.1.3 0 .7-.1.9.1 2.5 1.7.8 4.2 1.2 6.4.2 1.1.7 3.1-1.2 3.1-1.9-.1-2.5 1.2-3.7 1.7z"/><path class="st0" d="M211.2 304.8c.2-1.6-.7-1.8-2.1-1.8-2.4.1-4.8-.1-7.3.1-1.5.1-2.2-.5-2.2-2.1.1-9-1-7.4 6.8-7.6 2.3-.1 4.7 0 7 0 1 0 2.3 0 2.4 1.3.2 2.4.1 4.8.1 7.3 0 .5-.4 1.1-.9 1-1.8-.5-2.4 1.5-3.8 1.8z"/><path class="st1" d="M318.4 82.7c4.5 0 9 .1 13.6 0 1.8 0 2.6.6 2.5 2.4-.1 1.3-.1 2.6 0 3.9.1 1.8.1 3.5-2.5 3.3-.7-.1-1 .6-1.3 1.1-.2.3-.7.8-.9.5-1.9-3.5-5-1.3-7.5-1.6-3.8-.4-3.9-.1-3.9-4.1v-5.5c0-.1 0 0 0 0zm75.2 90.2c-.2-1.1-.2-2.1-1.8-2-2.5.2-5 0-7.5.1-1.5.1-2.1-.6-2.2-2.1-.6-7.4-.6-7.4 6.8-7.4 2.3 0 4.6.1 7 0 1.8-.1 2.7.5 2.5 2.4-.1 1.3-.1 2.6 0 3.9.1 1.8.1 3.5-2.5 3.3-1.2-.1-1.2 1.6-2.3 1.8z"/><path class="st0" d="M323.9 64.5c.1-1.4-.6-1.9-2-1.8-2.3.1-4.6.1-7 0-.9 0-2.1.2-2.3-.9-.5-2.5-.4-5.2-.1-7.7.2-1 1.2-1 2-1h11.8c1.6 0 2.4.7 2.4 2.4-.1 1.1 0 2.2 0 3.3 0 2 .4 4.2-2.7 4.2-.7-.1-1.5 1-2.1 1.5zm33.9 90.2c0-1.3-.6-1.9-2.1-1.9-2.4.1-4.8 0-7.3 0-.9 0-2.1-.1-2.1-1.2-.2-2.4-.1-4.8 0-7.2.1-1.2 1.2-1.2 2.1-1.2h11.8c1.6 0 2.4.7 2.4 2.4-.1 1.3-.1 2.6 0 3.9.1 1.8.1 3.6-2.5 3.4-1.2 0-1.3 1.6-2.3 1.8zm-83-43.6c.1-1.3-.5-1.9-2-1.9-2.4.1-4.8 0-7.3 0-.9 0-2.1-.1-2.2-1.2-.2-2.4-.2-4.8 0-7.3.1-1.2 1.2-1.2 2.1-1.2h11.8c.4 0 .9-.1 1.2.2 2.3 1.9.7 4.5 1.1 6.8.2 1 .2 2.6-1.3 2.5-1.7.1-2.3 1.5-3.4 2.1zm46.6 68.4c-.1-1.6-1.3-1.2-2.2-1.3-2.2 0-4.4-.1-6.7 0-2 .1-2.7-.8-2.6-2.7.1-1.6.1-3.2 0-4.8-.1-1.6.6-2.1 2.2-2.1 3.9.1 7.9.1 11.8 0 1.6 0 2.5.6 2.4 2.3-.1 1-.1 2 0 3 .1 2.2.4 4.6-3.1 4.5-.6 0-.8 1.2-1.7 1.2l-.1-.1zM239.8 52.9h1.8c6 0 7.1 1.5 5.9 7.5-.4 1.7-1.6 1.6-2.7 1.8-.8.1-1 2.5-2.5.3-.9-1.3-3.6-.2-5.5-.4-1.6-.2-3.9 1-4.7-1-.8-2.2-.5-4.8-.1-7.1.2-1 1.2-.9 2-1 1.9-.1 3.8-.1 5.8-.1z"/><path class="st1" d="M92.9 418.3h1.2c5.9 0 6.4.6 5.5 6.5-.2 1.4-3.2 2.4-4.4 1.9-1.9-.8-4-.5-5.9-.2-3.8.4-3.3-1.9-3.4-4.3-.1-2.5.1-4.4 3.5-3.9 1.1.2 2.4 0 3.5 0z"/><path class="st0" d="M402.7 71.5c0-3.9 0-3.9 4-4h7.6c1.5 0 2.1.7 2.2 2.2.4 4.2-.3 5.5-3.9 7.1-.1.2-.6.2-.6.2-1-3.2-3.6-1.3-5.3-1.5-4-.3-4.1 0-4-4z"/><path class="st1" d="M252.9 109.4h1.5c5.5 0 6.1.8 5.2 6.3-.2 1.5-3 2.2-4.4 1.8-1.9-.5-4-.5-5.9-.2-3.8.5-3-2-3.2-4.1-.1-2.3-.1-4.3 3.2-3.8 1.1.2 2.3 0 3.6 0zm63 35h1.5c5.6.1 5.1-1.3 5.1 5.4 0 2.3-2.2 3.2-4.5 2.6-1.9-.5-4-.4-6-.2-2.4.2-3.5-.6-3.1-3 .1-.5.1-1 0-1.5-.4-2.7.7-3.7 3.4-3.3 1.2.1 2.4 0 3.6 0zm17 5.9h1.2c6 0 6.1.1 5.5 6-.2 1.8-2.8 2.6-4.5 2.1-1.8-.5-3.8-.4-5.7-.2-2.7.2-3.5-.7-3.5-3.4.2-5.5-.1-4.5 4.5-4.5h2.5z"/><path class="st0" d="M123.9 404.1c-.2-1.5-1.4-1.2-2.4-1.2-1-.1-2 0-3 0-4.3 0-4.1 0-4.4-4.2-.1-2.8.6-4.1 3.7-3.8 2.5.2 5 .1 7.6 0 2-.1 2.4.8 2.7 2.7.5 3.6-.8 5.7-4.2 6.5zm23.6 59.3c-.1-1.3-1.1-1.2-2-1.2h-3.6c-4 0-4 0-4-3.9s0-3.9 4-3.9c2.4 0 4.8.1 7.3 0 1.8-.1 2.4.6 2.6 2.4.4 3.5-.6 5.8-4.3 6.6zm338.9-205.9h2.7c4.6 0 4.6 0 4.4 4.6-.1 1.7-2.7 4.3-4 3.5-2.5-1.6-5.1-.7-7.5-.7-3.2.1-3-1.8-3-3.9 0-2-.2-3.9 2.8-3.6 1.5.3 3.1.1 4.6.1zM425.9 404h2.4c4.7 0 4.7 0 4.6 4.5-.1 1.9-2.4 4.4-3.9 3.6-2.8-1.5-5.6-.5-8.4-.7-3.5-.4-1.8-2.9-2.1-4.6-.4-1.7.1-3 2.4-2.8 1.6.2 3.3 0 5 0z"/><path class="st1" d="M338.3 235.5c1.4 2.9-2.4 4.3-3.2 4-3-1.3-6.2 0-9-1-1.8-.7-.6-2.7-.8-4.1-.5-2.6.5-3.7 3.3-3.4 1.9.2 3.8.1 5.8.1 3.9-.1 3.9-.1 3.9 4.4z"/><path class="st0" d="M301.4 481.3c1.6 3.5-3.1 4.6-3.3 4.5-3.2-2.2-7 .1-9.9-1.3-1.9-.9-.6-3.7-.7-5.6-.1-1.5 1.2-1.4 2.1-1.4 2.7 0 5.5.2 8.2-.1 3.1-.4 4.4.7 3.6 3.9z"/><path class="st1" d="M380 176.4h1.2c5.7.1 5.1-1.2 5.1 5.4 0 2.1-2.4 3-4.4 2.4-1.8-.5-3.8-.4-5.6-.2-2.2.2-3.2-.5-2.9-2.8.1-.8.1-1.6 0-2.4-.2-1.9.7-2.5 2.5-2.4 1.2.1 2.6 0 4.1 0z"/><path class="st0" d="M345.1 427h2.1c4.5 0 4.5 0 4.4 4.5-.1 2.6-2 3.6-4.5 3-1.8-.4-3.8-.3-5.7-.2-1.8.1-2.6-.5-2.4-2.4.1-.8.1-1.6 0-2.4-.2-2.1.7-2.7 2.6-2.5 1.1.1 2.4 0 3.5 0zm48-76.2h1.2c5.1 0 5.1 0 4.8 5.1-.1 2.2-2.1 3.1-4.2 2.4-1.7-.5-3.6-.4-5.4-.2-3.2.4-2.7-1.8-2.7-3.6s-.6-4.1 2.7-3.8c1.1.3 2.4.1 3.6.1zm-69.2-165c1.3 2.8-1.2 3.5-2.8 4.5-1.2.8-.9-1.4-2.2-1.1-1.6.4-3.4 0-5.1.1-1.6.1-2.2-.5-2.1-2.1.1-1 .1-2 0-3-.1-1.7.6-2.4 2.3-2.2 2.1.1 4.2.2 6.3 0 3-.4 4.4.5 3.6 3.8z"/><path class="st1" d="M214.1 282.5c.6 0 1.2-.1 1.8 0 1.2.2 3.2-.8 3.2 1.5 0 1.9.9 4.8-2.1 4.8-2.5-.1-5.2.4-7.5-.7-1.4-.7-.5-3-.5-4.5.1-1.2 1.2-1.2 2.1-1.2h3v.1zm203.6-13.4c.6 0 1.2-.1 1.8 0 1.2.2 3.2-.9 3.2 1.5.1 1.9.9 4.8-2.1 4.8-2.4-.1-5.2.4-7.4-.7-1.4-.7-.6-3-.5-4.5.1-1.3 1.2-1.1 2.1-1.1h2.9zm56.2-104.5c.7 0 1.5-.1 2.1 0 1.2.2 2.9-.7 3 1.5.1 1.9.8 4.8-2.2 4.8-2.4 0-5 .2-7.3-.6-1.6-.6-.5-2.7-.7-4.1-.1-1.2.6-1.6 1.7-1.6h3.4zM337 415.9c.6 0 1.2-.1 1.8 0 1.2.2 3.2-.9 3.2 1.5 0 1.8 1 4.4-2 4.7-2.5.2-5.2.2-7.5-.7-1.4-.5-.5-2.9-.5-4.4 0-1.3 1.2-1 2.1-1.1.9-.1 1.9 0 2.9 0zm137.1-168.6c.5 0 1-.1 1.5 0 1.1.2 2.7-.7 3.2.8s.7 3.4-.2 4.7c-.7.9-2.1 1.6-3.6.6-.7-.4-1.8-.1-2.7-.1-3.3 0-4.5-1.8-3.5-5 .3-.8.8-1 1.6-1h3.7zM123.2 366.6c.7 0 1.4-.1 2.1 0 1 .2 2.9-.7 2.8 1.2-.1 1.6 1.7 4.5-1.6 4.8-2.5.3-5.3.4-7.7-.4-1.5-.5-.5-2.9-.6-4.4 0-1.3 1.1-1.2 2-1.2h3zm-.2 15.5c.8 0 1.6.1 2.4 0 2.1-.3 2.5.8 2.5 2.6.1 2.1-.8 2.7-2.7 2.5-1-.1-2-.1-3-.1-1.8-.1-3.8.7-3.8-2.6.1-3.1 2-2.3 3.6-2.4.4-.1.7 0 1 0zm330.5-265.8c1.8-.1 4.2-.5 3.6 3.1-.2 1.1-.5 1.8-1.5 1.8-2 0-4.1.2-6.1-.4-1.4-.4-.6-2.1-.7-3.2-.1-1 .5-1.4 1.5-1.4h3.2v.1z"/><path class="st0" d="M373.2 155.9c-2.2-.1-5 .8-4.4-3 .2-1.2.7-1.8 1.9-1.8 1 0 2 .1 3 0 2.1-.1 3.8-.1 3.5 2.8-.2 2.8-1.9 2.2-3.6 1.9-.2.1-.4.1-.4.1zm-36.9 25.4c-1.2-.2-2.7.6-3.5-.7-.6-.9-.4-2.2-.2-3.2.3-1.2 1.5-.8 2.3-.8.9-.1 1.8 0 2.7 0 1.7 0 3.3-.4 3.3 2.4-.1 3-1.8 2.5-3.6 2.4-.3-.1-.6-.1-1-.1zm23.9-147.7c.4 1.9-1.1 3.1-2.2 2.5-2-1-6.1 2-6-2.7.1-4.2 3.5-1.9 5.5-2.3 1.7-.3 3.2.2 2.7 2.5z"/><path class="st1" d="M234.3 45.9c.5 1.9-.7 2.6-2 2.7-4.1.3-5.8-.7-5.6-3 .4-3.9 3.4-1.4 5.1-1.9s3.2 0 2.5 2.2zm237 108.2c4.4 0 4.4.1 4.2 3.2-.1 1.6-1.5 2.2-2 2-1.8-.6-3.5-.2-5.2-.5-1.6-.4-.8-1.8-1-2.8-.1-.8-.2-1.9 1.2-1.9h2.8zM253.8 270.7c-.3-.3-.6-.6-.9-1l-.1.1c.4.3 1.1-.2 1.4.4-.1.1-.2.3-.4.5zm41.8-193.2c-.1-.2-.1-.5-.1-.7.2.1.5.2.7.3-.3.1-.4.3-.6.4z"/><path class="st0" d="M270.6 60.8c.1.1.1.2.2.3-.1 0-.2-.1-.2-.3zM290.5 73c0 .1-.1.2-.1.2 0 .1-.1 0-.2.1l.3-.3zm104.3-4.9c-.1.1-.2.2-.4.3.1-.1.2-.2.4-.3-.1 0 0 0 0 0zm-270.9 336c-.1.1-.1.2-.2.3v-.2c.1 0 .2 0 .2-.1zM337.3 37.9c-.1.1-.3.4-.3.4-.4-.2-.1-.4.1-.5l.2.1zm31.5 424.4c-.1.1-.2.2-.4.2.1-.1.2-.2.2-.4 0 .1.2.2.2.2z"/><path class="st1" d="M390.5 99c-.1.1-.2.2-.4.3 0-.1-.1-.2 0-.3.1-.2.3-.2.4 0 0 .1 0 0 0 0zm-76.8 333.4c.1.2.2.4.3.5-.4.1-.4-.1-.5-.3l.2-.2zM423.6 99c-.4.6-.9.9-1.3 1.6v-1.2h1.6l-.3-.4z"/><path class="st0" d="M436.4 398.9h-.2c0-.1 0-.2.1-.2.1-.1.2-.1.2-.1 0 .1 0 .2-.1.3zM323.9 64.5c0 .1-.1.2-.1.2 0 .1-.1 0-.2.1l.3-.3z"/><path class="st1" d="M215.5 277.6c-.1.1-.2.3-.4.4-.4-.3-.2-.5.1-.7.1.2.1.2.3.3zm168-6.4c-.2.1-.4.2-.6.2.1-.2.2-.4.3-.5l.3.3zm29.4-10c-.1.1-.1.3-.2.4-.1-.1-.1-.2-.2-.3.1 0 .3-.1.4-.1z"/><path class="st0" d="M457 252.3c-.2-.2-.5-.3-.1-.5.1 0 .2.2.4.3l-.3.2zm-11.9-3.2c.1.1.2.2.3.2h-.2c-.1 0-.1-.1-.1-.2z"/><path class="st1" d="M482.7 227.4c-.1.1-.2.3-.4.4l-.2-.2c.1-.1.2-.3.4-.4l.2.2zm-11.6-.1l.4-.4c.1.1.2.2.1.2-.1.1-.2.2-.4.3l-.1-.1zM335.7 330.1c-.2.1-.5.1-.7.1l.3-.6c.1.1.3.3.4.5zm61.4-106.4c-.1.1-.1.2-.1.4 0-.1-.1-.1-.1-.2l.2-.2c.1 0 0 0 0 0zm-156.3-27.9v.4h-.2c.1-.2.1-.3.2-.4z"/><path class="st0" d="M321.5 179.6c-.1.1-.2.2-.4.2.1-.1.2-.2.2-.4l.2.2zm84.8 162.2c-.1.1-.2.2-.4.2.1-.1.3-.2.4-.2-.1-.1 0 0 0 0z"/><path class="st1" d="M365.7 176.6c-.1.3-.3.5-.6.3-.1-.1.1-.4.2-.7.1.1.3.2.4.4zm-.1 170.5v.4h-.2c.1-.1.2-.2.2-.4zm27.9-174.2c-.1.1-.2.2-.4.3 0-.1 0-.2-.1-.2.3-.1.4-.1.5-.1.1 0 0 0 0 0z"/><path class="st0" d="M280.8 171.7c.1.1.2.1.2.1.1 0 0 .1 0 .2 0-.2-.1-.3-.2-.3zm77-17c-.1.1-.1.2-.1.2 0 .1-.1 0-.2 0 .1-.1.2-.1.3-.2z"/><path class="st1" d="M360.8 393.2c-.1.2-.2.5-.5.2-.1-.1.1-.4.2-.5.2.1.3.2.3.3zm89.3-252.1c-.2-.2-.4-.5.1-.7.1-.1.3.2.4.3-.2.1-.3.3-.5.4z"/><path class="st0" d="M195 117.1c3.9 1 5.9 3.4 7.2 6 1.8 3.6 4.3 4.4 8 4.3 6.5-.3 7.6.9 7.6 7.4v25.5c0 5.2-1.3 6.5-6.3 6.5h-55.7c-4.5 0-5.9-1.2-5.9-5.6-.1-9.4-.1-18.7 0-28 0-4.2 1.6-5.8 5.9-5.8 12.4-.1 24.9 0 37.3 0 5.6 0 6.4-1.2 3.9-6.4-.5-1.1-1.1-2.1-2-3.9zM126.5 128.8c-1.7-1-3.1-2.2-3.9-3.9-.8-1.6-1.9-1.9-3.5-1.9-4.6.1-4.8-.2-4.8-4.8v-13.7c0-2.6.9-3.6 3.5-3.6 10.1-.1 20.2 0 30.3 0 2.8 0 3.9.9 3.9 3.6.1 5.1.1 10.2 0 15.3-.1 2.3-1.3 3.4-3.7 3.3-6.6-.1-13.3-.1-20 0-3.6 0-4.1.9-2.4 4.1.4.3 1 .6.6 1.6zM178.7 120.7c-2.1-1.3-3.8-2.8-4.8-4.8s-2.3-2.4-4.3-2.4c-5.7.1-6-.2-6-6v-17c0-3.3 1.2-4.5 4.4-4.5 12.5-.1 25 0 37.5 0 3.5 0 4.8 1.1 4.9 4.5.1 6.3.1 12.6 0 18.9-.1 2.8-1.6 4.2-4.5 4.1-8.2-.1-16.5-.1-24.7 0-4.4 0-5.1 1.1-3 5.1.3.5 1 .9.5 2.1zM114.5 166.6c-2.1-1.3-3.8-2.8-4.8-4.8s-2.3-2.4-4.3-2.4c-5.7.1-6-.2-6-6v-17c0-3.3 1.2-4.5 4.4-4.5 12.5-.1 25 0 37.5 0 3.5 0 4.8 1.1 4.9 4.5.1 6.3.1 12.6 0 18.9-.1 2.8-1.6 4.2-4.5 4.1-8.2-.1-16.5-.1-24.7 0-4.4 0-5.1 1.1-3 5.1.2.5.9.9.5 2.1zM164.1 349.4c-2.6-1.5-4.8-3.2-6-5.6-1.2-2.3-2.9-2.8-5.4-2.8-7.1.1-7.4-.2-7.4-7v-20c0-3.8 1.4-5.3 5.4-5.3 15.6-.1 31.2 0 46.9 0 4.3 0 6 1.3 6.1 5.3.2 7.4.2 14.8 0 22.2-.1 3.3-2 4.9-5.7 4.8-10.3-.2-20.6-.1-30.8 0-5.5 0-6.3 1.3-3.8 5.9.4.6 1.3 1.1.7 2.5zM175.6 260.5c3.3.8 4.9 2.9 6 5 1.5 3 3.6 3.6 6.7 3.5 5.4-.2 6.3.8 6.3 6.1v21.2c0 4.3-1 5.4-5.2 5.4h-46.3c-3.8 0-4.9-1-4.9-4.7-.1-7.8-.1-15.5 0-23.3 0-3.5 1.3-4.8 4.9-4.8 10.3-.1 20.7 0 31 0 4.7 0 5.3-1 3.3-5.4-.5-.7-1-1.5-1.8-3z"/><path class="st1" d="M42.8 165.5c-1.7-1-3.1-2.2-3.9-3.9-.8-1.6-1.9-1.9-3.5-1.9-4.6.1-4.8-.2-4.8-4.8v-13.7c0-2.6.9-3.6 3.5-3.6 10.1-.1 20.2 0 30.3 0 2.8 0 3.9.9 3.9 3.6.1 5.1.1 10.2 0 15.3-.1 2.3-1.3 3.4-3.7 3.3-6.6-.1-13.3-.1-20 0-3.6 0-4.1.9-2.4 4.1.4.3.9.6.6 1.6zM110.4 355.9c-1.9-1-3.4-2.2-4.2-3.9-.8-1.6-2-1.9-3.8-1.9-5 .1-5.3-.2-5.3-4.8v-13.7c0-2.6 1-3.6 3.8-3.6 11-.1 22 0 33.1 0 3.1 0 4.2.9 4.3 3.6.1 5.1.1 10.2 0 15.3-.1 2.3-1.4 3.4-4 3.3-7.2-.1-14.5-.1-21.8 0-3.9 0-4.5.9-2.7 4.1.4.3 1 .6.6 1.6zM214 255c-2.2-1.2-4.1-2.7-5.1-4.6-1-1.9-2.4-2.3-4.5-2.3-6 .1-6.3-.2-6.3-5.8v-16.4c0-3.2 1.2-4.3 4.6-4.3 13.2-.1 26.3 0 39.5 0 3.6 0 5.1 1.1 5.1 4.3.1 6.1.1 12.2 0 18.3-.1 2.7-1.7 4-4.8 4-8.6-.1-17.4-.1-26 0-4.7 0-5.3 1.1-3.2 4.9.4.3 1.1.7.7 1.9zM234.5 218.3c.7-3.7.7-3.7-3-3.7-4.2 0-8.5-.1-12.7 0-2.2.1-3.1-.8-3-3 .1-3.3.1-6.7 0-9.9-.1-2 .7-3 2.8-3h21.8c1.8 0 2.5.8 2.5 2.6-.1 3.6 0 7.3 0 10.8 0 1.1-.3 2.5-1.4 2.3-3.5-.6-5 2-7 3.9z"/><path class="st0" d="M203.5 191.9c-.9-.6-1.7-1.2-2.1-2.1-.4-.9-1-1-1.9-1-2.5 0-2.6-.1-2.6-2.6v-7.4c0-1.4.5-2 1.9-2h16.3c1.5 0 2.1.5 2.1 2 .1 2.7.1 5.5 0 8.2 0 1.2-.7 1.8-2 1.8-3.6-.1-7.2 0-10.8 0-1.9 0-2.2.5-1.3 2.2.3.2.6.3.4.9zM150.3 46c.8-2.5.8-2.5-1.6-2.5h-7.8c-1.2 0-1.6-.4-1.6-1.6v-6.5c0-1.1.5-1.5 1.5-1.5h13.1c1.2 0 1.8.5 1.7 1.7v6.2c0 .8-.2 1.7-1.1 1.6-1.8-.2-2.6.9-3.5 2.1 0 .1-.3.2-.7.5z"/><path class="st1" d="M166.7 78.3c-1.7-1-3.1-2.2-3.9-3.9-.8-1.6-1.9-1.9-3.5-1.9-4.6.1-4.8-.2-4.8-4.8V54c0-2.6.9-3.6 3.5-3.6 10.1-.1 20.2 0 30.3 0 2.8 0 3.9.9 3.9 3.6.1 5.1.1 10.2 0 15.3-.1 2.3-1.3 3.4-3.7 3.3-6.6-.1-13.3-.1-20 0-3.6 0-4.1.9-2.4 4.1.4.3.9.6.6 1.6zM200.5 69.1c-.5-.3-.9-.7-1.1-1.1-.2-.5-.5-.6-1-.6-1.4 0-1.4 0-1.4-1.4v-4c0-.8.3-1.1 1-1.1h8.9c.8 0 1.1.3 1.2 1.1v4.5c0 .7-.4 1-1.1 1h-5.8c-1 0-1.2.3-.7 1.2 0 0 .1.1 0 .4zM103.7 95.5c.7-3.7.7-3.7-3-3.7-4.2 0-8.5-.1-12.7 0-2.2.1-3.1-.8-3-3 .1-3.3.1-6.7 0-9.9-.1-2 .7-3 2.8-3h21.8c1.8 0 2.5.8 2.5 2.6-.1 3.6 0 7.3 0 10.8 0 1.1-.3 2.5-1.4 2.3-3.5-.6-5 2-7 3.9zM45.1 313.5c-1.7-1-3.1-2.2-3.9-3.9-.8-1.6-1.9-1.9-3.5-1.9-4.6.1-4.8-.2-4.8-4.8v-13.7c0-2.6.9-3.6 3.5-3.6 10.1-.1 20.2 0 30.3 0 2.8 0 3.9.9 3.9 3.6.1 5.1.1 10.2 0 15.3-.1 2.3-1.3 3.4-3.7 3.3-6.6-.1-13.3-.1-20 0-3.6 0-4.1.9-2.4 4.1.4.3.9.6.6 1.6zM79.9 398.4c-2.3-1.4-4.1-2.9-5.1-5.1-1-2.1-2.5-2.5-4.6-2.5-6.1.1-6.4-.2-6.4-6.3v-18.1c0-3.5 1.2-4.8 4.6-4.8 13.3-.1 26.6 0 40 0 3.7 0 5.1 1.2 5.2 4.8.1 6.7.1 13.4 0 20.1-.1 3-1.7 4.4-4.9 4.4-8.7-.1-17.6-.1-26.3 0-4.7 0-5.4 1.2-3.2 5.4.4.4 1.2.8.7 2.1zM76.1 358.2c.7-3.7.7-3.7-3-3.7-4.2 0-8.5-.1-12.7 0-2.2.1-3.1-.8-3-3 .1-3.3.1-6.7 0-9.9-.1-2 .7-3 2.8-3H82c1.8 0 2.5.8 2.5 2.6-.1 3.6 0 7.3 0 10.8 0 1.1-.3 2.5-1.4 2.3-3.4-.6-4.9 2-7 3.9zM76 306.3c1.8 1.1 3.3 2.4 4.2 4.2.8 1.7 2 2.1 3.7 2.1 5-.1 5.2.2 5.2 5.2v14.8c0 2.8-1 3.9-3.8 3.9-10.9.1-21.7 0-32.6 0-3 0-4.2-.9-4.2-3.9-.1-5.5-.1-11 0-16.4.1-2.5 1.4-3.6 4-3.6 7.1.1 14.3.1 21.5 0 3.8 0 4.4-.9 2.6-4.4-.4-.5-1-.8-.6-1.9zM28.7 164.8c-2 4.3-2 4.4 2.6 4.4h13.8c2.2 0 2.8.6 2.8 2.8v11c0 2.2-.6 2.8-2.8 2.8H21.8c-2.2 0-2.6-.5-2.7-2.7v-11.4c0-1.9.8-2.8 2.6-2.6 1.9.2 3.4-.2 4.2-2.2.5-.8 1.4-1.6 2.8-2.1zM87.4 107.4c-1.1 4.1-1.1 4.1 3.3 4.1 4.5 0 9 .1 13.6 0 1.9 0 3 .7 3 2.8v11.4c0 1.8-.8 2.8-2.7 2.8H80.7c-1.8 0-2.6-.8-2.6-2.5v-12c0-1.2.5-2.5 1.8-2.3 3 .4 4.6-1.2 6-3.4.3-.6.8-1.1 1.5-.9zM75.5 139.1c.3-1.8.3-1.8-1.4-1.8h-6c-1 0-1.5-.4-1.4-1.4.1-1.6.1-3.2 0-4.7 0-.9.3-1.4 1.3-1.4h10.3c.8 0 1.2.4 1.2 1.2v5.1c0 .5-.1 1.2-.7 1.1-1.6-.2-2.3 1-3.3 1.9zM79 102.4c.3-1.8.3-1.8-1.4-1.8h-6c-1 0-1.5-.4-1.4-1.4.1-1.6.1-3.2 0-4.7 0-.9.3-1.4 1.3-1.4h10.3c.8 0 1.2.4 1.2 1.2v5.1c0 .5-.1 1.2-.7 1.1-1.7-.2-2.4 1-3.3 1.9zM150.3 95.5c.4-2.2.4-2.2-1.8-2.2H141c-1.3 0-1.8-.5-1.8-1.8.1-2 .1-3.9 0-5.9 0-1.2.4-1.8 1.6-1.8h12.9c1 0 1.5.5 1.5 1.5v6.4c0 .6-.2 1.5-.8 1.4-2.1-.2-2.9 1.3-4.1 2.4zM160.5 82.9c.2-.9.2-.9-.7-.9h-3c-.5 0-.7-.2-.7-.7V79c0-.5.2-.7.7-.7h5.1c.4 0 .6.2.6.6v2.6c0 .3-.1.6-.3.5-.8-.2-1.2.4-1.7.9zM146.8 74.7c-.3 1.1-.3 1.1.9 1.1h3.6c.5 0 .8.2.8.7v3c0 .5-.2.7-.7.7H145c-.5 0-.7-.2-.7-.7v-3.2c0-.3.1-.7.5-.6.8.1 1.2-.3 1.6-.9.1 0 .2-.1.4-.1zM142.4 56.5c-.3 1.3-.3 1.3 1 1.3h4.2c.6 0 .9.2.9.9v3.5c0 .6-.3.9-.8.9h-7.4c-.5 0-.8-.2-.8-.8v-3.7c0-.4.2-.8.5-.7.9.1 1.4-.4 1.9-1 .2-.3.3-.4.5-.4zM110.3 65.7c-.3 1.3-.3 1.3 1 1.3h4.2c.6 0 .9.2.9.9v3.5c0 .6-.3.9-.8.9h-7.4c-.5 0-.8-.2-.8-.8v-3.7c0-.4.2-.8.5-.7.9.1 1.4-.4 1.9-1 .2-.3.3-.4.5-.4zM62.9 115c.3-1.8.3-1.8-1.4-1.8h-6c-1 0-1.5-.4-1.4-1.4.1-1.6.1-3.2 0-4.7 0-.9.3-1.4 1.3-1.4h10.3c.8 0 1.2.4 1.2 1.2v5.1c0 .5-.1 1.2-.7 1.1-1.6-.2-2.3 1-3.3 1.9zM42.6 126.3c-.5 1.7-.5 1.7 1.4 1.7h5.8c.8 0 1.3.3 1.3 1.2v4.9c0 .8-.4 1.2-1.2 1.2H39.7c-.8 0-1.1-.3-1.1-1.1v-5.1c0-.5.2-1.1.8-1 1.3.2 2-.5 2.6-1.4.1-.2.3-.4.6-.4zM50.4 120.6c.2-.9.2-.9-.7-.9h-3c-.5 0-.7-.2-.7-.7v-2.3c0-.5.2-.7.7-.7h5.1c.4 0 .6.2.6.6v2.6c0 .3-.1.6-.3.5-.9-.1-1.2.5-1.7.9zM81.6 154.5c.4-2.3.4-2.3-1.8-2.3H72c-1.3 0-1.9-.5-1.9-1.9.1-2.1.1-4.1 0-6.1 0-1.2.4-1.9 1.7-1.9h13.4c1.1 0 1.6.5 1.6 1.6v6.7c0 .7-.2 1.5-.9 1.4-2.1-.3-3 1.4-4.3 2.5zM26.8 202.7c.5-2.7.5-2.7-2.1-2.7h-9.1c-1.6 0-2.2-.6-2.2-2.2.1-2.4.1-4.8 0-7.1 0-1.4.5-2.2 2-2.2h15.7c1.3 0 1.8.6 1.8 1.9v7.8c0 .8-.2 1.8-1 1.7-2.5-.4-3.6 1.4-5.1 2.8z"/><path class="st0" d="M113.1 272.2c-1.3-.8-2.3-1.7-2.9-2.9-.6-1.2-1.4-1.4-2.6-1.4-3.4 0-3.6-.1-3.6-3.6v-10.2c0-2 .7-2.7 2.6-2.7h22.6c2.1 0 2.9.7 2.9 2.7.1 3.8.1 7.6 0 11.4 0 1.7-1 2.5-2.7 2.5-4.9-.1-9.9 0-14.8 0-2.7 0-3 .7-1.8 3 .1.2.5.5.3 1.2zM156.9 264.3c-.1-2.1-.1-2.1-2.4-2.1h-6.9c-1.6 0-2.4-.5-2.3-2.2.1-1.8 0-3.6 0-5.5 0-1.4.6-2 2-2h12.6c1.6 0 2.1.7 2 2.2v3.8c0 2 .4 4-2.7 3.7-1.1 0-1.1 1.9-2.3 2.1zM113.6 319.2c-1.5-.8-2.7-1.7-3.4-3-.7-1.3-1.6-1.5-3.1-1.5-4.1 0-4.2-.1-4.2-3.8v-10.8c0-2.1.8-2.8 3.1-2.8h26.6c2.5 0 3.4.7 3.5 2.8.1 4 .1 8 0 12 0 1.8-1.1 2.6-3.2 2.6-5.8-.1-11.7 0-17.5 0-3.1 0-3.6.7-2.1 3.2.1.3.6.5.3 1.3zM91.9 289.4c-.9-.5-1.6-1-2-1.8-.4-.7-1-.9-1.8-.9-2.4 0-2.5-.1-2.5-2.2v-6.3c0-1.2.5-1.7 1.8-1.7H103c1.4 0 2 .4 2 1.7.1 2.3.1 4.7 0 7 0 1-.7 1.5-1.9 1.5H92.8c-1.8 0-2.1.4-1.3 1.9.3.2.6.3.4.8zM125.9 286.1c-.1-2.1-.1-2.1-2.4-2.1h-6.9c-1.6 0-2.4-.5-2.3-2.2.1-1.8 0-3.6 0-5.5 0-1.4.6-2 2-2h12.6c1.6 0 2.1.7 2 2.2v3.8c0 2 .4 4-2.7 3.7-1.1 0-1.1 1.9-2.3 2.1zM75.4 273.5c-.1-2.1-.1-2.1-2.4-2.1h-6.9c-1.6 0-2.4-.5-2.3-2.2.1-1.8 0-3.6 0-5.5 0-1.4.6-2 2-2h12.6c1.6 0 2.1.7 2 2.2v3.8c0 2 .4 4-2.7 3.7-1.1 0-1.1 1.9-2.3 2.1zM231.2 137.8c.7-2.1.7-2.1-1.3-2.1h-6.6c-1 0-1.4-.4-1.4-1.4v-5.5c0-.9.4-1.3 1.3-1.3h11.1c1 0 1.5.5 1.5 1.5v5.2c0 .7-.2 1.5-.9 1.4-1.5-.2-2.2.7-3 1.8-.1.1-.3.1-.7.4zM128.8 45.8c.4-1.3.4-1.3-.8-1.3h-4c-.6 0-.8-.2-.8-.8v-3.3c0-.6.2-.8.8-.8h6.7c.6 0 .9.3.9.9v3.1c0 .4-.1.9-.6.8-.9-.1-1.3.4-1.8 1.1 0 .1-.2.1-.4.3zM44.7 262c-.2-3.5-.2-3.5-3.9-3.5-3.7 0-7.4-.1-11.1 0-2.5.1-3.9-.8-3.7-3.5.2-2.9.1-5.9 0-8.9-.1-2.3 1-3.2 3.2-3.2 6.8.1 13.6.1 20.4 0 2.5 0 3.4 1.2 3.3 3.5-.1 2.1-.1 4.1 0 6.2.1 3.2.6 6.4-4.4 6-1.8 0-1.8 3.1-3.8 3.4zM46 237.6c-.1-2.7-.1-2.7-3-2.7-2.8 0-5.7-.1-8.5 0-1.9.1-3-.6-2.8-2.7.1-2.2.1-4.5 0-6.8-.1-1.8.8-2.5 2.5-2.4 5.2.1 10.4.1 15.6 0 1.9 0 2.6.9 2.5 2.7-.1 1.6-.1 3.1 0 4.7.1 2.4.5 4.9-3.4 4.6-1.3 0-1.3 2.3-2.9 2.6zM47 208.7c-.1-1.8-.1-1.8-2-1.8h-5.7c-1.3 0-2-.4-1.9-1.8.1-1.5 0-3 0-4.5 0-1.2.5-1.7 1.7-1.6h10.4c1.3 0 1.7.6 1.7 1.8v3.1c0 1.6.3 3.3-2.2 3.1-1-.1-1 1.5-2 1.7zM22.8 226.1c-.1-1.3-.1-1.3-1.5-1.3h-4.2c-1 0-1.5-.3-1.4-1.4.1-1.1 0-2.2 0-3.4 0-.9.4-1.2 1.2-1.2h7.8c1 0 1.3.4 1.3 1.4v2.4c0 1.2.2 2.4-1.7 2.3-.7-.1-.7 1.1-1.5 1.2zM14.3 238.6c-.6-.3-1.1-.7-1.4-1.3-.3-.5-.7-.6-1.3-.6-1.7 0-1.7-.1-1.7-1.6v-4.4c0-.9.3-1.2 1.3-1.2h10.9c1 0 1.4.3 1.4 1.2v4.9c0 .7-.5 1.1-1.3 1.1H15c-1.3 0-1.5.3-.9 1.3.2.2.4.3.2.6z"/><path class="st1" d="M12.9 204.3c-.3 1.3-.3 1.3 1.1 1.3h4.3c.6 0 1 .2 1 .9v3.6c0 .6-.3.9-.9.9h-7.6c-.6 0-.8-.3-.8-.8v-3.8c0-.4.2-.8.6-.7 1 .1 1.5-.4 1.9-1.1 0-.2.2-.3.4-.3zM31.9 215.8c.3-1.3.3-1.3-1-1.3h-4.4c-.8 0-1.1-.3-1.1-1.1v-3.5c0-.7.3-1.1 1-1.1H34c.6 0 .9.3.9.9v3.8c0 .4-.1.9-.5.8-1.3-.1-1.8.8-2.5 1.5zM15.8 250.2c.3-1.3.3-1.3-1-1.3h-4.4c-.8 0-1.1-.3-1.1-1.1v-3.5c0-.7.3-1.1 1-1.1h7.6c.6 0 .9.3.9.9v3.8c0 .4-.1.9-.5.8-1.2-.1-1.8.9-2.5 1.5zM17.5 252.5c-.3 1.3-.3 1.3 1.1 1.3h4.3c.6 0 1 .2 1 .9v3.6c0 .6-.3.9-.9.9h-7.6c-.6 0-.8-.3-.8-.8v-3.8c0-.4.2-.8.6-.7 1 .1 1.5-.4 1.9-1.1 0-.2.1-.3.4-.3zM28.2 270.2c-.3 1-.3 1 .8 1h3.3c.5 0 .7.2.7.7v2.7c0 .4-.2.7-.7.7h-5.7c-.4 0-.6-.2-.6-.6v-2.9c0-.3.1-.6.4-.6.7.1 1.1-.3 1.4-.8.1-.1.3-.2.4-.2zM52.1 282.7c.5-2.7.5-2.7-2.1-2.7h-9.1c-1.6 0-2.2-.6-2.2-2.2.1-2.4.1-4.8 0-7.1 0-1.4.5-2.2 2-2.2h15.7c1.3 0 1.8.6 1.8 1.9v7.8c0 .8-.2 1.8-1 1.7-2.6-.4-3.7 1.5-5.1 2.8zM82.5 302.7c.4-1.9.4-1.9-1.5-1.9h-6.4c-1.1 0-1.6-.4-1.5-1.5.1-1.7.1-3.4 0-5 0-1 .4-1.5 1.4-1.5h11.1c.9 0 1.3.4 1.3 1.3v5.5c0 .6-.2 1.3-.7 1.2-1.9-.4-2.6.9-3.7 1.9zM101.2 316.8c-.3 1.3-.3 1.3 1.1 1.3h4.3c.6 0 1 .2 1 .9v3.6c0 .6-.3.9-.9.9h-7.6c-.6 0-.8-.3-.8-.8v-3.8c0-.4.2-.8.6-.7 1 .1 1.5-.4 1.9-1.1 0-.2.2-.4.4-.3z"/><path class="st0" d="M23.4 295.3c-.1-2.8-.1-2.8-3.1-2.8s-5.9-.1-8.9 0c-2 .1-3.1-.7-3-2.8.1-2.3.1-4.7 0-7.1-.1-1.9.8-2.6 2.6-2.5 5.4.1 10.9.1 16.3 0 2 0 2.7.9 2.7 2.8-.1 1.7-.1 3.3 0 4.9.1 2.5.5 5.1-3.5 4.8-1.5-.1-1.5 2.4-3.1 2.7zM46.3 353.8c-.1-2.8-.1-2.8-3.1-2.8s-5.9-.1-8.9 0c-2 .1-3.1-.7-3-2.8.1-2.3.1-4.7 0-7.1-.1-1.9.8-2.6 2.6-2.5 5.4.1 10.9.1 16.3 0 2 0 2.7.9 2.7 2.8-.1 1.7-.1 3.3 0 4.9.1 2.5.5 5.1-3.5 4.8-1.4-.1-1.4 2.4-3.1 2.7zM31.1 335.5c-.1-1.9-.1-1.9-2.2-1.9h-6.2c-1.4 0-2.2-.5-2.1-2 .1-1.6 0-3.3 0-5 0-1.3.6-1.8 1.8-1.8h11.4c1.4 0 1.9.6 1.9 2v3.5c0 1.8.3 3.6-2.5 3.4-.9-.2-.9 1.5-2.1 1.8zM50.6 371c-.1-1.9-.1-1.9-2.2-1.9h-6.2c-1.4 0-2.2-.5-2.1-2 .1-1.6 0-3.3 0-5 0-1.3.6-1.8 1.8-1.8h11.4c1.4 0 1.9.6 1.9 2v3.5c0 1.8.3 3.6-2.5 3.4-.9-.1-.9 1.6-2.1 1.8zM91.7 166.2c-.1-1.8-.1-1.8-2-1.8H84c-1.3 0-2-.4-1.9-1.8.1-1.5 0-3 0-4.5 0-1.2.5-1.7 1.7-1.6h10.4c1.3 0 1.7.6 1.7 1.8v3.1c0 1.6.3 3.3-2.2 3.1-.9-.1-.9 1.5-2 1.7zM101.4 267.4c-2.8-.3-4.9-1.7-6.8-3.3-4.9-4.1-8.9-8.8-11.6-14.4-.9-1.9-2.2-2.4-4.3-2.4-4.5.1-9 .1-13.5 0-5.8 0-9.4-3.5-9.4-9v-56.6c0-5.4 3.9-9.1 9.7-9.1h113.4c7.6 0 11.1 3.3 11.1 10.5 0 18-.2 36 .1 53.9.1 6.1-4.2 10.5-11.1 10.4-26.2-.2-52.4-.1-78.6-.1h-2.1c-3.1.2-4.2 1.4-3.9 4.3.6 4.8 2.3 9.2 5.6 13.1.6.8 1.5 1.4 1.4 2.7z"/></svg>