<svg xmlns="http://www.w3.org/2000/svg" width="80" height="80" xmlns:v="https://vecta.io/nano"><path d="M56.033 8.61A33.63 33.63 0 0 0 1.181 31.453a34.39 34.39 0 0 0-.145 3.138c0 18.577 15.058 33.635 33.635 33.635a33.58 33.58 0 0 0 11.213-1.914l21.157-22.555c3.629-12.862-.69-26.653-11.007-35.147h0z" fill="#a5e2fb"/><path d="M56.033 8.61l-1.339 1.868c-2.054 2.236-3.862 4.685-5.396 7.305l-1.241 2.121c-.341.611-.261 1.371.201 1.896.474.542 1.131.889 1.845.977l.598.075c2.335.289 4.281 1.926 4.966 4.177a5.84 5.84 0 0 1-1.72 6.056l-5.891 5.235a2.69 2.69 0 0 0-.885 2.038v1.3c2.177-1.249 4.645-1.901 7.155-1.89a14.51 14.51 0 0 1 10.219 4.19l-.002-.006.487-.043 2.012-.151c3.627-12.862-.692-26.652-11.008-35.147h0z" fill="#5fcda4"/><path d="M67.978 66.314l-1.743 1.742-2.512-2.51-.013-.014a14.27 14.27 0 0 0 1.742-1.742l.014.013 2.512 2.512z" fill="#6d7486"/><path d="M66.076 43.855l.964-.097-.739 2.301c-.523-.754-1.117-1.457-1.772-2.1l.006-.006.491-.043.814-.037.236-.018h0z" fill="#a5e2fb"/><path d="M78.024 73.563a3.21 3.21 0 1 1-4.54 4.54L66.87 71.49l4.54-4.542 6.614 6.615z" fill="#e87187"/><path fill="#ad5e73" d="M69.077 64.615l-4.542 4.54 2.335 2.335 4.54-4.542z"/><path d="M61.031 45.809c-3.345-2.63-7.914-3.073-11.702-1.134s-6.1 5.905-5.922 10.157 2.815 8.01 6.752 9.625a33.78 33.78 0 0 0 14.25-14.137c-.712-1.773-1.877-3.328-3.378-4.51z" fill="#86bdce"/><path d="M61.031 45.809a5.73 5.73 0 0 0-.953 1.495l-.209.475a4.46 4.46 0 0 1-4.083 2.666h-3.469c-.828.002-1.523-.626-1.603-1.45l-.139-1.386a5.63 5.63 0 0 0-1.2-2.961 10.9 10.9 0 0 1 11.656 1.162h0z" fill="#4ca987"/><path d="M66.301 46.059a14.6 14.6 0 0 1-.849 17.731 14.27 14.27 0 0 1-1.742 1.742c-4.608 3.879-11.127 4.527-16.408 1.63s-8.239-8.742-7.444-14.713S45.035 41.61 50.89 40.195s11.977.915 15.411 5.864h0zm-1.112 8.314a10.9 10.9 0 0 0-18.607-7.711 10.9 10.9 0 0 0 7.711 18.607c2.894.013 5.673-1.131 7.719-3.177s3.19-4.825 3.177-7.719h0z" fill="#5fa8ed"/><path d="M5.817 34.591l.145-3.138C7.485 15.065 20.655 2.192 37.075 1.042c-.794-.056-1.595-.085-2.404-.086-17.365-.01-31.88 13.207-33.49 30.497a34.39 34.39 0 0 0-.145 3.138c0 18.577 15.058 33.635 33.635 33.635.805 0 1.603-.028 2.393-.085-17.463-1.225-31.248-15.776-31.248-33.55z" fill="#8cc2d3"/><path d="M36.261 44.121c.225.262.322.61.265.95a1.22 1.22 0 0 1-.475.768L32.61 48.48a5.59 5.59 0 0 0-1.938 2.789l-1.157 3.751a2.33 2.33 0 0 1-.44.813l-1.125 1.355a6.43 6.43 0 0 0-1.487 3.514c-.059.659-.478 1.231-1.088 1.487a.9.9 0 0 1-.912-.129.93.93 0 0 1-.328-.58l-1.055-6.333c-.132-.789-.454-1.534-.939-2.171l-3.884-5.092c-.35-.459-.609-.98-.763-1.536l-1.281-4.625a4.87 4.87 0 0 0-3.394-3.38l-.279-.075c-.566-.155-1.086-.446-1.514-.848l-2.39-2.252a5.35 5.35 0 0 1-.966-1.214c-1.14-1.964-3.399-2.989-5.627-2.553l-.457.091-.405-.038A33.65 33.65 0 0 1 19.063 4.789L21.5 6.623l1.924 1.444c.322.242.659.466 1.007.669 1.326.776 2.466 1.832 3.342 3.095l2.282 3.291c.894 1.283.851 2.998-.107 4.234l-1.058 1.374c-.529.683-1.38 1.036-2.237.929l-1.2-.153c-1.731-.223-3.427.614-4.303 2.124-.509.847-1.475 1.31-2.454 1.176l-2.747-.349a4.48 4.48 0 0 0-4.298 1.943c-.89 1.311-.916 3.025-.067 4.363l1.831 2.892c1.039 1.64 3.168 2.2 4.88 1.283l1.885-1.01c1.076-.572 2.373-.54 3.42.084l3.578 2.147c.143.086.308.129.475.124 1.662-.043 3.211.851 4.18 2.202l1.75 2.44.39.5 2.29 2.695z" fill="#5fcda4"/><path d="M5.962 31.453c.957-10.248 6.555-19.493 15.193-25.09l-2.092-1.575A33.65 33.65 0 0 0 1.181 31.453l.405.038.457-.091c1.334-.263 2.717-.002 3.864.727l.055-.674z" fill="#51a884"/><path d="M6.621 24.972a.95.95 0 0 0 .731-.029c.23-.107.409-.3.496-.538 1.716-4.64 4.601-8.758 8.375-11.955.265-.22.392-.565.331-.903a.96.96 0 0 0-.622-.734c-.324-.115-.685-.047-.946.179a30.65 30.65 0 0 0-8.934 12.753c-.088.238-.077.501.029.731a.96.96 0 0 0 .538.497h0zm11.534-14.23a.95.95 0 0 0 .535-.165l.829-.542c.293-.18.466-.504.454-.847a.96.96 0 0 0-.511-.814c-.304-.16-.671-.144-.96.042l-.884.577c-.348.236-.502.671-.378 1.073s.495.676.915.675h.001zm51.598 53.197c-.373-.373-.979-.373-1.352 0l-.723.723-.949-.949a15.53 15.53 0 0 0 .629-17.782c5.262-15.194-.648-32.01-14.259-40.57s-31.328-6.604-42.743 4.721-13.513 29.025-5.062 42.704 25.22 19.724 40.455 14.583a15.53 15.53 0 0 0 17.884-.561l.949.949-.723.723c-.373.373-.373.979 0 1.352l8.948 8.948A4.14 4.14 0 0 0 75.754 80c1.685 0 3.205-1.015 3.849-2.572a4.17 4.17 0 0 0-.903-4.541l-8.947-8.948zM56.196 10.025A32.69 32.69 0 0 1 66.29 42.873l-1.42.099c-4.508-4.193-11.067-5.328-16.722-2.894a1.68 1.68 0 0 1 .541-1.042l5.908-5.234c1.982-1.76 2.76-4.512 1.992-7.05-.796-2.614-3.056-4.515-5.768-4.849l-.6-.074a1.97 1.97 0 0 1-1.243-.658c-.192-.216-.23-.529-.096-.785l1.241-2.122a41.67 41.67 0 0 1 5.274-7.139l.798-1.101zM18.988 5.928l3.861 2.903c.352.264.719.508 1.098.73a9.67 9.67 0 0 1 3.04 2.815l2.282 3.291a2.62 2.62 0 0 1-.078 3.106l-1.058 1.373c-.321.415-.838.63-1.359.564l-1.2-.153a5.29 5.29 0 0 0-5.25 2.592c-.318.514-.909.792-1.507.708l-2.747-.349c-2.043-.266-4.061.646-5.211 2.355a4.94 4.94 0 0 0-.084 5.412l1.832 2.891a4.68 4.68 0 0 0 6.139 1.615l1.885-1.01a2.52 2.52 0 0 1 2.476.06l3.578 2.147a1.83 1.83 0 0 0 .992.261c1.283-.034 2.544.641 3.378 1.804l1.751 2.44c.137.191.285.38.439.561l2.29 2.694c.043.049.062.116.049.18a.29.29 0 0 1-.114.161l-3.44 2.642a6.52 6.52 0 0 0-2.27 3.265l-1.156 3.752a1.39 1.39 0 0 1-.262.484l-1.126 1.354c-.965 1.142-1.559 2.55-1.703 4.038a.83.83 0 0 1-.441.661l-1.048-6.287c-.158-.942-.543-1.832-1.121-2.592l-3.884-5.093a3.56 3.56 0 0 1-.601-1.211l-1.282-4.625a5.83 5.83 0 0 0-4.064-4.047l-.28-.076c-.415-.114-.796-.327-1.109-.622l-2.391-2.25a4.45 4.45 0 0 1-.796-1 6.29 6.29 0 0 0-6.236-3.074 32.75 32.75 0 0 1 16.728-24.47h0zM34.67 67.271c-18.019 0-32.678-14.66-32.678-32.679a32.97 32.97 0 0 1 .077-2.221l.16-.032c1.828-.354 3.68.487 4.615 2.098a6.37 6.37 0 0 0 1.137 1.429l2.391 2.251c.542.509 1.2.878 1.917 1.074l.279.076c1.321.364 2.355 1.393 2.724 2.713l1.281 4.625a5.46 5.46 0 0 0 .924 1.859l3.884 5.093c.39.512.649 1.112.756 1.746l1.056 6.335c.137.908.918 1.579 1.836 1.577.246 0 .489-.048.715-.143a2.74 2.74 0 0 0 1.672-2.282 5.45 5.45 0 0 1 1.268-2.99l1.125-1.354a3.29 3.29 0 0 0 .619-1.143l1.156-3.752a4.61 4.61 0 0 1 1.607-2.312l3.44-2.641a2.17 2.17 0 0 0 .838-1.376c.099-.616-.076-1.245-.48-1.721l-2.29-2.694a6.81 6.81 0 0 1-.342-.438l-1.751-2.44c-1.199-1.672-3.052-2.642-4.959-2.601l-3.559-2.135c-1.336-.796-2.99-.836-4.363-.106l-1.885 1.01a2.76 2.76 0 0 1-3.62-.952l-1.831-2.891c-.644-1.017-.624-2.319.051-3.316a3.53 3.53 0 0 1 3.386-1.531l2.747.349c1.361.187 2.702-.461 3.402-1.644a3.38 3.38 0 0 1 3.354-1.656l1.201.154c1.194.149 2.378-.343 3.115-1.294l1.058-1.373a4.53 4.53 0 0 0 .135-5.363l-2.282-3.291a11.59 11.59 0 0 0-3.645-3.376 9.64 9.64 0 0 1-.916-.609l-3.108-2.337a32.62 32.62 0 0 1 33.83 3.838l-.768 1.072a43.59 43.59 0 0 0-5.477 7.425l-1.246 2.131a2.6 2.6 0 0 0 .311 3 3.88 3.88 0 0 0 2.447 1.297l.598.074c1.96.242 3.593 1.616 4.167 3.506a4.88 4.88 0 0 1-1.437 5.062l-5.891 5.234c-.78.702-1.221 1.706-1.208 2.755v.72c-4.209 2.554-6.96 6.95-7.415 11.852s1.439 9.73 5.105 13.015a32.69 32.69 0 0 1-9.235 1.325h0zm19.623.749A13.65 13.65 0 1 1 67.94 54.372c-.009 7.534-6.114 13.639-13.647 13.647h0zm11.19-2.848l.842.842-.391.391-.842-.842a18.02 18.02 0 0 0 .391-.391h0zm.405 3.984l3.187-3.188.982.982-3.188 3.187-.981-.981zm11.46 8.271c-.881.879-2.307.879-3.188 0l-5.938-5.938 3.188-3.187 5.938 5.938c.88.88.88 2.307 0 3.187h0zM54.293 42.52c-6.546 0-11.852 5.306-11.852 11.852s5.306 11.852 11.852 11.852 11.852-5.306 11.852-11.852A11.87 11.87 0 0 0 54.293 42.52zm0 1.912a9.88 9.88 0 0 1 5.387 1.594 6.69 6.69 0 0 0-.478.896l-.209.51c-.555 1.281-1.812 2.115-3.208 2.13h-3.469c-.344-.016-.623-.284-.652-.626l-.139-1.405a6.66 6.66 0 0 0-.744-2.456 9.88 9.88 0 0 1 3.51-.642h0zm-9.94 9.94a9.94 9.94 0 0 1 4.718-8.453 4.69 4.69 0 0 1 .553 1.785l.139 1.422a2.59 2.59 0 0 0 2.555 2.348h3.469a5.45 5.45 0 0 0 4.959-3.275l.209-.493a5.31 5.31 0 0 1 .243-.475 9.98 9.98 0 0 1 2.149 3.044 32.62 32.62 0 0 1-13.222 13.116 9.95 9.95 0 0 1-5.771-9.019h0zm9.94 9.94a10.1 10.1 0 0 1-1.674-.143c4.677-2.833 8.614-6.739 11.484-11.393a9.93 9.93 0 0 1-2.236 8.038c-1.889 2.221-4.658 3.501-7.574 3.499v-.001z" fill="#284268"/></svg>