<svg xmlns="http://www.w3.org/2000/svg" width="46" height="80" xmlns:v="https://vecta.io/nano"><path d="M34.509 9.457V35.44l6.957 6.957V9.457c0-4.603-6.957-4.597-6.957 0zm-3.48 22.503V5.977c0-4.603-6.957-4.597-6.957 0v23.757c2.64-.353 5.117.487 6.957 2.227h0zM9.922 38.25c3.247 3.247 8.147-1.66 4.903-4.903l-4.903-4.903c-3.283-3.283-8.187 1.657-4.94 4.903l4.94 4.903zm7.997-4.897c.813-1.083 1.583-1.827 2.677-2.47V9.457c0-4.603-6.957-4.597-6.957 0v19.027c2.287 2.383 3.533 3.127 4.28 4.87h0z" fill="#ffcc80"/><path d="M8.275 62.47c.487 3.05-2.043 13.287 4.76 13.287h19.037c2.633 0 4.76-2.33 4.76-5.217v-8.07c-7.967 8.44-20.593 8.44-28.557 0z" fill="#2196f3"/><path d="M23.109 31.06c-.033 0-.07.033-.103.033-4.453 2.373-2.537 6.773-1.94 10.047l10.853 10.887c1.73-1.393 1.087 1.293-.667 1.293-1.253 0-.597-.14-12.07-11.373-1.01-1.01-1.773-2.227-2.157-3.547-6.66 6.677-12.473-2.503-13.6-3.2v15.233c0 7.897 5.567 14.053 6.19 14.053 1.487 1.987 7.16 5.08 12.937 5.08 5.97 0 11.58-3.263 12.94-5.08.033 0 .033 0 .07-.033 8.093-7.57 5.693-16.763 6.123-19.687-10.403-9.133-13.3-16.343-18.577-13.707z" fill="#ffcc80"/><g fill="#000"><path d="M32.552 80h-20a5.84 5.84 0 0 1-5.833-5.833V65.1a2.5 2.5 0 1 1 5 0v9.067c0 .453.38.833.833.833h20c.453 0 .833-.38.833-.833v-9.2a2.5 2.5 0 1 1 5 0v9.2A5.84 5.84 0 0 1 32.552 80zM12.265 43.187c-1.92 0-3.84-.73-5.303-2.193L2.249 36.28a7.45 7.45 0 0 1-2.197-5.303c0-2.003.78-3.89 2.197-5.303 2.83-2.83 7.777-2.83 10.607 0l4.713 4.713c2.923 2.923 2.923 7.683 0 10.607-1.46 1.463-3.38 2.193-5.303 2.193h0zm-4.713-14.71c-.667 0-1.297.26-1.767.733a2.48 2.48 0 0 0-.733 1.767c0 .667.26 1.297.733 1.767l4.713 4.713a2.51 2.51 0 0 0 3.537 0c.974-.973.973-2.56 0-3.537l-4.717-4.71c-.47-.473-1.1-.733-1.767-.733h0z"/><path d="M22.552 34.033a2.5 2.5 0 0 1-2.5-2.5v-20.7a2.5 2.5 0 1 0-5 0V28.9a2.5 2.5 0 1 1-5 0V10.833a7.51 7.51 0 0 1 7.5-7.5 7.51 7.51 0 0 1 7.5 7.5v20.7a2.5 2.5 0 0 1-2.5 2.5z"/><path d="M32.552 37.267a2.5 2.5 0 0 1-2.5-2.5V7.5a2.5 2.5 0 1 0-5 0v24.033a2.5 2.5 0 1 1-5 0V7.5a7.51 7.51 0 0 1 7.5-7.5 7.51 7.51 0 0 1 7.5 7.5v27.267a2.5 2.5 0 0 1-2.5 2.5z"/><path d="M22.552 70c-6.733 0-22.5 0-22.5-18.333V30.833a2.5 2.5 0 0 1 5 0v20.833C5.052 62.77 11.749 65 22.552 65s17.5-2.23 17.5-13.333V10.833a2.5 2.5 0 1 0-5 0v24.333a2.5 2.5 0 1 1-5 0V10.833a7.51 7.51 0 0 1 7.5-7.5 7.51 7.51 0 0 1 7.5 7.5v40.833C45.052 70 29.285 70 22.552 70z"/><path d="M30.885 55.267a2.49 2.49 0 0 1-1.77-.737l-10.39-10.423c-1.82-1.777-2.8-4.253-2.66-6.77-.003-2.25.953-4.493 2.687-6.183 2.737-2.807 7.52-3.473 10.877-1.497.567.253 1.3.787 2.033 1.52l12.653 12.62a2.5 2.5 0 0 1 .003 3.537c-.973.973-2.557.98-3.537.003L28.125 34.713c-.317-.32-.587-.527-.83-.64-1.943-1.11-3.773-.657-5.017.617-.803.783-1.223 1.757-1.223 2.787-.067 1.23.353 2.273 1.18 3.077l10.417 10.45a2.5 2.5 0 0 1-.007 3.537c-.483.483-1.123.727-1.76.727h0z"/></g></svg>