<svg xmlns="http://www.w3.org/2000/svg" width="80" height="74" xmlns:v="https://vecta.io/nano"><path d="M24.821 65.114l-3.924 6.933h-8.031l5.458-9.643zm18.35 0l3.924 6.933h8.031l-5.458-9.643z" fill="#ffb954"/><circle fill="#ff5d5d" cx="33.996" cy="33.996" r="32.437"/><circle fill="#fff" cx="33.996" cy="33.996" r="22.456"/><circle fill="#fe8f8d" cx="33.996" cy="33.996" r="12.476"/><path fill="#ffb954" d="M62.99 27.458l-6.538 6.538 6.538 6.538h15.294l-6.538-6.538 6.538-6.538z"/><path d="M48.793 19.241c.305.305.704.457 1.103.457s.798-.152 1.103-.457a1.56 1.56 0 0 0 0-2.206l-.021-.021a1.56 1.56 0 0 0-2.206 2.206l.021.021zm25.159 14.755l5.435-5.435a1.56 1.56 0 0 0-1.103-2.662H67.017a33.88 33.88 0 0 0-8.982-15.941A33.77 33.77 0 0 0 33.996 0 33.77 33.77 0 0 0 9.957 9.957 33.77 33.77 0 0 0 0 33.996a33.77 33.77 0 0 0 9.957 24.039 34.24 34.24 0 0 0 6.249 4.943l-4.698 8.3a1.56 1.56 0 0 0 1.357 2.328h8.031a1.56 1.56 0 0 0 1.357-.791l3.322-5.869a34.2 34.2 0 0 0 8.42 1.046 34.2 34.2 0 0 0 8.42-1.046l3.322 5.869a1.56 1.56 0 0 0 1.357.791h8.031a1.56 1.56 0 0 0 1.357-2.327l-4.698-8.3a34.25 34.25 0 0 0 6.249-4.943 33.88 33.88 0 0 0 8.982-15.941h11.267a1.56 1.56 0 0 0 1.103-2.662l-5.436-5.436zM71.1 32.437H60.217l3.419-3.419H74.52l-3.42 3.419zm-51.113 38.05H15.54l3.394-5.997a33.53 33.53 0 0 0 3.584 1.524l-2.531 4.472zm32.465 0h-4.447l-2.531-4.472a33.53 33.53 0 0 0 3.584-1.524l3.394 5.997zM55.83 55.83c-2.06 2.06-4.361 3.791-6.838 5.171l-.092.046-.054.034a30.51 30.51 0 0 1-5.979 2.504c-.082.016-.162.04-.242.07-2.769.801-5.666 1.218-8.629 1.218a31.01 31.01 0 0 1-8.629-1.218 1.55 1.55 0 0 0-.242-.07 30.47 30.47 0 0 1-5.979-2.504l-.054-.034-.091-.046a30.98 30.98 0 0 1-6.838-5.172 30.67 30.67 0 0 1-9.044-21.833 30.67 30.67 0 0 1 9.044-21.833c5.832-5.831 13.586-9.044 21.833-9.044a30.67 30.67 0 0 1 21.833 9.044 30.77 30.77 0 0 1 7.968 13.736h-.807a1.56 1.56 0 0 0-1.103.457l-4.139 4.139c-.418-2.835-1.334-5.592-2.718-8.099a1.56 1.56 0 0 0-2.119-.611 1.56 1.56 0 0 0-.611 2.119 20.72 20.72 0 0 1 2.519 8.534h-6.876c-.347-3.159-1.743-6.085-4.023-8.365a13.94 13.94 0 0 0-9.924-4.111 13.94 13.94 0 0 0-9.924 4.111 13.94 13.94 0 0 0-4.111 9.924 13.94 13.94 0 0 0 4.111 9.924 13.94 13.94 0 0 0 9.924 4.111 13.94 13.94 0 0 0 9.924-4.111 13.93 13.93 0 0 0 4.023-8.365h6.869c-.372 4.875-2.429 9.606-6.04 13.217a20.76 20.76 0 0 1-14.776 6.121 20.76 20.76 0 0 1-14.776-6.121c-3.947-3.947-6.121-9.194-6.121-14.776s2.174-10.829 6.121-14.776c6.547-6.547 16.774-7.998 24.87-3.528a1.56 1.56 0 0 0 2.119-.611 1.56 1.56 0 0 0-.611-2.119 24.19 24.19 0 0 0-14.81-2.767c-5.253.705-10.016 3.063-13.772 6.82-4.536 4.536-7.034 10.567-7.034 16.982s2.498 12.446 7.034 16.982 10.567 7.034 16.982 7.034 12.446-2.498 16.982-7.034a23.79 23.79 0 0 0 6.777-13.474l4.133 4.133a1.56 1.56 0 0 0 1.103.457h.808a30.79 30.79 0 0 1-7.968 13.736zM39.09 31.056a1.56 1.56 0 0 0-2.13-.571l-3.743 2.161a1.56 1.56 0 0 0 0 2.701l3.743 2.161a1.55 1.55 0 0 0 .778.209 1.56 1.56 0 0 0 1.352-.78c.253-.438.268-.948.087-1.381h5.625c-.331 2.324-1.397 4.47-3.086 6.159h0c-2.062 2.062-4.803 3.197-7.719 3.197s-5.657-1.135-7.719-3.197-3.197-4.803-3.197-7.719 1.135-5.657 3.197-7.719 4.803-3.197 7.719-3.197 5.657 1.135 7.719 3.197a10.83 10.83 0 0 1 3.086 6.159h-5.625c.181-.434.166-.943-.087-1.381zm24.547 7.919l-3.419-3.419H71.1l3.419 3.419H63.636z" fill="#000"/></svg>