<svg xmlns="http://www.w3.org/2000/svg" viewBox="0 0 90 75" xmlns:v="https://vecta.io/nano"><path d="M84.44 73.666H5.559c-2.342 0-4.241-1.884-4.241-4.208V15.385c0-2.324 1.899-4.208 4.241-4.208H84.44c2.342 0 4.241 1.884 4.241 4.208v54.072c0 2.324-1.899 4.208-4.241 4.208z" fill="#60a0f7"/><path d="M45.028 67.354H11.278c-1.97 0-3.567-1.585-3.567-3.54V7.155c0-1.955 1.597-3.54 3.567-3.54h24.35c5.192 0 9.401 4.176 9.401 9.328v54.41z" fill="#eaf2ff"/><path d="M35.627 3.615h-9.913c5.192 0 9.401 4.176 9.401 9.328v54.41h9.913v-54.41c0-5.152-4.209-9.328-9.401-9.328h0z" fill="#c9e0fd"/><path d="M78.721 67.354H45.025v-54.41c0-5.152 4.209-9.328 9.401-9.328h24.295c1.97 0 3.567 1.585 3.567 3.54v56.659c0 1.955-1.597 3.54-3.567 3.54z" fill="#eaf2ff"/><path d="M78.721 3.615h-9.668c1.97 0 3.567 1.585 3.567 3.54v56.659c0 1.955-1.597 3.54-3.567 3.54h9.668c1.97 0 3.567-1.585 3.567-3.54V7.155c0-1.955-1.597-3.54-3.567-3.54z" fill="#c9e0fd"/><path d="M56.539 2.61v19.505a.94.94 0 0 0 1.591.662l3.158-3.076a.94.94 0 0 1 1.311 0l3.158 3.076a.94.94 0 0 0 1.591-.662V2.61a1.28 1.28 0 0 0-1.286-1.276h-8.236a1.28 1.28 0 0 0-1.286 1.276h0z" fill="#e49542"/><path d="M84.441 9.869h-.833V7.155c0-2.673-2.192-4.848-4.886-4.848H68.647A2.6 2.6 0 0 0 66.062.026h-8.236a2.6 2.6 0 0 0-2.585 2.281h-.814a10.74 10.74 0 0 0-9.4 5.529 10.74 10.74 0 0 0-9.4-5.529h-24.35c-2.694 0-4.886 2.175-4.886 4.848v2.714h-.833C2.494 9.869 0 12.344 0 15.386v54.072c0 3.042 2.494 5.516 5.559 5.516h78.881c3.065 0 5.559-2.475 5.559-5.516V15.386c0-3.042-2.494-5.516-5.559-5.516h0zM54.427 4.924h.794v17.192c0 1.978 2.408 2.983 3.833 1.596l2.89-2.814 2.89 2.814c1.417 1.381 3.833.392 3.833-1.596v-7.88c0-.723-.59-1.308-1.318-1.308s-1.318.586-1.318 1.308v6.975l-2.507-2.442a2.28 2.28 0 0 0-3.157 0l-2.507 2.442V2.642h8.172v5.359c0 .723.59 1.308 1.318 1.308s1.318-.586 1.318-1.308V4.924h10.055c1.24 0 2.249 1.001 2.249 2.232v56.659c0 1.231-1.009 2.232-2.249 2.232H46.347V12.944l-.002-.06c.033-4.395 3.645-7.96 8.082-7.96zm32.936 64.534c0 1.599-1.311 2.9-2.923 2.9H5.559c-1.612 0-2.923-1.301-2.923-2.9V15.386c0-1.599 1.311-2.9 2.923-2.9h.833v39.766c0 .723.59 1.308 1.318 1.308s1.318-.586 1.318-1.308V7.155c0-1.231 1.009-2.232 2.249-2.232h24.35c4.437 0 8.048 3.565 8.082 7.96 0 .02-.002.04-.002.06s.002.04.003.061v53.041H11.278c-1.24 0-2.249-1.001-2.249-2.232v-5.447c0-.723-.59-1.308-1.318-1.308s-1.318.586-1.318 1.308v5.447c0 2.673 2.192 4.848 4.886 4.848h33.748.003 33.693c2.694 0 4.886-2.175 4.886-4.848V12.486h.833c1.612 0 2.923 1.301 2.923 2.9v54.072z" fill="#000"/></svg>
