<svg xmlns="http://www.w3.org/2000/svg" viewBox="0 0 80 80" ><path d="M27.2 67.2c3.725 1.064-1.6 8-1.6 8l.557.627C11.79 70.272 1.6 56.326 1.6 40c0-5.634 1.213-10.986 3.394-15.806.234 1.949.688 5.139 1.406 7.806 1.12 4.16 4.32 4.48 6.4 6.4s4.64 1.76 12.8-1.6-1.28-5.28-4.8-11.2 6.4-3.04 11.2-8-9.6-11.2-9.6-11.2l-.432-.309A38.22 38.22 0 0 1 40 1.6v19.2V40v19.2 1.6s-.8-6.08-3.2-11.2c-1.736-3.706-4.507-5.474-6.4-4.8-3.355 1.192-5.614 5.382-3.2 8 1.835 1.989 6.16 5.686 0 6.4-11.04 1.28-4.48 6.72 0 8z" fill="#86dcfd"/><g fill="#3086aa"><path d="M40 59.2c6.234 0 12.117.744 17.322 2.062C53.594 71.592 47.227 78.4 40 78.4V60.8v-1.6z"/><path d="M78.4 40a38.25 38.25 0 0 1-9.781 25.6c-3.178-1.774-7.006-3.251-11.298-4.338C59.518 55.174 60.8 47.864 60.8 40h17.6zm-9.781-25.6c-3.178 1.774-7.006 3.251-11.298 4.338C53.594 8.408 47.227 1.6 40 1.6c11.373 0 21.587 4.946 28.619 12.8z"/><path d="M40 20.8c6.234 0 12.117-.744 17.322-2.062C59.518 24.826 60.8 32.136 60.8 40H40V20.8z"/></g><g fill="#40b3e2"><path d="M57.322 61.262c4.291 1.086 8.12 2.563 11.298 4.338C61.587 73.454 51.373 78.4 40 78.4c7.227 0 13.594-6.808 17.322-17.138z"/><path d="M60.8 40c0 7.864-1.282 15.174-3.478 21.262C52.117 59.944 46.234 59.2 40 59.2V40h20.8z"/><path d="M78.4 40H60.8c0-7.864-1.282-15.174-3.478-21.262 4.291-1.086 8.12-2.563 11.298-4.338C74.701 21.194 78.4 30.165 78.4 40z"/><path d="M57.322 18.738C52.117 20.056 46.234 20.8 40 20.8V1.6c7.227 0 13.594 6.808 17.322 17.138z"/></g><path d="M30.4 44.8c1.893-.674 4.664 1.094 6.4 4.8 2.4 5.12 3.2 11.2 3.2 11.2v17.6c-4.882 0-9.549-.912-13.843-2.573L25.6 75.2s5.325-6.936 1.6-8c-4.48-1.28-11.04-6.72 0-8 6.16-.714 1.835-4.411 0-6.4-2.414-2.618-.155-6.808 3.2-8h0zm-8-38.4s14.4 6.24 9.6 11.2-14.72 2.08-11.2 8 12.96 7.84 4.8 11.2-10.72 3.52-12.8 1.6-5.28-2.24-6.4-6.4c-.718-2.667-1.173-5.858-1.406-7.806A38.55 38.55 0 0 1 21.968 6.091l.432.309z" fill="#80af52"/><g fill="#000"><path d="M78.4 41.6a1.6 1.6 0 0 1-1.6-1.6 36.73 36.73 0 0 0-9.373-24.533 1.6 1.6 0 0 1 2.384-2.134C76.382 20.672 80 30.143 80 40a1.6 1.6 0 0 1-1.6 1.6z"/><path d="M68.619 67.2c-.38 0-.761-.135-1.067-.408a1.6 1.6 0 0 1-.125-2.259c5.688-6.354 8.971-14.444 9.338-22.933H60.8a1.6 1.6 0 1 1 0-3.2h17.6A1.6 1.6 0 0 1 80 40c0 9.857-3.618 19.328-10.189 26.667-.316.353-.753.533-1.193.533h0z"/><path d="M60.8 41.6a1.6 1.6 0 0 1-1.6-1.6c0-7.421-1.17-14.585-3.383-20.719a1.6 1.6 0 1 1 3.01-1.086C61.164 24.673 62.4 32.213 62.4 40a1.6 1.6 0 0 1-1.6 1.6z"/><path d="M57.321 62.863a1.59 1.59 0 0 1-.543-.096 1.6 1.6 0 0 1-.962-2.048c2.054-5.692 3.209-12.271 3.365-19.119H40a1.6 1.6 0 1 1 0-3.2h20.8a1.6 1.6 0 0 1 1.6 1.6c0 7.787-1.236 15.327-3.573 21.805a1.6 1.6 0 0 1-1.505 1.057zm-.001-42.525a1.6 1.6 0 0 1-.392-3.151c3.354-.849 6.396-1.932 9.07-3.227A36.86 36.86 0 0 0 40 3.2 1.6 1.6 0 1 1 40 0c11.36 0 22.225 4.86 29.811 13.333a1.6 1.6 0 0 1-.412 2.464c-3.334 1.861-7.265 3.373-11.685 4.492a1.6 1.6 0 0 1-.394.049z"/><path d="M40 22.4a1.6 1.6 0 0 1 0-3.2c5.304 0 10.4-.537 15.175-1.597C51.509 8.547 45.914 3.2 40 3.2A1.6 1.6 0 1 1 40 0c7.677 0 14.715 6.802 18.827 18.194a1.6 1.6 0 0 1-1.112 2.094C52.184 21.69 46.224 22.4 40 22.4zM40 80a1.6 1.6 0 1 1 0-3.2c9.757 0 19.119-3.898 25.999-10.76-2.675-1.295-5.716-2.377-9.07-3.227a1.6 1.6 0 1 1 .785-3.102c4.42 1.119 8.351 2.63 11.685 4.492a1.6 1.6 0 0 1 .412 2.464C62.225 75.14 51.36 80 40 80h0z"/><path d="M40 80a1.6 1.6 0 1 1 0-3.2c5.914 0 11.509-5.347 15.175-14.403C50.399 61.337 45.304 60.8 40 60.8a1.6 1.6 0 0 1 0-3.2c6.223 0 12.183.71 17.714 2.111a1.6 1.6 0 0 1 1.112 2.094C54.715 73.198 47.677 80 40 80h0z"/><path d="M40 62.4a1.6 1.6 0 0 1-1.6-1.6V3.235c-5.477.239-10.866 1.703-15.68 4.268a1.6 1.6 0 1 1-1.505-2.824C26.958 1.618 33.454 0 40 0a1.6 1.6 0 0 1 1.6 1.6v59.2a1.6 1.6 0 0 1-1.6 1.6zM26.156 77.428a1.6 1.6 0 0 1-.577-.108 39.94 39.94 0 0 1-18.4-14.451A39.76 39.76 0 0 1 0 40a39.68 39.68 0 0 1 3.536-16.466 1.6 1.6 0 1 1 2.916 1.319A36.49 36.49 0 0 0 3.2 40c0 15.094 9.457 28.892 23.534 34.335a1.6 1.6 0 0 1-.577 3.093z"/><path d="M40 80c-4.969 0-9.821-.902-14.42-2.68a1.6 1.6 0 0 1-.619-.43l-.557-.627a1.6 1.6 0 0 1-.073-2.037 21.81 21.81 0 0 0 1.635-2.547c.966-1.789 1.005-2.678.938-2.885a.66.66 0 0 0-.144-.056c-3.059-.874-7.465-3.623-7.21-6.747.29-3.549 5.691-4.175 7.465-4.381 1.077-.125 1.559-.326 1.749-.434-.213-.664-1.523-2.022-2.107-2.626l-.634-.666c-1.279-1.386-1.723-3.2-1.252-5.108.605-2.448 2.603-4.601 5.092-5.485.434-.155.898-.233 1.377-.233 2.589 0 5.34 2.301 7.008 5.862 2.477 5.283 3.303 11.412 3.337 11.67a1.57 1.57 0 0 1 .014.209v17.6A1.6 1.6 0 0 1 40 80h0zm-12.14-5.25c3.393 1.187 6.927 1.863 10.54 2.016V60.912c-.114-.784-.947-6.15-3.049-10.633-1.236-2.639-3.003-4.02-4.11-4.02a.91.91 0 0 0-.305.048c-1.457.518-2.714 1.849-3.057 3.237-.211.854-.044 1.584.497 2.17.175.19.374.396.584.614 1.624 1.683 3.646 3.779 2.865 5.957-.743 2.074-3.527 2.397-4.442 2.503-4.157.482-4.642 1.455-4.645 1.464-.012.099.181.695 1.299 1.57a11.29 11.29 0 0 0 3.601 1.838c1.139.325 1.956 1.078 2.299 2.119.463 1.401.055 3.228-1.247 5.585-.279.505-.568.977-.831 1.384h0zM16.005 41.236c-1.7 0-3.064-.528-4.291-1.66-.516-.476-1.177-.865-1.877-1.276-1.799-1.058-4.039-2.375-4.983-5.883-.726-2.694-1.189-5.855-1.45-8.032a1.6 1.6 0 0 1 .131-.85c3.623-8.014 9.902-14.711 17.68-18.855a1.6 1.6 0 0 1 1.683.11l.299.214c.599.268 2.744 1.26 4.995 2.667 3.792 2.371 5.852 4.613 6.298 6.854.211 1.06.15 2.648-1.34 4.188-2.407 2.487-5.725 3.231-8.392 3.829-1.108.248-2.769.621-3.098.983 0 .092.038.456.515 1.258 1.12 1.884 2.99 3.363 4.639 4.668 2.078 1.644 3.873 3.064 3.591 5.077-.267 1.904-2.383 3.006-4.196 3.752-5.166 2.128-8.027 2.956-10.204 2.956zM6.637 24.449c.224 1.777.654 4.708 1.308 7.135.604 2.245 1.889 3.001 3.516 3.957.815.479 1.657.975 2.425 1.683.641.591 1.215.811 2.12.811h0c1.676 0 4.364-.812 8.985-2.715 1.501-.618 2.025-1.05 2.196-1.231-.295-.499-1.523-1.47-2.357-2.13-1.774-1.404-3.982-3.15-5.404-5.542-.359-.604-1.451-2.44-.711-4.159.783-1.817 2.896-2.291 5.343-2.84 2.368-.531 5.052-1.133 6.793-2.932.561-.58.568-1.001.502-1.337-.461-2.32-5.732-5.579-9.426-7.211-6.662 3.766-12.056 9.588-15.289 16.51h0z"/></g></svg>
