<svg xmlns="http://www.w3.org/2000/svg" viewBox="0 0 90 80"><path d="M82.433 65.498c-1.326 1.834-2.737 3.644-3.605 5.733-.493 1.188-.803 2.456-1.434 3.576-3.732 5.184-14.547 4.032-18.182-.856-2.528-3.597-.093-7.813-3.707-11.238-.103-.098-2.521-2.346-4.056-1.623-1.927.91-.919 5.787-1.969 6.024-1.06.239-1.63-4.835-5.446-7.3-3.242-2.093-8.082-1.467-11.665-.732-4.981.903-6.285 3.115-9.711 6.054-2.678 1.547-4.437-1.922-7.125-1.614-2.936.335-3.275 3.617-6.374 3.939-5.198.07-6.319-3.526-3.953-7.698.898-2.459.711-5.275-.424-7.624s-2.597-3.963-2.921-6.692c-.103-.861-.755-7.057 2.896-10.543 3.086-2.947 5.939-.8 10.599-3.539l8.39 13.914 12.716-21.092c.739-1.226 1.319-2.548 1.673-3.937a14.55 14.55 0 0 0 .454-3.605c-.019-.109.023-.197.096-.274 2.243-2.954 6.828-4.288 9.899-1.731 2.292 1.906 2.603 5.057 4.143 7.45.407.632.898 1.21 1.534 1.698 1.853 1.425 4.79 1.9 6.639.218 2.218-2.017.468-6.655.943-9.328.14-.788.817-5.013 2.119-4.917.741.056.302 2.823 2.201 6.026 1.383 2.332 2.307 2.028 3.708 4.402 2.323 5.804.735 5.574 6.039 10.386 2.672 2.805 4.047 6.215 6.118 9.399 1.282 1.97 3.3 3.432 4.295 5.59 3.217 6.966.276 14.161-3.892 19.934h0z" fill="#a0e5a5"/><path d="M23.747 1.814c-9.921 0-16.704 9.39-14.39 18.437.355 1.389.933 2.709 1.673 3.937L23.747 45.28l12.716-21.092c.739-1.228 1.319-2.548 1.673-3.937.307-1.203.454-2.412.454-3.603 0-7.775-6.243-14.833-14.844-14.833h0zm0 20.606c-3.183 0-5.762-2.58-5.762-5.762s2.58-5.761 5.762-5.761 5.761 2.58 5.761 5.761-2.58 5.762-5.761 5.762z" fill="#ff7d97"/><g fill="#000"><path d="M87.911 44.832c-1.057-2.347-3.072-3.819-4.417-5.81-.715-1.109-1.686-3.51-3.49-2.448-3.167 2.321 3.945 7.39 4.735 9.722 2.434 5.27 1.182 11.386-3.722 18.178-2.251 2.712-3.903 6.049-5.098 9.389-1.218 1.62-3.572 2.559-6.481 2.582h-.103c-3.581 0-7.146-1.438-8.708-3.519-.85-1.222-.954-2.611-1.075-4.217-.165-2.192-.37-4.919-2.846-7.266-.561-.531-3.485-3.12-6.003-1.934-1.199.567-1.755 1.681-2.038 2.876-.814-1.415-1.954-2.923-3.683-4.039-3.825-2.469-9.214-1.743-12.944-.979-4.43.808-6.384 2.634-8.647 4.749l-1.729 1.573c-.467.223-.846.092-2.092-.643-1.104-.651-2.478-1.46-4.235-1.26-2.086.238-3.24 1.48-4.167 2.477-.81.872-1.282 1.342-2.117 1.451-.929.004-2.479-.141-3.033-1.077-.501-.848-.237-2.348.708-4.013.048-.084.088-.172.121-.263 1.053-2.883.873-6.158-.493-8.984-.364-.753-.747-1.415-1.117-2.055-.814-1.407-1.456-2.519-1.642-4.084-.075-.626-.644-6.195 2.368-9.072 1.169-1.116 2.245-1.226 3.873-1.393 1.353-.139 2.97-.307 4.861-1.12l7.553 12.528c.316.524.884.845 1.496.845s1.18-.321 1.496-.845L37.959 25.09c.857-1.421 1.486-2.903 1.87-4.406a16.44 16.44 0 0 0 .505-3.552c1.012-1.101 2.472-1.865 3.93-2.031 5.596-.706 5.078 7.656 8.934 10.071 2.369 1.822 6.285 2.485 8.879.126 3.041-2.787.976-7.411 1.565-10.751.479 1.567 2.171 4.017 3.202 4.725.515.456.926.819 1.457 1.694 1.251 2.93 1.096 4.507 2.705 6.974 1.271 1.88 4.188-.146 2.871-1.99-1.253-2.037-1.229-3.968-2.501-6.649-1.43-2.494-2.38-2.264-3.71-4.405-1.821-2.408-.675-6.452-3.575-6.878-2.824-.21-3.583 4.148-3.948 6.242l-.019.111c-.21 1.179-.084 2.533.038 3.843.165 1.772.351 3.781-.437 4.498-1.146 1.042-3.137.66-4.402-.312-2.767-2.445-2.451-6.612-5.621-9.103-1.589-1.323-3.661-1.914-5.835-1.667-1.38.157-2.731.638-3.934 1.365-.533-2.336-1.58-4.568-3.115-6.544C33.669 2.394 28.904.067 23.747.067s-9.923 2.327-13.073 6.385c-3.179 4.094-4.276 9.282-3.009 14.233.384 1.503 1.013 2.985 1.87 4.406l3.338 5.536c-1.205.448-2.276.559-3.391.673-1.826.187-3.895.399-5.929 2.341C-.497 37.507-.093 43.813.127 45.652c.27 2.278 1.193 3.875 2.086 5.42.338.585.688 1.19.996 1.827.923 1.91 1.07 4.195.401 6.14-1.547 2.799-1.76 5.414-.598 7.377.769 1.301 2.461 2.841 6.171 2.791.052-.001.105-.004.157-.009 2.227-.231 3.476-1.575 4.388-2.556.789-.849 1.237-1.297 2.004-1.384.595-.067 1.276.333 2.064.798 2.803 1.93 5.398 1.571 7.981-1.388 2.165-2.023 3.472-3.245 6.905-3.867l.039-.008c3.13-.642 7.609-1.291 10.366.488 1.872 1.209 2.836 3.299 3.54 4.824.276.599.515 1.117.785 1.532.885 1.364 2.011 1.279 2.455 1.179.632-.143 1.45-.612 1.761-2.034.111-.508.156-1.091.203-1.708.046-.594.149-1.93.391-2.378.444.064 1.415.654 2.083 1.282 1.496 1.418 1.615 2.995 1.765 4.992.14 1.86.299 3.969 1.714 5.983l.027.038c2.241 3.013 6.751 4.946 11.519 4.946h.136c4.081-.032 7.487-1.531 9.346-4.112.78-1.257 1.095-2.631 1.629-3.926.77-1.866 2.142-3.629 3.408-5.381 2.492-3.452 4.172-6.855 4.993-10.115 1.034-4.103.72-7.997-.932-11.573h0zM11.049 19.818c-.997-3.898-.128-7.989 2.384-11.224 2.484-3.199 6.243-5.034 10.314-5.034s7.83 1.835 10.314 5.034c1.795 2.312 2.751 5.061 2.786 7.865-.001.041-.001.081.001.121.003 1.08-.129 2.166-.403 3.239-.3 1.172-.797 2.339-1.477 3.468l-11.22 18.61-11.22-18.61c-.681-1.129-1.177-2.296-1.477-3.468z"/><circle cx="77.204" cy="32.099" r="1.747"/><path d="M31.255 16.658a7.52 7.52 0 0 0-7.508-7.508 7.52 7.52 0 0 0-7.508 7.508 7.52 7.52 0 0 0 7.508 7.508 7.52 7.52 0 0 0 7.508-7.508zm-11.523 0a4.02 4.02 0 0 1 4.015-4.015 4.02 4.02 0 0 1 4.014 4.015 4.02 4.02 0 0 1-4.014 4.015 4.02 4.02 0 0 1-4.015-4.015h0z"/></g></svg>
