<svg xmlns="http://www.w3.org/2000/svg" width="46" height="80" xmlns:v="https://vecta.io/nano"><path d="M23.357 68.983c-6.62 0-9.113.82-13.903-4.393.49 3.137-2.037 13.287 4.633 13.287h18.537c6.623 0 4.147-10.15 4.633-13.287a20.33 20.33 0 0 1-3.09 2.747c-3.117 2.263-6.823 1.647-10.81 1.647z" fill="#2196f3"/><g fill="#ffcc80"><path d="M11.4 34.24c-.223-.943 1.23-6.957-3.637-6.957-4.917 0-3.393 5.93-3.637 6.957 0 4.6 7.273 4.593 7.273 0h0zm20.023.347c-.507-3.337 1.83-10.783-3.637-10.783-5.643 0-3.03 7.853-3.637 12.487 2-1.53 4.767-2.12 7.273-1.703h0z"/><path d="M21.803 37.717c-.687-5.827 2.093-13.913-3.637-13.913s-2.95 8.08-3.637 13.913c0 1.913 7.273 4.597 7.273 0h0zm10.75-2.03c-.037 0-.037-.033-.073-.033-4.94-3.16-11.253 3.82-6.547 8.173 4.523 5.02 8.977 6.963 6.763 8.973-.783.747-1.943.64-2.547 0-5.347-5.693-9.13-7.203-9.383-11.93-.037-.07-.037-.14-.037-.21-.037.033-.037.033-.073.033v.033c-3.99 2.29-9.11.513-10.617-3.653-2.22 1.467-5.293 1.603-7.707.25.897 8.55-2.98 18.74 6.4 27.13.037.033.037.033.073.033 1.533 1.963 7.453 5.08 13.527 5.08 6.28 0 12.123-3.287 13.527-5.077.037 0 .037 0 .073-.033 8.453-7.563 5.953-16.76 6.4-19.687-7.85-7.397-8.737-8.527-9.78-9.083zm2.507-29.12V36.2c.79.53 1.097.937 7.273 6.783V6.567c0-4.603-7.273-4.597-7.273 0z"/></g><g fill="#000"><path d="M33.167 80h-20a5.84 5.84 0 0 1-5.833-5.833V65.1a2.5 2.5 0 0 1 5 0v9.067c0 .453.38.833.833.833h20c.453 0 .833-.38.833-.833v-9.2a2.5 2.5 0 1 1 5 0v9.2A5.84 5.84 0 0 1 33.167 80zm-25-38.333a7.51 7.51 0 0 1-7.5-7.5v-3.333a7.51 7.51 0 0 1 7.5-7.5 7.51 7.51 0 0 1 7.5 7.5v3.333a7.51 7.51 0 0 1-7.5 7.5zm0-13.333a2.5 2.5 0 0 0-2.5 2.5v3.333a2.5 2.5 0 1 0 5 0v-3.333a2.5 2.5 0 0 0-2.5-2.5z"/><path d="M18.167 45a7.51 7.51 0 0 1-7.5-7.5v-10a7.51 7.51 0 0 1 7.5-7.5 7.51 7.51 0 0 1 7.5 7.5v10a7.51 7.51 0 0 1-7.5 7.5zm0-20a2.5 2.5 0 0 0-2.5 2.5v10a2.5 2.5 0 1 0 5 0v-10a2.5 2.5 0 0 0-2.5-2.5z"/><path d="M23.367 45h-.2a2.5 2.5 0 0 1-2.5-2.5v-15a7.51 7.51 0 0 1 7.5-7.5 7.51 7.51 0 0 1 7.5 7.5V36a2.5 2.5 0 1 1-5 0v-8.5a2.5 2.5 0 1 0-5 0v14.323a2.26 2.26 0 0 1 .1.677c0 1.38-1.02 2.5-2.4 2.5h0z"/><path d="M23.167 70c-6.733 0-22.5 0-22.5-18.333V33.333a2.5 2.5 0 1 1 5 0v18.333C5.667 62.77 12.363 65 23.167 65s17.5-2.23 17.5-13.333V7.5a2.5 2.5 0 1 0-5 0V36a2.5 2.5 0 1 1-5 0V7.5a7.51 7.51 0 0 1 7.5-7.5 7.51 7.51 0 0 1 7.5 7.5v44.167C45.667 70 29.9 70 23.167 70z"/><path d="M31.5 55.267a2.5 2.5 0 0 1-1.773-.737l-6.2-6.233c-1.823-1.777-2.8-4.253-2.657-6.773-.003-2.247.953-4.493 2.687-6.18 2.733-2.803 7.51-3.47 10.873-1.5.573.26 1.307.79 2.037 1.523l8.463 8.43c.977.973.98 2.557.007 3.537a2.5 2.5 0 0 1-3.537.007l-8.467-8.433c-.32-.32-.593-.53-.833-.643-1.933-1.1-3.767-.65-5.01.62-.807.787-1.223 1.76-1.223 2.787-.067 1.23.353 2.273 1.18 3.077l6.227 6.26a2.5 2.5 0 0 1-.01 3.537c-.49.48-1.127.723-1.763.723h0z"/></g></svg>