<svg xmlns="http://www.w3.org/2000/svg" width="80" height="81" xmlns:v="https://vecta.io/nano"><path d="M6.667 22.833h66.667c1.473 0 2.667 1.194 2.667 2.667v48H4v-48c0-1.473 1.194-2.667 2.667-2.667z" fill="#a7d6dd"/><path fill="#e6e6e6" d="M9.333 28.167h61.333v40H9.333z"/><path d="M1.333 73.5h77.333v2.667c0 1.473-1.194 2.667-2.667 2.667H4c-1.473 0-2.667-1.194-2.667-2.667V73.5z" fill="#6cbbc7"/><path fill="#ff6536" d="M40 48.167L32 57.5h4v5.333h8V57.5h4z"/><circle fill="#fdb62f" cx="40" cy="21.5" r="20"/><path d="M59.501 25.888l.037-.141c.133-.589.221-1.192.297-1.8l.047-.312c.078-.709.117-1.422.117-2.135a20.1 20.1 0 0 0-.133-2.244l-.1-.657-.279-1.539-.176-.688-.449-1.467-.215-.587-.687-1.572-.175-.363c-1.368-2.648-3.306-4.961-5.675-6.771h0l-1.432 1.02a5.46 5.46 0 0 0-1.567 7.149l.819 1.432c1.221 2.137.861 4.827-.88 6.567a5.46 5.46 0 0 0 1.152 8.597l.593.339a5.46 5.46 0 0 0 5.148.143l2.267-1.135h0a20.09 20.09 0 0 0 1.289-3.837h0zm-19.122 6.145a9.62 9.62 0 0 1-5.712-8.784c0-2.005-.626-3.96-1.792-5.591l-.628-.88a9.6 9.6 0 0 0-10.4-3.644h0a20.48 20.48 0 0 0-.777 1.943l-.009.027-.533 1.904-.048.185c-.133.588-.225 1.192-.304 1.8l-.052.345A19.6 19.6 0 0 0 20 21.5c0 11.046 8.954 20 20 20 .644 0 1.279-.037 1.908-.096a19.91 19.91 0 0 0 1.269-.18c.173-.028.348-.047.519-.079a20.66 20.66 0 0 0 1.609-.38l.089-.023a19.12 19.12 0 0 0 1.657-.547c-.805-3.625-3.281-6.653-6.673-8.163z" fill="#02998a"/><path d="M77.333 25.5a4 4 0 0 0-4-4h-12a21.32 21.32 0 0 0-.133-2.329l-.133-.848-.244-1.399-.267-1.025-.336-1.132-.4-1.077-.428-1.003-.505-1.048-.567-.993-.555-.913-1.113-1.516-.191-.255a21.62 21.62 0 0 0-1.6-1.733l-.221-.2-1.6-1.375c-.044-.033-.081-.073-.125-.107l-.781-.593-.019.012a21.27 21.27 0 0 0-31.2 8.044l-.023.007-.267.56-.04.101a20.63 20.63 0 0 0-.748 1.875l-.091.247-.52 1.867-.089.347c-.133.595-.221 1.2-.299 1.812l-.065.427a21.93 21.93 0 0 0-.107 2.249h-12a4 4 0 0 0-4 4v46.667H0v4a4 4 0 0 0 4 4h72a4 4 0 0 0 4-4v-4h-2.667V25.5zm-55.905-5.867a18.48 18.48 0 0 1 1.372-5.356 8.28 8.28 0 0 1 8.359 3.277l.628.879a8.24 8.24 0 0 1 1.547 4.816 10.96 10.96 0 0 0 6.504 10.008h0a10.42 10.42 0 0 1 5.588 6.087c-.409.133-.821.235-1.235.331l-.121.032-.887.168-.871.133-.667.075-1.651.084A18.69 18.69 0 0 1 21.333 21.5a18.61 18.61 0 0 1 .095-1.867zM40 42.833c.673 0 1.344-.037 2.012-.101l1.131-.156.784-.121a20.88 20.88 0 0 0 1.479-.341l.371-.096 1.577-.517.171-.056.625-.236.161-.061.295-.111-.007-.028a21.43 21.43 0 0 0 10.609-10.288l.028-.013.195-.432c.013-.028.021-.057.033-.085l.299-.689h9.571v37.333H10.667V29.5h9.571C23.5 37.55 31.314 42.821 40 42.833h0zm17.189-14.084l-1.84.919a4.11 4.11 0 0 1-3.889-.108l-.595-.339c-1.116-.638-1.871-1.76-2.041-3.034s.262-2.555 1.171-3.464a6.8 6.8 0 0 0 1.095-8.171l-.823-1.432c-1.055-1.837-.542-4.174 1.184-5.401l.611-.436a19.06 19.06 0 0 1 1.387 1.309c.115.119.223.244.333.367a18.14 18.14 0 0 1 .879 1.028 16.05 16.05 0 0 1 .469.629c.207.283.4.572.592.867a26.42 26.42 0 0 1 .489.8c.156.267.289.533.427.8a18.34 18.34 0 0 1 .441.916 13.63 13.63 0 0 1 .325.813c.123.317.248.636.353.961.096.3.173.607.255.912s.172.613.239.933c.08.379.133.764.189 1.149.037.253.089.501.116.759a19.12 19.12 0 0 1 .111 1.973 18.69 18.69 0 0 1-.095 1.867 18.58 18.58 0 0 1-1.383 5.383h0zM40 2.833a18.52 18.52 0 0 1 9.797 2.808c-2.756 2.042-3.548 5.824-1.841 8.8l.819 1.432c.918 1.616.646 3.645-.667 4.961a6.79 6.79 0 0 0 1.432 10.697l.595.34a6.72 6.72 0 0 0 4.831.733c-1.841 2.476-4.265 4.46-7.056 5.775-1.2-3.369-3.725-6.1-6.989-7.56h0c-2.99-1.331-4.918-4.297-4.92-7.571a10.89 10.89 0 0 0-2.04-6.365l-.627-.88c-2.096-2.898-5.478-4.588-9.055-4.524A18.65 18.65 0 0 1 40 2.833zM5.333 25.5c0-.736.597-1.333 1.333-1.333h12.185a20.99 20.99 0 0 0 .517 2.667H8V69.5h64V26.833H60.631l.167-.645c.019-.083.045-.163.064-.245.124-.583.212-1.177.287-1.776h12.185c.736 0 1.333.597 1.333 1.333v46.667H5.333V25.5zm72 50.667c0 .736-.597 1.333-1.333 1.333H4c-.736 0-1.333-.597-1.333-1.333v-1.333h74.667v1.333zm-42.666-12h10.667v-5.333h5.565L40 46.117 29.101 58.833h5.565v5.333zM40 50.216l5.101 5.951h-2.435V61.5h-5.333v-5.333h-2.435L40 50.216z" fill="#000"/></svg>