<svg xmlns="http://www.w3.org/2000/svg" width="46" height="80" xmlns:v="https://vecta.io/nano"><path d="M11.338 33.857c-.217-.953 1.167-6.957-3.48-6.957-4.767 0-3.223 5.83-3.477 6.957 0 4.603 6.957 4.597 6.957 0h0zm10.433 3.476V26.9c0-4.603-6.957-4.597-6.957 0v10.433c0 4.603 6.957 4.597 6.957 0zm9.983-3.13V6.03c0-4.603-6.957-4.597-6.957 0v29.877c1.913-1.53 4.557-2.12 6.957-1.703zm2.19-24.693v26.157c.757.53 1.1.987 6.957 6.783V9.51c0-4.603-6.957-4.597-6.957 0h0z" fill="#ffcc80"/><path d="M9.634 62.903c.453 3.13-1.893 13.323 4.323 13.323h17.293c6.203 0 3.88-10.253 4.323-13.323-7.027 8.48-18.917 8.477-25.94 0h0z" fill="#2196f3"/><path d="M31.581 35.72c0-.027-.093-.07-.103-.07-5.857-2.933-10.243 4.327-6.26 8.173 4.36 5.057 8.58 6.97 6.47 8.973-.75.75-1.86.637-2.433 0-5.04-5.613-8.733-7.18-8.973-11.93v-.033c-.033-.07-.033-.103-.033-.173-.033.033-.033.033-.07.033v.033c-3.823 2.297-8.717.503-10.157-3.653-2.137 1.47-5.077 1.59-7.373.243.873 8.707-2.82 18.77 6.123 27.13.033.033.033.033.07.033 1.48 1.993 7.153 5.087 12.93 5.087 5.97 0 11.58-3.263 12.94-5.08.033 0 .033 0 .07-.033 8.093-7.57 5.693-16.763 6.123-19.687l-8.313-8.277c-.387-.35-.697-.593-1.01-.77h0z" fill="#ffcc80"/><g fill="#000"><path d="M22.604 70c-6.733 0-22.5 0-22.5-18.333V33.333a2.5 2.5 0 1 1 5 0v18.333C5.104 62.77 11.801 65 22.604 65s17.5-2.23 17.5-13.333V10.833a2.5 2.5 0 1 0-5 0V36a2.5 2.5 0 1 1-5 0V10.833a7.51 7.51 0 0 1 7.5-7.5 7.51 7.51 0 0 1 7.5 7.5v40.833C45.104 70 29.338 70 22.604 70z"/><path d="M32.604 80h-20a5.84 5.84 0 0 1-5.833-5.833V65.1a2.5 2.5 0 0 1 5 0v9.067c0 .453.38.833.833.833h20c.453 0 .833-.38.833-.833v-9.2a2.5 2.5 0 1 1 5 0v9.2A5.84 5.84 0 0 1 32.604 80zm-25-38.333a7.51 7.51 0 0 1-7.5-7.5v-3.333a7.51 7.51 0 0 1 7.5-7.5 7.51 7.51 0 0 1 7.5 7.5v3.333a7.51 7.51 0 0 1-7.5 7.5zm0-13.333a2.5 2.5 0 0 0-2.5 2.5v3.333a2.5 2.5 0 1 0 5 0v-3.333a2.5 2.5 0 0 0-2.5-2.5z"/><path d="M17.604 45a7.51 7.51 0 0 1-7.5-7.5v-10a7.51 7.51 0 0 1 7.5-7.5 7.51 7.51 0 0 1 7.5 7.5v10a7.51 7.51 0 0 1-7.5 7.5zm0-20a2.5 2.5 0 0 0-2.5 2.5v10a2.5 2.5 0 1 0 5 0v-10a2.5 2.5 0 0 0-2.5-2.5z"/><path d="M22.804 44.167h-.2a2.5 2.5 0 0 1-2.5-2.5V7.5a7.51 7.51 0 0 1 7.5-7.5 7.51 7.51 0 0 1 7.5 7.5V36a2.5 2.5 0 1 1-5 0V7.5a2.5 2.5 0 1 0-5 0v33.49a2.26 2.26 0 0 1 .1.677c0 1.38-1.02 2.5-2.4 2.5h0z"/><path d="M30.938 55.267a2.5 2.5 0 0 1-1.773-.737l-6.2-6.233c-1.823-1.777-2.8-4.253-2.657-6.773-.003-2.247.953-4.493 2.687-6.18 2.733-2.803 7.51-3.47 10.873-1.5.573.26 1.307.79 2.037 1.523l8.463 8.43c.977.973.98 2.557.007 3.537a2.5 2.5 0 0 1-3.537.007l-8.467-8.433c-.32-.32-.593-.53-.833-.643-1.933-1.1-3.77-.65-5.01.62-.807.787-1.223 1.76-1.223 2.787-.067 1.23.353 2.273 1.18 3.077l6.227 6.26a2.5 2.5 0 0 1-.01 3.537c-.49.48-1.127.723-1.763.723h0z"/></g></svg>