<svg xmlns="http://www.w3.org/2000/svg" width="80" height="80" xmlns:v="https://vecta.io/nano"><path d="M78.596 78.513a48.72 48.72 0 0 1-20.986-4.072 36.86 36.86 0 0 1-16.94 4.072c-10.148-.084-19.847-4.199-26.96-11.437S2.652 50.07 2.744 39.922C2.55 19.549 18.339 2.59 38.674 1.331 59.62 0 78.596 17.3 78.596 39.922c.024 8.197-2.547 16.19-7.346 22.835.692 4.857 2.622 11.764 7.346 15.756z" fill="#0377bc"/><path d="M74.604 78.513a49.89 49.89 0 0 1-17.047-4.059l-1.81.865-2.116-.865c-4.64 2.402-9.74 3.786-14.957 4.059-20.338-1.253-36.131-18.216-35.93-38.591C2.55 19.549 18.339 2.59 38.674 1.331c20.335 1.259 36.125 18.218 35.93 38.591.025 8.197-2.547 16.19-7.346 22.835.812 4.857 2.688 11.764 7.346 15.756h0z" fill="#02a9f4"/><path d="M78.596 78.513a50.37 50.37 0 0 1-21.292-4.072c-5.364 2.704-11.292 4.099-17.3 4.072v-4.658a4.63 4.63 0 0 0-4.631-4.658 14.2 14.2 0 0 1-2.249 0 4.67 4.67 0 1 1 .705-9.315h7.718a4.63 4.63 0 0 0 4.631-4.658 4.66 4.66 0 0 1 4.631-4.658h26.295a38.1 38.1 0 0 1-5.988 12.176c.825 4.87 2.675 11.777 7.479 15.769h0z" fill="#90ac00"/><path d="M38.461 43.249a4.63 4.63 0 0 1-4.631 4.658H2.239c-2.013-9.579-.32-19.565 4.737-27.945h20.68a4.66 4.66 0 0 1 4.658 4.658 4.66 4.66 0 0 1-4.658 4.658h-6.175a4.66 4.66 0 0 0-4.658 4.658 4.66 4.66 0 0 0 4.658 4.658H33.83a4.63 4.63 0 0 1 4.631 4.658z" fill="#a4c400"/><path d="M78.49 37.261H56.985a4.63 4.63 0 0 1-4.631-4.658 4.66 4.66 0 0 0-4.631-4.658c-.849.055-1.701.019-2.542-.106a4.66 4.66 0 0 1 .998-9.209h7.718a4.63 4.63 0 0 0 4.631-4.658 4.66 4.66 0 0 1 4.631-4.658l.133-.16A38.43 38.43 0 0 1 78.49 37.261h0z" fill="#90ac00"/><path d="M74.604 78.513c0 .186-10.273.572-21.292-4.059-4.162 2.093-8.672 3.405-13.307 3.872v-4.471a4.63 4.63 0 0 0-4.631-4.658 14.2 14.2 0 0 1-2.249 0 4.671 4.671 0 1 1 .705-9.315h7.718a4.63 4.63 0 0 0 4.631-4.658 4.66 4.66 0 0 1 4.631-4.658h22.303a38.1 38.1 0 0 1-5.988 12.176c.825 4.87 2.675 11.777 7.479 15.769h0zm-.107-41.253H56.985a4.63 4.63 0 0 1-4.631-4.658 4.66 4.66 0 0 0-4.631-4.658 12.01 12.01 0 0 1-2.542-.106 4.66 4.66 0 0 1 .998-9.209h7.718a4.63 4.63 0 0 0 4.631-4.658 4.66 4.66 0 0 1 2.009-3.833 38.34 38.34 0 0 1 13.959 27.12h0z" fill="#a4c400"/><path d="M40.005 0A39.92 39.92 0 0 0 .868 47.827v.08a1.21 1.21 0 0 0 .173.612 39.92 39.92 0 0 0 56.263 27.333c6.773 2.852 14.08 4.213 21.425 3.992a1.33 1.33 0 0 0 .745-2.355c-4.312-3.566-6.201-9.621-6.96-14.399 4.844-6.752 7.438-14.858 7.412-23.168C79.927 17.874 62.054 0 40.005 0zm37.048 35.93H56.985c-.879-.004-1.72-.356-2.339-.98s-.965-1.468-.961-2.347c.004-1.585-.623-3.106-1.741-4.229s-2.636-1.756-4.221-1.759H46.18a3.33 3.33 0 0 1-3.327-3.327 3.33 3.33 0 0 1 3.327-3.327h7.718a5.99 5.99 0 0 0 5.962-5.988 3.3 3.3 0 0 1 3.167-3.327A37.26 37.26 0 0 1 77.053 35.93h0zM7.762 21.292h19.961a3.33 3.33 0 0 1 3.327 3.327 3.33 3.33 0 0 1-3.327 3.327h-6.241a5.99 5.99 0 0 0-5.988 5.988 5.99 5.99 0 0 0 5.988 5.988h12.349a3.33 3.33 0 0 1 3.327 3.327 3.33 3.33 0 0 1-3.327 3.327H3.357a36.98 36.98 0 0 1 4.405-25.284zM3.929 49.237h29.902a5.99 5.99 0 0 0 5.988-5.988 5.99 5.99 0 0 0-5.988-5.988H21.481a3.33 3.33 0 0 1-3.327-3.327 3.33 3.33 0 0 1 3.327-3.327h6.175a5.99 5.99 0 0 0 5.988-5.988 5.99 5.99 0 0 0-5.988-5.988H9.398C20.912 2.105 43.474-2.28 60.339 8.73c-1.942 1.026-3.152 3.047-3.141 5.243.004.879-.342 1.723-.961 2.347s-1.46.976-2.339.98H46.18a5.99 5.99 0 0 0-5.988 5.988 5.99 5.99 0 0 0 5.988 5.988h1.544c.879.004 1.72.356 2.339.98s.965 1.468.961 2.347a5.99 5.99 0 0 0 5.962 5.988h20.28c.143 3.586-.243 7.173-1.144 10.646H50.837c-1.585.004-3.103.636-4.221 1.759s-1.744 2.644-1.741 4.229c.004.883-.346 1.732-.97 2.356s-1.473.974-2.356.97h-7.718a5.92 5.92 0 0 0-4.218 1.757 6 6 0 0 0 4.218 10.22h1.544c.879.004 1.72.356 2.339.98s.965 1.468.961 2.347v3.327C22.182 76.59 8.044 65.219 3.929 49.237zm71.527 27.945c-10.513-.386-17.486-4.099-18.218-4.099-1.025 0-6.148 3.699-15.969 3.992v-3.22a5.99 5.99 0 0 0-5.895-5.988h-1.544a3.33 3.33 0 0 1-3.327-3.327 3.33 3.33 0 0 1 3.327-3.327h7.718a5.99 5.99 0 0 0 5.962-5.988 3.33 3.33 0 0 1 3.3-3.327h24.486a36.97 36.97 0 0 1-5.323 10.074 1.33 1.33 0 0 0-.24.985c.745 4.352 2.276 10.02 5.722 14.226h0z" fill="#000"/></svg>