<svg xmlns="http://www.w3.org/2000/svg" viewBox="0 0 84 81">
    <path fill="#00C3FF" d="M50 63l-13-5-9 3-10-3-13 5a6 6 0 0 0-4 5v11h53V68a6 6 0 0 0-4-5z"></path>
    <path fill="#00AAF0" d="M52 64a6 6 0 0 1 2 4v11H44v-5l2-4 6-6z"></path>
    <path fill="#5A4146" d="M44 26V13a3 3 0 0 0-3-3H23c-7 0-12 6-12 13v8l1 2v2h31v-1-1l1-2v-5z"></path>
    <path fill="#694B4B" d="M18 16a6 6 0 0 0 7 7l1 12h17v-1-1l1-2V13a3 3 0 0 0-3-3H25a6 6 0 0 0-7 6z"></path>
    <path fill="#E6AF78" d="M18 47h19v14H18z"></path>
    <path fill="#D29B6E" d="M18 54a20 20 0 0 0 10 2l9-2v-7H18v7z"></path>
    <path d="M28 61l-5 5a2 2 0 0 1-3 0l-5-7 2-3a2 2 0 0 1 2 0l9 5zm0 0l4 5a2 2 0 0 0 3 0l5-7-1-3a2 2 0 0 0-3 0l-8 5z" fill="#00AAF0"></path>
    <path fill="#F0C087" d="M28 52c-9 0-16-7-16-16v-1l3-2a5 5 0 0 0 2-4v-5s12-5 21 3v2l2 4 3 2v1c0 9-7 16-15 16z"></path>
    <path fill="#00AAF0" d="M3 64a6 6 0 0 0-2 4v11h10v-5l-2-4-6-6z"></path>
    <path fill="#E6AF78" d="M24 28c3-1 9-1 14 1v-2c-9-8-21-3-21-3v5l-2 4-3 2v1c0 8 6 15 14 16a15 15 0 0 1-5-11V31a3 3 0 0 1 3-3z"></path>
    <path fill="#000" d="M18 25h10c4 0 7 1 9 3a1 1 0 1 0 2-2c-5-5-16-4-21-4a3 3 0 0 0-3 3v4a1 1 0 0 0 3 0v-4z"></path>
    <path fill="#000" d="M50 61l-9-3a1 1 0 0 0 0-1l-3-3v-5h1a17 17 0 0 0 5-13v-3a17 17 0 0 0 2-7V10l-2-1H23C15 9 9 15 9 23v3l2 7v3c0 5 2 10 6 13v5l-3 3a1 1 0 0 0 0 1l-9 3a8 8 0 0 0-5 7v11a1 1 0 0 0 3 0V68a5 5 0 0 1 3-4l9-3 4 5a3 3 0 0 0 3 2l2-1 2-3v15a1 1 0 0 0 3 0V64l2 3a3 3 0 0 0 3 1 3 3 0 0 0 2-2l4-5 9 3a5 5 0 0 1 3 4v11a1 1 0 0 0 3 0V68a8 8 0 0 0-5-7zM14 36v-4h-1a14 14 0 0 1-1-6v-3c0-6 5-11 11-11h20v14l-1 6a1 1 0 0 0-1 0v4c0 4-1 8-4 11-3 2-6 4-10 3-8 0-13-7-13-14zm12 17h2c2 0 5 0 7-2v3l-7 5-8-5v-3a16 16 0 0 0 6 2zm-4 12l-5-7 2-1 6 4-3 4zm12 0h-1l-3-4 7-4 1 1-4 7z"></path>
    <path fill="#000" d="M11 72l-2 1v6a1 1 0 0 0 3 0v-6l-1-1zm33 0l-1 1v6a1 1 0 0 0 3 0v-6l-2-1z"></path>
    <path fill="#E2E7F2" d="M80 15H55c-2 0-4 2-4 3v18c0 2 2 3 4 3h3l-2 7 1 1 12-8h11c2 0 4-1 4-3V18c0-1-2-3-4-3z"></path>
    <path fill="#D5DCED" d="M67 37h-2a4 4 0 0 1-4-4V15h11v18a4 4 0 0 1-5 4z"></path>
    <path fill="#000" d="M79 14h-6l-1 1 1 1h6l2 2v18l-2 2H67l-10 7 2-6a1 1 0 0 0 0-1 1 1 0 0 0-1 0h-4l-2-2V18l2-2h6l1-1-1-1h-6c-2 0-4 2-4 4v18c0 2 2 4 4 4h2l-1 6a2 2 0 0 0 0 2 2 2 0 0 0 2 0l11-8h11c2 0 4-2 4-4V18c0-2-2-4-4-4z"></path>
    <path fill="#F70644" stroke="#000" stroke-width="2" d="M58 5l1-1a11 11 0 0 1 4-2 12 12 0 0 1 5 0l3 2a6 6 0 0 1 1 2l1 3v2a7 7 0 0 1-2 2 9 9 0 0 1-1 2 216 216 0 0 1-3 3l-1 3h-3l-1-3a1 1 0 0 1 0-1l1-1a6 6 0 0 1 1-2l1-1 2-1 1-1a4 4 0 0 0 0-3 3 3 0 0 0-1-1 3 3 0 0 0-1-1 5 5 0 0 0-1 0h-2a7 7 0 0 0-2 1h-2l-1-2zm4 23v-1a3 3 0 0 1 1-1 3 3 0 0 1 2-1 3 3 0 0 1 2 1 3 3 0 0 1 1 4 3 3 0 0 1-2 1h-1-1a3 3 0 0 1-1 0 3 3 0 0 1-1-1 3 3 0 0 1 0-2z"></path>
</svg>
