<svg xmlns="http://www.w3.org/2000/svg" viewBox="0 0 89 80">
    <ellipse cx="27" cy="9" fill="#785550" rx="9" ry="7"></ellipse>
    <path fill="#694B4B" d="M24 9c0-3 2-6 6-7a10 10 0 0 0-3 0c-5 0-9 3-9 7s4 7 9 7h3c-4-1-6-4-6-7z"></path>
    <circle cx="27" cy="28" r="19" fill="#5A4146"></circle>
    <path fill="#694B4B" d="M23 24l2 23 2 1a19 19 0 1 0-3-39c-8 2-9 13-1 15z"></path>
    <path fill="#E6AF78" d="M1 79V69a6 6 0 0 1 4-5l12-6a3 3 0 0 0 2-2v-7h15v7l2 2 12 6a6 6 0 0 1 4 5v10H1z"></path>
    <path fill="#D29B6E" d="M19 55a19 19 0 0 0 15 0v-6H19v6z"></path>
    <path fill="#FFF082" d="M48 64l-9-4a13 13 0 0 1-25 0l-9 4a6 6 0 0 0-4 5v10h51V69a6 6 0 0 0-4-5z"></path>
    <path fill="#ECA858" d="M40 31c-3-2-8-5-17-7l-3 2c-1 2-3 5-7 7l-1 3v1c0 8 6 14 14 15 8 0 15-6 15-15v-2a4 4 0 0 0-1-4z"></path>
    <path fill="#E69A4E" d="M41 34l-1-3c-3-2-8-5-17-7l-3 2-1 1-6 6a3 3 0 0 0-1 3v1c0 7 5 14 13 15a15 15 0 0 1-4-10V32a3 3 0 0 1 2-3c4 0 14 2 18 5z"></path>
    <path d="M4 65a6 6 0 0 0-3 4v10h11v-4a4 4 0 0 0-2-4l-6-6zm46 0a6 6 0 0 1 2 4v10H41v-4l2-4 7-6z" fill="#FFDC64"></path>
    <path fill="#000" d="M49 62l-13-5a2 2 0 0 1-1-1v-5a16 16 0 0 0 7-9 21 21 0 0 0 5-14c0-7-4-14-10-18V9c0-5-5-9-10-9-6 0-11 4-11 9v1a21 21 0 0 0-5 32 16 16 0 0 0 7 9v5l-1 1-13 5a7 7 0 0 0-4 7v10a1 1 0 0 0 3 0V69a5 5 0 0 1 2-4l8-4a15 15 0 0 0 14 9 15 15 0 0 0 13-9l8 4a5 5 0 0 1 2 4v10a1 1 0 1 0 3 0V69a7 7 0 0 0-4-7zM19 9c0-3 3-6 8-6s7 3 7 6a21 21 0 0 0-7-1l-8 1zm-6 28v-1l1-1c2-1 4-3 5-6a1 1 0 1 0-3-1c0 2-2 4-3 4-2 1-3 2-3 4a18 18 0 0 1-1-8 18 18 0 1 1 34 8v-1l-2-5c-3-2-9-6-20-8a1 1 0 1 0-1 3c11 1 16 5 19 7a3 3 0 0 1 1 3v2a13 13 0 0 1-27 0zm14 30a12 12 0 0 1-11-7l2-1a4 4 0 0 0 3-3v-4a16 16 0 0 0 6 1 16 16 0 0 0 6-1v4l2 3 2 1a12 12 0 0 1-10 7z"></path>
    <path fill="#000" d="M12 71l-2 2v6a1 1 0 0 0 3 0v-6l-1-2zm29 0l-1 2v6a1 1 0 0 0 3 0v-6l-2-2z"></path>
    <path fill="#E2E7F2" d="M83 15H56c-2 0-4 2-4 4v21c0 2 2 3 4 3h4l-2 9 1 1 12-10h12c2 0 4-1 4-3V19c0-2-2-4-4-4z"></path>
    <g transform="translate(58 7)">
        <path fill="#ECF0FA" d="M24 11a14 14 0 0 0-1-6H2a14 14 0 0 0-2 6c0 7 6 13 12 13 7 0 12-6 12-13z"></path>
        <ellipse cx="12" cy="11" fill="#FFDC64" rx="9" ry="10"></ellipse>
        <ellipse cx="12" cy="11" fill="#FFF082" rx="5" ry="6"></ellipse>
        <path fill="#AFB9D2" d="M9 19v5l1 1h4l1-1v-5H9z"></path>
        <path fill="#959CB5" d="M9 19v5l1 1h2v-6H9z"></path>
        <path fill="#000" d="M8 20v4l2 2h1l1 1 1-1h1c2 0 2-1 2-2v-4c4-2 6-5 6-9 0-6-4-11-10-11-5 0-9 5-9 11 0 4 2 7 5 9zm3-7h3l-2 6-1-6zm3 11h-4v-3a9 9 0 0 0 4 0v3zM12 2c4 0 8 4 8 9 0 3-2 6-5 8l1-8v-1h-2v1h-4v-1H9l-1 1 2 8c-3-2-5-5-5-8 0-5 3-9 7-9z"></path>
    </g>
    <path fill="#000" d="M83 14l-1 1 1 2c2 0 3 1 3 2v21c0 1-1 2-3 2H71h-1l-11 9 2-7v-1a1 1 0 0 0-1-1h-4l-2-2V19l2-2 1-2-1-1c-3 0-5 3-5 5v21c0 2 2 5 5 5h2l-1 7a2 2 0 0 0 0 2 2 2 0 0 0 2-1l12-8h12c3 0 5-3 5-5V19c0-2-2-5-5-5z"></path>
    <path d="M75 8l1-1 2-2a1 1 0 1 0-1-1l-2 2a1 1 0 0 0 0 2zm-6-3l1-1V1a1 1 0 1 0-2 0v3l1 1zm-7 2a1 1 0 0 0 2 0 1 1 0 0 0 0-1l-2-2a1 1 0 0 0-2 1l2 2z" fill="#202121"></path>
</svg>
