<svg xmlns="http://www.w3.org/2000/svg" viewBox="0 0 72 80">
    <circle cx="35.6" cy="44.4" r="34.5" fill="#87DCFF"></circle>
    <path fill="#00C3FF" d="M46.9 67.6A34.5 34.5 0 0 1 17.5 15 34.5 34.5 0 1 0 65 62.5a34.3 34.3 0 0 1-18.1 5.1z"></path>
    <path fill="#AFD755" d="M6.8 63.6l1-8.8A2.2 2.2 0 0 0 7 53l-6-5.6a34.3 34.3 0 0 0 5.7 16.2z"></path>
    <path fill="#BEE86E" d="M35.6 10h-.3l-1.9 8H26c-.5 0-1 .3-1 .9l-.7 4.6-3.4.2a1.1 1.1 0 0 0-1 1l-.2 3a1.1 1.1 0 0 0 1.2 1.1l3.2-.2 2.7-3.7 7.8-.3 1.7 2.6a2.2 2.2 0 0 0 2.4.9l2.9-.8.7-1.9a2.2 2.2 0 0 1 1.6-1.4l1.4-.3a1.6 1.6 0 1 1 .5 3.1l-4.2.5v1.4l3.3 1.8-1.1 1.7H33.3l-9.2-3.6-8.2 7.6a2.2 2.2 0 0 0-.6 2.1l1.5 6.2a2.2 2.2 0 0 0 2 1.7l8.4.5a3.3 3.3 0 0 1 3.2 3l.7 7.7 2.8 7.4a3.2 3.2 0 0 0 5.2 1.2l7.5-6.8a3.3 3.3 0 0 0 1.1-2l.8-5.5 5.4-6a1.1 1.1 0 0 0-.6-1.9l-1-.1.1-.4 7.6-5-1.7-2.5 3.1-.4a2.2 2.2 0 0 1 2.2 1.2l2.3 4.1 1.5 2.9c.3.5.7.8 1.3 1l1.4.6v-.8C70 25.4 54.6 10 35.6 10z"></path>
    <path fill="#000" d="M60.7 19.3a35.3 35.3 0 0 0-50.3 0 35.3 35.3 0 0 0 0 50.3 35.3 35.3 0 0 0 50.3 0 35.3 35.3 0 0 0 0-50.3zm-54 35.4l-.6 5.7A33 33 0 0 1 2.5 50l3.9 3.7c.3.3.4.6.3 1zm52.5 13.4a33.3 33.3 0 0 1-47.3 0 33.8 33.8 0 0 1-4-4.8l1-8.4a3.3 3.3 0 0 0-1-2.7l-5.7-5.5a34.2 34.2 0 0 1-.1-2.3 33.3 33.3 0 0 1 23.7-32l-.7 1.8a1 1 0 1 0 2 .7l1.2-3.1a33.6 33.6 0 0 1 5.3-.8L32 16.8H26a2.2 2.2 0 0 0-2 2l-.6 3.7-2.5.1a2.1 2.1 0 0 0-2 2l-.2 3A2.2 2.2 0 0 0 21 30h.2l-2.1 2a1 1 0 1 0 1.4 1.5l3.9-3.6 8.5 3.4h10.9c.3 0 .6-.1.8-.4l1.2-1.8a1 1 0 0 0-.4-1.5l-2.6-1.3 3.1-.4a2.6 2.6 0 0 0 2.3-2.7 2.6 2.6 0 0 0-1-1.9 2.6 2.6 0 0 0-2-.5l-1.5.3c-1 .2-2 1-2.4 2l-.5 1.4-2.4.7a1.2 1.2 0 0 1-1.3-.5L35.5 24a1 1 0 0 0-1-.4l-7.7.3a1 1 0 0 0-.9.4l-2.3 3.3-2.7.2h-.1l.1-3v-.1l3.5-.2c.5 0 .9-.4 1-.9L26 19h6.1l5.8-1.7c.3 0 .6-.3.7-.6l.7-2a1 1 0 0 0-2-.8l-.5 1.6-2.4.6 1.3-5.1A33.2 33.2 0 0 1 69 43.6a1.2 1.2 0 0 1-.7-.5l-1.5-2.9a1 1 0 1 0-1.8 1l1.5 2.9a3.3 3.3 0 0 0 1.9 1.5l.6.2a33.2 33.2 0 0 1-9.8 22.3zM33 30c.5 0 1-.4 1-.9l1-2.3.5 1A3.3 3.3 0 0 0 39 29l1.5-.4c0 .4.2.8.6 1l2.3 1.1-.2.4h-9.7L25.8 28l1.5-2.2 5.7-.2L32 29c0 .6.4 1 1 1zm10.3-4v-.2c.2-.4.5-.7 1-.8l1.3-.2a.5.5 0 0 1 .6.4.5.5 0 0 1-.4.6l-2.5.3z"></path>
    <path fill="#000" d="M54.2 57.3a1 1 0 0 0-1.5.1l-3 3.5a1 1 0 0 0 1.7 1.3l3-3.4a1 1 0 0 0-.2-1.5zm7.1-22.9l-5 .6-3.3-2.8a1 1 0 0 0-1.5.2 1 1 0 0 0 .2 1.3l3.5 3.2c.2.2.5.3.8.2l1.8-.2.8 1-6.7 4.5a.4.4 0 0 1-.5-.1l-4.4-7a1 1 0 0 0-1.5-.2 1 1 0 0 0-.2 1.4L50 44c.1.3.4.5.7.5l2.4.4v.1l-5.4 6a1 1 0 0 0-.2.5l-.8 5.5a2.3 2.3 0 0 1-.8 1.4l-7.5 6.8c-.4.4-1 .6-1.5.6a2.2 2.2 0 0 1-2-1.4l-2.8-7.3-.7-7.5a4.4 4.4 0 0 0-4.1-4l-8.4-.4a1.2 1.2 0 0 1-1.1-1l-1.5-6.1c-.1-.4 0-.9.3-1.2l.8-.7c.5-.4.5-1 .2-1.5a1 1 0 0 0-1.5 0l-.9.7a3.3 3.3 0 0 0-1 3.2l1.6 6.2a3.3 3.3 0 0 0 3 2.4l8.4.5c1.1 0 2 1 2.2 2l.7 7.8v.3L33 65a4.3 4.3 0 0 0 4 2.8c1 0 2-.4 2.8-1.1l7.5-6.9a4.4 4.4 0 0 0 1.4-2.6l.8-5.2 5.2-5.7a2.2 2.2 0 0 0-.3-3.1l6.2-4.2.3-.3a1 1 0 0 0 0-1.2l-.7-1 1.3-.1c.5 0 1 .2 1.2.6a1 1 0 0 0 1.6.3c.4-.3.5-.9.2-1.3a3.3 3.3 0 0 0-3.2-1.7zM52.5 29a1 1 0 1 0 1.7-1.2L52 24.3a1 1 0 0 0-1.7 1.2l2.3 3.4z"></path>
    <g transform="translate(2.4 38)">
        <path stroke="#556080" stroke-linecap="round" stroke-width="3" d="M4.2 8.4v5.5"></path>
        <circle cx="4.2" cy="4.2" r="4.2" fill="#DD352E"></circle>
        <circle cx="2.7" cy="3" r="1" fill="#F76363"></circle>
    </g>
    <g transform="translate(28.4 33.2)">
        <path stroke="#556080" stroke-linecap="round" stroke-width="3" d="M4.2 8.4v5.5"></path>
        <circle cx="4.2" cy="4.2" r="4.2" fill="#DD352E"></circle>
        <circle cx="2.7" cy="3" r="1" fill="#F76363"></circle>
    </g>
    <g transform="translate(38.5)">
        <path stroke="#556080" stroke-linecap="round" stroke-width="3" d="M4.2 8.4v5.5"></path>
        <circle cx="4.2" cy="4.2" r="4.2" fill="#DD352E"></circle>
        <circle cx="2.7" cy="3" r="1" fill="#F76363"></circle>
    </g>
</svg>
