<svg xmlns="http://www.w3.org/2000/svg" viewBox="0 0 58 80">
    <g fill="none">
        <path fill="#F0C087" d="M53 6H5a4 4 0 0 0-4 4v65a4 4 0 0 0 4 4h48a4 4 0 0 0 3-4V10a4 4 0 0 0-3-4z"></path>
        <path fill="#FFF" d="M6 11h45v60H6z"></path>
        <path fill="#C7CFE2" d="M38 4h-5a5 5 0 0 0-9 0h-4a3 3 0 0 0-3 2v5h23V6a3 3 0 0 0-2-2z"></path>
        <g fill="#B4E66E" transform="translate(13 35)">
            <circle cx="3" cy="3" r="3"></circle>
            <circle cx="3" cy="15" r="3"></circle>
            <circle cx="3" cy="26" r="3"></circle>
        </g>
        <path fill="#FF507D" d="M19 24h-5l-2-2v-5l2-1h5l1 1v5l-1 2z"></path>
        <path fill="#000" d="M53 5H41a4 4 0 0 0-3-2h-4a6 6 0 0 0-5-3 6 6 0 0 0-5 3h-4a4 4 0 0 0-4 2H5a5 5 0 0 0-5 5v65a5 5 0 0 0 5 5h48a5 5 0 0 0 4-5V10a5 5 0 0 0-4-5zM20 5h4l1-1a4 4 0 0 1 7 0l1 1h5l1 1v4H19V6a1 1 0 0 1 1-1zm35 70a3 3 0 0 1-2 3H5a3 3 0 0 1-3-3V10a3 3 0 0 1 3-3h11v4l1 1h23l1-1V7h12a3 3 0 0 1 2 3v65z"></path>
        <path fill="#000" d="M29 7a1 1 0 0 0 0-2l-1 1 1 1zm22 3h-6a1 1 0 0 0 0 2h5v58H7V12h5a1 1 0 0 0 0-2H6l-1 1v60l1 1h45l1-1V11l-1-1z"></path>
        <path fill="#000" d="M16 35a4 4 0 0 0-3 4 4 4 0 0 0 3 3 4 4 0 0 0 4-3 4 4 0 0 0-4-4zm0 5a1 1 0 0 1-1-1 1 1 0 1 1 1 1zm0 6a4 4 0 0 0-3 4 4 4 0 0 0 3 4 4 4 0 0 0 4-4 4 4 0 0 0-4-4zm0 5a1 1 0 0 1-1-1 1 1 0 1 1 1 1zm0 7a4 4 0 0 0-3 3 4 4 0 0 0 3 4 4 4 0 0 0 4-4 4 4 0 0 0-4-3zm0 5a1 1 0 0 1-1-2 1 1 0 1 1 1 2zm8-26h11a1 1 0 0 0 0-2H24a1 1 0 0 0 0 2zm20 3H24a1 1 0 0 0 0 2h20a1 1 0 1 0 0-2zm-20 9h11a1 1 0 0 0 0-3H24a1 1 0 0 0 0 3zm20 2H24a1 1 0 0 0 0 3h20a1 1 0 1 0 0-3zm-20 9h11a1 1 0 0 0 0-2H24a1 1 0 0 0 0 2zm0 5h20a1 1 0 0 0 0-2H24a1 1 0 0 0 0 2zm0-46h20a1 1 0 0 0 0-3H24a1 1 0 0 0 0 3zm20 9H14a1 1 0 0 0 0 2h30a1 1 0 1 0 0-2zm-20-4h3a1 1 0 0 0 0-3h-3a1 1 0 0 0 0 3zm12 0a1 1 0 0 0 0-3h-3a1 1 0 0 0 0 3h3zm-23-7v5l1 2h5l1-2v-5l-1-1h-5l-1 1zm2 2h3v2h-3v-2z"></path>
    </g>
</svg>
