<svg xmlns="http://www.w3.org/2000/svg" viewBox="0 0 80 80">
    <path fill="#B3DCF4" d="M50.3 4a29 29 0 016.6 8c1.4 2.5 2.6 5.2 3.6 8.2 3.6-.7 8-2.1 10.7-3.2-4.8-6.4-12.1-13-20.9-13z"/>
    <path fill="#6CB8DD" d="M22 20.6A112 112 0 0038.7 22V2.6c-5 .5-9.7 4.3-13.4 10.6a42.3 42.3 0 00-3.3 7.4z"/>
    <path fill="#B3DCF4" d="M61.3 22.6c1.4 5 2.2 10.5 2.3 16.1h13.8a37.2 37.2 0 00-6-19 56.4 56.4 0 01-10.1 2.9z"/>
    <path d="M10 17.5c2.7 1 6 2 9.5 2.6 1-2.9 2.2-5.6 3.6-8.1 2-3.4 4.1-6 6.6-8-8 2.3-14.8 7-19.7 13.5zm6.4 21.2c.1-5.6 1-11.1 2.3-16.1a59 59 0 01-10.2-3 37.2 37.2 0 00-6 19.1h14z" fill="#6CB8DD"/>
    <path d="M63.6 41.3a69.3 69.3 0 01-.1 2.5c4.2.6 7.4 4.2 7.4 8.5v2.2a3.6 3.6 0 01-2 6.4 6.6 6.6 0 01-2.9 3.6v.7l1.3.5a37.3 37.3 0 0010.2-24.4h-14zm-12.8 4.4v3a4.1 4.1 0 011.6 3.2c0 2.3-1.8 4.1-4 4.2a8 8 0 01-3.7 4.6V62l6.5 2.7c.8.3 2 1 3 2l4-1.5v-.7a6.6 6.6 0 01-3-3.6 3.6 3.6 0 11-2-6.4v-2.2c0-4.4 3.5-8 7.8-8.5a67.1 67.1 0 000-2.5H49.9c.6 1.3 1 2.8 1 4.4z" fill="#96CEEE"/>
    <path d="M31.9 38.7h.1a10.3 10.3 0 016.7-3.3V24.5A114 114 0 0121.2 23 61 61 0 0019 38.7h13zm-5 13.6v2.2a3.6 3.6 0 01-2 6.4 6.6 6.6 0 01-3 3.6v.7l3.9 1.6a8 8 0 013-2.1l6.7-2.7v-1.3a8 8 0 01-3.7-4.6 4.1 4.1 0 11-2.4-7.5v-3c0-1.5.3-3 1-4.3H18.9l.1 2.5c4.4.4 7.9 4 7.9 8.5z" fill="#6CB8DD"/>
    <path d="M41.3 2.6V22c5.9 0 11.6-.6 16.7-1.4-1-2.7-2-5.1-3.3-7.4C51 7 46.3 3.2 41.3 2.6zm0 21.9v10.9a10.3 10.3 0 016.8 3.3h13c-.2-5.5-1-10.8-2.3-15.7-5.4 1-11.3 1.4-17.5 1.5z" fill="#B3DCF4"/>
    <path fill="#6CB8DD" d="M12.8 65.8l1.4-.6v-.7a6.6 6.6 0 01-3-3.6 3.6 3.6 0 11-2-6.4v-2.2c0-4.3 3.2-7.8 7.3-8.4a68.9 68.9 0 010-2.6h-14a37.3 37.3 0 0010.3 24.5z"/>
    <path fill="#B3DCF4" d="M40.7 1a37 37 0 00-8.3 1A37.9 37.9 0 0023 26.8a38 38 0 0047.2 36.9c5.6-6.6 9-15.2 9-24.5 0-21-17.3-38.1-38.6-38.1z"/>
    <path d="M18.3 45.9h-.6a6.4 6.4 0 00-6.4 6.4v1.4l.6-.2h.2c.1 0 5.5 0 7.9-3.4a.8.8 0 01.8-.3c.3 0 .6.3.7.6 0 .1.6 2.6 2.6 3v.1l.6.2v-1.4a6.4 6.4 0 00-6.4-6.4zm44.1 0h-.6a6.4 6.4 0 00-6.4 6.4v1.4l.6-.2h.1a.9.9 0 01.1 0s5.4 0 7.8-3.4a.9.9 0 01.9-.3c.3 0 .6.3.6.6 0 .1.7 2.6 2.7 3v.1l.6.2v-1.4a6.4 6.4 0 00-6.4-6.4zm-22-8.5h-.7a8.2 8.2 0 00-8.2 8.3v2.5l.7-.6v-.1h.1l.1-.1h.2a.9.9 0 01.1 0c.1 0 6.9-.1 10-4.4a.9.9 0 01.8-.3c.3 0 .6.3.7.6 0 .2.8 3.5 3.4 4h.1l.1.1h.1a.7.7 0 010 .1l.8.6v-2.4c0-4.6-3.7-8.3-8.2-8.3z" fill="#694B4B"/>
    <path d="M13.5 52.3c0-3.3 2.5-6 5.6-6.4a6.4 6.4 0 00-.8 0h-.6a6.4 6.4 0 00-6.4 6.4v1.4l.6-.2h.2a11.6 11.6 0 001.4-.2v-1zm44 0c0-3.3 2.5-6 5.7-6.4a6.4 6.4 0 00-.8 0h-.6a6.4 6.4 0 00-6.4 6.4v1.4l.6-.2h.1a.9.9 0 01.1 0l1.4-.2v-1zm-23.8-6.6c0-4.3 3.3-7.9 7.5-8.2a8.3 8.3 0 00-.7 0h-.8a8.2 8.2 0 00-8.2 8.2v2.5l.7-.6v-.1h.1l.1-.1h.2a.9.9 0 01.1 0l1-.1v-1.6z" fill="#563B3B"/>
    <path fill="#FBCB99" d="M62.7 65h-1.9l-.5-.1v1.5l1.8 1.7 1.8-1.9V65h-1.2z"/>
    <path fill="#E9B280" d="M54.7 56.2h-.2v.1a1.5 1.5 0 00.2 2.2l.7.5v-3l-.6.2a.8.8 0 01-.1 0z"/>
    <path d="M64.7 52.6l-.3-.4-.4.3c-2.2 1.9-5 2.4-6.5 2.6H57v3.7a4.5 4.5 0 004.4 4.5h1.2a4.5 4.5 0 004.5-4.5V55h-.3a5.5 5.5 0 01-2.2-2.3zm-44.1 0l-.3-.4-.3.3a12.7 12.7 0 01-6.6 2.6H13v3.7a4.5 4.5 0 004.5 4.5h1.1a4.5 4.5 0 004.5-4.5V55h-.2c-1-.5-1.7-1.2-2.3-2.3zm-2 12.4h-1.9l-.4-.1v1.5l1.7 1.7 1.8-1.9V65h-1.2zm7-8.8h-.2l-.6-.2v3l.6-.5a1.5 1.5 0 00.3-2.2l-.1-.1zm44 0h-.1a.8.8 0 01-.1 0l-.6-.2v3l.7-.5a1.5 1.5 0 00.2-2.2v-.1zM43.3 45.7l-.3-.5-.4.4A15.4 15.4 0 0134 49h-.4v4.8c0 3.2 2.6 5.8 5.8 5.8h1.4c3.2 0 5.8-2.6 5.8-5.8v-5l-.2-.1c-1.6-.7-2.6-2-3.1-3z" fill="#FBCB99"/>
    <path d="M59 58.8v-3.7h.3c1.3-.2 3.7-.6 5.7-2a6.7 6.7 0 01-.3-.5l-.3-.4-.4.3c-2.2 1.9-5 2.4-6.5 2.6H57v3.7a4.5 4.5 0 004.4 4.5H63a4.5 4.5 0 01-4-4.5zm-44.1 0v-3.7h.3a13 13 0 005.7-2 6.7 6.7 0 01-.3-.5l-.3-.4-.3.3a12.7 12.7 0 01-6.6 2.6H13v3.7a4.5 4.5 0 004.5 4.5H19a4.5 4.5 0 01-4.1-4.5zm20.5-5V49h.4a17 17 0 007.8-2.7 8 8 0 01-.3-.6l-.3-.5-.4.4A15.4 15.4 0 0134 49h-.4v4.8c0 3.2 2.6 5.8 5.8 5.8H41a5.8 5.8 0 01-5.6-5.8z" fill="#EDBA89"/>
    <path fill="#FBCB99" d="M49.6 50.3h-.2a.8.8 0 01-.4-.2l-.7-.5V54l.5-.1a2 2 0 001.5-2 2 2 0 00-.6-1.5h-.1z"/>
    <path fill="#E9B280" d="M30.7 50.3h-.2v.2a2 2 0 00.9 3.4l.5.1v-4.5l-.7.6a.8.8 0 01-.5.2z"/>
    <path fill="#FBCB99" d="M40.8 61.3h-2.7l-.4-.2v2.3l2.4 2.3 2.4-2.5v-2h-.4a7.6 7.6 0 01-1.3.1z"/>
    <path d="M62.2 66.4V65h-1.4l-.5-.1v1.5l1.8 1.7.9-1-.8-.7zm-44 0V65h-1.5l-.4-.1v1.5l1.7 1.7 1-1-.9-.7zm21.3-3v-2h-.1l-1.3-.2h-.4v2.2l2.4 2.3.9-.9-1.5-1.4z" fill="#EDBA89"/>
    <path fill="#E9B280" d="M10.6 56.2h-.1l-.1.1a1.5 1.5 0 00.3 2.2l.6.5v-3l-.5.2a.8.8 0 01-.2 0z"/>
    <path d="M50.5 66.6L44 64.1l-3.3 3.4a.8.8 0 01-1.2 0l-3.3-3.1-.2-.3-6.4 2.5c-.2.1-4.1 1.5-4.1 6.5v5.8h29v-5.8c0-5-3.9-6.4-4-6.5zM18.6 70a.9.9 0 01-.6.2.8.8 0 01-.6-.2l-2.7-2.6-5 2c-.2 0-3.2 1.1-3.2 5V78h17.3v-4.8a9 9 0 01.9-4l.2-.4-3.7-1.5-2.6 2.7zm51.8-.7l-5.1-2-2.6 2.7a.9.9 0 01-.6.2.8.8 0 01-.6-.2l-2.7-2.7-3.6 1.5.2.4a9 9 0 01.8 4V78h17.3v-3.7c0-3.8-3-5-3.1-5z" fill="#6598CB"/>
    <path d="M31.6 66.7l5-2-.4-.3-.2-.3-6.4 2.5c-.2.1-4.1 1.5-4.1 6.5v4.8h2v-4.8c0-5 3.9-6.4 4-6.4zm-20 2.5a1 1 0 00.1 0l3.6-1.4-.6-.5-5 2c-.2 0-3.2 1.1-3.2 5v3.6h2v-3.7c0-3.8 3-5 3.2-5zm45.8-.1l-.2-.4 2.2-.9-.6-.5-3.6 1.4.2.4a9 9 0 01.8 4v4.8h2v-4.8a9 9 0 00-.8-4z" fill="#4982AA"/>
    <path fill="#202121" d="M71 67.3l-1.2-.6A39.8 39.8 0 0080 40a40 40 0 00-7-22.5 1.3 1.3 0 00-.1-.3 40.1 40.1 0 00-7-7.7 1.3 1.3 0 10-1.6 2 37.6 37.6 0 015.7 6c-2.7 1-5.9 2-9.5 2.7-1-3-2.2-5.7-3.6-8.2a29 29 0 00-6.6-8A37.2 37.2 0 0161 9a1.3 1.3 0 101.4-2.2 39.8 39.8 0 00-50.7 5 39.7 39.7 0 00-1.4 55l-1.3.4c-.5.2-4.6 1.8-4.6 7v4.5c0 .7.6 1.3 1.3 1.3h24.1a1.3 1.3 0 100-2.5h-4V73c0-4.7 3.7-6 3.9-6l6.2-2.5 3.3 3.2c.2.3.6.4.9.4.3 0 .7-.1.9-.4l3.1-3.2 6.2 2.4c.2.1 3.8 1.4 3.8 6v4.5H33.7a1.3 1.3 0 100 2.5h40.6a1.3 1.3 0 001.3-1.3v-4.5c0-5.1-4-6.8-4.5-7zm-5-2v-.8a6.6 6.6 0 003-3.6 3.6 3.6 0 102-6.4v-2.2c0-4.3-3.3-8-7.5-8.5v-2.5h14a37.3 37.3 0 01-10.2 24.4l-1.3-.5zm-11.5-8c0-.3 0-.5.2-.7h.3v1.6a1 1 0 01-.5-.9zm-13.7 2h-1.4a5.4 5.4 0 01-5.4-5.5v-4.4c2-.2 6-1 9-3.5a6.9 6.9 0 003.2 3.2v4.7a5.4 5.4 0 01-5.4 5.4zm-10.6-7.4c0-.4.2-.8.5-1.1.3 0 .6-.2.8-.3v3a1.6 1.6 0 01-1.3-1.6zM32 38.7H19A61 61 0 0121.2 23c5.4 1 11.4 1.4 17.5 1.5v10.9a10.3 10.3 0 00-6.7 3.3 1.3 1.3 0 00-.1 0zM16.7 65.3l.8.1h1.9v.6L18 67.5l-1.3-1.3v-.9zm2-2.4h-1.2a4 4 0 01-4-4v-3.4a13 13 0 006.7-2.6c.5.8 1.3 1.7 2.5 2.3v3.6a4 4 0 01-4 4zm-8.3-5.6c0-.3.1-.5.3-.7h.2v1.6a1 1 0 01-.5-.9zm14.8-.8h.2a1 1 0 01-.2 1.7v-1.7zm-.9-3.4c-1.8-.4-2.4-2.8-2.4-2.8a1.3 1.3 0 00-2.3-.5C17.3 53 12.2 53 12.2 53h-.3l-.1.1v-.8a6 6 0 016-6h.5a6 6 0 016 6v.8zM2.5 38.7a37.2 37.2 0 016-19 70 70 0 0010.2 2.9c-1.4 5-2.2 10.5-2.3 16.1H2.6zm45.8 7v1.5a1.2 1.2 0 00-.1 0 .8.8 0 00-.2-.1l-.1-.1a1.3 1.3 0 00-.1 0c-2.5-.6-3.2-3.7-3.2-3.8a1.3 1.3 0 00-2.3-.4c-3 4-9.5 4.1-9.6 4.1H32.4l-.2.1-.1.1H32v.1h-.1v-1.5c0-4.3 3.5-7.8 7.8-7.8h.8c4.3 0 7.8 3.5 7.8 7.8zM38.7 2.6V22c-5.9 0-11.6-.6-16.7-1.4 1-2.7 2-5.1 3.3-7.4C29 7 33.7 3.2 38.7 2.6zm10 47.9l.7.2a1.6 1.6 0 01-.7 2.8v-3zm-.6-11.8a10.3 10.3 0 00-6.8-3.3V24.5c6.2 0 12.1-.6 17.5-1.5A61 61 0 0161 38.7H48zm13.7 7.6h.6a6 6 0 016 6v.8h-.1c-1.8-.4-2.4-2.8-2.4-2.8a1.3 1.3 0 00-2.2-.5C61.4 53 56.3 53 56.2 53H56l-.1.1v-.8a6 6 0 015.9-6zm7.5 10.2h.1a1 1 0 01-.1 1.7v-1.7zm-11.8-1a13 13 0 006.8-2.6 6 6 0 002.4 2.3v3.6a4 4 0 01-4 4h-1.2a4 4 0 01-4-4v-3.3zm3.3 9.9h2.7v.7L62 67.5l-1.3-1.3v-.8zm10.7-45.8a37.4 37.4 0 016 19.1h-14c0-5.6-.8-11.1-2.2-16.1 3.9-.8 7.3-1.8 10.2-3zm-16.8-6.4c1.3 2.3 2.4 4.7 3.3 7.4A112 112 0 0141.3 22V2.6c5 .5 9.7 4.3 13.4 10.6zM29.7 4a29 29 0 00-6.6 8 45.1 45.1 0 00-3.6 8.1c-3.6-.7-6.8-1.5-9.5-2.6A37.6 37.6 0 0129.7 4zM2.6 41.3h13.8l.1 2.6a8.5 8.5 0 00-7.3 8.4v2.2a3.6 3.6 0 002 6.4 6.6 6.6 0 003 3.6v.7l-1.4.6A37.3 37.3 0 012.5 41.3zm12.8 36.2H7v-3.3c0-3.5 2.8-4.5 2.9-4.6l4.8-1.9 2.6 2.5c.2.2.5.4.8.4.4 0 .7-.2 1-.4l2.3-2.5 3 1.2c-.6 1.1-1 2.5-1 4.2v4.4h-7.9zm13.4-12.8c-.8.3-2 1-3 2l-3.9-1.5v-.7a6.6 6.6 0 003-3.6 3.6 3.6 0 102-6.4v-2.2c0-4.5-3.5-8.1-7.9-8.5a66.5 66.5 0 010-2.5h11.4a10.3 10.3 0 00-1 4.4v3a4.1 4.1 0 00-1.7 3.2 4.2 4.2 0 004.1 4.2 8 8 0 003.8 4.6V62l-6.8 2.7zm11.3.4l-2-1.9v-1.6l1.3.1H42V63l-2 2.1zm11-.4L44.8 62v-1.3a8 8 0 003.7-4.6 4.1 4.1 0 102.4-7.5v-3c0-1.5-.4-3-1-4.3h11.3l-.1 2.5c-4.3.4-7.7 4-7.7 8.5v2.2a3.6 3.6 0 002 6.4 6.6 6.6 0 003 3.6v.7l-4 1.6a8 8 0 00-3.1-2.1zm22 12.8H56.7V73a9 9 0 00-1-4.2l3-1.2 2.5 2.5c.3.2.6.4.9.4.4 0 .7-.2 1-.4l2.3-2.5 4.8 1.9c.1 0 2.9 1 2.9 4.6v3.3z"/>
    <path d="M72.8 54.5v-2.2a8.5 8.5 0 00-2.3-5.8 8.6 8.6 0 00-2-1.6c-2.4-1.3-5-1-5-1 4.2.5 7.4 4 7.4 8.4v2.2a3.6 3.6 0 01-2 6.4 6.6 6.6 0 01-2.9 3.6v.7l1.3.5.6-.6v-.6a6.6 6.6 0 001.4-1.1l.9-1.2.6-1.3h.4a37.3 37.3 0 002.7-4.8 3.6 3.6 0 00-1.1-1.6zM53 64.7L46.5 62v-1.3a8 8 0 003.8-4.6 4.1 4.1 0 002.3-.8l.7-.8v-2.2c0-.9.1-1.7.4-2.5a4.2 4.2 0 00-1-1.2v-3c0-1.5-.4-3-1-4.3h-1.9c.6 1.3 1 2.8 1 4.4v3a4.1 4.1 0 011.6 3.2c0 2.3-1.8 4.1-4 4.2a8 8 0 01-3.7 4.6V62l6.5 2.7c.8.3 2 1 3 2l1.4-.5a7.8 7.8 0 00-2.6-1.5zm-23.6-9.5a4.1 4.1 0 01-1-5.4 8.5 8.5 0 00-2.6-4 8.5 8.5 0 00-2.3-1.4c-2.3-.9-4.5-.6-4.5-.6 4.4.4 7.9 4 7.9 8.5v2.2a3.6 3.6 0 01-2 6.4 6.6 6.6 0 01-3 3.6v.7l3.9 1.6.5-.6-2.5-1v-.7a6.6 6.6 0 003-3.6 3.6 3.6 0 003.2-3.6c0-.8-.2-1.5-.6-2zM48 38.7h2a10.4 10.4 0 00-2.2-1.8c-1.4-.9-3.6-1.7-6.5-1.5a10.3 10.3 0 016.8 3.3z" fill="#6CB8DD"/>
</svg>
